<svg version="1.1" xmlns="http://www.w3.org/2000/svg" viewBox="0 0 345.5699836249787 330" width="345.5699836249787" height="330" class="excalidraw-svg">
  <!-- svg-source:excalidraw -->
  
  <defs>
    <style class="style-fonts">
      
    </style>
    
  </defs>
  <g stroke-linecap="round" transform="translate(15.569983624978704 10) rotate(0 160 155)"><path d="M98.89 12.87 C111.65 5.07, 129.64 2.95, 145.26 1.18 C160.88 -0.59, 177.39 -0.77, 192.61 2.26 C207.82 5.28, 222.97 11.92, 236.55 19.32 C250.14 26.72, 262.95 35.59, 274.11 46.66 C285.27 57.73, 296.36 72.11, 303.51 85.77 C310.65 99.42, 314.49 113.9, 316.97 128.59 C319.44 143.27, 320.22 158.88, 318.38 173.86 C316.53 188.85, 312.39 204.48, 305.9 218.49 C299.4 232.51, 289.91 246.43, 279.42 257.95 C268.92 269.48, 256.2 279.76, 242.93 287.64 C229.66 295.53, 215.13 301.53, 199.8 305.26 C184.47 308.99, 166.92 310.76, 150.94 310.04 C134.96 309.32, 118.57 306.33, 103.93 300.93 C89.29 295.54, 75.31 287.04, 63.09 277.68 C50.88 268.31, 39.7 256.99, 30.64 244.75 C21.59 232.51, 13.74 218.76, 8.78 204.23 C3.82 189.7, 1.38 172.89, 0.9 157.56 C0.43 142.22, 1.8 126.91, 5.94 112.24 C10.07 97.57, 17.11 82.39, 25.7 69.54 C34.28 56.69, 44.7 44.88, 57.43 35.12 C70.16 25.37, 93.66 14.86, 102.08 10.99 C110.49 7.12, 106.82 9.54, 107.91 11.9 M120.55 5.79 C134.59 -0.22, 154.13 -0.78, 169.94 -0.08 C185.75 0.62, 200.84 4.89, 215.42 9.99 C230 15.08, 245.1 21.44, 257.42 30.48 C269.74 39.52, 280.34 51.5, 289.35 64.22 C298.36 76.93, 306.5 91.9, 311.48 106.75 C316.46 121.59, 318.84 138.04, 319.25 153.31 C319.67 168.58, 318.2 183.97, 314 198.36 C309.79 212.75, 302.67 226.92, 294.03 239.65 C285.39 252.38, 274.07 264.84, 262.17 274.76 C250.26 284.67, 236.93 293.5, 222.61 299.15 C208.29 304.8, 192.28 307.46, 176.23 308.65 C160.19 309.85, 141.91 309.48, 126.33 306.35 C110.76 303.21, 96.55 296.9, 82.77 289.84 C69 282.78, 54.54 274.8, 43.69 263.97 C32.84 253.15, 24.53 238.63, 17.66 224.88 C10.79 211.13, 5.18 196.23, 2.47 181.48 C-0.24 166.73, -0.55 151.76, 1.42 136.38 C3.39 121, 7.55 103.53, 14.29 89.23 C21.02 74.92, 31.38 61.9, 41.82 50.55 C52.26 39.2, 63.66 28.58, 76.93 21.12 C90.2 13.67, 113.98 8.26, 121.43 5.84 C128.88 3.41, 120.96 4.48, 121.65 6.58" stroke="none" stroke-width="0" fill="#ffc9c9"/><path d="M230.24 14.76 C244.84 19.07, 258.56 32.37, 269.97 42.83 C281.38 53.3, 290.98 64.49, 298.69 77.56 C306.39 90.64, 312.61 106.15, 316.18 121.29 C319.76 136.43, 321.55 153.33, 320.13 168.37 C318.71 183.42, 313.7 197.73, 307.65 211.56 C301.61 225.4, 293.6 239.23, 283.86 251.39 C274.11 263.56, 262.21 275.91, 249.18 284.56 C236.16 293.22, 220.85 299.12, 205.69 303.3 C190.54 307.48, 173.77 309.75, 158.28 309.62 C142.79 309.49, 127.64 307.12, 112.76 302.53 C97.88 297.94, 81.96 290.77, 69 282.09 C56.05 273.4, 44.84 262.17, 35.02 250.41 C25.2 238.64, 15.76 225.56, 10.08 211.51 C4.4 197.46, 1.76 181.47, 0.92 166.1 C0.07 150.74, 1.67 134.11, 5.01 119.32 C8.36 104.53, 13.14 90.39, 20.97 77.36 C28.81 64.34, 40.42 51.55, 52.04 41.19 C63.66 30.83, 76.64 21.9, 90.7 15.2 C104.75 8.5, 120.78 3.16, 136.36 0.98 C151.94 -1.19, 167.5 -0.86, 184.18 2.16 C200.87 5.17, 227.21 15.4, 236.47 19.05 C245.73 22.7, 241.02 21.82, 239.73 24.05 M226.52 13.68 C240.87 17.31, 253.79 27.83, 265.38 38.09 C276.97 48.36, 288.02 62.35, 296.06 75.26 C304.1 88.18, 309.75 100.83, 313.63 115.58 C317.52 130.33, 319.91 148.31, 319.38 163.76 C318.85 179.22, 315.52 194, 310.45 208.32 C305.38 222.64, 298.29 237.45, 288.95 249.69 C279.62 261.92, 267.64 273.05, 254.43 281.75 C241.23 290.44, 224.6 297.1, 209.75 301.87 C194.9 306.64, 180.64 309.78, 165.33 310.36 C150.02 310.93, 133.34 309.56, 117.89 305.33 C102.44 301.1, 86.13 293.5, 72.63 284.99 C59.13 276.47, 46.93 265.94, 36.88 254.25 C26.82 242.55, 18.34 228.59, 12.31 214.83 C6.29 201.07, 2.38 187.01, 0.72 171.7 C-0.94 156.39, -0.68 138.05, 2.35 122.96 C5.37 107.88, 11.1 94.15, 18.85 81.22 C26.61 68.29, 37.31 56.24, 48.87 45.39 C60.43 34.54, 74.42 23.07, 88.21 16.1 C101.99 9.12, 116.44 6.06, 131.57 3.55 C146.7 1.05, 163.3 -0.69, 178.97 1.08 C194.64 2.85, 218.12 11.35, 225.6 14.16 C233.08 16.97, 225.13 15.74, 223.85 17.93" stroke="#1e1e1e" stroke-width="4" fill="none"/></g><g stroke-linecap="round"><g transform="translate(178.42712648212182 173.57142857142844) rotate(0 -1.071428571429351 -78.92857142857156)"><path d="M0.06 0.29 C-0.06 -26.01, -0.81 -130.71, -1.05 -156.94 M-1.36 -0.6 C-1.51 -27.3, -1.36 -132.17, -1.42 -158.58" stroke="#1e1e1e" stroke-width="4" fill="none"/></g></g><mask/><g stroke-linecap="round"><g transform="translate(175.74980380479974 173.43689643689686) rotate(0 -82.14285714285779 -14.285714285714675)"><path d="M-0.52 -0.94 C-28.09 -5.85, -137.21 -23.81, -164.62 -28.57 M1.41 1.18 C-26.42 -3.61, -138.43 -22.05, -165.75 -27.04" stroke="#1e1e1e" stroke-width="4" fill="none"/></g></g><mask/></svg>