<svg version="1.1" xmlns="http://www.w3.org/2000/svg" viewBox="0 0 315.49456119938077 265.27526281968676" width="315.49456119938077" height="265.27526281968676" class="excalidraw-svg">
  <!-- svg-source:excalidraw -->
  
  <defs>
    <style class="style-fonts">
      
    </style>
    
  </defs>
  <g stroke-linecap="round" transform="translate(92.00557152429974 78.58521765743171) rotate(0 60 50)"><path d="M42.84 1.01 C51.54 -1.58, 64.43 0.15, 74.07 2.25 C83.71 4.35, 93.49 7.79, 100.7 13.61 C107.9 19.44, 114.27 29.1, 117.3 37.21 C120.32 45.31, 121.2 54.4, 118.84 62.26 C116.48 70.13, 110.25 78.59, 103.15 84.42 C96.05 90.25, 86 95.05, 76.24 97.25 C66.47 99.44, 54.2 99.42, 44.57 97.56 C34.93 95.7, 25.35 91.82, 18.42 86.09 C11.49 80.36, 5.77 71.27, 3 63.18 C0.22 55.09, -0.5 45.68, 1.79 37.57 C4.07 29.46, 8.41 20.74, 16.71 14.5 C25.01 8.26, 44.52 2.49, 51.58 0.1 C58.64 -2.28, 58.81 -0.85, 59.09 0.2 M67.46 1.01 C77.19 1.5, 89.93 6.15, 97.78 11.13 C105.63 16.1, 110.79 23.06, 114.58 30.84 C118.36 38.62, 121.55 49.3, 120.48 57.8 C119.41 66.3, 114.21 75.67, 108.15 81.84 C102.09 88.01, 93.39 91.74, 84.09 94.8 C74.79 97.86, 62.32 101.1, 52.35 100.19 C42.37 99.28, 32.35 94.27, 24.24 89.32 C16.14 84.37, 7.79 78.17, 3.72 70.49 C-0.36 62.81, -1.71 51.68, -0.2 43.25 C1.3 34.82, 6.66 26.34, 12.76 19.92 C18.86 13.49, 27.29 8.02, 36.38 4.68 C45.47 1.34, 61.95 0.5, 67.31 -0.13 C72.66 -0.77, 68.58 0.03, 68.5 0.87" stroke="#000000" stroke-width="4" fill="none"/></g><g stroke-linecap="round" transform="translate(54.68130166415176 45.72049803036862) rotate(0 100 86.43235981353155)"><path d="M95.96 -0.69 C107.8 -2.5, 121.75 1.93, 133.71 5.92 C145.68 9.92, 158.28 16.02, 167.76 23.28 C177.24 30.53, 185.34 39.63, 190.58 49.46 C195.81 59.28, 198.44 71.24, 199.17 82.21 C199.89 93.18, 199.26 104.84, 194.91 115.26 C190.57 125.68, 181.9 136.33, 173.09 144.74 C164.28 153.14, 153.55 161.07, 142.04 165.67 C130.54 170.27, 116.74 171.88, 104.05 172.33 C91.35 172.78, 77.68 171.97, 65.87 168.36 C54.07 164.74, 42.68 158.22, 33.23 150.66 C23.78 143.1, 14.6 132.9, 9.17 122.98 C3.74 113.07, 1.29 102.3, 0.65 91.18 C0.01 80.06, 0.99 66.9, 5.3 56.26 C9.61 45.63, 17.92 35.31, 26.52 27.36 C35.12 19.42, 44.91 13.15, 56.9 8.61 C68.89 4.06, 91.12 1.2, 98.45 0.09 C105.78 -1.02, 101.06 0.54, 100.86 1.96 M129.47 2.69 C141.53 4.71, 155.23 12.86, 165.19 20.19 C175.14 27.52, 183.26 36.69, 189.22 46.68 C195.18 56.67, 200.13 69.19, 200.94 80.14 C201.76 91.1, 198 102.29, 194.13 112.42 C190.26 122.55, 185.86 132.6, 177.7 140.93 C169.54 149.26, 156.5 157.13, 145.19 162.4 C133.87 167.66, 122.29 171.52, 109.82 172.53 C97.34 173.54, 82.53 171.57, 70.34 168.47 C58.16 165.38, 46.65 161.01, 36.7 153.99 C26.76 146.96, 16.86 136.52, 10.67 126.33 C4.48 116.15, 0.8 103.86, -0.44 92.88 C-1.68 81.9, -0.57 70.84, 3.22 60.46 C7.01 50.07, 13.69 39.05, 22.3 30.57 C30.91 22.09, 43.52 14.51, 54.87 9.59 C66.22 4.68, 77.71 1.97, 90.39 1.06 C103.08 0.15, 124.39 3.17, 130.97 4.13 C137.55 5.09, 130.79 5.59, 129.88 6.82" stroke="#000000" stroke-width="4" fill="none"/></g><g transform="translate(196.40919974296048 214.24740067530183) rotate(0 -32.10876167821334 20.513931072192463)" stroke="none"><path fill="#000000" d="M 1.59,0.95 Q 1.59,0.95 0.87,2.26 0.15,3.56 -0.37,5.17 -0.90,6.79 -1.41,8.55 -1.92,10.32 -2.10,11.97 -2.29,13.62 -2.71,15.94 -3.14,18.26 -3.50,19.86 -3.87,21.46 -4.35,24.04 -4.82,26.62 -5.58,29.36 -6.35,32.11 -6.87,33.83 -7.40,35.54 -7.53,36.89 -7.66,38.24 -8.24,40.10 -8.83,41.95 -9.91,42.47 -10.99,42.99 -12.23,43.14 -13.46,43.30 -15.25,43.29 -17.03,43.28 -20.60,43.16 -24.17,43.04 -27.73,42.95 -31.30,42.86 -34.35,42.79 -37.40,42.72 -39.47,42.69 -41.53,42.65 -42.93,42.74 -44.32,42.82 -45.78,42.99 -47.25,43.16 -48.50,43.28 -49.75,43.40 -51.02,43.22 -52.30,43.04 -53.28,42.21 -54.27,41.38 -54.64,40.22 -55.02,39.06 -55.06,37.26 -55.11,35.46 -55.45,33.46 -55.80,31.45 -56.24,29.77 -56.67,28.09 -56.93,26.46 -57.18,24.82 -57.78,23.08 -58.39,21.33 -59.10,19.11 -59.81,16.88 -60.67,15.04 -61.53,13.21 -62.45,11.84 -63.38,10.47 -64.69,9.10 -65.99,7.74 -66.28,7.36 -66.57,6.98 -66.72,6.52 -66.87,6.07 -66.87,5.59 -66.87,5.11 -66.71,4.66 -66.56,4.20 -66.27,3.82 -65.97,3.44 -65.58,3.17 -65.18,2.91 -64.72,2.78 -64.25,2.65 -63.77,2.68 -63.30,2.71 -62.85,2.89 -62.41,3.07 -62.04,3.38 -61.68,3.69 -61.43,4.10 -61.19,4.52 -61.09,4.99 -60.99,5.45 -61.04,5.93 -61.09,6.41 -61.30,6.84 -61.50,7.28 -61.83,7.62 -62.16,7.97 -62.59,8.19 -63.01,8.41 -63.49,8.49 -63.96,8.57 -64.43,8.49 -64.90,8.41 -65.33,8.18 -65.75,7.95 -66.08,7.60 -66.41,7.25 -66.61,6.82 -66.80,6.38 -66.85,5.90 -66.90,5.43 -66.80,4.96 -66.69,4.49 -66.44,4.08 -66.20,3.67 -65.83,3.36 -65.46,3.06 -65.02,2.88 -64.57,2.70 -64.09,2.68 -63.61,2.66 -63.15,2.79 -62.69,2.92 -62.29,3.19 -61.90,3.46 -61.90,3.46 -61.90,3.46 -60.11,5.78 -58.32,8.11 -57.50,9.56 -56.69,11.02 -56.26,12.04 -55.83,13.06 -55.40,14.21 -54.97,15.37 -54.58,16.67 -54.18,17.97 -53.84,19.93 -53.49,21.89 -53.14,23.04 -52.80,24.19 -52.64,25.55 -52.48,26.90 -51.94,28.64 -51.41,30.38 -50.68,32.81 -49.94,35.24 -49.85,36.94 -49.75,38.64 -48.50,38.77 -47.25,38.89 -45.78,39.06 -44.32,39.22 -42.93,39.31 -41.54,39.39 -39.47,39.36 -37.40,39.32 -34.35,39.24 -31.30,39.17 -27.74,39.07 -24.18,38.97 -20.64,38.82 -17.11,38.68 -15.44,38.62 -13.77,38.55 -12.52,38.11 -11.26,37.67 -10.92,36.08 -10.59,34.48 -10.01,32.90 -9.43,31.31 -8.80,28.70 -8.17,26.08 -7.79,23.29 -7.41,20.50 -6.97,19.12 -6.53,17.74 -6.26,15.46 -5.99,13.18 -5.75,11.25 -5.50,9.32 -5.00,7.48 -4.50,5.64 -3.86,3.60 -3.22,1.56 -2.41,0.30 -1.59,-0.95 -1.45,-1.13 -1.31,-1.31 -1.14,-1.45 -0.96,-1.58 -0.76,-1.68 -0.55,-1.77 -0.33,-1.81 -0.11,-1.85 0.10,-1.84 0.32,-1.83 0.54,-1.76 0.75,-1.69 0.95,-1.58 1.14,-1.46 1.30,-1.31 1.46,-1.15 1.57,-0.96 1.69,-0.76 1.76,-0.55 1.82,-0.34 1.84,-0.11 1.85,0.10 1.81,0.32 1.77,0.54 1.68,0.75 1.59,0.95 1.59,0.95 L 1.59,0.95 Z"/></g><g transform="translate(96.51527452185292 205.32830020913207) rotate(0 -29.8789865616709 -2.2297751165424415)" stroke="none"><path fill="#000000" d="M 1.82,0.91 Q 1.82,0.91 1.35,1.98 0.88,3.05 -0.01,4.09 -0.92,5.12 -2.24,5.88 -3.55,6.65 -5.44,8.31 -7.33,9.96 -8.31,10.93 -9.30,11.89 -10.46,13.34 -11.62,14.79 -14.64,17.63 -17.66,20.47 -19.65,22.57 -21.63,24.67 -22.67,26.24 -23.71,27.82 -24.35,29.07 -24.98,30.31 -26.22,32.06 -27.46,33.80 -28.67,34.01 -29.89,34.22 -31.27,33.24 -32.65,32.27 -33.75,31.16 -34.84,30.06 -36.29,28.15 -37.74,26.24 -39.33,24.13 -40.92,22.03 -42.31,20.38 -43.70,18.73 -44.85,17.57 -46.01,16.40 -47.50,14.53 -49.00,12.65 -50.35,11.12 -51.71,9.59 -52.86,8.48 -54.01,7.37 -55.04,6.42 -56.07,5.47 -57.05,4.59 -58.02,3.70 -59.33,2.59 -60.63,1.49 -61.12,0.39 -61.62,-0.70 -61.25,-2.35 -60.88,-4.01 -60.06,-5.21 -59.25,-6.41 -58.24,-7.31 -57.24,-8.22 -56.27,-8.87 -55.31,-9.52 -54.15,-10.60 -52.99,-11.69 -52.18,-12.49 -51.36,-13.29 -50.46,-14.46 -49.56,-15.62 -48.66,-16.87 -47.77,-18.11 -46.84,-19.38 -45.91,-20.66 -45.02,-21.99 -44.14,-23.33 -43.51,-24.37 -42.89,-25.42 -42.34,-26.43 -41.79,-27.44 -41.62,-28.65 -41.46,-29.85 -41.02,-30.88 -40.58,-31.90 -39.82,-33.42 -39.07,-34.93 -38.41,-36.73 -37.76,-38.54 -37.45,-38.94 -37.14,-39.34 -36.72,-39.63 -36.30,-39.91 -35.81,-40.05 -35.32,-40.18 -34.82,-40.15 -34.31,-40.12 -33.84,-39.94 -33.37,-39.75 -32.98,-39.42 -32.59,-39.09 -32.33,-38.65 -32.07,-38.22 -31.96,-37.72 -31.86,-37.23 -31.91,-36.72 -31.97,-36.22 -32.18,-35.76 -32.40,-35.30 -32.75,-34.93 -33.10,-34.56 -33.54,-34.33 -33.99,-34.09 -34.49,-34.01 -34.99,-33.93 -35.49,-34.01 -35.99,-34.09 -36.44,-34.33 -36.89,-34.57 -37.24,-34.94 -37.59,-35.31 -37.80,-35.77 -38.01,-36.23 -38.07,-36.73 -38.12,-37.24 -38.01,-37.73 -37.90,-38.23 -37.64,-38.66 -37.37,-39.10 -36.99,-39.43 -36.60,-39.75 -36.13,-39.94 -35.66,-40.13 -35.15,-40.15 -34.64,-40.18 -34.15,-40.04 -33.67,-39.91 -33.25,-39.62 -32.83,-39.34 -32.52,-38.93 -32.21,-38.53 -32.05,-38.05 -31.89,-37.56 -31.89,-37.06 -31.89,-36.55 -32.06,-36.07 -32.22,-35.59 -32.22,-35.59 -32.22,-35.59 -33.30,-33.03 -34.38,-30.48 -35.10,-28.89 -35.81,-27.30 -36.18,-26.01 -36.55,-24.72 -37.12,-23.63 -37.69,-22.53 -38.86,-20.58 -40.04,-18.63 -41.16,-17.13 -42.28,-15.62 -43.50,-14.02 -44.72,-12.42 -46.09,-10.84 -47.45,-9.26 -48.32,-8.42 -49.19,-7.58 -50.82,-6.27 -52.46,-4.95 -53.81,-4.14 -55.16,-3.32 -56.23,-2.51 -57.30,-1.69 -56.23,-0.41 -55.16,0.86 -54.27,1.85 -53.38,2.85 -52.45,3.91 -51.51,4.98 -50.43,6.20 -49.35,7.42 -47.89,8.95 -46.42,10.48 -44.90,12.20 -43.37,13.91 -42.25,15.15 -41.12,16.40 -39.56,18.02 -38.00,19.63 -36.27,21.57 -34.54,23.51 -33.01,25.10 -31.48,26.69 -30.19,28.57 -28.91,30.45 -28.54,29.45 -28.17,28.45 -27.37,27.22 -26.57,25.99 -25.42,24.16 -24.27,22.32 -22.32,20.01 -20.38,17.71 -17.76,15.00 -15.14,12.29 -13.90,10.35 -12.66,8.41 -11.62,7.42 -10.57,6.43 -9.33,5.26 -8.08,4.09 -6.90,3.25 -5.73,2.41 -4.33,1.73 -2.94,1.04 -2.38,0.06 -1.82,-0.91 -1.68,-1.11 -1.54,-1.31 -1.36,-1.48 -1.18,-1.65 -0.97,-1.76 -0.75,-1.88 -0.52,-1.95 -0.28,-2.01 -0.03,-2.01 0.20,-2.02 0.44,-1.97 0.68,-1.91 0.90,-1.80 1.12,-1.69 1.30,-1.53 1.49,-1.37 1.63,-1.17 1.78,-0.98 1.87,-0.75 1.96,-0.52 2.00,-0.28 2.03,-0.03 2.00,0.20 1.98,0.44 1.90,0.67 1.82,0.91 1.82,0.91 L 1.82,0.91 Z"/></g><g transform="translate(54.59550233085065 150.9217873654925) rotate(0 -20.959886095499314 -31.216851631596455)" stroke="none"><path fill="#000000" d="M -0.61,1.83 Q -0.61,1.83 -2.89,0.98 -5.17,0.14 -9.45,-1.26 -13.73,-2.67 -16.80,-3.53 -19.87,-4.40 -23.72,-5.29 -27.57,-6.18 -30.25,-6.83 -32.93,-7.48 -35.40,-8.29 -37.87,-9.10 -39.37,-9.33 -40.86,-9.55 -41.94,-9.70 -43.02,-9.85 -43.89,-10.64 -44.77,-11.44 -45.31,-13.38 -45.84,-15.32 -46.29,-18.03 -46.74,-20.74 -46.77,-22.47 -46.80,-24.20 -46.86,-25.44 -46.92,-26.68 -46.96,-27.99 -47.00,-29.29 -47.04,-30.35 -47.09,-31.42 -47.08,-32.90 -47.07,-34.38 -47.11,-35.52 -47.14,-36.66 -47.21,-38.59 -47.29,-40.53 -47.35,-42.34 -47.41,-44.15 -47.45,-45.94 -47.50,-47.73 -47.55,-48.89 -47.61,-50.06 -47.67,-51.45 -47.74,-52.84 -47.79,-54.20 -47.84,-55.55 -47.52,-56.92 -47.20,-58.28 -47.12,-59.61 -47.03,-60.95 -46.07,-62.91 -45.10,-64.87 -43.51,-65.32 -41.92,-65.76 -40.67,-65.80 -39.41,-65.84 -36.27,-65.33 -33.13,-64.83 -31.05,-64.53 -28.97,-64.23 -27.05,-64.07 -25.13,-63.92 -23.03,-63.77 -20.94,-63.62 -18.00,-63.52 -15.05,-63.41 -12.26,-63.33 -9.47,-63.25 -7.52,-63.24 -5.56,-63.23 -4.47,-63.32 -3.39,-63.42 -0.54,-64.04 2.29,-64.67 2.65,-64.62 3.01,-64.58 3.34,-64.42 3.67,-64.27 3.93,-64.01 4.19,-63.76 4.36,-63.44 4.53,-63.11 4.58,-62.75 4.64,-62.39 4.57,-62.03 4.51,-61.67 4.34,-61.35 4.16,-61.03 3.89,-60.79 3.63,-60.54 3.30,-60.39 2.96,-60.24 2.60,-60.21 2.24,-60.17 1.88,-60.25 1.53,-60.33 1.22,-60.53 0.91,-60.72 0.68,-61.00 0.44,-61.28 0.31,-61.62 0.18,-61.96 0.17,-62.32 0.15,-62.68 0.25,-63.03 0.35,-63.38 0.56,-63.68 0.77,-63.98 1.06,-64.20 1.35,-64.42 1.70,-64.53 2.05,-64.64 2.41,-64.64 2.77,-64.63 3.12,-64.51 3.46,-64.39 3.75,-64.17 4.04,-63.95 4.24,-63.64 4.44,-63.34 4.53,-62.99 4.63,-62.63 4.60,-62.27 4.58,-61.91 4.44,-61.57 4.30,-61.23 4.06,-60.96 3.82,-60.68 3.51,-60.50 3.19,-60.32 2.84,-60.24 2.48,-60.17 2.48,-60.17 2.48,-60.17 1.27,-60.11 0.07,-60.05 -1.66,-59.85 -3.39,-59.65 -4.48,-59.75 -5.56,-59.85 -7.52,-59.84 -9.48,-59.83 -12.27,-59.76 -15.06,-59.69 -18.02,-59.60 -20.98,-59.51 -23.11,-59.40 -25.24,-59.29 -27.23,-59.23 -29.22,-59.17 -31.53,-59.08 -33.83,-59.00 -35.79,-59.01 -37.75,-59.01 -39.09,-59.85 -40.42,-60.69 -40.54,-59.47 -40.65,-58.25 -41.00,-56.87 -41.35,-55.50 -41.39,-54.17 -41.44,-52.84 -41.51,-51.45 -41.57,-50.06 -41.63,-48.89 -41.68,-47.73 -41.73,-45.94 -41.78,-44.15 -41.84,-42.34 -41.90,-40.53 -41.97,-38.60 -42.04,-36.66 -42.07,-35.52 -42.10,-34.38 -42.13,-31.85 -42.16,-29.32 -42.18,-28.04 -42.19,-26.77 -42.21,-25.56 -42.23,-24.35 -42.16,-22.73 -42.08,-21.11 -41.99,-19.76 -41.89,-18.41 -41.62,-17.03 -41.35,-15.66 -40.77,-14.15 -40.20,-12.65 -38.61,-12.21 -37.02,-11.78 -34.65,-11.03 -32.28,-10.29 -29.60,-9.69 -26.92,-9.09 -23.00,-8.25 -19.07,-7.41 -15.91,-6.61 -12.75,-5.81 -8.40,-4.51 -4.05,-3.21 -1.72,-2.52 0.61,-1.83 0.82,-1.73 1.03,-1.63 1.21,-1.49 1.39,-1.34 1.53,-1.15 1.67,-0.96 1.76,-0.75 1.86,-0.54 1.89,-0.30 1.93,-0.07 1.91,0.15 1.89,0.38 1.82,0.60 1.75,0.83 1.62,1.02 1.50,1.22 1.33,1.38 1.16,1.54 0.96,1.66 0.76,1.78 0.53,1.84 0.31,1.91 0.07,1.92 -0.15,1.93 -0.38,1.88 -0.61,1.83 -0.61,1.83 L -0.61,1.83 Z"/></g><g transform="translate(77.78516354289422 74.21752335642668) rotate(0 9.365055489478436 -25.86539135189423)" stroke="none"><path fill="#000000" d="M -1.26,1.26 Q -1.26,1.26 -2.34,0.28 -3.41,-0.70 -4.49,-2.31 -5.57,-3.92 -6.92,-6.12 -8.28,-8.31 -9.63,-10.86 -10.99,-13.40 -12.79,-16.21 -14.59,-19.03 -15.65,-21.08 -16.70,-23.13 -17.89,-25.25 -19.07,-27.36 -19.91,-29.07 -20.75,-30.77 -21.62,-32.17 -22.48,-33.56 -23.20,-35.01 -23.91,-36.46 -24.29,-37.52 -24.67,-38.59 -24.42,-39.62 -24.18,-40.66 -22.17,-41.71 -20.16,-42.75 -18.13,-43.27 -16.10,-43.78 -14.17,-44.27 -12.23,-44.76 -10.08,-45.18 -7.93,-45.59 -6.03,-46.03 -4.12,-46.47 -2.08,-47.11 -0.04,-47.74 1.60,-48.34 3.25,-48.94 4.56,-49.29 5.86,-49.65 7.06,-50.05 8.25,-50.46 9.61,-51.17 10.96,-51.89 12.18,-52.14 13.40,-52.39 14.64,-52.50 15.87,-52.61 17.21,-52.61 18.54,-52.61 19.62,-52.63 20.70,-52.65 22.09,-52.62 23.49,-52.59 24.61,-53.44 25.73,-54.29 26.99,-54.09 28.25,-53.90 29.98,-52.19 31.72,-50.48 32.91,-48.36 34.11,-46.25 34.92,-44.14 35.73,-42.03 36.49,-39.59 37.25,-37.15 38.01,-35.16 38.77,-33.16 39.59,-31.27 40.41,-29.39 41.10,-28.11 41.79,-26.84 42.75,-24.64 43.71,-22.44 43.74,-22.12 43.77,-21.80 43.70,-21.48 43.62,-21.17 43.45,-20.89 43.28,-20.62 43.03,-20.41 42.78,-20.21 42.48,-20.09 42.17,-19.98 41.85,-19.96 41.52,-19.95 41.21,-20.04 40.90,-20.14 40.64,-20.32 40.37,-20.51 40.18,-20.77 39.99,-21.03 39.89,-21.34 39.79,-21.65 39.80,-21.97 39.80,-22.30 39.91,-22.60 40.02,-22.91 40.22,-23.16 40.42,-23.42 40.69,-23.60 40.96,-23.77 41.28,-23.85 41.59,-23.94 41.91,-23.91 42.24,-23.89 42.54,-23.76 42.84,-23.64 43.08,-23.43 43.32,-23.21 43.49,-22.93 43.65,-22.65 43.71,-22.33 43.78,-22.02 43.74,-21.69 43.70,-21.37 43.56,-21.08 43.41,-20.79 43.19,-20.56 42.96,-20.33 42.67,-20.18 42.38,-20.03 42.06,-19.98 41.74,-19.94 41.42,-19.99 41.10,-20.05 40.82,-20.21 40.54,-20.37 40.32,-20.60 40.10,-20.84 39.97,-21.14 39.84,-21.44 39.84,-21.44 39.84,-21.44 39.11,-23.32 38.39,-25.19 37.81,-26.54 37.23,-27.89 36.28,-29.77 35.32,-31.65 34.33,-33.68 33.33,-35.70 32.37,-37.91 31.41,-40.12 30.58,-41.70 29.75,-43.28 28.12,-45.79 26.49,-48.31 25.48,-47.80 24.47,-47.29 22.59,-47.26 20.70,-47.23 19.63,-47.25 18.55,-47.27 17.24,-47.27 15.92,-47.26 14.82,-47.33 13.73,-47.40 12.55,-47.40 11.38,-47.40 10.36,-47.00 9.34,-46.59 7.96,-46.28 6.58,-45.97 5.45,-45.85 4.32,-45.73 2.65,-45.21 0.98,-44.69 -1.16,-43.91 -3.31,-43.13 -5.22,-42.65 -7.14,-42.16 -9.16,-41.61 -11.18,-41.06 -13.03,-40.48 -14.87,-39.91 -17.75,-38.90 -20.64,-37.89 -20.13,-36.54 -19.62,-35.19 -18.80,-33.62 -17.98,-32.06 -17.27,-30.43 -16.57,-28.79 -15.32,-26.66 -14.07,-24.53 -13.03,-22.63 -11.99,-20.73 -10.06,-17.87 -8.12,-15.01 -6.72,-12.63 -5.33,-10.26 -3.83,-8.14 -2.32,-6.02 -1.50,-4.71 -0.68,-3.40 0.28,-2.33 1.26,-1.26 1.40,-1.09 1.53,-0.92 1.62,-0.73 1.71,-0.53 1.75,-0.32 1.78,-0.10 1.77,0.10 1.76,0.32 1.69,0.52 1.63,0.73 1.52,0.92 1.41,1.10 1.25,1.25 1.10,1.41 0.92,1.52 0.73,1.63 0.52,1.69 0.32,1.76 0.10,1.77 -0.10,1.78 -0.32,1.75 -0.53,1.71 -0.73,1.62 -0.92,1.53 -1.09,1.40 -1.26,1.26 -1.26,1.26 L -1.26,1.26 Z"/></g><g transform="translate(154.48942755196003 43.00067172483068) rotate(0 32.55471670152201 -13.824605722564229)" stroke="none"><path fill="#000000" d="M -2.36,-0.29 Q -2.36,-0.29 -1.98,-2.33 -1.61,-4.37 -0.84,-6.65 -0.08,-8.94 0.41,-10.44 0.91,-11.95 1.35,-13.14 1.78,-14.34 2.20,-15.38 2.61,-16.43 3.33,-17.80 4.04,-19.17 4.77,-20.57 5.50,-21.97 6.22,-23.08 6.93,-24.20 8.37,-25.47 9.81,-26.75 10.62,-27.51 11.43,-28.27 12.38,-29.33 13.33,-30.40 14.99,-31.70 16.65,-33.00 18.13,-34.41 19.60,-35.81 22.02,-35.72 24.44,-35.63 25.81,-34.79 27.19,-33.95 28.41,-33.51 29.63,-33.07 31.45,-32.15 33.28,-31.24 35.21,-30.26 37.15,-29.28 38.92,-28.61 40.69,-27.94 42.46,-27.38 44.23,-26.83 45.65,-26.66 47.06,-26.49 48.40,-26.16 49.74,-25.83 51.80,-25.46 53.85,-25.09 55.14,-25.02 56.42,-24.96 57.93,-25.01 59.44,-25.06 61.19,-24.71 62.94,-24.37 64.87,-23.69 66.80,-23.01 67.43,-21.20 68.05,-19.39 67.70,-18.18 67.34,-16.97 66.71,-15.82 66.07,-14.67 65.57,-13.52 65.07,-12.37 64.56,-11.26 64.05,-10.15 63.58,-9.16 63.11,-8.17 62.68,-6.94 62.26,-5.72 61.74,-4.15 61.23,-2.59 60.75,-1.27 60.26,0.03 60.08,2.57 59.89,5.10 59.81,5.55 59.72,5.99 59.50,6.39 59.27,6.78 58.93,7.09 58.60,7.39 58.18,7.57 57.76,7.75 57.31,7.78 56.86,7.82 56.41,7.71 55.97,7.60 55.59,7.35 55.21,7.11 54.92,6.75 54.64,6.40 54.48,5.97 54.33,5.55 54.32,5.09 54.30,4.64 54.44,4.21 54.57,3.77 54.84,3.40 55.10,3.03 55.47,2.77 55.84,2.50 56.28,2.37 56.71,2.24 57.16,2.25 57.62,2.26 58.05,2.42 58.47,2.58 58.83,2.86 59.18,3.15 59.42,3.53 59.67,3.92 59.78,4.36 59.89,4.80 59.85,5.25 59.81,5.70 59.63,6.12 59.45,6.54 59.15,6.87 58.84,7.21 58.45,7.44 58.05,7.66 57.60,7.74 57.16,7.83 56.71,7.77 56.26,7.70 55.85,7.50 55.45,7.30 55.12,6.98 54.80,6.66 54.60,6.25 54.40,5.84 54.34,5.39 54.28,4.94 54.28,4.94 54.28,4.94 54.75,1.56 55.21,-1.82 55.62,-2.92 56.03,-4.02 56.42,-5.73 56.80,-7.43 57.72,-10.01 58.64,-12.59 59.09,-13.59 59.53,-14.60 60.75,-16.65 61.96,-18.69 60.66,-19.13 59.37,-19.56 57.65,-19.68 55.93,-19.80 54.34,-20.12 52.75,-20.44 50.61,-21.01 48.47,-21.57 47.47,-21.94 46.47,-22.31 44.79,-22.58 43.12,-22.85 41.24,-23.32 39.35,-23.79 37.36,-24.34 35.36,-24.88 33.26,-25.55 31.15,-26.21 29.50,-26.76 27.85,-27.32 25.74,-27.91 23.62,-28.49 22.67,-29.00 21.72,-29.52 20.66,-28.47 19.60,-27.43 18.12,-26.48 16.64,-25.53 15.55,-24.20 14.45,-22.86 13.30,-22.11 12.15,-21.36 11.32,-20.52 10.48,-19.67 9.49,-18.92 8.50,-18.17 7.86,-17.07 7.23,-15.98 6.47,-14.32 5.71,-12.66 5.20,-11.62 4.68,-10.58 4.14,-9.22 3.60,-7.87 3.11,-5.85 2.63,-3.83 2.50,-1.76 2.36,0.29 2.29,0.57 2.22,0.85 2.09,1.10 1.95,1.36 1.76,1.57 1.57,1.79 1.33,1.95 1.10,2.11 0.83,2.21 0.56,2.31 0.27,2.35 -0.00,2.38 -0.29,2.35 -0.57,2.31 -0.84,2.21 -1.11,2.10 -1.35,1.94 -1.58,1.78 -1.77,1.56 -1.96,1.34 -2.10,1.09 -2.23,0.83 -2.30,0.55 -2.37,0.27 -2.36,-0.00 -2.36,-0.29 -2.36,-0.29 L -2.36,-0.29 Z"/></g><g transform="translate(234.59739490467473 75.65346728969143) rotate(1.7662249329379294 35.741748385137726 12.592737830567785)" stroke="none"><path fill="#000000" d="M -1.08,-3.64 Q -1.08,-3.64 0.85,-4.71 2.79,-5.77 5.10,-6.92 7.40,-8.06 8.80,-8.85 10.20,-9.63 12.54,-10.59 14.87,-11.56 16.56,-12.25 18.25,-12.95 19.67,-13.52 21.09,-14.10 21.95,-14.75 22.80,-15.41 24.57,-16.21 26.33,-17.01 28.24,-17.99 30.16,-18.97 31.61,-19.56 33.05,-20.15 35.02,-19.91 36.99,-19.67 37.83,-17.96 38.67,-16.25 38.97,-14.01 39.28,-11.77 40.06,-9.78 40.85,-7.80 41.83,-5.97 42.80,-4.13 43.73,-2.65 44.67,-1.17 45.70,0.05 46.74,1.27 47.83,2.17 48.91,3.07 50.02,4.28 51.12,5.50 52.25,6.95 53.37,8.41 54.36,9.72 55.34,11.03 56.84,13.26 58.34,15.49 59.30,16.90 60.26,18.31 61.31,19.79 62.36,21.28 63.23,21.97 64.10,22.66 65.70,23.60 67.31,24.55 68.88,25.81 70.45,27.07 71.45,28.69 72.46,30.31 71.98,31.39 71.49,32.48 70.20,33.06 68.91,33.64 67.73,33.89 66.55,34.15 64.88,34.26 63.21,34.37 61.48,34.55 59.75,34.72 57.93,35.14 56.11,35.56 54.40,36.18 52.70,36.79 51.21,37.35 49.73,37.91 47.92,38.54 46.11,39.17 44.33,39.70 42.55,40.23 40.85,40.69 39.15,41.15 37.89,41.78 36.63,42.40 35.41,42.81 34.18,43.21 32.64,43.83 31.09,44.44 30.60,44.78 30.10,45.11 29.83,45.41 29.55,45.70 29.20,45.88 28.85,46.07 28.45,46.14 28.06,46.20 27.66,46.14 27.27,46.08 26.91,45.89 26.56,45.70 26.28,45.41 26.01,45.12 25.84,44.76 25.67,44.40 25.63,44.00 25.58,43.60 25.67,43.21 25.75,42.82 25.96,42.48 26.16,42.14 26.47,41.88 26.77,41.62 27.14,41.47 27.51,41.32 27.91,41.30 28.31,41.27 28.70,41.38 29.08,41.49 29.42,41.71 29.75,41.93 29.99,42.25 30.23,42.57 30.36,42.95 30.49,43.33 30.49,43.73 30.49,44.13 30.36,44.51 30.24,44.88 30.00,45.20 29.76,45.52 29.42,45.75 29.09,45.97 28.71,46.08 28.32,46.19 27.92,46.17 27.53,46.15 27.15,46.00 26.78,45.85 26.48,45.59 26.17,45.34 25.96,44.99 25.76,44.65 25.67,44.26 25.58,43.87 25.63,43.47 25.67,43.08 25.84,42.71 26.00,42.35 26.00,42.35 26.00,42.35 28.48,40.98 30.96,39.62 32.94,39.14 34.93,38.67 36.51,37.98 38.09,37.30 39.74,36.85 41.38,36.41 43.02,35.89 44.66,35.38 46.46,34.63 48.26,33.88 49.69,33.37 51.13,32.87 52.98,32.07 54.82,31.26 56.90,30.52 58.98,29.78 60.88,29.39 62.77,29.00 64.07,28.87 65.36,28.75 66.68,29.33 67.99,29.91 66.93,29.57 65.87,29.24 64.49,28.53 63.10,27.83 62.20,26.73 61.30,25.63 60.29,24.58 59.28,23.53 58.14,21.99 57.00,20.45 56.14,19.10 55.28,17.74 53.61,15.64 51.94,13.54 51.03,12.28 50.11,11.01 48.99,9.66 47.87,8.31 47.02,7.27 46.17,6.22 44.89,5.07 43.61,3.92 42.41,2.49 41.21,1.06 40.21,-0.42 39.22,-1.92 37.88,-3.85 36.54,-5.77 35.22,-8.27 33.89,-10.77 33.60,-12.99 33.31,-15.20 31.70,-14.83 30.08,-14.46 29.03,-13.93 27.98,-13.41 26.46,-12.70 24.95,-12.00 23.66,-11.30 22.37,-10.60 20.95,-10.15 19.53,-9.71 17.89,-9.09 16.25,-8.47 14.07,-7.42 11.89,-6.38 10.46,-5.69 9.03,-5.01 6.89,-3.79 4.76,-2.56 2.92,-1.32 1.08,-0.08 0.85,0.02 0.63,0.12 0.38,0.17 0.13,0.21 -0.11,0.20 -0.36,0.19 -0.60,0.11 -0.84,0.04 -1.06,-0.08 -1.28,-0.21 -1.45,-0.39 -1.63,-0.56 -1.76,-0.78 -1.90,-0.99 -1.97,-1.23 -2.05,-1.47 -2.06,-1.72 -2.08,-1.98 -2.04,-2.22 -1.99,-2.47 -1.89,-2.70 -1.79,-2.93 -1.63,-3.13 -1.48,-3.33 -1.28,-3.48 -1.08,-3.64 -1.08,-3.64 L -1.08,-3.64 Z"/></g><g transform="translate(253.49144272645208 163.40852801813162) rotate(0 -3.567640186468452 31.216851631596)" stroke="none"><path fill="#000000" d="M 1.31,-1.31 Q 1.31,-1.31 2.38,-0.33 3.45,0.65 4.69,2.20 5.94,3.75 7.47,6.31 9.01,8.86 10.37,10.92 11.72,12.98 13.32,15.42 14.92,17.86 16.35,19.92 17.77,21.97 19.39,24.12 21.00,26.26 22.03,27.69 23.07,29.11 24.31,29.98 25.56,30.85 26.29,31.76 27.02,32.67 28.64,33.30 30.26,33.94 31.20,34.63 32.13,35.33 32.85,35.68 33.57,36.03 33.88,36.20 34.20,36.38 34.46,36.63 34.72,36.88 34.91,37.18 35.10,37.48 35.22,37.82 35.34,38.16 35.37,38.52 35.40,38.88 35.34,39.23 35.29,39.59 35.15,39.92 35.01,40.25 34.79,40.54 34.58,40.83 34.30,41.06 34.03,41.29 33.70,41.44 33.38,41.60 33.03,41.67 32.67,41.75 32.31,41.74 31.96,41.72 31.61,41.62 31.26,41.53 28.28,43.32 25.30,45.12 23.47,45.98 21.64,46.83 19.76,47.71 17.89,48.58 15.96,49.25 14.03,49.93 11.97,50.63 9.91,51.33 8.70,52.15 7.48,52.96 5.65,54.06 3.81,55.16 2.50,56.50 1.19,57.83 -0.10,59.45 -1.40,61.08 -2.05,62.05 -2.70,63.02 -3.50,63.75 -4.30,64.49 -5.85,64.84 -7.40,65.19 -8.54,64.83 -9.69,64.47 -10.66,63.69 -11.63,62.90 -12.57,62.19 -13.51,61.48 -14.93,60.28 -16.35,59.07 -18.18,57.42 -20.01,55.77 -21.68,54.58 -23.35,53.39 -25.07,52.34 -26.79,51.30 -28.81,50.03 -30.84,48.75 -32.23,48.04 -33.63,47.34 -34.75,46.83 -35.87,46.33 -37.04,45.52 -38.20,44.72 -39.47,44.01 -40.73,43.29 -41.01,43.05 -41.28,42.81 -41.46,42.50 -41.65,42.19 -41.72,41.83 -41.79,41.47 -41.75,41.11 -41.70,40.75 -41.54,40.42 -41.39,40.10 -41.13,39.84 -40.88,39.58 -40.55,39.41 -40.23,39.25 -39.87,39.19 -39.51,39.14 -39.15,39.21 -38.80,39.27 -38.48,39.45 -38.16,39.62 -37.91,39.89 -37.67,40.16 -37.52,40.49 -37.37,40.82 -37.34,41.18 -37.31,41.54 -37.39,41.90 -37.47,42.25 -37.67,42.56 -37.86,42.87 -38.14,43.10 -38.42,43.33 -38.76,43.46 -39.10,43.59 -39.46,43.60 -39.82,43.62 -40.17,43.51 -40.52,43.41 -40.82,43.20 -41.12,42.99 -41.33,42.70 -41.55,42.41 -41.66,42.06 -41.77,41.72 -41.76,41.35 -41.76,40.99 -41.64,40.65 -41.51,40.30 -41.29,40.02 -41.07,39.73 -40.76,39.53 -40.46,39.33 -40.11,39.24 -39.75,39.15 -39.39,39.18 -39.03,39.20 -38.69,39.34 -38.36,39.48 -38.36,39.48 -38.36,39.48 -36.98,40.42 -35.59,41.35 -34.79,42.07 -34.00,42.79 -32.92,43.45 -31.84,44.10 -30.46,44.92 -29.09,45.74 -27.02,46.86 -24.95,47.98 -23.05,48.93 -21.16,49.88 -19.15,50.99 -17.14,52.09 -15.15,53.43 -13.16,54.76 -11.62,55.75 -10.08,56.75 -8.66,58.52 -7.24,60.29 -6.18,58.96 -5.12,57.63 -4.33,56.83 -3.55,56.04 -2.62,55.03 -1.70,54.03 -0.76,53.37 0.17,52.72 1.90,51.82 3.63,50.93 4.57,50.34 5.51,49.76 7.06,48.88 8.60,47.99 10.63,47.11 12.66,46.22 14.32,45.58 15.97,44.93 17.70,43.91 19.43,42.89 21.25,41.69 23.07,40.50 26.34,38.77 29.60,37.05 31.59,36.54 33.57,36.03 33.88,36.20 34.20,36.38 34.46,36.63 34.72,36.88 34.91,37.18 35.10,37.48 35.22,37.82 35.34,38.16 35.37,38.52 35.40,38.88 35.34,39.23 35.29,39.59 35.15,39.92 35.01,40.25 34.79,40.54 34.58,40.83 34.30,41.06 34.03,41.29 33.70,41.44 33.38,41.60 33.03,41.67 32.67,41.75 32.31,41.74 31.96,41.72 31.61,41.62 31.26,41.53 30.87,41.18 30.48,40.83 29.48,39.74 28.48,38.64 27.01,37.88 25.54,37.12 24.59,36.33 23.65,35.54 22.77,34.03 21.89,32.52 21.18,31.70 20.47,30.87 19.60,29.44 18.72,28.01 17.04,25.85 15.36,23.69 13.86,21.64 12.36,19.60 10.70,17.22 9.03,14.84 7.54,12.79 6.05,10.74 4.52,8.47 2.98,6.19 1.81,4.82 0.65,3.44 -0.33,2.38 -1.31,1.31 -1.45,1.14 -1.59,0.96 -1.68,0.75 -1.78,0.55 -1.82,0.33 -1.86,0.11 -1.84,-0.11 -1.83,-0.33 -1.76,-0.55 -1.70,-0.76 -1.58,-0.95 -1.46,-1.15 -1.30,-1.30 -1.15,-1.46 -0.95,-1.58 -0.76,-1.70 -0.55,-1.76 -0.33,-1.83 -0.11,-1.84 0.11,-1.86 0.33,-1.82 0.55,-1.78 0.76,-1.68 0.96,-1.59 1.14,-1.45 1.31,-1.31 1.31,-1.31 L 1.31,-1.31 Z"/></g></svg>