<svg version="1.1" xmlns="http://www.w3.org/2000/svg" viewBox="0 0 832.238456776242 403.2099385816118" width="832.238456776242" height="403.2099385816118" class="excalidraw-svg">
  <!-- svg-source:excalidraw -->
  
  <defs>
    <style class="style-fonts">
      
    </style>
    
  </defs>
  <g transform="translate(649.3774518725786 49.57059148397093) rotate(0 -27.074615225874368 0)" stroke="none"><path fill="#000000" d="M 0,4.26 Q 0,4.26 -5.38,4.04 -10.77,3.83 -14.26,3.84 -17.75,3.85 -22.82,3.69 -27.90,3.52 -31.85,3.47 -35.80,3.43 -39.28,3.49 -42.76,3.55 -45.43,3.70 -48.11,3.86 -50.58,3.97 -53.05,4.08 -53.71,3.97 -54.36,3.87 -54.94,3.56 -55.53,3.25 -55.98,2.77 -56.43,2.29 -56.71,1.69 -56.99,1.09 -57.06,0.43 -57.13,-0.22 -56.99,-0.86 -56.85,-1.51 -56.51,-2.07 -56.17,-2.64 -55.66,-3.07 -55.16,-3.49 -54.55,-3.74 -53.93,-3.98 -53.27,-4.02 -52.61,-4.06 -51.98,-3.88 -51.34,-3.70 -50.79,-3.33 -50.24,-2.96 -49.84,-2.43 -49.44,-1.91 -49.23,-1.28 -49.02,-0.66 -49.02,0.00 -49.02,0.66 -49.23,1.28 -49.45,1.91 -49.85,2.43 -50.25,2.96 -50.79,3.33 -51.34,3.70 -51.98,3.88 -52.61,4.06 -53.27,4.02 -53.93,3.98 -54.55,3.74 -55.16,3.49 -55.66,3.07 -56.17,2.64 -56.51,2.07 -56.85,1.51 -56.99,0.86 -57.13,0.22 -57.06,-0.43 -56.99,-1.09 -56.71,-1.69 -56.43,-2.29 -55.98,-2.77 -55.52,-3.25 -54.94,-3.56 -54.36,-3.87 -53.70,-3.97 -53.05,-4.08 -53.05,-4.08 -53.05,-4.08 -50.58,-3.97 -48.11,-3.86 -45.43,-3.70 -42.76,-3.55 -39.28,-3.49 -35.80,-3.43 -31.85,-3.47 -27.90,-3.52 -22.82,-3.69 -17.75,-3.85 -14.26,-3.84 -10.77,-3.83 -5.38,-4.04 0,-4.26 0.51,-4.20 1.02,-4.14 1.50,-3.95 1.98,-3.77 2.40,-3.48 2.82,-3.19 3.16,-2.80 3.51,-2.42 3.74,-1.96 3.98,-1.51 4.11,-1.01 4.23,-0.51 4.23,0.00 4.23,0.51 4.11,1.01 3.98,1.51 3.74,1.96 3.51,2.42 3.16,2.80 2.82,3.19 2.40,3.48 1.98,3.77 1.50,3.95 1.02,4.14 0.50,4.20 -0.00,4.26 -0.00,4.26 L 0,4.26 Z"/></g><g transform="translate(566.0709434852724 53.73591690333615) rotate(0 -13.537307612937184 0)" stroke="none"><path fill="#000000" d="M 0,5.30 Q 0,5.30 -2.39,5.32 -4.79,5.35 -8.29,5.48 -11.79,5.60 -15.23,5.70 -18.68,5.80 -21.01,5.91 -23.34,6.02 -24.87,6.05 -26.40,6.08 -27.37,5.92 -28.34,5.76 -29.21,5.30 -30.08,4.84 -30.76,4.13 -31.43,3.41 -31.85,2.52 -32.26,1.62 -32.37,0.64 -32.47,-0.32 -32.26,-1.29 -32.05,-2.25 -31.54,-3.09 -31.03,-3.94 -30.28,-4.57 -29.53,-5.21 -28.62,-5.58 -27.70,-5.94 -26.72,-5.99 -25.74,-6.05 -24.79,-5.78 -23.84,-5.52 -23.02,-4.97 -22.21,-4.41 -21.61,-3.63 -21.02,-2.85 -20.70,-1.91 -20.39,-0.98 -20.39,0.00 -20.39,0.98 -20.70,1.91 -21.02,2.85 -21.61,3.63 -22.21,4.41 -23.03,4.97 -23.84,5.52 -24.79,5.78 -25.74,6.05 -26.72,5.99 -27.71,5.94 -28.62,5.57 -29.53,5.21 -30.29,4.57 -31.04,3.93 -31.54,3.09 -32.05,2.25 -32.26,1.28 -32.47,0.32 -32.37,-0.65 -32.26,-1.62 -31.85,-2.52 -31.43,-3.41 -30.76,-4.13 -30.08,-4.84 -29.21,-5.30 -28.34,-5.76 -27.37,-5.92 -26.39,-6.08 -26.39,-6.08 -26.40,-6.08 -24.87,-6.05 -23.34,-6.02 -21.01,-5.91 -18.68,-5.80 -15.23,-5.70 -11.79,-5.60 -8.29,-5.48 -4.79,-5.35 -2.39,-5.32 0,-5.30 0.63,-5.22 1.26,-5.14 1.86,-4.91 2.46,-4.69 2.98,-4.33 3.51,-3.96 3.93,-3.48 4.36,-3.01 4.65,-2.44 4.95,-1.87 5.10,-1.25 5.26,-0.63 5.26,0.00 5.26,0.63 5.10,1.25 4.95,1.87 4.65,2.44 4.36,3.01 3.93,3.48 3.51,3.96 2.98,4.33 2.46,4.69 1.86,4.91 1.26,5.14 0.63,5.22 -0.00,5.30 -0.00,5.30 L 0,5.30 Z"/></g><g transform="translate(493.17774864637977 51.65325419365399) rotate(0 -34.36393470976418 0)" stroke="none"><path fill="#000000" d="M 0,4.06 Q 0,4.06 -2.39,4.19 -4.79,4.32 -7.00,4.44 -9.22,4.56 -13.81,4.67 -18.40,4.78 -23.28,4.50 -28.17,4.22 -36.24,4.00 -44.30,3.79 -49.53,3.64 -54.75,3.48 -58.77,3.42 -62.79,3.36 -64.49,3.56 -66.20,3.76 -66.80,3.67 -67.40,3.57 -67.94,3.28 -68.48,3.00 -68.90,2.55 -69.32,2.11 -69.58,1.56 -69.83,1.00 -69.90,0.40 -69.96,-0.20 -69.83,-0.79 -69.70,-1.39 -69.39,-1.91 -69.07,-2.44 -68.61,-2.83 -68.14,-3.23 -67.58,-3.45 -67.01,-3.68 -66.40,-3.71 -65.79,-3.74 -65.20,-3.58 -64.62,-3.42 -64.11,-3.07 -63.61,-2.73 -63.24,-2.25 -62.87,-1.76 -62.67,-1.18 -62.48,-0.60 -62.48,0.00 -62.48,0.61 -62.67,1.18 -62.87,1.76 -63.24,2.25 -63.61,2.73 -64.11,3.07 -64.62,3.42 -65.20,3.58 -65.79,3.74 -66.40,3.71 -67.01,3.68 -67.58,3.45 -68.14,3.22 -68.61,2.83 -69.07,2.43 -69.39,1.91 -69.70,1.39 -69.83,0.79 -69.96,0.20 -69.90,-0.40 -69.83,-1.00 -69.58,-1.56 -69.32,-2.11 -68.90,-2.55 -68.48,-3.00 -67.94,-3.28 -67.40,-3.57 -66.80,-3.67 -66.20,-3.76 -66.20,-3.76 -66.20,-3.76 -64.49,-3.56 -62.79,-3.36 -58.77,-3.42 -54.75,-3.48 -49.53,-3.64 -44.30,-3.79 -36.24,-4.00 -28.17,-4.22 -23.28,-4.50 -18.40,-4.78 -13.81,-4.67 -9.22,-4.56 -7.00,-4.44 -4.79,-4.32 -2.39,-4.19 0,-4.06 0.48,-4.00 0.97,-3.94 1.43,-3.77 1.88,-3.60 2.29,-3.32 2.69,-3.04 3.02,-2.67 3.34,-2.30 3.57,-1.87 3.80,-1.44 3.91,-0.96 4.03,-0.48 4.03,0.00 4.03,0.49 3.91,0.96 3.80,1.44 3.57,1.87 3.34,2.31 3.02,2.67 2.69,3.04 2.29,3.32 1.88,3.60 1.43,3.77 0.97,3.94 0.48,4.00 -0.00,4.06 -0.00,4.06 L 0,4.06 Z"/></g><g transform="translate(368.2179860654196 57.901242322702274) rotate(0 -12.495976258096562 0)" stroke="none"><path fill="#000000" d="M 0,5.24 Q 0,5.24 -2.99,5.20 -5.98,5.15 -9.25,5.31 -12.51,5.47 -14.81,5.60 -17.11,5.74 -20.72,5.84 -24.33,5.93 -25.28,5.78 -26.23,5.62 -27.07,5.17 -27.92,4.72 -28.58,4.02 -29.24,3.33 -29.65,2.45 -30.05,1.58 -30.15,0.63 -30.26,-0.32 -30.05,-1.25 -29.84,-2.19 -29.35,-3.02 -28.85,-3.84 -28.12,-4.46 -27.39,-5.08 -26.50,-5.44 -25.61,-5.79 -24.65,-5.84 -23.69,-5.90 -22.76,-5.64 -21.84,-5.38 -21.04,-4.84 -20.25,-4.30 -19.67,-3.54 -19.08,-2.77 -18.78,-1.86 -18.47,-0.95 -18.47,0.00 -18.47,0.96 -18.78,1.87 -19.09,2.78 -19.67,3.54 -20.25,4.31 -21.04,4.84 -21.84,5.38 -22.76,5.64 -23.69,5.90 -24.65,5.84 -25.61,5.79 -26.50,5.44 -27.39,5.08 -28.12,4.46 -28.85,3.84 -29.35,3.01 -29.84,2.19 -30.05,1.25 -30.26,0.31 -30.15,-0.63 -30.05,-1.58 -29.65,-2.46 -29.24,-3.33 -28.58,-4.02 -27.92,-4.72 -27.07,-5.17 -26.22,-5.62 -25.28,-5.78 -24.33,-5.93 -24.33,-5.93 -24.33,-5.93 -20.72,-5.84 -17.11,-5.74 -14.81,-5.60 -12.51,-5.47 -9.25,-5.31 -5.98,-5.15 -2.99,-5.20 0,-5.24 0.62,-5.17 1.25,-5.09 1.84,-4.87 2.43,-4.64 2.96,-4.28 3.48,-3.92 3.90,-3.45 4.32,-2.98 4.61,-2.42 4.90,-1.86 5.05,-1.24 5.21,-0.63 5.21,0.00 5.21,0.63 5.05,1.24 4.90,1.86 4.61,2.42 4.32,2.98 3.90,3.45 3.48,3.92 2.95,4.28 2.43,4.64 1.84,4.87 1.25,5.09 0.62,5.17 -0.00,5.24 -0.00,5.24 L 0,5.24 Z"/></g><g transform="translate(289.07680309747775 57.901242322702274) rotate(0 -24.991952516192214 -1.0413313548415317)" stroke="none"><path fill="#000000" d="M 0,5.25 Q 0,5.25 -2.39,5.28 -4.79,5.31 -8.29,5.44 -11.79,5.57 -15.23,5.68 -18.68,5.78 -21.86,5.87 -25.05,5.96 -27.42,5.94 -29.80,5.91 -32.01,5.91 -34.22,5.91 -36.37,5.91 -38.52,5.92 -41.83,5.18 -45.15,4.44 -47.44,4.17 -49.73,3.90 -50.64,3.61 -51.54,3.32 -52.31,2.76 -53.08,2.20 -53.63,1.42 -54.18,0.64 -54.45,-0.26 -54.72,-1.18 -54.69,-2.13 -54.65,-3.08 -54.31,-3.97 -53.98,-4.86 -53.37,-5.60 -52.77,-6.34 -51.96,-6.84 -51.16,-7.35 -50.23,-7.57 -49.30,-7.79 -48.36,-7.70 -47.41,-7.62 -46.54,-7.23 -45.66,-6.85 -44.96,-6.21 -44.26,-5.56 -43.80,-4.73 -43.34,-3.90 -43.17,-2.96 -42.99,-2.02 -43.13,-1.08 -43.27,-0.14 -43.70,0.70 -44.13,1.55 -44.81,2.22 -45.49,2.89 -46.35,3.30 -47.21,3.72 -48.15,3.84 -49.10,3.95 -50.03,3.77 -50.96,3.58 -51.79,3.10 -52.61,2.63 -53.24,1.91 -53.87,1.20 -54.24,0.32 -54.61,-0.55 -54.67,-1.50 -54.74,-2.45 -54.50,-3.37 -54.27,-4.29 -53.75,-5.09 -53.23,-5.89 -52.48,-6.48 -51.73,-7.07 -50.83,-7.39 -49.94,-7.71 -48.98,-7.73 -48.03,-7.74 -48.03,-7.74 -48.03,-7.74 -45.34,-7.29 -42.65,-6.84 -38.43,-6.38 -34.22,-5.91 -32.01,-5.91 -29.80,-5.91 -27.42,-5.94 -25.05,-5.96 -21.86,-5.87 -18.68,-5.78 -15.23,-5.68 -11.79,-5.57 -8.29,-5.44 -4.79,-5.31 -2.39,-5.28 0,-5.25 0.62,-5.18 1.25,-5.10 1.85,-4.87 2.44,-4.65 2.96,-4.29 3.48,-3.93 3.90,-3.46 4.32,-2.98 4.62,-2.42 4.91,-1.86 5.06,-1.24 5.21,-0.63 5.21,0.00 5.21,0.63 5.06,1.24 4.91,1.86 4.62,2.42 4.32,2.98 3.90,3.46 3.48,3.93 2.96,4.29 2.44,4.65 1.84,4.87 1.25,5.10 0.62,5.18 -0.00,5.25 -0.00,5.25 L 0,5.25 Z"/></g><g transform="translate(166.19970322620065 62.06656774206749) rotate(0 -13.537307612938093 -1.0413313548415317)" stroke="none"><path fill="#000000" d="M 0,5.31 Q 0,5.31 -2.58,5.28 -5.16,5.26 -7.32,4.43 -9.48,3.60 -11.84,3.70 -14.19,3.79 -16.67,3.85 -19.15,3.90 -22.70,3.96 -26.25,4.01 -27.23,3.85 -28.20,3.69 -29.07,3.23 -29.94,2.76 -30.62,2.04 -31.30,1.32 -31.71,0.43 -32.12,-0.46 -32.22,-1.44 -32.33,-2.42 -32.11,-3.39 -31.90,-4.35 -31.39,-5.19 -30.88,-6.04 -30.12,-6.67 -29.37,-7.31 -28.45,-7.67 -27.53,-8.04 -26.55,-8.09 -25.56,-8.14 -24.61,-7.87 -23.66,-7.60 -22.85,-7.05 -22.03,-6.49 -21.44,-5.71 -20.84,-4.92 -20.53,-3.98 -20.22,-3.05 -20.22,-2.06 -20.22,-1.07 -20.54,-0.14 -20.86,0.79 -21.46,1.57 -22.06,2.36 -22.87,2.91 -23.69,3.46 -24.64,3.72 -25.60,3.98 -26.58,3.92 -27.57,3.87 -28.48,3.50 -29.40,3.13 -30.15,2.49 -30.90,1.85 -31.41,1.00 -31.91,0.16 -32.12,-0.80 -32.33,-1.76 -32.22,-2.74 -32.11,-3.72 -31.69,-4.62 -31.28,-5.51 -30.60,-6.23 -29.92,-6.94 -29.04,-7.40 -28.17,-7.86 -27.19,-8.02 -26.22,-8.18 -26.22,-8.18 -26.22,-8.18 -22.59,-8.09 -18.96,-8.01 -16.25,-7.82 -13.53,-7.64 -11.37,-7.46 -9.21,-7.28 -6.81,-6.27 -4.41,-5.26 -2.20,-5.28 0,-5.31 0.63,-5.23 1.27,-5.15 1.87,-4.93 2.46,-4.70 2.99,-4.34 3.52,-3.97 3.94,-3.49 4.37,-3.01 4.67,-2.45 4.96,-1.88 5.12,-1.26 5.27,-0.64 5.27,0.00 5.27,0.64 5.12,1.26 4.96,1.88 4.67,2.45 4.37,3.01 3.94,3.49 3.52,3.97 2.99,4.34 2.46,4.70 1.87,4.93 1.27,5.15 0.63,5.23 -0.00,5.31 -0.00,5.31 L 0,5.31 Z"/></g><g transform="translate(68.31455587111486 80.81053212921142) rotate(0 -15.619970322620247 11.454644903254575)" stroke="none"><path fill="#000000" d="M 1.68,5.06 Q 1.68,5.06 -0.09,5.72 -1.88,6.38 -4.06,6.67 -6.25,6.97 -8.58,9.19 -10.91,11.42 -13.75,13.20 -16.58,14.97 -18.51,16.99 -20.45,19.00 -23.07,22.57 -25.69,26.13 -26.44,26.84 -27.19,27.54 -28.13,27.97 -29.06,28.40 -30.09,28.51 -31.11,28.61 -32.12,28.39 -33.12,28.16 -34.00,27.63 -34.88,27.09 -35.55,26.30 -36.21,25.52 -36.59,24.56 -36.96,23.60 -37.01,22.57 -37.06,21.54 -36.78,20.55 -36.50,19.56 -35.92,18.71 -35.34,17.86 -34.52,17.24 -33.70,16.62 -32.72,16.30 -31.74,15.97 -30.71,15.98 -29.68,15.98 -28.71,16.32 -27.73,16.65 -26.92,17.28 -26.10,17.90 -25.53,18.76 -24.95,19.61 -24.68,20.61 -24.41,21.60 -24.47,22.63 -24.53,23.66 -24.92,24.61 -25.30,25.57 -25.97,26.35 -26.64,27.13 -27.53,27.66 -28.41,28.18 -29.42,28.40 -30.43,28.62 -31.45,28.50 -32.47,28.38 -33.40,27.95 -34.34,27.51 -35.08,26.80 -35.83,26.09 -36.30,25.18 -36.78,24.26 -36.94,23.25 -37.11,22.23 -36.93,21.21 -36.76,20.20 -36.28,19.29 -35.79,18.38 -35.79,18.38 -35.79,18.38 -35.02,17.57 -34.24,16.75 -33.09,14.83 -31.94,12.91 -28.89,10.80 -25.83,8.69 -23.05,6.46 -20.27,4.23 -17.22,2.18 -14.17,0.13 -9.73,-1.92 -5.30,-3.99 -3.49,-4.52 -1.68,-5.06 -1.05,-5.19 -0.42,-5.32 0.21,-5.29 0.85,-5.26 1.47,-5.08 2.09,-4.90 2.65,-4.58 3.20,-4.26 3.67,-3.81 4.13,-3.37 4.47,-2.82 4.82,-2.28 5.02,-1.67 5.23,-1.06 5.28,-0.42 5.33,0.21 5.22,0.85 5.12,1.48 4.87,2.07 4.62,2.67 4.23,3.18 3.84,3.69 3.34,4.10 2.85,4.51 2.26,4.78 1.68,5.06 1.68,5.06 L 1.68,5.06 Z"/></g><g transform="translate(10 134.95976258096107) rotate(0 0 10.413313548413043)" stroke="none"><path fill="#000000" d="M 5.15,0 Q 5.15,0 5.18,2.39 5.22,4.79 5.38,7.69 5.54,10.59 5.67,12.82 5.80,15.05 5.85,17.42 5.90,19.78 5.75,20.72 5.59,21.67 5.14,22.51 4.70,23.35 4.00,24.01 3.31,24.67 2.44,25.07 1.57,25.47 0.62,25.57 -0.32,25.68 -1.25,25.47 -2.18,25.27 -3.00,24.77 -3.82,24.28 -4.44,23.55 -5.06,22.82 -5.41,21.94 -5.76,21.05 -5.81,20.09 -5.87,19.14 -5.61,18.22 -5.36,17.30 -4.82,16.51 -4.28,15.72 -3.52,15.14 -2.76,14.56 -1.86,14.26 -0.95,13.95 0.00,13.95 0.95,13.95 1.86,14.26 2.76,14.56 3.52,15.14 4.28,15.72 4.82,16.51 5.36,17.30 5.61,18.22 5.87,19.14 5.81,20.10 5.76,21.05 5.41,21.94 5.06,22.83 4.44,23.55 3.82,24.28 3.00,24.77 2.18,25.27 1.25,25.47 0.31,25.68 -0.63,25.57 -1.58,25.47 -2.44,25.07 -3.31,24.67 -4.00,24.01 -4.70,23.35 -5.15,22.51 -5.59,21.66 -5.75,20.72 -5.90,19.78 -5.90,19.78 -5.90,19.78 -5.85,17.42 -5.80,15.05 -5.67,12.82 -5.54,10.59 -5.38,7.69 -5.22,4.79 -5.18,2.39 -5.15,0 -5.07,-0.61 -5.00,-1.23 -4.78,-1.81 -4.56,-2.39 -4.20,-2.90 -3.85,-3.41 -3.39,-3.82 -2.92,-4.23 -2.37,-4.52 -1.82,-4.81 -1.22,-4.96 -0.62,-5.11 0.00,-5.11 0.62,-5.11 1.22,-4.96 1.82,-4.81 2.37,-4.52 2.92,-4.23 3.39,-3.82 3.85,-3.41 4.20,-2.90 4.56,-2.39 4.78,-1.81 5.00,-1.23 5.07,-0.61 5.15,0.00 5.15,0.00 L 5.15,0 Z"/></g><g transform="translate(18.330650838730435 189.1089930327098) rotate(0 11.45464490325503 9.371982193571966)" stroke="none"><path fill="#000000" d="M 5.07,-1.69 Q 5.07,-1.69 5.72,0.06 6.37,1.82 8.55,3.05 10.72,4.28 13.01,5.43 15.31,6.59 17.37,8.59 19.43,10.59 22.45,11.79 25.46,13.00 26.21,13.67 26.95,14.35 27.44,15.23 27.93,16.11 28.11,17.09 28.30,18.08 28.15,19.08 28.01,20.07 27.56,20.97 27.11,21.86 26.39,22.57 25.68,23.28 24.78,23.72 23.87,24.16 22.88,24.29 21.88,24.42 20.90,24.22 19.91,24.03 19.04,23.53 18.17,23.03 17.50,22.27 16.84,21.52 16.44,20.60 16.05,19.67 15.98,18.67 15.90,17.67 16.15,16.69 16.40,15.72 16.95,14.88 17.49,14.03 18.28,13.41 19.07,12.79 20.01,12.45 20.96,12.10 21.96,12.08 22.97,12.06 23.92,12.36 24.88,12.66 25.69,13.26 26.51,13.85 27.09,14.67 27.67,15.49 27.96,16.45 28.25,17.41 28.21,18.42 28.18,19.42 27.83,20.36 27.47,21.30 26.84,22.08 26.21,22.86 25.36,23.39 24.51,23.93 23.53,24.17 22.55,24.40 21.55,24.31 20.55,24.23 19.63,23.82 18.71,23.42 18.71,23.42 18.71,23.42 17.53,22.50 16.34,21.59 11.89,18.87 7.45,16.15 5.04,14.69 2.64,13.24 0.44,11.31 -1.76,9.39 -2.87,7.37 -3.98,5.35 -4.53,3.52 -5.07,1.69 -5.20,1.06 -5.33,0.42 -5.30,-0.21 -5.28,-0.86 -5.10,-1.48 -4.92,-2.10 -4.60,-2.65 -4.27,-3.21 -3.83,-3.68 -3.38,-4.14 -2.83,-4.49 -2.29,-4.83 -1.68,-5.04 -1.06,-5.24 -0.42,-5.29 0.21,-5.34 0.85,-5.24 1.49,-5.14 2.08,-4.88 2.67,-4.63 3.19,-4.24 3.71,-3.85 4.11,-3.35 4.52,-2.85 4.80,-2.27 5.07,-1.69 5.07,-1.69 L 5.07,-1.69 Z"/></g><g transform="translate(99.55449651635354 224.51425909731552) rotate(0 15.619970322620247 0)" stroke="none"><path fill="#000000" d="M 0,-4.95 Q 0,-4.95 2.99,-4.93 5.98,-4.91 8.45,-4.96 10.92,-5.02 15.07,-5.13 19.21,-5.25 22.07,-5.22 24.93,-5.20 27.51,-5.27 30.10,-5.34 30.95,-5.20 31.80,-5.06 32.57,-4.65 33.33,-4.25 33.92,-3.62 34.52,-2.99 34.88,-2.21 35.24,-1.42 35.34,-0.56 35.43,0.28 35.25,1.13 35.06,1.97 34.61,2.71 34.17,3.45 33.51,4.01 32.85,4.57 32.05,4.89 31.24,5.21 30.38,5.26 29.52,5.31 28.68,5.08 27.85,4.84 27.14,4.36 26.42,3.87 25.90,3.19 25.37,2.50 25.10,1.68 24.82,0.86 24.82,-0.00 24.82,-0.86 25.10,-1.68 25.38,-2.50 25.90,-3.19 26.42,-3.87 27.14,-4.36 27.85,-4.84 28.69,-5.08 29.52,-5.31 30.38,-5.26 31.25,-5.21 32.05,-4.89 32.85,-4.57 33.51,-4.01 34.17,-3.45 34.61,-2.71 35.06,-1.97 35.25,-1.13 35.43,-0.28 35.34,0.57 35.24,1.43 34.88,2.21 34.52,2.99 33.92,3.62 33.33,4.25 32.56,4.65 31.80,5.06 30.95,5.20 30.09,5.34 30.09,5.34 30.10,5.34 27.51,5.27 24.93,5.20 22.07,5.22 19.21,5.25 15.07,5.13 10.92,5.02 8.45,4.96 5.98,4.91 2.99,4.93 0,4.95 -0.59,4.88 -1.18,4.81 -1.74,4.60 -2.30,4.39 -2.79,4.05 -3.28,3.71 -3.68,3.26 -4.08,2.81 -4.35,2.28 -4.63,1.75 -4.78,1.17 -4.92,0.59 -4.92,-0.00 -4.92,-0.59 -4.78,-1.17 -4.63,-1.75 -4.35,-2.28 -4.08,-2.81 -3.68,-3.26 -3.28,-3.71 -2.79,-4.05 -2.30,-4.39 -1.74,-4.60 -1.18,-4.81 -0.59,-4.88 0.00,-4.95 0.00,-4.95 L 0,-4.95 Z"/></g><g transform="translate(199.5223065811224 226.59692180699767) rotate(0 13.537307612937184 0)" stroke="none"><path fill="#000000" d="M 0,-5.09 Q 0,-5.09 2.99,-5.06 5.98,-5.02 9.85,-5.18 13.71,-5.33 16.97,-5.47 20.23,-5.60 23.03,-5.66 25.83,-5.72 26.75,-5.57 27.66,-5.42 28.48,-4.99 29.30,-4.56 29.94,-3.88 30.57,-3.21 30.96,-2.37 31.35,-1.53 31.45,-0.61 31.55,0.31 31.35,1.21 31.15,2.12 30.68,2.91 30.20,3.70 29.49,4.30 28.79,4.90 27.93,5.25 27.06,5.59 26.14,5.64 25.21,5.69 24.32,5.44 23.43,5.19 22.66,4.67 21.89,4.15 21.33,3.42 20.77,2.68 20.48,1.80 20.18,0.92 20.18,-0.00 20.18,-0.92 20.48,-1.80 20.77,-2.68 21.33,-3.42 21.89,-4.15 22.66,-4.67 23.43,-5.19 24.32,-5.44 25.22,-5.69 26.14,-5.64 27.07,-5.59 27.93,-5.25 28.79,-4.90 29.49,-4.30 30.20,-3.70 30.68,-2.91 31.16,-2.11 31.35,-1.21 31.55,-0.30 31.45,0.61 31.35,1.53 30.96,2.37 30.57,3.21 29.94,3.88 29.30,4.56 28.48,4.99 27.66,5.42 26.75,5.57 25.83,5.72 25.83,5.72 25.83,5.72 23.03,5.66 20.23,5.60 16.97,5.47 13.71,5.33 9.85,5.18 5.98,5.02 2.99,5.06 0,5.09 -0.60,5.02 -1.21,4.94 -1.79,4.72 -2.36,4.51 -2.87,4.16 -3.37,3.81 -3.78,3.35 -4.19,2.89 -4.47,2.35 -4.76,1.80 -4.91,1.21 -5.05,0.61 -5.05,-0.00 -5.05,-0.61 -4.91,-1.21 -4.76,-1.80 -4.47,-2.35 -4.19,-2.89 -3.78,-3.35 -3.37,-3.81 -2.87,-4.16 -2.36,-4.51 -1.79,-4.73 -1.21,-4.94 -0.60,-5.02 0.00,-5.09 0.00,-5.09 L 0,-5.09 Z"/></g><g transform="translate(295.3247912265251 226.59692180699767) rotate(0 12.495976258096562 1.0413313548415317)" stroke="none"><path fill="#000000" d="M 0,-4.94 Q 0,-4.94 2.40,-4.99 4.81,-5.05 8.13,-4.38 11.46,-3.72 13.60,-3.55 15.74,-3.39 19.96,-3.34 24.18,-3.30 25.03,-3.14 25.88,-2.97 26.64,-2.54 27.39,-2.11 27.97,-1.47 28.55,-0.82 28.89,-0.02 29.23,0.77 29.30,1.63 29.37,2.50 29.15,3.34 28.94,4.18 28.47,4.91 28.00,5.64 27.32,6.18 26.65,6.73 25.83,7.02 25.02,7.32 24.15,7.34 23.28,7.36 22.45,7.11 21.62,6.85 20.92,6.34 20.21,5.83 19.71,5.13 19.21,4.42 18.95,3.59 18.70,2.76 18.73,1.89 18.75,1.02 19.05,0.21 19.36,-0.60 19.90,-1.27 20.45,-1.95 21.18,-2.41 21.91,-2.88 22.76,-3.08 23.60,-3.29 24.46,-3.22 25.33,-3.14 26.13,-2.80 26.92,-2.45 27.57,-1.87 28.21,-1.29 28.64,-0.53 29.06,0.21 29.22,1.07 29.38,1.92 29.26,2.78 29.14,3.64 28.76,4.42 28.37,5.19 27.75,5.80 27.14,6.42 26.36,6.80 25.58,7.18 24.72,7.30 23.86,7.41 23.86,7.41 23.86,7.41 21.62,7.28 19.37,7.15 17.02,6.97 14.66,6.80 12.01,6.46 9.37,6.11 7.07,5.58 4.76,5.05 2.38,4.99 0,4.94 -0.59,4.86 -1.18,4.79 -1.73,4.58 -2.29,4.37 -2.78,4.03 -3.27,3.69 -3.67,3.25 -4.06,2.80 -4.34,2.27 -4.62,1.75 -4.76,1.17 -4.90,0.59 -4.90,-0.00 -4.90,-0.59 -4.76,-1.17 -4.62,-1.75 -4.34,-2.28 -4.06,-2.80 -3.67,-3.25 -3.27,-3.69 -2.78,-4.03 -2.29,-4.37 -1.73,-4.58 -1.18,-4.79 -0.59,-4.86 0.00,-4.94 0.00,-4.94 L 0,-4.94 Z"/></g><g transform="translate(395.292601291294 224.51425909731552) rotate(0 17.7026330323024 0)" stroke="none"><path fill="#000000" d="M 0,-5.01 Q 0,-5.01 3.59,-4.87 7.18,-4.73 9.90,-4.77 12.63,-4.81 14.98,-4.88 17.34,-4.95 19.54,-5.02 21.74,-5.09 23.87,-5.16 26.00,-5.22 30.23,-5.34 34.46,-5.46 35.33,-5.31 36.21,-5.17 36.99,-4.76 37.77,-4.34 38.38,-3.70 38.98,-3.06 39.35,-2.26 39.73,-1.46 39.82,-0.58 39.92,0.29 39.73,1.15 39.54,2.02 39.08,2.77 38.63,3.53 37.95,4.10 37.28,4.68 36.46,5.00 35.64,5.33 34.75,5.38 33.87,5.43 33.02,5.19 32.17,4.95 31.44,4.46 30.71,3.96 30.17,3.26 29.64,2.55 29.35,1.72 29.07,0.88 29.07,-0.00 29.07,-0.88 29.35,-1.72 29.64,-2.55 30.17,-3.26 30.71,-3.96 31.44,-4.46 32.17,-4.95 33.02,-5.19 33.87,-5.43 34.76,-5.38 35.64,-5.33 36.46,-5.00 37.28,-4.67 37.95,-4.10 38.63,-3.53 39.08,-2.77 39.54,-2.02 39.73,-1.15 39.92,-0.29 39.82,0.58 39.73,1.46 39.35,2.26 38.98,3.06 38.37,3.70 37.77,4.34 36.99,4.76 36.20,5.17 35.33,5.31 34.46,5.46 34.46,5.46 34.46,5.46 30.23,5.34 26.00,5.22 23.87,5.16 21.74,5.09 19.54,5.02 17.34,4.95 14.98,4.88 12.63,4.81 9.90,4.77 7.18,4.73 3.59,4.87 0,5.01 -0.60,4.94 -1.20,4.87 -1.76,4.65 -2.33,4.44 -2.82,4.09 -3.32,3.75 -3.72,3.30 -4.12,2.84 -4.40,2.31 -4.69,1.77 -4.83,1.19 -4.98,0.60 -4.98,-0.00 -4.98,-0.60 -4.83,-1.19 -4.69,-1.77 -4.40,-2.31 -4.12,-2.85 -3.72,-3.30 -3.32,-3.75 -2.82,-4.09 -2.33,-4.44 -1.76,-4.65 -1.20,-4.87 -0.59,-4.94 0.00,-5.01 0.00,-5.01 L 0,-5.01 Z"/></g><g transform="translate(486.9297605173306 228.67958451668073) rotate(0 16.66130167746178 0)" stroke="none"><path fill="#000000" d="M 0,-5.24 Q 0,-5.24 2.99,-5.20 5.98,-5.15 9.85,-5.29 13.71,-5.42 16.97,-5.55 20.23,-5.67 24.23,-5.74 28.23,-5.80 30.31,-5.84 32.40,-5.89 33.34,-5.73 34.28,-5.58 35.12,-5.13 35.96,-4.69 36.62,-3.99 37.28,-3.30 37.68,-2.44 38.08,-1.57 38.18,-0.62 38.28,0.31 38.08,1.25 37.87,2.18 37.38,2.99 36.89,3.81 36.16,4.43 35.44,5.04 34.55,5.40 33.66,5.75 32.71,5.80 31.76,5.85 30.84,5.60 29.92,5.34 29.13,4.81 28.35,4.27 27.77,3.51 27.19,2.75 26.89,1.85 26.58,0.95 26.58,-0.00 26.58,-0.95 26.89,-1.85 27.19,-2.76 27.77,-3.51 28.35,-4.27 29.14,-4.81 29.93,-5.34 30.84,-5.60 31.76,-5.85 32.71,-5.80 33.67,-5.75 34.55,-5.40 35.44,-5.04 36.16,-4.43 36.89,-3.81 37.38,-2.99 37.87,-2.17 38.08,-1.24 38.28,-0.31 38.18,0.63 38.08,1.57 37.68,2.44 37.27,3.30 36.62,4.00 35.96,4.69 35.12,5.13 34.28,5.58 33.34,5.73 32.40,5.89 32.40,5.89 32.40,5.89 30.31,5.84 28.23,5.80 24.23,5.74 20.23,5.67 16.97,5.55 13.71,5.42 9.85,5.29 5.98,5.15 2.99,5.20 0,5.24 -0.62,5.17 -1.25,5.09 -1.84,4.87 -2.43,4.64 -2.95,4.28 -3.48,3.92 -3.89,3.45 -4.31,2.98 -4.61,2.42 -4.90,1.86 -5.05,1.24 -5.21,0.63 -5.21,-0.00 -5.21,-0.63 -5.05,-1.24 -4.90,-1.86 -4.61,-2.42 -4.31,-2.98 -3.89,-3.45 -3.47,-3.92 -2.95,-4.28 -2.43,-4.64 -1.84,-4.87 -1.25,-5.09 -0.62,-5.17 0.00,-5.24 0.00,-5.24 L 0,-5.24 Z"/></g><g transform="translate(688.9480433565495 51.65325419365399) rotate(0 9.371982193571966 1.041331354841077)" stroke="none"><path fill="#000000" d="M 0,-4.95 Q 0,-4.95 2.39,-5.00 4.79,-5.06 7.06,-5.11 9.34,-5.16 11.77,-4.48 14.20,-3.79 16.26,-3.65 18.32,-3.51 19.17,-3.25 20.02,-2.98 20.74,-2.47 21.46,-1.95 21.98,-1.23 22.49,-0.50 22.75,0.33 23.01,1.18 22.99,2.07 22.96,2.96 22.65,3.79 22.35,4.62 21.79,5.31 21.23,6.01 20.49,6.48 19.74,6.96 18.88,7.17 18.01,7.39 17.13,7.31 16.24,7.24 15.43,6.89 14.61,6.54 13.95,5.94 13.29,5.35 12.86,4.58 12.42,3.80 12.26,2.93 12.09,2.06 12.21,1.18 12.33,0.30 12.73,-0.48 13.12,-1.28 13.75,-1.91 14.38,-2.53 15.18,-2.93 15.97,-3.32 16.85,-3.44 17.73,-3.56 18.60,-3.39 19.47,-3.22 20.25,-2.78 21.02,-2.34 21.61,-1.68 22.20,-1.02 22.55,-0.20 22.90,0.60 22.97,1.49 23.04,2.37 22.83,3.23 22.61,4.09 22.13,4.84 21.65,5.59 20.96,6.14 20.27,6.70 19.44,7.00 18.60,7.31 17.71,7.33 16.83,7.35 16.83,7.35 16.83,7.35 12.96,6.25 9.09,5.16 6.94,5.11 4.79,5.06 2.39,5.00 0,4.95 -0.59,4.87 -1.18,4.80 -1.74,4.59 -2.30,4.38 -2.79,4.04 -3.28,3.70 -3.67,3.25 -4.07,2.81 -4.35,2.28 -4.62,1.75 -4.77,1.17 -4.91,0.59 -4.91,-0.00 -4.91,-0.59 -4.77,-1.17 -4.62,-1.75 -4.35,-2.28 -4.07,-2.81 -3.67,-3.25 -3.28,-3.70 -2.79,-4.04 -2.30,-4.38 -1.74,-4.59 -1.18,-4.80 -0.59,-4.87 0.00,-4.95 0.00,-4.95 L 0,-4.95 Z"/></g><g transform="translate(749.3452619373475 53.73591690333615) rotate(0 17.7026330323024 -2.0826627096826087)" stroke="none"><path fill="#000000" d="M 0,-5.24 Q 0,-5.24 2.39,-5.27 4.79,-5.30 7.69,-5.45 10.59,-5.61 12.82,-5.73 15.05,-5.86 19.19,-5.86 23.32,-5.86 26.63,-6.69 29.94,-7.53 30.80,-8.25 31.66,-8.97 32.58,-9.31 33.49,-9.64 34.47,-9.66 35.44,-9.68 36.37,-9.39 37.31,-9.10 38.10,-8.53 38.88,-7.96 39.45,-7.17 40.02,-6.37 40.30,-5.44 40.58,-4.51 40.55,-3.53 40.52,-2.56 40.18,-1.64 39.84,-0.73 39.23,0.02 38.61,0.77 37.79,1.30 36.97,1.82 36.02,2.05 35.07,2.28 34.10,2.20 33.13,2.12 32.24,1.73 31.34,1.34 30.62,0.68 29.90,0.03 29.42,-0.81 28.94,-1.66 28.76,-2.62 28.58,-3.58 28.72,-4.54 28.85,-5.51 29.29,-6.38 29.73,-7.25 30.42,-7.94 31.11,-8.62 31.99,-9.05 32.86,-9.48 33.83,-9.61 34.80,-9.74 35.75,-9.55 36.71,-9.36 37.56,-8.88 38.40,-8.40 39.05,-7.67 39.70,-6.94 40.08,-6.04 40.46,-5.15 40.54,-4.17 40.61,-3.20 40.37,-2.26 40.13,-1.31 39.60,-0.49 39.08,0.32 38.31,0.92 37.55,1.53 37.55,1.53 37.55,1.53 33.47,2.99 29.39,4.45 26.41,5.16 23.42,5.86 19.24,5.86 15.05,5.86 12.82,5.73 10.59,5.61 7.69,5.45 4.79,5.30 2.39,5.27 0,5.24 -0.62,5.17 -1.25,5.09 -1.84,4.87 -2.43,4.64 -2.95,4.28 -3.47,3.92 -3.89,3.45 -4.31,2.98 -4.61,2.42 -4.90,1.86 -5.05,1.24 -5.20,0.63 -5.20,-0.00 -5.20,-0.63 -5.05,-1.24 -4.90,-1.86 -4.61,-2.42 -4.31,-2.98 -3.89,-3.45 -3.47,-3.92 -2.95,-4.28 -2.43,-4.64 -1.84,-4.87 -1.25,-5.09 -0.62,-5.17 0.00,-5.24 0.00,-5.24 L 0,-5.24 Z"/></g><g transform="translate(803.4944923890962 32.90928980651006) rotate(0 9.371982193572876 -11.45464490325503)" stroke="none"><path fill="#000000" d="M -2.37,-4.75 Q -2.37,-4.75 0.01,-5.94 2.41,-7.13 5.29,-8.76 8.17,-10.39 9.34,-13.31 10.51,-16.22 11.53,-18.35 12.55,-20.48 12.51,-21.77 12.47,-23.06 12.82,-24.00 13.17,-24.93 13.80,-25.71 14.44,-26.48 15.28,-27.02 16.13,-27.55 17.10,-27.79 18.07,-28.02 19.06,-27.94 20.06,-27.85 20.97,-27.45 21.89,-27.05 22.63,-26.38 23.37,-25.71 23.86,-24.83 24.34,-23.96 24.52,-22.98 24.71,-22.00 24.57,-21.01 24.43,-20.02 23.98,-19.12 23.53,-18.23 22.82,-17.53 22.11,-16.83 21.21,-16.39 20.31,-15.95 19.32,-15.82 18.33,-15.69 17.35,-15.89 16.37,-16.08 15.50,-16.58 14.64,-17.07 13.97,-17.82 13.31,-18.57 12.92,-19.49 12.53,-20.41 12.46,-21.40 12.38,-22.40 12.63,-23.37 12.87,-24.34 13.42,-25.18 13.96,-26.01 14.74,-26.64 15.53,-27.26 16.47,-27.60 17.41,-27.94 18.40,-27.96 19.40,-27.98 20.36,-27.68 21.31,-27.38 22.12,-26.79 22.93,-26.20 23.50,-25.39 24.08,-24.57 24.37,-23.62 24.66,-22.66 24.62,-21.66 24.59,-20.66 24.59,-20.66 24.59,-20.67 23.62,-17.24 22.65,-13.81 21.32,-11.52 19.98,-9.23 18.19,-6.58 16.39,-3.93 13.72,-2.02 11.05,-0.11 9.10,1.11 7.16,2.34 4.77,3.54 2.37,4.75 1.77,4.96 1.17,5.18 0.53,5.24 -0.10,5.31 -0.73,5.22 -1.37,5.13 -1.96,4.89 -2.56,4.65 -3.08,4.28 -3.60,3.90 -4.01,3.42 -4.43,2.93 -4.71,2.35 -5.00,1.78 -5.14,1.16 -5.28,0.53 -5.27,-0.10 -5.26,-0.74 -5.09,-1.36 -4.93,-1.98 -4.62,-2.54 -4.31,-3.10 -3.87,-3.57 -3.44,-4.04 -2.91,-4.40 -2.37,-4.75 -2.37,-4.75 L -2.37,-4.75 Z"/></g><g transform="translate(555.6576299368589 234.92757264572901) rotate(0 12.495976258096562 -2.0826627096826087)" stroke="none"><path fill="#000000" d="M -1.91,-4.78 Q -1.91,-4.78 1.11,-5.90 4.13,-7.03 6.25,-7.71 8.37,-8.39 12.09,-8.94 15.81,-9.50 18.45,-9.69 21.08,-9.89 22.67,-9.94 24.26,-9.99 25.19,-9.84 26.12,-9.69 26.96,-9.26 27.80,-8.82 28.45,-8.14 29.10,-7.46 29.50,-6.61 29.91,-5.75 30.01,-4.81 30.12,-3.88 29.92,-2.95 29.73,-2.03 29.25,-1.22 28.76,-0.41 28.05,0.20 27.33,0.81 26.46,1.17 25.59,1.52 24.64,1.58 23.70,1.63 22.79,1.39 21.88,1.14 21.10,0.62 20.31,0.09 19.74,-0.64 19.16,-1.39 18.86,-2.28 18.55,-3.18 18.54,-4.12 18.54,-5.06 18.83,-5.96 19.13,-6.85 19.69,-7.61 20.26,-8.36 21.04,-8.90 21.82,-9.43 22.72,-9.69 23.63,-9.95 24.57,-9.90 25.51,-9.86 26.39,-9.51 27.27,-9.17 27.99,-8.56 28.72,-7.96 29.21,-7.15 29.70,-6.35 29.91,-5.43 30.12,-4.51 30.02,-3.57 29.92,-2.63 29.53,-1.77 29.14,-0.91 28.50,-0.22 27.85,0.45 27.02,0.90 26.19,1.35 25.26,1.51 24.33,1.67 24.33,1.67 24.33,1.67 21.65,1.59 18.97,1.51 16.15,1.47 13.33,1.43 10.58,1.83 7.83,2.24 4.87,3.51 1.91,4.78 1.31,4.94 0.71,5.10 0.09,5.11 -0.52,5.12 -1.13,4.98 -1.73,4.84 -2.29,4.56 -2.84,4.29 -3.32,3.88 -3.79,3.48 -4.15,2.97 -4.51,2.47 -4.74,1.89 -4.97,1.32 -5.06,0.70 -5.15,0.09 -5.08,-0.52 -5.02,-1.14 -4.81,-1.72 -4.60,-2.31 -4.25,-2.82 -3.91,-3.34 -3.45,-3.76 -3.00,-4.18 -2.45,-4.48 -1.91,-4.78 -1.91,-4.78 L -1.91,-4.78 Z"/></g><g transform="translate(638.9641383241669 224.51425909731552) rotate(0 10.413313548412589 1.041331354841077)" stroke="none"><path fill="#000000" d="M 0,-5.00 Q 0,-5.00 2.99,-4.97 5.98,-4.95 10.27,-4.32 14.56,-3.69 17.49,-3.61 20.41,-3.52 21.28,-3.30 22.15,-3.09 22.91,-2.61 23.67,-2.12 24.24,-1.42 24.80,-0.72 25.11,0.11 25.42,0.95 25.45,1.85 25.48,2.75 25.21,3.61 24.95,4.47 24.43,5.20 23.90,5.93 23.17,6.46 22.45,6.98 21.59,7.25 20.73,7.51 19.83,7.49 18.93,7.47 18.09,7.16 17.24,6.85 16.54,6.29 15.84,5.73 15.35,4.97 14.87,4.21 14.65,3.34 14.43,2.47 14.50,1.57 14.57,0.68 14.93,-0.14 15.28,-0.97 15.88,-1.64 16.48,-2.31 17.26,-2.75 18.04,-3.19 18.93,-3.36 19.81,-3.54 20.70,-3.42 21.59,-3.30 22.40,-2.90 23.20,-2.50 23.84,-1.86 24.48,-1.23 24.88,-0.42 25.28,0.37 25.40,1.26 25.52,2.15 25.35,3.03 25.19,3.92 24.75,4.70 24.30,5.48 23.64,6.09 22.97,6.69 22.14,7.04 21.32,7.40 20.42,7.48 19.53,7.55 19.53,7.55 19.53,7.55 17.43,7.32 15.33,7.10 12.89,6.59 10.46,6.09 8.22,5.52 5.98,4.95 2.99,4.97 0,5.00 -0.59,4.92 -1.19,4.85 -1.76,4.64 -2.32,4.42 -2.82,4.08 -3.31,3.74 -3.71,3.29 -4.11,2.84 -4.39,2.30 -4.67,1.77 -4.82,1.18 -4.96,0.60 -4.96,-0.00 -4.96,-0.60 -4.82,-1.18 -4.67,-1.77 -4.39,-2.30 -4.11,-2.84 -3.71,-3.29 -3.31,-3.74 -2.82,-4.08 -2.32,-4.42 -1.76,-4.64 -1.19,-4.85 -0.59,-4.92 0.00,-5.00 0.00,-5.00 L 0,-5.00 Z"/></g><g transform="translate(730.6012975502035 228.67958451668073) rotate(0 12.495976258096562 8.33065083873089)" stroke="none"><path fill="#000000" d="M 2.32,-4.64 Q 2.32,-4.64 4.76,-3.42 7.20,-2.19 9.50,-0.03 11.80,2.13 14.22,3.14 16.65,4.15 19.76,6.43 22.88,8.70 24.93,9.84 26.99,10.98 27.71,11.60 28.43,12.22 28.92,13.04 29.41,13.86 29.61,14.79 29.81,15.72 29.70,16.67 29.59,17.61 29.19,18.48 28.78,19.34 28.12,20.03 27.46,20.72 26.62,21.16 25.78,21.60 24.83,21.75 23.89,21.90 22.95,21.74 22.01,21.58 21.17,21.13 20.33,20.68 19.68,19.99 19.03,19.29 18.63,18.42 18.24,17.56 18.14,16.61 18.04,15.66 18.25,14.73 18.46,13.80 18.96,12.98 19.45,12.17 20.18,11.56 20.91,10.94 21.80,10.60 22.69,10.25 23.64,10.20 24.59,10.15 25.51,10.41 26.42,10.67 27.21,11.21 28.00,11.75 28.57,12.51 29.14,13.28 29.44,14.18 29.74,15.09 29.74,16.04 29.73,16.99 29.42,17.89 29.11,18.80 28.53,19.55 27.95,20.31 27.16,20.84 26.37,21.37 25.45,21.62 24.53,21.87 23.58,21.81 22.63,21.76 21.74,21.40 20.86,21.04 20.86,21.04 20.86,21.04 17.13,18.32 13.40,15.60 10.66,13.80 7.92,12.00 5.14,9.49 2.37,6.98 0.02,5.81 -2.32,4.64 -2.84,4.30 -3.36,3.95 -3.79,3.49 -4.21,3.03 -4.51,2.48 -4.82,1.93 -4.98,1.33 -5.14,0.72 -5.15,0.10 -5.17,-0.52 -5.03,-1.13 -4.89,-1.74 -4.61,-2.30 -4.33,-2.86 -3.92,-3.34 -3.52,-3.82 -3.01,-4.18 -2.50,-4.55 -1.92,-4.78 -1.34,-5.02 -0.72,-5.10 -0.10,-5.19 0.52,-5.13 1.14,-5.06 1.73,-4.85 2.32,-4.64 2.32,-4.64 L 2.32,-4.64 Z"/></g><g transform="translate(801.411829679415 270.3328387103347) rotate(0 4.165325419365217 9.371982193571966)" stroke="none"><path fill="#000000" d="M 4.35,-2.90 Q 4.35,-2.90 5.59,-1.13 6.83,0.63 8.80,3.61 10.77,6.60 12.22,10.06 13.66,13.52 13.96,15.45 14.25,17.37 14.21,18.35 14.16,19.33 13.81,20.24 13.46,21.15 12.83,21.90 12.20,22.65 11.37,23.16 10.54,23.68 9.58,23.90 8.63,24.11 7.66,24.02 6.68,23.92 5.79,23.52 4.90,23.12 4.19,22.45 3.47,21.78 3.00,20.92 2.54,20.06 2.37,19.10 2.20,18.14 2.35,17.17 2.50,16.20 2.95,15.34 3.40,14.47 4.11,13.79 4.81,13.11 5.69,12.69 6.58,12.27 7.55,12.16 8.52,12.04 9.48,12.25 10.43,12.45 11.28,12.94 12.12,13.44 12.76,14.18 13.40,14.92 13.77,15.82 14.14,16.73 14.20,17.71 14.26,18.68 14.01,19.63 13.76,20.57 13.22,21.38 12.67,22.20 11.90,22.80 11.13,23.40 10.20,23.72 9.28,24.04 8.30,24.05 7.32,24.06 6.39,23.75 5.46,23.45 4.68,22.86 3.90,22.28 3.34,21.47 2.78,20.67 2.51,19.73 2.24,18.79 2.25,18.79 2.25,18.79 2.29,17.44 2.34,16.10 1.33,13.41 0.32,10.73 -0.85,8.64 -2.04,6.55 -3.19,4.72 -4.35,2.90 -4.63,2.33 -4.91,1.77 -5.05,1.16 -5.19,0.54 -5.18,-0.08 -5.17,-0.71 -5.01,-1.32 -4.85,-1.93 -4.55,-2.48 -4.25,-3.03 -3.82,-3.50 -3.40,-3.96 -2.87,-4.31 -2.35,-4.66 -1.76,-4.88 -1.16,-5.09 -0.54,-5.16 0.08,-5.22 0.70,-5.14 1.33,-5.05 1.91,-4.82 2.50,-4.58 3.01,-4.22 3.52,-3.85 3.94,-3.37 4.35,-2.89 4.35,-2.89 L 4.35,-2.90 Z"/></g><g transform="translate(807.6598178084623 328.6473945814487) rotate(0 2.0826627096830634 6.247988129048281)" stroke="none"><path fill="#000000" d="M 4.04,-2.69 Q 4.04,-2.69 5.32,-0.90 6.61,0.89 7.51,3.55 8.42,6.21 8.84,8.51 9.27,10.80 9.26,11.66 9.25,12.52 8.96,13.32 8.68,14.13 8.15,14.81 7.62,15.49 6.91,15.96 6.19,16.43 5.36,16.65 4.53,16.87 3.68,16.81 2.82,16.76 2.03,16.43 1.23,16.10 0.59,15.54 -0.05,14.97 -0.48,14.23 -0.92,13.49 -1.09,12.65 -1.26,11.81 -1.16,10.96 -1.06,10.11 -0.69,9.33 -0.32,8.56 0.27,7.94 0.87,7.33 1.63,6.94 2.40,6.54 3.24,6.42 4.09,6.29 4.94,6.44 5.78,6.59 6.53,7.00 7.29,7.41 7.87,8.04 8.45,8.67 8.80,9.45 9.15,10.24 9.23,11.09 9.32,11.95 9.12,12.78 8.93,13.62 8.47,14.35 8.02,15.08 7.36,15.62 6.70,16.17 5.90,16.48 5.10,16.78 4.24,16.82 3.38,16.86 2.56,16.61 1.74,16.37 1.03,15.88 0.33,15.39 -0.17,14.70 -0.68,14.01 -0.95,13.20 -1.21,12.38 -1.21,12.38 -1.21,12.38 -1.51,9.34 -1.82,6.29 -2.93,4.49 -4.04,2.69 -4.30,2.17 -4.57,1.64 -4.70,1.07 -4.83,0.50 -4.82,-0.07 -4.81,-0.66 -4.66,-1.22 -4.51,-1.79 -4.23,-2.31 -3.95,-2.82 -3.55,-3.25 -3.16,-3.68 -2.67,-4.01 -2.18,-4.33 -1.63,-4.53 -1.08,-4.73 -0.50,-4.79 0.07,-4.85 0.65,-4.77 1.23,-4.69 1.78,-4.48 2.32,-4.26 2.80,-3.92 3.28,-3.58 3.66,-3.13 4.04,-2.69 4.04,-2.69 L 4.04,-2.69 Z"/></g><g transform="translate(803.4944923890962 374.4659741944679) rotate(0 -2.082662709682154 9.371982193571966)" stroke="none"><path fill="#000000" d="M 5.06,0 Q 5.06,0 5.03,2.99 5.00,5.98 4.98,8.17 4.96,10.35 4.04,12.37 3.13,14.40 2.10,17.77 1.07,21.15 0.46,21.84 -0.15,22.53 -0.95,22.99 -1.75,23.45 -2.66,23.63 -3.57,23.81 -4.48,23.69 -5.40,23.57 -6.23,23.17 -7.06,22.76 -7.72,22.11 -8.38,21.46 -8.79,20.63 -9.21,19.81 -9.34,18.89 -9.47,17.98 -9.30,17.07 -9.13,16.16 -8.68,15.35 -8.23,14.54 -7.55,13.92 -6.86,13.30 -6.02,12.93 -5.17,12.56 -4.25,12.48 -3.33,12.40 -2.43,12.61 -1.53,12.83 -0.75,13.33 0.03,13.82 0.61,14.54 1.19,15.25 1.52,16.12 1.84,16.99 1.87,17.91 1.90,18.83 1.64,19.72 1.37,20.61 0.84,21.36 0.30,22.11 -0.44,22.66 -1.19,23.20 -2.07,23.48 -2.95,23.76 -3.87,23.74 -4.80,23.72 -5.67,23.40 -6.54,23.09 -7.26,22.51 -7.99,21.94 -8.49,21.16 -8.99,20.39 -9.22,19.49 -9.45,18.59 -9.38,17.67 -9.31,16.75 -8.95,15.90 -8.59,15.05 -8.59,15.05 -8.59,15.05 -7.80,13.40 -7.00,11.76 -6.00,8.87 -5.00,5.98 -5.03,2.99 -5.06,0 -4.98,-0.60 -4.91,-1.21 -4.69,-1.78 -4.48,-2.35 -4.13,-2.85 -3.78,-3.35 -3.33,-3.76 -2.87,-4.16 -2.33,-4.44 -1.79,-4.73 -1.20,-4.87 -0.60,-5.02 0.00,-5.02 0.61,-5.02 1.20,-4.87 1.79,-4.73 2.33,-4.44 2.87,-4.16 3.33,-3.76 3.78,-3.35 4.13,-2.85 4.48,-2.35 4.69,-1.78 4.91,-1.21 4.98,-0.60 5.06,0.00 5.06,0.00 L 5.06,0 Z"/></g></svg>