<svg version="1.1" xmlns="http://www.w3.org/2000/svg" viewBox="0 0 148.30616737752644 207.9307981000229" width="148.30616737752644" height="207.9307981000229" class="excalidraw-svg">
  <!-- svg-source:excalidraw -->
  
  <defs>
    <style class="style-fonts">
      
    </style>
    
  </defs>
  <g transform="translate(138.30616737752644 10) rotate(0 -7.170050529921355 0)" stroke="none"><path fill="#000000" d="M 0,2.53 Q 0,2.53 -1.51,2.51 -3.03,2.49 -4.11,2.53 -5.19,2.57 -7.12,2.63 -9.04,2.70 -11.37,2.74 -13.69,2.77 -14.14,2.70 -14.58,2.63 -14.98,2.41 -15.37,2.20 -15.68,1.88 -15.99,1.55 -16.18,1.14 -16.37,0.74 -16.42,0.29 -16.46,-0.15 -16.37,-0.58 -16.27,-1.02 -16.04,-1.41 -15.81,-1.79 -15.47,-2.08 -15.12,-2.37 -14.71,-2.54 -14.29,-2.71 -13.84,-2.73 -13.39,-2.75 -12.96,-2.63 -12.53,-2.51 -12.16,-2.26 -11.78,-2.01 -11.51,-1.65 -11.24,-1.29 -11.10,-0.87 -10.95,-0.44 -10.95,0.00 -10.95,0.44 -11.10,0.87 -11.24,1.30 -11.51,1.65 -11.78,2.01 -12.16,2.26 -12.53,2.51 -12.96,2.63 -13.39,2.75 -13.84,2.73 -14.29,2.71 -14.71,2.54 -15.12,2.37 -15.47,2.08 -15.81,1.79 -16.04,1.41 -16.27,1.02 -16.37,0.58 -16.46,0.14 -16.42,-0.29 -16.37,-0.74 -16.18,-1.15 -15.99,-1.55 -15.68,-1.88 -15.37,-2.21 -14.98,-2.42 -14.58,-2.63 -14.14,-2.70 -13.69,-2.77 -13.69,-2.77 -13.69,-2.77 -11.37,-2.74 -9.04,-2.70 -7.12,-2.63 -5.19,-2.57 -4.11,-2.53 -3.03,-2.49 -1.51,-2.51 0,-2.53 0.30,-2.50 0.60,-2.46 0.89,-2.35 1.17,-2.24 1.43,-2.07 1.68,-1.89 1.88,-1.67 2.08,-1.44 2.23,-1.17 2.37,-0.89 2.44,-0.60 2.51,-0.30 2.51,0.00 2.51,0.30 2.44,0.60 2.37,0.89 2.23,1.17 2.08,1.44 1.88,1.67 1.68,1.89 1.43,2.07 1.17,2.24 0.89,2.35 0.60,2.46 0.30,2.50 -0.00,2.53 -0.00,2.53 L 0,2.53 Z"/></g><g transform="translate(110.38070741888805 12.264226483132916) rotate(0 -8.679534852009056 2.6415975636550684)" stroke="none"><path fill="#000000" d="M 0.63,2.21 Q 0.63,2.21 -0.88,2.64 -2.40,3.07 -5.18,3.73 -7.95,4.40 -9.37,4.84 -10.79,5.28 -13.29,6.18 -15.80,7.09 -16.16,7.21 -16.51,7.33 -16.89,7.34 -17.27,7.34 -17.62,7.22 -17.98,7.10 -18.28,6.87 -18.59,6.65 -18.80,6.33 -19.01,6.02 -19.11,5.66 -19.22,5.30 -19.20,4.92 -19.18,4.54 -19.04,4.19 -18.90,3.84 -18.66,3.55 -18.42,3.26 -18.09,3.07 -17.77,2.87 -17.40,2.79 -17.04,2.71 -16.66,2.75 -16.29,2.79 -15.94,2.94 -15.60,3.10 -15.32,3.36 -15.05,3.62 -14.87,3.95 -14.69,4.28 -14.63,4.65 -14.57,5.02 -14.63,5.40 -14.69,5.77 -14.86,6.10 -15.04,6.44 -15.31,6.70 -15.58,6.96 -15.92,7.12 -16.27,7.28 -16.64,7.32 -17.02,7.36 -17.38,7.28 -17.75,7.20 -18.08,7.01 -18.40,6.82 -18.65,6.53 -18.89,6.25 -19.03,5.90 -19.17,5.55 -19.20,5.17 -19.22,4.79 -19.12,4.43 -19.02,4.06 -18.81,3.75 -18.60,3.44 -18.30,3.21 -18.00,2.98 -18.00,2.98 -18.00,2.98 -15.04,1.98 -12.08,0.98 -10.59,0.55 -9.11,0.12 -6.39,-0.60 -3.66,-1.33 -2.14,-1.77 -0.63,-2.21 -0.35,-2.25 -0.08,-2.30 0.19,-2.27 0.46,-2.25 0.73,-2.16 0.99,-2.07 1.22,-1.92 1.46,-1.77 1.65,-1.57 1.84,-1.37 1.98,-1.13 2.12,-0.89 2.19,-0.62 2.27,-0.36 2.28,-0.08 2.29,0.19 2.23,0.46 2.18,0.73 2.06,0.98 1.94,1.23 1.76,1.45 1.58,1.66 1.36,1.83 1.14,1.99 0.88,2.10 0.63,2.21 0.63,2.21 L 0.63,2.21 Z"/></g><g transform="translate(81.70050529920627 26.604327542973806) rotate(0 -3.7737108052215262 4.5284529662658315)" stroke="none"><path fill="#000000" d="M 2.00,1.60 Q 2.00,1.60 1.14,2.67 0.28,3.74 -0.95,5.61 -2.19,7.48 -3.55,8.74 -4.90,9.99 -5.15,10.37 -5.41,10.74 -5.77,11.01 -6.13,11.29 -6.56,11.43 -6.99,11.57 -7.44,11.57 -7.89,11.57 -8.32,11.43 -8.75,11.28 -9.11,11.01 -9.47,10.73 -9.72,10.36 -9.97,9.98 -10.09,9.55 -10.21,9.11 -10.19,8.66 -10.16,8.21 -9.99,7.79 -9.82,7.37 -9.53,7.03 -9.24,6.68 -8.85,6.45 -8.46,6.22 -8.02,6.12 -7.58,6.03 -7.13,6.08 -6.68,6.13 -6.27,6.32 -5.86,6.51 -5.53,6.82 -5.21,7.13 -4.99,7.53 -4.78,7.93 -4.71,8.38 -4.64,8.82 -4.71,9.27 -4.79,9.71 -5.00,10.11 -5.21,10.51 -5.54,10.82 -5.87,11.13 -6.28,11.32 -6.69,11.51 -7.14,11.56 -7.59,11.61 -8.03,11.51 -8.47,11.41 -8.86,11.18 -9.25,10.94 -9.54,10.60 -9.83,10.25 -10.00,9.83 -10.16,9.41 -10.19,8.96 -10.21,8.51 -10.09,8.07 -9.97,7.64 -9.97,7.64 -9.97,7.64 -7.42,5.26 -4.87,2.88 -4.31,1.73 -3.75,0.59 -2.88,-0.50 -2.00,-1.60 -1.78,-1.82 -1.56,-2.04 -1.29,-2.19 -1.03,-2.35 -0.73,-2.44 -0.43,-2.53 -0.12,-2.55 0.18,-2.56 0.48,-2.50 0.79,-2.44 1.07,-2.31 1.35,-2.18 1.59,-1.99 1.83,-1.80 2.02,-1.55 2.21,-1.30 2.34,-1.02 2.46,-0.74 2.51,-0.43 2.57,-0.12 2.54,0.18 2.52,0.48 2.43,0.78 2.33,1.08 2.17,1.34 2.00,1.60 2.00,1.60 L 2.00,1.60 Z"/></g><g transform="translate(59.05824046787711 48.49185021325775) rotate(0 -2.6415975636546136 3.018968644177221)" stroke="none"><path fill="#000000" d="M 1.74,1.74 Q 1.74,1.74 0.89,2.62 0.04,3.51 -1.41,5.34 -2.87,7.17 -3.15,7.49 -3.44,7.81 -3.81,8.02 -4.18,8.23 -4.60,8.31 -5.02,8.39 -5.45,8.33 -5.87,8.27 -6.25,8.08 -6.64,7.89 -6.94,7.59 -7.24,7.29 -7.43,6.91 -7.62,6.52 -7.68,6.10 -7.74,5.68 -7.66,5.26 -7.58,4.84 -7.37,4.46 -7.16,4.09 -6.84,3.81 -6.52,3.52 -6.13,3.35 -5.73,3.18 -5.31,3.15 -4.88,3.11 -4.47,3.22 -4.05,3.32 -3.69,3.55 -3.33,3.78 -3.06,4.11 -2.79,4.45 -2.65,4.85 -2.50,5.25 -2.49,5.68 -2.48,6.10 -2.60,6.51 -2.73,6.92 -2.98,7.27 -3.23,7.62 -3.57,7.87 -3.92,8.12 -4.33,8.24 -4.74,8.37 -5.17,8.36 -5.59,8.34 -6.00,8.20 -6.40,8.05 -6.73,7.78 -7.06,7.51 -7.29,7.15 -7.52,6.79 -7.63,6.38 -7.73,5.96 -7.70,5.54 -7.66,5.11 -7.49,4.72 -7.32,4.32 -7.32,4.32 -7.32,4.32 -6.15,3.06 -4.98,1.79 -4.25,0.87 -3.51,-0.03 -2.62,-0.89 -1.74,-1.74 -1.50,-1.92 -1.27,-2.10 -1.00,-2.22 -0.73,-2.35 -0.44,-2.40 -0.14,-2.45 0.14,-2.44 0.44,-2.42 0.72,-2.33 1.01,-2.24 1.26,-2.09 1.51,-1.93 1.72,-1.72 1.93,-1.51 2.09,-1.26 2.24,-1.01 2.33,-0.72 2.42,-0.44 2.44,-0.14 2.45,0.14 2.40,0.44 2.35,0.73 2.22,1.00 2.10,1.27 1.92,1.50 1.74,1.74 1.74,1.74 L 1.74,1.74 Z"/></g><g transform="translate(44.71813940803804 64.34143559518816) rotate(0 -3.3963397246998284 3.7737108052210715)" stroke="none"><path fill="#000000" d="M 1.72,1.72 Q 1.72,1.72 0.63,2.80 -0.45,3.88 -2.40,6.23 -4.34,8.57 -4.64,8.87 -4.93,9.17 -5.30,9.36 -5.68,9.55 -6.09,9.61 -6.51,9.67 -6.92,9.59 -7.33,9.52 -7.70,9.31 -8.07,9.11 -8.35,8.80 -8.63,8.49 -8.80,8.11 -8.97,7.72 -9.01,7.30 -9.04,6.89 -8.95,6.48 -8.85,6.07 -8.62,5.71 -8.40,5.36 -8.08,5.09 -7.75,4.83 -7.36,4.68 -6.97,4.53 -6.55,4.52 -6.13,4.51 -5.73,4.63 -5.32,4.75 -4.98,4.99 -4.64,5.23 -4.39,5.57 -4.14,5.91 -4.02,6.31 -3.89,6.71 -3.90,7.13 -3.91,7.55 -4.05,7.94 -4.19,8.34 -4.45,8.67 -4.71,8.99 -5.06,9.22 -5.42,9.45 -5.82,9.56 -6.23,9.66 -6.65,9.63 -7.07,9.60 -7.45,9.43 -7.84,9.27 -8.15,8.99 -8.47,8.72 -8.68,8.35 -8.89,7.99 -8.97,7.58 -9.05,7.17 -9.00,6.75 -8.94,6.33 -8.76,5.96 -8.58,5.58 -8.58,5.58 -8.58,5.58 -6.23,3.02 -3.88,0.45 -2.80,-0.63 -1.72,-1.72 -1.49,-1.91 -1.26,-2.09 -0.99,-2.21 -0.72,-2.33 -0.43,-2.38 -0.14,-2.44 0.14,-2.42 0.44,-2.40 0.72,-2.31 1.00,-2.22 1.25,-2.07 1.50,-1.92 1.71,-1.71 1.92,-1.50 2.07,-1.25 2.22,-1.00 2.31,-0.72 2.40,-0.44 2.42,-0.14 2.44,0.14 2.38,0.43 2.33,0.72 2.21,0.99 2.09,1.26 1.91,1.49 1.72,1.72 1.72,1.72 L 1.72,1.72 Z"/></g><g transform="translate(27.35906970401993 80.19102097711675) rotate(0 -2.641597563655523 3.0189686441767662)" stroke="none"><path fill="#000000" d="M 1.98,1.48 Q 1.98,1.48 1.35,2.37 0.73,3.26 -0.01,4.17 -0.76,5.07 -1.92,6.33 -3.08,7.60 -3.43,7.86 -3.77,8.12 -4.18,8.25 -4.59,8.39 -5.03,8.38 -5.46,8.38 -5.87,8.24 -6.27,8.10 -6.61,7.83 -6.96,7.57 -7.20,7.21 -7.44,6.85 -7.55,6.43 -7.66,6.01 -7.63,5.58 -7.60,5.15 -7.44,4.75 -7.28,4.35 -7.00,4.03 -6.71,3.70 -6.34,3.48 -5.97,3.26 -5.55,3.17 -5.13,3.08 -4.70,3.13 -4.27,3.18 -3.88,3.37 -3.49,3.55 -3.18,3.85 -2.86,4.15 -2.67,4.53 -2.47,4.92 -2.40,5.34 -2.33,5.77 -2.41,6.20 -2.48,6.62 -2.69,7.00 -2.89,7.38 -3.21,7.68 -3.52,7.97 -3.92,8.15 -4.31,8.33 -4.74,8.37 -5.17,8.41 -5.59,8.31 -6.01,8.22 -6.38,7.99 -6.75,7.77 -7.03,7.44 -7.30,7.10 -7.46,6.70 -7.61,6.30 -7.63,5.87 -7.65,5.44 -7.53,5.02 -7.42,4.61 -7.17,4.25 -6.92,3.90 -6.93,3.90 -6.93,3.90 -5.13,2.05 -3.34,0.20 -2.66,-0.63 -1.98,-1.48 -1.77,-1.70 -1.56,-1.91 -1.31,-2.07 -1.06,-2.23 -0.78,-2.33 -0.49,-2.42 -0.19,-2.44 0.09,-2.47 0.39,-2.42 0.68,-2.37 0.96,-2.26 1.23,-2.14 1.47,-1.96 1.71,-1.78 1.90,-1.55 2.09,-1.32 2.21,-1.05 2.34,-0.78 2.40,-0.49 2.46,-0.20 2.45,0.09 2.44,0.39 2.36,0.68 2.27,0.96 2.12,1.22 1.98,1.48 1.98,1.48 L 1.98,1.48 Z"/></g><g transform="translate(21.32113241566367 93.02163771486994) rotate(0 2.2642264831329157 1.5094843220881557)" stroke="none"><path fill="#000000" d="M 1.74,-1.74 Q 1.74,-1.74 2.41,-1.13 3.08,-0.52 4.40,0.08 5.72,0.68 6.03,0.97 6.34,1.26 6.54,1.63 6.74,2.00 6.81,2.42 6.88,2.83 6.81,3.25 6.75,3.66 6.55,4.04 6.35,4.41 6.05,4.70 5.75,4.99 5.36,5.17 4.98,5.35 4.56,5.40 4.15,5.45 3.73,5.36 3.32,5.27 2.96,5.06 2.60,4.84 2.32,4.52 2.05,4.20 1.89,3.81 1.73,3.42 1.71,3.00 1.68,2.58 1.79,2.17 1.90,1.77 2.14,1.42 2.37,1.07 2.71,0.81 3.04,0.55 3.44,0.42 3.84,0.28 4.26,0.28 4.68,0.27 5.08,0.41 5.48,0.54 5.82,0.79 6.15,1.05 6.39,1.39 6.63,1.74 6.75,2.15 6.86,2.55 6.84,2.97 6.82,3.39 6.67,3.79 6.51,4.18 6.24,4.50 5.97,4.82 5.61,5.04 5.25,5.26 4.84,5.35 4.43,5.45 4.01,5.40 3.59,5.36 3.21,5.18 2.82,5.01 2.82,5.01 2.82,5.01 1.17,4.07 -0.48,3.12 -1.11,2.43 -1.74,1.74 -1.92,1.50 -2.10,1.27 -2.23,1.00 -2.35,0.73 -2.40,0.44 -2.45,0.14 -2.44,-0.14 -2.42,-0.44 -2.33,-0.72 -2.24,-1.01 -2.09,-1.26 -1.93,-1.51 -1.72,-1.72 -1.51,-1.93 -1.26,-2.09 -1.01,-2.24 -0.72,-2.33 -0.44,-2.42 -0.14,-2.44 0.14,-2.45 0.44,-2.40 0.73,-2.35 1.00,-2.23 1.27,-2.10 1.50,-1.92 1.74,-1.74 1.74,-1.74 L 1.74,-1.74 Z"/></g><g transform="translate(37.17071779759317 100.56905932531208) rotate(0 3.3963397246998284 1.8868554026107631)" stroke="none"><path fill="#000000" d="M 0.61,-2.45 Q 0.61,-2.45 1.50,-2.28 2.38,-2.10 3.94,-1.29 5.50,-0.47 6.85,0.40 8.20,1.29 8.52,1.62 8.83,1.96 9.02,2.37 9.21,2.79 9.26,3.24 9.31,3.70 9.21,4.15 9.11,4.59 8.87,4.98 8.63,5.37 8.28,5.67 7.93,5.96 7.51,6.13 7.08,6.30 6.62,6.32 6.17,6.34 5.73,6.22 5.29,6.10 4.91,5.84 4.53,5.58 4.25,5.21 3.98,4.85 3.83,4.42 3.69,3.98 3.69,3.52 3.69,3.07 3.84,2.63 3.99,2.20 4.27,1.84 4.55,1.47 4.93,1.22 5.31,0.96 5.75,0.84 6.19,0.72 6.65,0.75 7.10,0.78 7.53,0.95 7.95,1.12 8.30,1.42 8.65,1.71 8.88,2.11 9.11,2.50 9.21,2.95 9.31,3.39 9.26,3.85 9.20,4.30 9.01,4.72 8.82,5.13 8.50,5.46 8.18,5.79 7.78,6.01 7.37,6.22 6.92,6.29 6.47,6.36 6.02,6.29 5.57,6.21 5.17,5.99 4.76,5.78 4.76,5.78 4.76,5.78 2.92,4.37 1.08,2.97 0.23,2.71 -0.61,2.45 -0.90,2.35 -1.18,2.24 -1.43,2.06 -1.68,1.89 -1.88,1.66 -2.09,1.43 -2.23,1.16 -2.37,0.89 -2.44,0.59 -2.51,0.29 -2.51,-0.00 -2.51,-0.31 -2.44,-0.61 -2.36,-0.90 -2.22,-1.17 -2.08,-1.44 -1.87,-1.67 -1.67,-1.90 -1.42,-2.07 -1.17,-2.24 -0.88,-2.35 -0.59,-2.46 -0.29,-2.49 0.00,-2.53 0.31,-2.49 0.61,-2.45 0.61,-2.45 L 0.61,-2.45 Z"/></g><g transform="translate(56.03927182369989 111.13544957993236) rotate(0 3.018968644177221 3.0189686441767662)" stroke="none"><path fill="#000000" d="M 1.75,-1.75 Q 1.75,-1.75 2.63,-0.90 3.52,-0.05 5.53,1.84 7.54,3.73 7.79,4.09 8.05,4.44 8.17,4.86 8.30,5.27 8.29,5.71 8.28,6.14 8.13,6.55 7.98,6.96 7.70,7.30 7.43,7.64 7.07,7.87 6.70,8.11 6.28,8.21 5.85,8.32 5.42,8.28 4.99,8.25 4.59,8.07 4.19,7.90 3.86,7.61 3.54,7.32 3.32,6.94 3.11,6.56 3.03,6.14 2.95,5.71 3.01,5.28 3.06,4.85 3.26,4.46 3.45,4.07 3.76,3.76 4.07,3.45 4.46,3.26 4.85,3.06 5.28,3.01 5.71,2.95 6.14,3.03 6.56,3.11 6.94,3.33 7.32,3.54 7.61,3.86 7.90,4.19 8.07,4.59 8.25,4.99 8.28,5.42 8.32,5.85 8.21,6.28 8.11,6.70 7.87,7.07 7.64,7.43 7.30,7.71 6.96,7.98 6.55,8.13 6.14,8.28 5.71,8.29 5.27,8.30 4.86,8.17 4.44,8.05 4.09,7.79 3.73,7.54 3.73,7.54 3.73,7.54 1.84,5.53 -0.05,3.52 -0.90,2.63 -1.75,1.75 -1.93,1.51 -2.12,1.28 -2.24,1.01 -2.36,0.73 -2.42,0.44 -2.47,0.14 -2.45,-0.14 -2.44,-0.44 -2.35,-0.73 -2.26,-1.01 -2.10,-1.27 -1.95,-1.53 -1.74,-1.74 -1.53,-1.95 -1.27,-2.10 -1.01,-2.26 -0.73,-2.35 -0.44,-2.44 -0.14,-2.45 0.15,-2.47 0.44,-2.42 0.73,-2.36 1.01,-2.24 1.28,-2.12 1.51,-1.93 1.75,-1.75 1.75,-1.75 L 1.75,-1.75 Z"/></g><g transform="translate(71.88885720562939 127.73977712290616) rotate(0 4.151081885744134 1.5094843220886105)" stroke="none"><path fill="#000000" d="M 0,-2.51 Q 0,-2.51 1.14,-2.53 2.28,-2.55 3.70,-2.04 5.11,-1.52 7.02,-0.57 8.93,0.37 9.31,0.59 9.69,0.80 9.98,1.12 10.28,1.44 10.45,1.84 10.63,2.24 10.66,2.68 10.70,3.11 10.60,3.54 10.49,3.96 10.26,4.33 10.03,4.70 9.69,4.98 9.35,5.25 8.94,5.40 8.53,5.56 8.10,5.57 7.66,5.59 7.24,5.46 6.83,5.33 6.47,5.08 6.11,4.83 5.86,4.48 5.60,4.12 5.47,3.71 5.34,3.29 5.35,2.85 5.36,2.42 5.51,2.01 5.65,1.60 5.93,1.25 6.20,0.91 6.56,0.67 6.93,0.44 7.35,0.33 7.78,0.22 8.21,0.26 8.65,0.29 9.05,0.46 9.45,0.63 9.78,0.92 10.10,1.21 10.32,1.59 10.54,1.97 10.62,2.39 10.71,2.82 10.65,3.26 10.59,3.69 10.40,4.08 10.21,4.47 9.90,4.78 9.60,5.09 9.21,5.29 8.82,5.49 8.38,5.55 7.95,5.61 7.52,5.53 7.09,5.45 7.09,5.45 7.09,5.45 4.57,4.00 2.05,2.55 1.02,2.53 0,2.51 -0.30,2.48 -0.60,2.44 -0.88,2.33 -1.17,2.22 -1.41,2.05 -1.66,1.88 -1.87,1.65 -2.07,1.43 -2.21,1.16 -2.35,0.89 -2.42,0.59 -2.49,0.30 -2.49,-0.00 -2.49,-0.30 -2.42,-0.59 -2.35,-0.89 -2.21,-1.16 -2.07,-1.43 -1.87,-1.65 -1.66,-1.88 -1.41,-2.05 -1.16,-2.22 -0.88,-2.33 -0.60,-2.44 -0.30,-2.48 0.00,-2.51 0.00,-2.51 L 0,-2.51 Z"/></g><g transform="translate(86.22895826547028 137.55142521648122) rotate(0 6.792679449398747 4.905824046787984)" stroke="none"><path fill="#000000" d="M 1.35,-2.02 Q 1.35,-2.02 2.64,-1.14 3.93,-0.26 5.14,0.53 6.35,1.33 7.62,2.41 8.89,3.50 9.87,4.36 10.85,5.23 12.47,6.25 14.09,7.27 14.43,7.49 14.78,7.71 15.03,8.03 15.29,8.35 15.43,8.73 15.57,9.12 15.58,9.53 15.59,9.94 15.47,10.33 15.35,10.72 15.11,11.05 14.87,11.38 14.54,11.62 14.21,11.86 13.82,11.98 13.43,12.10 13.02,12.09 12.61,12.08 12.22,11.94 11.84,11.79 11.52,11.54 11.20,11.28 10.98,10.94 10.76,10.59 10.66,10.19 10.56,9.80 10.60,9.39 10.63,8.98 10.79,8.60 10.96,8.23 11.23,7.92 11.50,7.62 11.86,7.42 12.22,7.22 12.62,7.14 13.02,7.06 13.43,7.12 13.83,7.18 14.20,7.36 14.56,7.54 14.85,7.83 15.14,8.12 15.32,8.49 15.51,8.85 15.56,9.26 15.62,9.67 15.54,10.07 15.46,10.47 15.26,10.82 15.06,11.18 14.75,11.45 14.45,11.73 14.07,11.89 13.69,12.05 13.29,12.08 12.88,12.11 12.48,12.02 12.08,11.92 12.08,11.92 12.08,11.92 9.81,10.38 7.53,8.84 6.65,7.99 5.78,7.14 4.72,6.24 3.67,5.34 2.47,4.54 1.26,3.73 -0.04,2.88 -1.35,2.02 -1.57,1.83 -1.79,1.64 -1.97,1.40 -2.14,1.16 -2.25,0.89 -2.35,0.62 -2.39,0.33 -2.43,0.03 -2.40,-0.25 -2.37,-0.54 -2.27,-0.82 -2.17,-1.09 -2.01,-1.34 -1.85,-1.58 -1.63,-1.78 -1.41,-1.98 -1.15,-2.12 -0.90,-2.26 -0.61,-2.34 -0.33,-2.41 -0.03,-2.42 0.25,-2.42 0.54,-2.36 0.82,-2.29 1.09,-2.16 1.35,-2.02 1.35,-2.02 L 1.35,-2.02 Z"/></g><g transform="translate(111.13544957993145 154.15575275945503) rotate(0 2.2642264831329157 2.6415975636550684)" stroke="none"><path fill="#000000" d="M 1.92,-1.53 Q 1.92,-1.53 2.79,-0.45 3.67,0.62 4.57,1.79 5.48,2.95 5.81,3.19 6.14,3.43 6.37,3.76 6.60,4.09 6.72,4.48 6.84,4.87 6.82,5.28 6.81,5.68 6.66,6.06 6.52,6.44 6.26,6.76 6.00,7.07 5.66,7.29 5.32,7.50 4.92,7.60 4.53,7.69 4.12,7.66 3.72,7.62 3.35,7.45 2.97,7.29 2.67,7.02 2.37,6.74 2.18,6.39 1.98,6.03 1.91,5.63 1.83,5.23 1.89,4.83 1.95,4.43 2.13,4.07 2.32,3.70 2.61,3.42 2.90,3.13 3.26,2.96 3.63,2.78 4.03,2.73 4.44,2.68 4.83,2.76 5.23,2.84 5.58,3.04 5.94,3.24 6.20,3.55 6.47,3.85 6.63,4.23 6.79,4.60 6.82,5.01 6.85,5.41 6.74,5.81 6.64,6.20 6.42,6.54 6.20,6.88 5.88,7.13 5.56,7.38 5.18,7.52 4.80,7.66 4.39,7.67 3.98,7.67 3.60,7.55 3.21,7.43 3.21,7.43 3.21,7.43 1.50,5.57 -0.20,3.71 -1.06,2.62 -1.92,1.53 -2.07,1.28 -2.23,1.03 -2.32,0.75 -2.41,0.46 -2.43,0.17 -2.45,-0.12 -2.40,-0.41 -2.35,-0.70 -2.23,-0.98 -2.12,-1.25 -1.93,-1.48 -1.75,-1.72 -1.52,-1.90 -1.29,-2.09 -1.02,-2.21 -0.75,-2.34 -0.46,-2.39 -0.17,-2.45 0.12,-2.44 0.41,-2.42 0.70,-2.34 0.98,-2.25 1.24,-2.10 1.49,-1.95 1.71,-1.74 1.92,-1.53 1.92,-1.53 L 1.92,-1.53 Z"/></g><g transform="translate(112.64493390202006 164.7221430140753) rotate(0 -2.6415975636546136 0)" stroke="none"><path fill="#000000" d="M 0,2.46 Q 0,2.46 -0.86,2.50 -1.73,2.55 -3.37,2.57 -5.02,2.59 -5.43,2.53 -5.85,2.46 -6.22,2.26 -6.59,2.06 -6.88,1.76 -7.17,1.45 -7.35,1.07 -7.52,0.69 -7.57,0.27 -7.61,-0.14 -7.52,-0.55 -7.43,-0.96 -7.22,-1.32 -7.00,-1.68 -6.68,-1.95 -6.36,-2.22 -5.97,-2.38 -5.58,-2.53 -5.16,-2.56 -4.74,-2.58 -4.33,-2.47 -3.93,-2.35 -3.58,-2.12 -3.23,-1.88 -2.98,-1.55 -2.72,-1.21 -2.59,-0.81 -2.45,-0.42 -2.45,0.00 -2.45,0.42 -2.59,0.81 -2.72,1.21 -2.98,1.55 -3.23,1.88 -3.58,2.12 -3.93,2.35 -4.33,2.47 -4.74,2.58 -5.16,2.56 -5.58,2.53 -5.97,2.38 -6.36,2.22 -6.68,1.95 -7.00,1.68 -7.22,1.32 -7.43,0.96 -7.52,0.55 -7.61,0.14 -7.57,-0.27 -7.52,-0.69 -7.35,-1.07 -7.17,-1.45 -6.88,-1.76 -6.59,-2.06 -6.22,-2.26 -5.85,-2.46 -5.43,-2.53 -5.02,-2.59 -5.02,-2.59 -5.02,-2.59 -3.37,-2.57 -1.73,-2.55 -0.86,-2.50 0,-2.46 0.29,-2.42 0.58,-2.38 0.86,-2.28 1.14,-2.17 1.38,-2.01 1.63,-1.84 1.82,-1.61 2.02,-1.39 2.16,-1.13 2.30,-0.87 2.37,-0.58 2.44,-0.29 2.44,0.00 2.44,0.29 2.37,0.58 2.30,0.87 2.16,1.13 2.02,1.39 1.82,1.61 1.63,1.84 1.38,2.01 1.14,2.17 0.86,2.28 0.58,2.38 0.29,2.42 -0.00,2.46 -0.00,2.46 L 0,2.46 Z"/></g><g transform="translate(93.77637987591334 169.25059598034022) rotate(0 -4.905824046787529 1.1321132415664579)" stroke="none"><path fill="#000000" d="M 0.38,2.30 Q 0.38,2.30 -0.91,2.54 -2.20,2.79 -3.69,3.23 -5.17,3.68 -6.90,4.08 -8.63,4.49 -9.02,4.50 -9.41,4.51 -9.78,4.40 -10.16,4.29 -10.47,4.06 -10.79,3.83 -11.02,3.52 -11.25,3.20 -11.37,2.83 -11.49,2.46 -11.48,2.07 -11.47,1.68 -11.34,1.31 -11.20,0.94 -10.96,0.64 -10.72,0.33 -10.39,0.12 -10.06,-0.08 -9.68,-0.18 -9.31,-0.27 -8.92,-0.25 -8.53,-0.22 -8.17,-0.06 -7.81,0.08 -7.52,0.34 -7.22,0.60 -7.03,0.94 -6.84,1.27 -6.76,1.66 -6.69,2.04 -6.74,2.43 -6.79,2.81 -6.96,3.16 -7.13,3.52 -7.40,3.79 -7.68,4.07 -8.03,4.25 -8.38,4.42 -8.76,4.48 -9.15,4.53 -9.53,4.46 -9.92,4.39 -10.26,4.20 -10.60,4.01 -10.86,3.72 -11.12,3.43 -11.28,3.07 -11.43,2.71 -11.47,2.33 -11.50,1.94 -11.41,1.56 -11.32,1.18 -11.11,0.85 -10.90,0.52 -10.60,0.27 -10.30,0.03 -9.93,-0.10 -9.56,-0.24 -9.56,-0.24 -9.56,-0.24 -8.07,-0.47 -6.58,-0.71 -4.79,-1.31 -3.00,-1.92 -1.69,-2.11 -0.38,-2.30 -0.10,-2.31 0.17,-2.32 0.45,-2.27 0.73,-2.21 0.98,-2.09 1.24,-1.97 1.45,-1.80 1.67,-1.62 1.84,-1.40 2.01,-1.17 2.13,-0.91 2.24,-0.65 2.28,-0.38 2.33,-0.10 2.31,0.17 2.29,0.45 2.20,0.72 2.11,0.99 1.96,1.23 1.81,1.47 1.61,1.66 1.41,1.86 1.16,2.00 0.92,2.14 0.65,2.22 0.38,2.30 0.38,2.30 L 0.38,2.30 Z"/></g><g transform="translate(52.265561018479275 182.83595487913772) rotate(0 -7.92479269096475 2.6415975636546136)" stroke="none"><path fill="#000000" d="M 0.76,2.02 Q 0.76,2.02 -0.99,2.63 -2.74,3.24 -5.00,4.06 -7.27,4.89 -8.90,5.52 -10.53,6.16 -12.57,6.65 -14.61,7.13 -14.95,7.14 -15.28,7.15 -15.60,7.06 -15.91,6.96 -16.19,6.77 -16.46,6.57 -16.65,6.30 -16.85,6.03 -16.94,5.72 -17.04,5.40 -17.03,5.07 -17.03,4.73 -16.91,4.42 -16.80,4.11 -16.59,3.85 -16.38,3.59 -16.10,3.41 -15.82,3.23 -15.50,3.15 -15.18,3.07 -14.85,3.09 -14.51,3.12 -14.21,3.25 -13.90,3.38 -13.65,3.60 -13.41,3.82 -13.24,4.11 -13.08,4.40 -13.01,4.73 -12.95,5.05 -12.99,5.38 -13.04,5.71 -13.19,6.01 -13.33,6.31 -13.57,6.55 -13.80,6.78 -14.10,6.93 -14.40,7.08 -14.73,7.12 -15.06,7.17 -15.38,7.11 -15.71,7.05 -16.00,6.88 -16.29,6.72 -16.51,6.47 -16.74,6.23 -16.87,5.92 -17.00,5.62 -17.03,5.28 -17.06,4.95 -16.98,4.63 -16.90,4.31 -16.72,4.03 -16.54,3.75 -16.28,3.54 -16.02,3.33 -15.71,3.21 -15.40,3.10 -15.40,3.10 -15.40,3.10 -13.64,2.84 -11.87,2.59 -10.28,2.00 -8.69,1.42 -6.44,0.38 -4.20,-0.64 -2.48,-1.33 -0.76,-2.02 -0.50,-2.09 -0.25,-2.15 0.00,-2.15 0.26,-2.15 0.52,-2.08 0.77,-2.02 1.00,-1.90 1.23,-1.77 1.43,-1.60 1.62,-1.43 1.77,-1.21 1.92,-1.00 2.01,-0.75 2.10,-0.51 2.13,-0.25 2.16,0.00 2.13,0.26 2.10,0.52 2.00,0.77 1.91,1.01 1.76,1.22 1.61,1.44 1.42,1.61 1.22,1.78 0.99,1.90 0.76,2.02 0.76,2.02 L 0.76,2.02 Z"/></g><g transform="translate(22.83061673775228 192.64760297271278) rotate(0 -6.41530836887614 2.6415975636550684)" stroke="none"><path fill="#000000" d="M 0.58,2.32 Q 0.58,2.32 -0.27,2.59 -1.13,2.86 -2.54,3.27 -3.96,3.69 -7.22,5.44 -10.48,7.20 -10.91,7.33 -11.33,7.47 -11.78,7.46 -12.23,7.45 -12.65,7.30 -13.08,7.15 -13.43,6.87 -13.78,6.59 -14.02,6.22 -14.27,5.84 -14.38,5.41 -14.49,4.97 -14.46,4.52 -14.43,4.08 -14.25,3.66 -14.08,3.25 -13.78,2.92 -13.48,2.58 -13.10,2.36 -12.71,2.13 -12.27,2.04 -11.83,1.96 -11.38,2.01 -10.94,2.07 -10.54,2.27 -10.13,2.46 -9.81,2.78 -9.50,3.09 -9.29,3.49 -9.09,3.89 -9.03,4.33 -8.96,4.78 -9.04,5.22 -9.12,5.66 -9.34,6.05 -9.56,6.44 -9.89,6.74 -10.22,7.05 -10.63,7.23 -11.04,7.41 -11.49,7.45 -11.93,7.49 -12.37,7.38 -12.81,7.28 -13.19,7.04 -13.56,6.80 -13.85,6.45 -14.13,6.11 -14.29,5.69 -14.45,5.27 -14.46,4.82 -14.48,4.37 -14.35,3.94 -14.22,3.51 -13.96,3.15 -13.71,2.78 -13.34,2.52 -12.98,2.25 -12.98,2.25 -12.98,2.25 -10.50,1.04 -8.03,-0.17 -6.73,-0.80 -5.44,-1.43 -3.89,-1.71 -2.34,-1.99 -1.46,-2.15 -0.58,-2.32 -0.29,-2.36 -0.00,-2.39 0.27,-2.36 0.56,-2.32 0.83,-2.22 1.10,-2.12 1.34,-1.96 1.58,-1.79 1.77,-1.58 1.96,-1.36 2.10,-1.11 2.23,-0.85 2.30,-0.57 2.37,-0.29 2.37,-0.00 2.37,0.28 2.31,0.56 2.24,0.84 2.10,1.09 1.97,1.35 1.78,1.57 1.59,1.78 1.35,1.95 1.12,2.11 0.85,2.22 0.58,2.32 0.58,2.32 L 0.58,2.32 Z"/></g><g transform="translate(71.88885720562939 175.28853326869466) rotate(0 -1.8868554026103084 0.7547421610443052)" stroke="none"><path fill="#000000" d="M 0.86,2.15 Q 0.86,2.15 -0.66,2.82 -2.18,3.49 -2.57,3.57 -2.95,3.66 -3.34,3.62 -3.73,3.57 -4.09,3.41 -4.45,3.24 -4.73,2.97 -5.02,2.70 -5.20,2.36 -5.39,2.01 -5.45,1.62 -5.52,1.23 -5.45,0.85 -5.39,0.46 -5.21,0.11 -5.02,-0.23 -4.74,-0.50 -4.45,-0.77 -4.10,-0.93 -3.74,-1.10 -3.35,-1.14 -2.96,-1.18 -2.57,-1.10 -2.19,-1.02 -1.85,-0.81 -1.52,-0.61 -1.26,-0.31 -1.01,-0.01 -0.86,0.34 -0.71,0.71 -0.69,1.10 -0.67,1.49 -0.78,1.87 -0.88,2.25 -1.10,2.58 -1.32,2.90 -1.63,3.14 -1.95,3.38 -2.32,3.50 -2.69,3.63 -3.08,3.63 -3.48,3.63 -3.85,3.50 -4.22,3.38 -4.54,3.14 -4.85,2.90 -5.07,2.58 -5.29,2.25 -5.40,1.88 -5.50,1.50 -5.48,1.10 -5.46,0.71 -5.32,0.35 -5.17,-0.01 -4.92,-0.31 -4.66,-0.61 -4.33,-0.81 -3.99,-1.01 -3.99,-1.01 -3.99,-1.01 -2.42,-1.58 -0.86,-2.15 -0.59,-2.23 -0.32,-2.30 -0.04,-2.30 0.23,-2.31 0.51,-2.25 0.78,-2.18 1.03,-2.06 1.28,-1.93 1.50,-1.75 1.71,-1.57 1.87,-1.34 2.04,-1.11 2.14,-0.85 2.24,-0.59 2.28,-0.31 2.32,-0.04 2.29,0.23 2.26,0.51 2.17,0.78 2.07,1.04 1.92,1.27 1.76,1.51 1.56,1.70 1.35,1.89 1.10,2.02 0.86,2.16 0.86,2.15 L 0.86,2.15 Z"/></g></svg>