<svg version="1.1" xmlns="http://www.w3.org/2000/svg" viewBox="0 0 615.1339679196924 388.82569448056455" width="615.1339679196924" height="388.82569448056455" class="excalidraw-svg">
  <!-- svg-source:excalidraw -->
  
  <defs>
    <style class="style-fonts">
      
    </style>
    
  </defs>
  <g transform="translate(365.41268084940185 73.67309114736263) rotate(342.1399059293209 -201.5 123.5)" stroke="none"><path fill="#1e1e1e" d="M 1.98,2.42 Q 1.98,2.42 -1.19,4.99 -4.37,7.55 -10.43,11.83 -16.49,16.10 -28.94,23.13 -41.40,30.16 -62.23,40.61 -83.06,51.06 -117.77,68.41 -152.47,85.77 -191.01,108.33 -229.55,130.90 -266.32,154.84 -303.09,178.79 -331.35,199.01 -359.60,219.22 -371.64,227.83 -383.67,236.43 -384.05,236.62 -384.44,236.81 -384.87,236.87 -385.29,236.93 -385.72,236.85 -386.14,236.76 -386.51,236.55 -386.89,236.34 -387.17,236.02 -387.46,235.70 -387.63,235.30 -387.80,234.91 -387.83,234.48 -387.87,234.05 -387.76,233.63 -387.66,233.21 -387.43,232.85 -387.19,232.49 -386.86,232.22 -386.52,231.95 -386.12,231.80 -385.71,231.65 -385.28,231.64 -384.85,231.63 -384.44,231.76 -384.03,231.89 -383.68,232.14 -383.33,232.39 -383.08,232.74 -382.83,233.09 -382.70,233.50 -382.58,233.91 -382.59,234.34 -382.60,234.77 -382.75,235.18 -382.90,235.58 -383.17,235.92 -383.44,236.25 -383.81,236.48 -384.17,236.71 -384.59,236.82 -385.00,236.92 -385.43,236.89 -385.86,236.85 -386.26,236.68 -386.65,236.51 -386.97,236.22 -387.29,235.93 -387.50,235.56 -387.72,235.18 -387.80,234.76 -387.88,234.33 -387.82,233.91 -387.76,233.48 -387.57,233.10 -387.37,232.71 -387.07,232.41 -386.76,232.10 -386.76,232.10 -386.77,232.10 -374.74,223.49 -362.72,214.87 -334.38,194.57 -306.03,174.28 -269.17,150.24 -232.30,126.21 -193.62,103.53 -154.94,80.85 -120.26,63.45 -85.58,46.05 -64.90,35.61 -44.23,25.17 -32.08,18.23 -19.93,11.29 -14.10,7.04 -8.27,2.79 -5.13,0.18 -1.98,-2.42 -1.66,-2.63 -1.34,-2.83 -0.98,-2.95 -0.63,-3.07 -0.25,-3.10 0.12,-3.13 0.49,-3.07 0.87,-3.01 1.21,-2.86 1.56,-2.71 1.86,-2.49 2.17,-2.26 2.41,-1.97 2.65,-1.68 2.81,-1.33 2.97,-0.99 3.05,-0.62 3.12,-0.25 3.11,0.12 3.09,0.50 2.99,0.86 2.88,1.22 2.70,1.55 2.51,1.88 2.24,2.15 1.98,2.42 1.98,2.42 L 1.98,2.42 Z"/></g><g transform="translate(-0.21447337769944852 284.60275391834386) rotate(342.1399059293209 309.5 -14.5)" stroke="none"><path fill="#1e1e1e" d="M 0.34,-3.10 Q 0.34,-3.10 5.51,-2.46 10.67,-1.82 25.41,-1.24 40.14,-0.67 69.84,-3.56 99.54,-6.46 142.42,-11.13 185.29,-15.80 235.16,-20.65 285.03,-25.51 336.76,-28.14 388.49,-30.78 444.70,-31.90 500.91,-33.01 533.42,-33.20 565.94,-33.38 581.19,-33.45 596.44,-33.53 602.92,-33.56 609.40,-33.59 609.82,-33.52 610.25,-33.46 610.63,-33.26 611.01,-33.06 611.30,-32.75 611.60,-32.44 611.78,-32.05 611.96,-31.67 612.01,-31.24 612.06,-30.81 611.97,-30.40 611.88,-29.98 611.66,-29.61 611.44,-29.24 611.12,-28.96 610.79,-28.68 610.39,-28.52 610.00,-28.36 609.57,-28.34 609.14,-28.31 608.73,-28.42 608.32,-28.54 607.96,-28.77 607.60,-29.01 607.34,-29.35 607.08,-29.69 606.94,-30.10 606.81,-30.50 606.80,-30.93 606.80,-31.36 606.94,-31.77 607.07,-32.17 607.33,-32.51 607.58,-32.86 607.94,-33.10 608.29,-33.34 608.70,-33.46 609.12,-33.57 609.54,-33.55 609.97,-33.53 610.37,-33.38 610.77,-33.22 611.10,-32.94 611.42,-32.67 611.65,-32.30 611.87,-31.94 611.96,-31.52 612.06,-31.10 612.01,-30.67 611.97,-30.25 611.79,-29.86 611.61,-29.47 611.32,-29.16 611.03,-28.85 610.65,-28.64 610.27,-28.44 609.85,-28.37 609.43,-28.30 609.43,-28.30 609.43,-28.30 602.95,-28.26 596.47,-28.22 581.22,-28.13 565.97,-28.05 533.49,-27.85 501.02,-27.65 444.89,-26.52 388.76,-25.39 337.16,-22.73 285.56,-20.08 235.73,-15.19 185.89,-10.30 142.99,-5.58 100.09,-0.85 70.02,2.12 39.94,5.10 24.98,4.61 10.02,4.12 4.83,3.61 -0.34,3.10 -0.71,3.01 -1.07,2.93 -1.41,2.76 -1.74,2.58 -2.03,2.34 -2.31,2.09 -2.53,1.78 -2.75,1.47 -2.88,1.12 -3.02,0.77 -3.07,0.40 -3.12,0.03 -3.08,-0.34 -3.04,-0.71 -2.91,-1.07 -2.78,-1.42 -2.57,-1.73 -2.35,-2.04 -2.08,-2.30 -1.80,-2.55 -1.46,-2.73 -1.13,-2.90 -0.77,-3.00 -0.40,-3.09 -0.03,-3.10 0.34,-3.10 0.34,-3.10 L 0.34,-3.10 Z"/></g><g transform="translate(347.2106893221679 0.19477956612504954) rotate(342.1399059293209 20.5 73)" stroke="none"><path fill="#1e1e1e" d="M 3.34,0 Q 3.34,0 3.30,4.02 3.26,8.04 3.17,14.93 3.09,21.81 3.88,30.34 4.67,38.87 6.41,48.48 8.15,58.09 10.87,68.45 13.60,78.81 18.17,91.19 22.73,103.57 27.23,113.39 31.73,123.21 34.78,129.09 37.82,134.98 40.27,138.83 42.72,142.68 42.90,143.15 43.07,143.63 43.09,144.14 43.10,144.64 42.96,145.13 42.81,145.62 42.51,146.03 42.22,146.44 41.81,146.74 41.39,147.04 40.91,147.19 40.42,147.34 39.91,147.33 39.41,147.32 38.93,147.14 38.45,146.97 38.05,146.65 37.66,146.33 37.38,145.91 37.11,145.48 36.98,144.99 36.86,144.49 36.90,143.99 36.94,143.48 37.14,143.01 37.34,142.54 37.68,142.16 38.02,141.79 38.46,141.53 38.90,141.28 39.40,141.19 39.90,141.09 40.40,141.16 40.90,141.22 41.36,141.45 41.82,141.67 42.18,142.03 42.54,142.39 42.76,142.84 42.99,143.30 43.06,143.80 43.13,144.31 43.04,144.81 42.94,145.31 42.69,145.75 42.44,146.19 42.07,146.53 41.69,146.87 41.22,147.07 40.76,147.28 40.25,147.32 39.74,147.36 39.25,147.24 38.76,147.12 38.33,146.85 37.90,146.57 37.58,146.18 37.26,145.78 37.26,145.78 37.26,145.78 35.15,141.62 33.04,137.46 29.92,131.47 26.79,125.48 22.18,115.48 17.56,105.48 12.87,92.87 8.18,80.26 5.34,69.70 2.50,59.14 0.64,49.30 -1.22,39.46 -2.15,30.64 -3.09,21.82 -3.17,14.93 -3.26,8.04 -3.30,4.02 -3.34,0 -3.30,-0.40 -3.25,-0.80 -3.10,-1.17 -2.96,-1.55 -2.73,-1.88 -2.50,-2.22 -2.20,-2.48 -1.90,-2.75 -1.54,-2.94 -1.18,-3.13 -0.79,-3.22 -0.40,-3.32 0.00,-3.32 0.40,-3.32 0.79,-3.22 1.18,-3.13 1.54,-2.94 1.90,-2.75 2.20,-2.48 2.50,-2.22 2.73,-1.88 2.96,-1.55 3.10,-1.17 3.25,-0.80 3.30,-0.40 3.34,0.00 3.34,0.00 L 3.34,0 Z"/></g><g transform="translate(596.2833939753243 189.2143353379116) rotate(342.1399059293209 -90 -43)" stroke="none"><path fill="#1e1e1e" d="M -2.33,2.33 Q -2.33,2.33 -4.94,-0.22 -7.56,-2.77 -11.86,-6.10 -16.16,-9.42 -29.59,-15.95 -43.03,-22.48 -54.51,-27.32 -66.00,-32.17 -85.21,-39.12 -104.43,-46.07 -119.87,-52.52 -135.31,-58.97 -145.93,-64.04 -156.55,-69.10 -163.42,-73.02 -170.29,-76.94 -173.56,-78.79 -176.82,-80.65 -178.28,-81.28 -179.75,-81.91 -180.16,-82.26 -180.58,-82.62 -180.85,-83.08 -181.13,-83.55 -181.25,-84.08 -181.36,-84.62 -181.30,-85.16 -181.24,-85.70 -181.01,-86.19 -180.78,-86.68 -180.40,-87.08 -180.03,-87.47 -179.54,-87.73 -179.06,-87.98 -178.52,-88.06 -177.99,-88.15 -177.45,-88.06 -176.91,-87.97 -176.43,-87.71 -175.95,-87.46 -175.58,-87.06 -175.21,-86.66 -174.98,-86.17 -174.75,-85.67 -174.70,-85.13 -174.64,-84.59 -174.76,-84.06 -174.88,-83.52 -175.16,-83.06 -175.45,-82.59 -175.86,-82.24 -176.28,-81.89 -176.79,-81.69 -177.29,-81.49 -177.84,-81.47 -178.38,-81.44 -178.90,-81.59 -179.43,-81.74 -179.88,-82.04 -180.33,-82.35 -180.65,-82.79 -180.98,-83.22 -181.15,-83.74 -181.33,-84.25 -181.32,-84.80 -181.32,-85.34 -181.14,-85.86 -180.97,-86.37 -180.64,-86.81 -180.31,-87.24 -179.85,-87.54 -179.40,-87.85 -178.88,-87.99 -178.35,-88.13 -177.81,-88.10 -177.26,-88.07 -176.76,-87.86 -176.25,-87.66 -176.25,-87.66 -176.25,-87.66 -175.02,-86.65 -173.79,-85.64 -170.70,-83.64 -167.62,-81.65 -160.91,-77.85 -154.20,-74.05 -143.69,-69.08 -133.18,-64.10 -117.84,-57.76 -102.51,-51.41 -83.13,-44.48 -63.75,-37.55 -52.07,-32.75 -40.40,-27.94 -26.39,-21.23 -12.38,-14.52 -7.58,-11.04 -2.78,-7.57 -0.22,-4.95 2.33,-2.33 2.57,-2.01 2.82,-1.70 2.98,-1.34 3.14,-0.98 3.21,-0.58 3.29,-0.19 3.26,0.19 3.24,0.59 3.12,0.97 3.00,1.35 2.80,1.69 2.59,2.03 2.31,2.31 2.03,2.59 1.69,2.80 1.35,3.00 0.97,3.12 0.59,3.24 0.19,3.26 -0.19,3.29 -0.59,3.21 -0.98,3.14 -1.34,2.98 -1.70,2.82 -2.01,2.57 -2.33,2.33 -2.33,2.33 L -2.33,2.33 Z"/></g><g transform="translate(-4.981769105131775 296.8074235505071) rotate(342.1399059293209 226.49999999999997 -41.500000000000014)" stroke="none"><path fill="#1e1e1e" d="M -1.28,8.06 Q -1.28,8.06 4.58,5.57 10.45,3.07 21.02,0.04 31.59,-2.99 53.94,-7.47 76.28,-11.95 107.09,-17.05 137.91,-22.15 173.44,-28.80 208.97,-35.44 254.42,-45.32 299.87,-55.20 343.66,-67.09 387.46,-78.97 406.10,-84.03 424.74,-89.09 425.17,-89.13 425.60,-89.18 426.02,-89.08 426.44,-88.98 426.81,-88.76 427.18,-88.54 427.46,-88.20 427.74,-87.87 427.89,-87.47 428.05,-87.07 428.07,-86.64 428.09,-86.21 427.98,-85.79 427.86,-85.37 427.61,-85.02 427.37,-84.66 427.02,-84.40 426.68,-84.14 426.27,-84.01 425.86,-83.87 425.43,-83.87 424.99,-83.88 424.58,-84.02 424.18,-84.16 423.83,-84.42 423.49,-84.68 423.25,-85.04 423.01,-85.40 422.90,-85.82 422.78,-86.24 422.81,-86.67 422.83,-87.10 423.00,-87.50 423.16,-87.90 423.44,-88.23 423.72,-88.55 424.09,-88.78 424.47,-89.00 424.89,-89.09 425.31,-89.18 425.74,-89.13 426.17,-89.08 426.56,-88.89 426.95,-88.71 427.26,-88.41 427.58,-88.11 427.78,-87.73 427.98,-87.35 428.04,-86.92 428.11,-86.49 428.04,-86.07 427.97,-85.64 427.76,-85.26 427.56,-84.88 427.24,-84.58 426.93,-84.29 426.53,-84.11 426.14,-83.93 426.14,-83.93 426.14,-83.93 407.50,-78.86 388.87,-73.79 344.94,-61.84 301.02,-49.90 255.50,-39.98 209.99,-30.05 174.40,-23.35 138.82,-16.65 108.12,-11.51 77.41,-6.37 55.32,-1.86 33.23,2.63 23.06,5.64 12.90,8.65 7.09,11.29 1.28,13.93 0.92,14.04 0.55,14.15 0.16,14.17 -0.22,14.19 -0.59,14.12 -0.97,14.04 -1.32,13.88 -1.68,13.72 -1.98,13.48 -2.28,13.24 -2.51,12.93 -2.75,12.63 -2.91,12.28 -3.06,11.92 -3.13,11.54 -3.19,11.16 -3.17,10.78 -3.14,10.39 -3.02,10.02 -2.90,9.66 -2.70,9.33 -2.50,9.00 -2.22,8.73 -1.95,8.46 -1.62,8.26 -1.28,8.06 -1.28,8.06 L -1.28,8.06 Z"/></g><g transform="translate(8.505021344723389 317.00178818111897) rotate(342.1399059293209 191 -11)" stroke="none"><path fill="#1e1e1e" d="M -0.28,-2.28 Q -0.28,-2.28 10.06,-3.09 20.42,-3.90 35.68,-4.22 50.94,-4.54 74.28,-4.65 97.62,-4.77 130.49,-4.80 163.36,-4.84 204.06,-6.34 244.76,-7.84 284.06,-12.96 323.36,-18.08 340.12,-20.26 356.88,-22.43 357.31,-22.42 357.75,-22.41 358.16,-22.25 358.57,-22.10 358.90,-21.83 359.24,-21.55 359.48,-21.18 359.71,-20.81 359.81,-20.39 359.92,-19.96 359.88,-19.53 359.84,-19.09 359.67,-18.69 359.49,-18.29 359.20,-17.97 358.90,-17.65 358.52,-17.43 358.14,-17.22 357.71,-17.14 357.28,-17.06 356.85,-17.12 356.42,-17.19 356.03,-17.38 355.64,-17.58 355.33,-17.89 355.03,-18.20 354.83,-18.59 354.64,-18.98 354.59,-19.42 354.53,-19.85 354.61,-20.28 354.70,-20.70 354.92,-21.08 355.13,-21.46 355.46,-21.75 355.79,-22.04 356.19,-22.21 356.59,-22.38 357.02,-22.41 357.46,-22.45 357.88,-22.34 358.31,-22.23 358.67,-21.99 359.04,-21.76 359.31,-21.42 359.58,-21.07 359.73,-20.66 359.88,-20.25 359.89,-19.82 359.90,-19.38 359.77,-18.96 359.64,-18.55 359.38,-18.19 359.12,-17.84 358.77,-17.59 358.41,-17.34 357.99,-17.21 357.57,-17.08 357.57,-17.08 357.57,-17.08 340.82,-14.88 324.07,-12.68 284.52,-7.50 244.97,-2.32 204.17,-0.77 163.37,0.78 130.51,0.88 97.66,0.99 74.37,1.20 51.09,1.41 36.02,1.85 20.95,2.30 10.62,3.29 0.28,4.28 -0.11,4.26 -0.50,4.25 -0.88,4.14 -1.27,4.03 -1.61,3.84 -1.96,3.64 -2.24,3.37 -2.53,3.09 -2.75,2.76 -2.96,2.43 -3.09,2.05 -3.22,1.67 -3.25,1.28 -3.29,0.88 -3.22,0.49 -3.16,0.10 -3.01,-0.26 -2.86,-0.62 -2.62,-0.94 -2.38,-1.26 -2.08,-1.51 -1.77,-1.77 -1.41,-1.94 -1.06,-2.11 -0.67,-2.19 -0.28,-2.28 -0.28,-2.28 L -0.28,-2.28 Z"/></g><g stroke-linecap="round" transform="translate(180.0924935499225 150.48497858668756) rotate(0 30.57985383690685 29.986070267258185)"><path d="M39.64 0.81 C45.73 2.05, 52.76 7.61, 56.34 13.07 C59.93 18.54, 61.85 27.26, 61.16 33.58 C60.46 39.9, 56.94 46.55, 52.16 51 C47.39 55.45, 39.25 59.64, 32.5 60.28 C25.75 60.92, 16.81 58.63, 11.68 54.83 C6.55 51.03, 2.98 43.72, 1.72 37.47 C0.46 31.22, 1.46 23.04, 4.11 17.35 C6.76 11.66, 10.89 5.68, 17.62 3.36 C24.34 1.03, 39.49 3.18, 44.45 3.41 C49.41 3.64, 47.72 4.46, 47.39 4.71 M22.86 0.42 C28.57 -1.69, 37.75 -0.04, 43.52 2.86 C49.29 5.76, 54.49 11.82, 57.49 17.82 C60.49 23.83, 62.96 32.83, 61.51 38.87 C60.06 44.92, 54.18 50.81, 48.77 54.1 C43.36 57.39, 35.79 59.35, 29.04 58.63 C22.3 57.92, 12.97 54.03, 8.29 49.83 C3.6 45.63, 1.49 39.54, 0.95 33.43 C0.42 27.33, 1.39 18.64, 5.08 13.22 C8.78 7.8, 20.35 2.75, 23.1 0.9 C25.84 -0.96, 21.53 1.83, 21.54 2.1" stroke="#1e1e1e" stroke-width="2" fill="none"/></g><g transform="translate(200.28113491797748 209.26955198190657) rotate(0 -10.391212468851833 32.36120454585287)" stroke="none"><path fill="#1e1e1e" d="M 1.40,1.00 Q 1.40,1.00 -0.34,3.36 -2.09,5.71 -4.54,9.41 -6.99,13.10 -10.22,19.72 -13.45,26.34 -15.16,31.48 -16.87,36.63 -17.60,40.47 -18.32,44.31 -18.63,47.29 -18.95,50.27 -19.09,52.39 -19.23,54.50 -19.05,56.18 -18.86,57.85 -18.43,59.31 -17.99,60.76 -17.26,62.02 -16.52,63.28 -16.44,63.56 -16.35,63.83 -16.36,64.12 -16.37,64.41 -16.47,64.68 -16.57,64.96 -16.75,65.18 -16.93,65.41 -17.18,65.56 -17.42,65.72 -17.70,65.79 -17.98,65.86 -18.27,65.84 -18.56,65.81 -18.83,65.70 -19.09,65.58 -19.31,65.39 -19.52,65.20 -19.67,64.94 -19.81,64.69 -19.86,64.41 -19.92,64.12 -19.88,63.84 -19.84,63.55 -19.71,63.29 -19.58,63.03 -19.38,62.82 -19.17,62.62 -18.91,62.49 -18.65,62.36 -18.37,62.32 -18.08,62.28 -17.79,62.34 -17.51,62.39 -17.26,62.54 -17.00,62.68 -16.81,62.90 -16.62,63.11 -16.50,63.38 -16.39,63.64 -16.37,63.93 -16.34,64.22 -16.41,64.50 -16.48,64.78 -16.64,65.03 -16.79,65.27 -17.02,65.45 -17.25,65.63 -17.52,65.73 -17.79,65.83 -18.08,65.84 -18.37,65.85 -18.65,65.76 -18.92,65.68 -19.16,65.51 -19.39,65.34 -19.56,65.10 -19.73,64.87 -19.73,64.87 -19.73,64.87 -20.44,63.21 -21.16,61.55 -21.50,59.80 -21.84,58.05 -21.89,56.20 -21.94,54.34 -21.81,52.17 -21.68,49.99 -21.38,46.90 -21.07,43.80 -20.33,39.77 -19.59,35.74 -17.85,30.40 -16.11,25.06 -12.83,18.25 -9.56,11.44 -7.14,7.64 -4.72,3.84 -3.06,1.41 -1.40,-1.00 -1.26,-1.15 -1.12,-1.31 -0.95,-1.42 -0.77,-1.54 -0.58,-1.61 -0.38,-1.68 -0.17,-1.70 0.02,-1.72 0.23,-1.70 0.44,-1.67 0.63,-1.59 0.82,-1.51 0.99,-1.39 1.16,-1.27 1.30,-1.11 1.43,-0.95 1.53,-0.77 1.62,-0.58 1.67,-0.38 1.71,-0.18 1.71,0.02 1.71,0.23 1.65,0.43 1.60,0.63 1.50,0.82 1.40,1.00 1.40,1.00 L 1.40,1.00 Z"/></g><g transform="translate(232.9392312486547 199.76901486752777) rotate(0 15.73526459568994 20.782424937703638)" stroke="none"><path fill="#1e1e1e" d="M 0.56,-1.56 Q 0.56,-1.56 3.45,-0.45 6.34,0.64 9.16,1.99 11.97,3.35 14.93,5.23 17.88,7.12 20.55,9.45 23.22,11.79 25.44,14.77 27.66,17.75 29.13,20.89 30.61,24.03 31.26,27.48 31.90,30.94 32.16,33.33 32.42,35.73 32.69,38.08 32.96,40.43 32.94,40.68 32.91,40.93 32.81,41.17 32.70,41.40 32.53,41.58 32.36,41.77 32.14,41.89 31.92,42.01 31.67,42.06 31.42,42.10 31.17,42.06 30.92,42.02 30.69,41.91 30.46,41.79 30.29,41.61 30.11,41.43 30.00,41.20 29.89,40.97 29.86,40.72 29.83,40.47 29.88,40.22 29.94,39.97 30.06,39.75 30.19,39.53 30.38,39.37 30.57,39.20 30.81,39.11 31.04,39.01 31.29,38.99 31.55,38.98 31.79,39.04 32.04,39.10 32.25,39.24 32.46,39.38 32.62,39.58 32.77,39.78 32.86,40.02 32.94,40.26 32.94,40.52 32.95,40.77 32.87,41.01 32.79,41.25 32.64,41.45 32.49,41.66 32.28,41.80 32.07,41.95 31.83,42.02 31.59,42.09 31.33,42.08 31.08,42.07 30.84,41.98 30.61,41.88 30.41,41.72 30.22,41.56 30.08,41.35 29.95,41.13 29.89,40.88 29.83,40.64 29.83,40.64 29.83,40.64 29.80,38.33 29.76,36.02 29.50,33.72 29.25,31.42 28.69,28.29 28.13,25.17 26.78,22.28 25.43,19.39 23.39,16.65 21.36,13.91 18.85,11.73 16.33,9.56 13.52,7.81 10.70,6.06 7.98,4.82 5.26,3.58 2.34,2.57 -0.56,1.56 -0.74,1.47 -0.92,1.37 -1.07,1.24 -1.22,1.11 -1.34,0.95 -1.46,0.79 -1.53,0.60 -1.60,0.41 -1.63,0.22 -1.66,0.02 -1.63,-0.17 -1.61,-0.37 -1.54,-0.56 -1.48,-0.75 -1.36,-0.91 -1.25,-1.08 -1.10,-1.22 -0.96,-1.35 -0.78,-1.45 -0.60,-1.54 -0.41,-1.59 -0.22,-1.64 -0.02,-1.64 0.17,-1.65 0.37,-1.60 0.56,-1.56 0.56,-1.56 L 0.56,-1.56 Z"/></g><g transform="translate(191.57974731758145 168.78021909937343) rotate(0 16.78699071293385 0.22839443146848737)" stroke="none"><path fill="#1e1e1e" d="M 0.13,-0.85 Q 0.13,-0.85 0.98,-0.73 1.84,-0.61 3.26,-0.53 4.69,-0.45 6.75,-0.40 8.82,-0.36 11.47,-0.33 14.12,-0.30 17.27,-0.35 20.43,-0.40 23.54,-0.48 26.66,-0.56 29.58,-0.65 32.50,-0.74 32.62,-0.72 32.74,-0.71 32.85,-0.65 32.97,-0.59 33.05,-0.50 33.14,-0.41 33.20,-0.30 33.25,-0.19 33.27,-0.07 33.28,0.05 33.26,0.17 33.23,0.29 33.17,0.40 33.11,0.51 33.01,0.59 32.92,0.67 32.81,0.72 32.69,0.77 32.57,0.78 32.44,0.79 32.32,0.76 32.20,0.72 32.10,0.66 31.99,0.59 31.91,0.49 31.84,0.39 31.80,0.28 31.75,0.16 31.75,0.03 31.75,-0.08 31.79,-0.20 31.82,-0.32 31.90,-0.42 31.97,-0.52 32.07,-0.59 32.17,-0.66 32.29,-0.70 32.41,-0.73 32.54,-0.73 32.66,-0.73 32.78,-0.68 32.90,-0.64 32.99,-0.56 33.09,-0.48 33.16,-0.37 33.22,-0.27 33.25,-0.15 33.28,-0.03 33.27,0.09 33.26,0.21 33.21,0.33 33.16,0.44 33.07,0.53 32.99,0.62 32.88,0.68 32.77,0.75 32.65,0.77 32.53,0.79 32.53,0.79 32.53,0.79 29.61,0.81 26.70,0.84 23.58,0.94 20.46,1.04 17.28,1.11 14.11,1.18 11.45,1.19 8.80,1.20 6.71,1.20 4.63,1.20 3.10,1.17 1.57,1.14 0.72,0.99 -0.13,0.85 -0.23,0.82 -0.33,0.79 -0.42,0.74 -0.51,0.69 -0.58,0.62 -0.66,0.54 -0.71,0.46 -0.77,0.37 -0.80,0.27 -0.84,0.17 -0.85,0.07 -0.86,-0.02 -0.84,-0.12 -0.82,-0.23 -0.78,-0.32 -0.74,-0.42 -0.68,-0.50 -0.62,-0.59 -0.54,-0.65 -0.46,-0.72 -0.37,-0.76 -0.27,-0.81 -0.17,-0.83 -0.07,-0.85 0.02,-0.85 0.13,-0.85 0.13,-0.85 L 0.13,-0.85 Z"/></g><g transform="translate(192.0365361805184 169.92219125671585) rotate(0 17.928962870276287 6.623438512586141)" stroke="none"><path fill="#1e1e1e" d="M 1.10,0 Q 1.10,0 1.04,1.83 0.98,3.67 0.94,4.78 0.89,5.89 0.86,7.28 0.83,8.67 0.92,9.42 1.01,10.16 1.45,10.64 1.88,11.12 2.76,11.37 3.64,11.62 4.35,11.82 5.07,12.03 6.14,12.46 7.20,12.88 8.18,13.13 9.15,13.38 10.01,13.47 10.86,13.55 11.62,13.57 12.37,13.58 13.08,13.53 13.80,13.48 14.06,12.91 14.33,12.33 14.54,11.67 14.74,11.01 14.81,10.48 14.87,9.94 15.00,9.41 15.14,8.88 15.21,8.71 15.28,8.54 15.38,8.39 15.49,8.25 15.63,8.13 15.77,8.01 15.93,7.93 16.09,7.85 16.27,7.81 16.45,7.77 16.63,7.77 16.82,7.77 16.99,7.82 17.17,7.87 17.33,7.95 17.49,8.04 17.62,8.17 17.76,8.29 17.86,8.44 17.96,8.59 18.02,8.76 18.08,8.94 18.10,9.12 18.12,9.30 18.09,9.48 18.07,9.66 18.39,10.25 18.72,10.84 19.13,11.59 19.54,12.34 20.25,13.30 20.96,14.26 22.09,14.66 23.21,15.06 23.83,15.14 24.45,15.22 25.17,15.22 25.90,15.21 26.50,15.04 27.11,14.86 27.69,14.70 28.27,14.53 29.56,13.73 30.86,12.94 31.79,11.85 32.72,10.76 33.33,9.80 33.94,8.84 34.22,8.12 34.51,7.40 34.60,6.71 34.69,6.02 34.72,5.33 34.75,4.64 34.81,3.64 34.88,2.64 34.85,1.65 34.83,0.65 34.72,-0.15 34.62,-0.95 34.28,-1.72 33.95,-2.48 33.80,-2.53 33.66,-2.58 33.54,-2.68 33.42,-2.77 33.34,-2.90 33.25,-3.02 33.22,-3.17 33.18,-3.32 33.19,-3.47 33.20,-3.62 33.26,-3.76 33.31,-3.90 33.41,-4.02 33.51,-4.13 33.65,-4.21 33.78,-4.28 33.93,-4.31 34.07,-4.34 34.23,-4.33 34.38,-4.31 34.51,-4.24 34.65,-4.18 34.76,-4.07 34.87,-3.96 34.94,-3.83 35.01,-3.69 35.03,-3.54 35.05,-3.39 35.02,-3.24 35.00,-3.09 34.92,-2.96 34.85,-2.83 34.74,-2.72 34.63,-2.62 34.49,-2.56 34.35,-2.50 34.20,-2.48 34.05,-2.47 33.90,-2.50 33.75,-2.54 33.62,-2.62 33.49,-2.70 33.40,-2.82 33.30,-2.93 33.25,-3.08 33.19,-3.22 33.19,-3.37 33.18,-3.52 33.22,-3.67 33.27,-3.81 33.35,-3.94 33.44,-4.06 33.56,-4.15 33.68,-4.24 33.83,-4.29 33.97,-4.33 34.13,-4.33 34.28,-4.33 34.28,-4.33 34.28,-4.33 35.36,-2.74 36.44,-1.15 36.51,-0.29 36.59,0.56 36.67,1.62 36.76,2.69 36.77,3.75 36.78,4.81 36.70,5.58 36.61,6.35 36.42,7.24 36.24,8.12 35.87,8.94 35.51,9.76 34.89,10.89 34.28,12.01 33.27,13.36 32.25,14.71 31.27,15.55 30.29,16.39 29.61,16.69 28.93,16.98 28.35,17.12 27.78,17.26 26.89,17.50 26.00,17.75 25.06,17.80 24.13,17.85 23.31,17.75 22.50,17.66 21.62,17.43 20.73,17.21 19.80,16.74 18.87,16.28 18.16,15.58 17.45,14.88 16.88,13.99 16.31,13.10 15.92,12.29 15.52,11.49 15.32,10.73 15.12,9.97 15.13,9.43 15.14,8.88 15.21,8.71 15.28,8.54 15.38,8.39 15.49,8.25 15.63,8.13 15.77,8.01 15.93,7.93 16.09,7.85 16.27,7.81 16.45,7.77 16.63,7.77 16.81,7.77 16.99,7.82 17.17,7.87 17.33,7.95 17.49,8.04 17.62,8.17 17.76,8.29 17.86,8.44 17.96,8.59 18.02,8.76 18.08,8.94 18.10,9.12 18.12,9.30 18.09,9.48 18.07,9.66 17.92,10.08 17.77,10.50 17.58,11.28 17.40,12.06 17.16,12.62 16.93,13.17 16.50,13.78 16.07,14.40 15.71,14.85 15.35,15.29 14.54,15.51 13.74,15.72 13.00,15.62 12.27,15.52 11.47,15.46 10.67,15.40 9.72,15.30 8.77,15.20 7.66,15.01 6.55,14.83 5.50,14.54 4.45,14.26 3.13,13.80 1.81,13.33 1.13,13.00 0.45,12.67 0.07,12.20 -0.30,11.72 -0.53,11.03 -0.75,10.34 -0.79,9.51 -0.83,8.67 -0.86,7.28 -0.89,5.89 -0.94,4.78 -0.98,3.67 -1.04,1.83 -1.10,0 -1.09,-0.13 -1.07,-0.26 -1.02,-0.38 -0.98,-0.51 -0.90,-0.62 -0.82,-0.73 -0.72,-0.82 -0.62,-0.91 -0.51,-0.97 -0.39,-1.03 -0.26,-1.06 -0.13,-1.09 0.00,-1.09 0.13,-1.09 0.26,-1.06 0.39,-1.03 0.51,-0.97 0.62,-0.91 0.72,-0.82 0.82,-0.73 0.90,-0.62 0.98,-0.51 1.02,-0.38 1.07,-0.26 1.09,-0.13 1.10,0.00 1.10,0.00 L 1.10,0 Z"/></g><g transform="translate(227.66606748960248 170.37898011965285) rotate(0 2.854930393356099 -3.654310903495805)" stroke="none"><path fill="#1e1e1e" d="M -0.90,-0.74 Q -0.90,-0.74 -0.29,-1.44 0.32,-2.14 0.75,-2.71 1.19,-3.28 1.75,-3.84 2.31,-4.41 3.41,-5.98 4.51,-7.54 4.61,-7.70 4.72,-7.86 4.87,-7.98 5.02,-8.10 5.21,-8.16 5.39,-8.22 5.58,-8.23 5.77,-8.23 5.96,-8.17 6.14,-8.11 6.29,-7.99 6.45,-7.88 6.56,-7.72 6.67,-7.56 6.72,-7.37 6.77,-7.19 6.76,-7.00 6.75,-6.80 6.68,-6.62 6.61,-6.44 6.49,-6.30 6.37,-6.15 6.20,-6.05 6.04,-5.95 5.85,-5.90 5.66,-5.86 5.47,-5.88 5.28,-5.90 5.10,-5.98 4.93,-6.06 4.79,-6.19 4.65,-6.32 4.56,-6.49 4.46,-6.66 4.43,-6.85 4.40,-7.04 4.43,-7.23 4.46,-7.42 4.55,-7.59 4.64,-7.77 4.78,-7.90 4.92,-8.03 5.09,-8.11 5.26,-8.20 5.46,-8.22 5.65,-8.24 5.83,-8.20 6.02,-8.16 6.19,-8.06 6.35,-7.96 6.48,-7.82 6.61,-7.67 6.68,-7.49 6.75,-7.31 6.76,-7.12 6.77,-6.93 6.72,-6.74 6.67,-6.56 6.67,-6.56 6.67,-6.56 5.29,-4.66 3.91,-2.77 3.43,-2.32 2.96,-1.88 2.50,-1.31 2.03,-0.74 1.47,-0.00 0.90,0.74 0.80,0.83 0.70,0.93 0.58,1.00 0.45,1.07 0.32,1.11 0.18,1.15 0.04,1.16 -0.09,1.16 -0.23,1.13 -0.37,1.11 -0.49,1.05 -0.62,0.98 -0.73,0.90 -0.84,0.81 -0.93,0.69 -1.01,0.58 -1.07,0.45 -1.12,0.32 -1.14,0.18 -1.17,0.04 -1.15,-0.09 -1.14,-0.23 -1.10,-0.36 -1.05,-0.50 -0.98,-0.62 -0.90,-0.74 -0.90,-0.74 L -0.90,-0.74 Z"/></g><g transform="translate(190.2093807287705 171.0641634140583) rotate(0 -2.0555498832163863 -5.36726913950946)" stroke="none"><path fill="#1e1e1e" d="M -0.93,0.21 Q -0.93,0.21 -1.15,-0.90 -1.38,-2.03 -1.77,-3.18 -2.17,-4.34 -2.72,-5.69 -3.27,-7.04 -3.95,-8.40 -4.63,-9.75 -4.67,-9.89 -4.71,-10.03 -4.70,-10.17 -4.69,-10.31 -4.64,-10.45 -4.58,-10.58 -4.49,-10.69 -4.40,-10.80 -4.27,-10.87 -4.15,-10.94 -4.01,-10.97 -3.87,-11.00 -3.73,-10.99 -3.59,-10.97 -3.46,-10.91 -3.33,-10.85 -3.22,-10.75 -3.12,-10.65 -3.05,-10.52 -2.99,-10.40 -2.96,-10.25 -2.94,-10.11 -2.97,-9.97 -2.99,-9.83 -3.06,-9.71 -3.13,-9.58 -3.23,-9.48 -3.33,-9.38 -3.46,-9.32 -3.60,-9.26 -3.74,-9.25 -3.88,-9.23 -4.02,-9.27 -4.16,-9.30 -4.28,-9.37 -4.40,-9.45 -4.50,-9.56 -4.59,-9.67 -4.64,-9.80 -4.69,-9.93 -4.70,-10.08 -4.71,-10.22 -4.67,-10.36 -4.63,-10.49 -4.55,-10.61 -4.47,-10.73 -4.35,-10.82 -4.24,-10.90 -4.10,-10.95 -3.97,-10.99 -3.82,-10.99 -3.68,-10.99 -3.54,-10.94 -3.41,-10.90 -3.29,-10.81 -3.18,-10.72 -3.10,-10.60 -3.02,-10.49 -3.02,-10.49 -3.02,-10.49 -2.44,-9.07 -1.85,-7.65 -1.24,-6.28 -0.63,-4.90 -0.15,-3.67 0.32,-2.43 0.63,-1.32 0.93,-0.21 0.94,-0.10 0.95,0.01 0.94,0.12 0.92,0.23 0.88,0.34 0.84,0.45 0.77,0.54 0.71,0.64 0.62,0.71 0.53,0.79 0.43,0.84 0.33,0.90 0.21,0.92 0.10,0.95 -0.01,0.95 -0.12,0.95 -0.23,0.92 -0.34,0.89 -0.45,0.83 -0.55,0.78 -0.63,0.70 -0.72,0.62 -0.78,0.53 -0.85,0.43 -0.89,0.32 -0.93,0.21 -0.93,0.21 L -0.93,0.21 Z"/></g><g transform="translate(201.4007078707264 198.01470632733987) rotate(0 8.108002317131316 -0.45678886293697474)" stroke="none"><path fill="#1e1e1e" d="M 0.06,-0.96 Q 0.06,-0.96 1.04,-0.87 2.02,-0.79 3.48,-0.92 4.94,-1.05 6.46,-1.16 7.97,-1.27 9.54,-1.38 11.10,-1.48 13.42,-1.72 15.73,-1.95 15.87,-1.94 16.01,-1.93 16.14,-1.88 16.26,-1.82 16.36,-1.73 16.47,-1.64 16.53,-1.52 16.60,-1.40 16.63,-1.26 16.65,-1.12 16.63,-0.99 16.61,-0.85 16.55,-0.73 16.49,-0.61 16.39,-0.51 16.29,-0.41 16.17,-0.35 16.05,-0.29 15.91,-0.27 15.77,-0.25 15.64,-0.28 15.50,-0.31 15.38,-0.38 15.26,-0.44 15.17,-0.55 15.08,-0.65 15.03,-0.78 14.97,-0.90 14.96,-1.04 14.95,-1.18 14.99,-1.31 15.02,-1.45 15.09,-1.56 15.17,-1.68 15.28,-1.76 15.38,-1.85 15.51,-1.90 15.64,-1.94 15.78,-1.95 15.92,-1.95 16.05,-1.91 16.18,-1.87 16.29,-1.79 16.40,-1.70 16.48,-1.59 16.56,-1.48 16.60,-1.35 16.64,-1.22 16.64,-1.08 16.64,-0.94 16.59,-0.81 16.54,-0.68 16.45,-0.58 16.37,-0.47 16.25,-0.40 16.13,-0.32 16.00,-0.29 15.86,-0.26 15.87,-0.26 15.87,-0.26 13.55,-0.11 11.23,0.02 9.67,0.17 8.12,0.31 6.62,0.47 5.13,0.63 3.52,0.84 1.91,1.05 0.92,1.00 -0.06,0.96 -0.17,0.94 -0.29,0.92 -0.39,0.87 -0.50,0.82 -0.59,0.75 -0.68,0.68 -0.76,0.58 -0.83,0.49 -0.87,0.38 -0.92,0.28 -0.94,0.16 -0.96,0.05 -0.95,-0.06 -0.95,-0.18 -0.91,-0.29 -0.88,-0.40 -0.81,-0.50 -0.75,-0.60 -0.67,-0.68 -0.59,-0.76 -0.49,-0.82 -0.39,-0.88 -0.28,-0.91 -0.16,-0.95 -0.05,-0.96 0.06,-0.96 0.06,-0.96 L 0.06,-0.96 Z"/></g><g transform="translate(199.801946850447 174.26168545461712) rotate(0 -0.22839443146848737 1.5987610202794116)" stroke="none"><path fill="#1e1e1e" d="M 1.14,0.17 Q 1.14,0.17 0.95,1.62 0.76,3.08 0.71,3.26 0.65,3.45 0.54,3.61 0.43,3.77 0.27,3.88 0.11,3.99 -0.06,4.05 -0.25,4.11 -0.44,4.11 -0.64,4.10 -0.82,4.04 -1.00,3.97 -1.15,3.85 -1.30,3.73 -1.41,3.57 -1.51,3.40 -1.56,3.22 -1.61,3.03 -1.60,2.83 -1.58,2.64 -1.51,2.46 -1.43,2.28 -1.30,2.14 -1.17,1.99 -1.00,1.90 -0.84,1.80 -0.65,1.76 -0.46,1.73 -0.26,1.75 -0.07,1.78 0.09,1.86 0.27,1.95 0.40,2.08 0.54,2.22 0.63,2.39 0.72,2.57 0.74,2.76 0.77,2.95 0.74,3.14 0.70,3.33 0.61,3.50 0.51,3.67 0.37,3.80 0.22,3.93 0.05,4.01 -0.12,4.08 -0.31,4.10 -0.51,4.12 -0.70,4.07 -0.88,4.03 -1.05,3.92 -1.21,3.82 -1.33,3.67 -1.46,3.52 -1.52,3.34 -1.59,3.16 -1.60,2.96 -1.60,2.77 -1.60,2.77 -1.60,2.77 -1.37,1.29 -1.14,-0.17 -1.10,-0.30 -1.06,-0.44 -0.99,-0.56 -0.92,-0.68 -0.83,-0.78 -0.73,-0.88 -0.62,-0.96 -0.50,-1.03 -0.37,-1.08 -0.24,-1.12 -0.10,-1.14 0.03,-1.15 0.17,-1.13 0.31,-1.11 0.44,-1.05 0.56,-1.00 0.68,-0.92 0.79,-0.83 0.88,-0.73 0.97,-0.62 1.03,-0.49 1.09,-0.37 1.12,-0.23 1.14,-0.10 1.14,0.03 1.14,0.17 1.14,0.17 L 1.14,0.17 Z"/></g><g transform="translate(238.62900020008976 164.44072490147215) rotate(0 4.682085845103998 10.277749416081946)" stroke="none"><path fill="#1e1e1e" d="M 0.64,-1.12 Q 0.64,-1.12 1.11,-0.87 1.57,-0.62 2.11,-0.32 2.64,-0.01 3.14,0.35 3.64,0.72 4.06,1.08 4.48,1.43 4.90,1.89 5.32,2.35 6.09,3.18 6.86,4.01 7.19,4.45 7.51,4.88 7.83,5.39 8.14,5.89 8.45,6.42 8.76,6.94 9.05,7.55 9.35,8.16 9.56,8.90 9.77,9.64 9.92,10.35 10.06,11.06 10.18,11.67 10.31,12.29 10.38,12.95 10.44,13.62 10.58,14.69 10.72,15.76 10.78,16.52 10.83,17.27 10.75,18.00 10.67,18.74 10.45,19.27 10.24,19.79 9.99,20.34 9.75,20.88 7.00,21.25 4.24,21.61 4.02,21.47 3.80,21.33 3.63,21.13 3.47,20.93 3.38,20.68 3.29,20.44 3.28,20.18 3.27,19.91 3.35,19.67 3.43,19.42 3.58,19.20 3.73,18.99 3.94,18.84 4.15,18.69 4.40,18.61 4.65,18.53 4.91,18.54 5.17,18.54 5.42,18.63 5.66,18.72 5.87,18.89 6.07,19.05 6.21,19.27 6.35,19.49 6.42,19.74 6.48,19.99 6.46,20.25 6.44,20.51 6.34,20.75 6.23,20.99 6.06,21.19 5.89,21.38 5.66,21.51 5.43,21.64 5.18,21.69 4.92,21.74 4.66,21.71 4.40,21.67 4.17,21.56 3.93,21.44 3.75,21.26 3.56,21.07 3.45,20.84 3.33,20.61 3.30,20.35 3.26,20.09 3.31,19.83 3.36,19.58 3.48,19.35 3.61,19.12 3.81,18.95 4.00,18.77 4.24,18.67 4.48,18.56 4.74,18.54 5.00,18.52 5.25,18.58 5.51,18.65 5.51,18.65 5.51,18.65 6.38,18.87 7.26,19.10 7.50,18.41 7.74,17.72 7.81,17.18 7.88,16.65 7.86,15.83 7.84,15.01 7.71,13.93 7.58,12.85 7.46,12.25 7.33,11.64 7.19,11.03 7.05,10.42 6.91,9.90 6.76,9.39 6.53,8.90 6.29,8.42 5.75,7.51 5.21,6.59 4.68,5.83 4.15,5.07 3.39,4.28 2.62,3.50 1.95,2.90 1.28,2.29 0.77,1.98 0.25,1.68 -0.19,1.40 -0.64,1.12 -0.77,1.03 -0.89,0.94 -0.99,0.82 -1.09,0.70 -1.16,0.55 -1.23,0.41 -1.26,0.26 -1.29,0.11 -1.29,-0.04 -1.28,-0.20 -1.24,-0.35 -1.19,-0.50 -1.12,-0.64 -1.04,-0.77 -0.93,-0.89 -0.82,-1.00 -0.69,-1.08 -0.56,-1.17 -0.41,-1.22 -0.26,-1.27 -0.10,-1.28 0.04,-1.30 0.20,-1.27 0.35,-1.25 0.50,-1.19 0.64,-1.12 0.64,-1.12 L 0.64,-1.12 Z"/></g><g transform="translate(182.2155756273732 170.8357689825898) rotate(0 -3.0833248248245866 10.277749416081946)" stroke="none"><path fill="#1e1e1e" d="M 0.77,0.95 Q 0.77,0.95 0.03,1.51 -0.71,2.07 -1.35,2.58 -2.00,3.09 -2.57,3.61 -3.15,4.13 -3.77,4.83 -4.40,5.53 -4.96,6.43 -5.52,7.34 -5.86,7.82 -6.19,8.30 -6.53,9.16 -6.87,10.03 -7.08,10.57 -7.30,11.12 -7.44,11.66 -7.57,12.19 -7.62,12.87 -7.67,13.55 -7.43,14.18 -7.19,14.80 -6.73,15.69 -6.28,16.58 -5.90,17.01 -5.52,17.45 -4.67,17.69 -3.82,17.92 -3.39,18.40 -2.95,18.87 -2.01,18.91 -1.07,18.96 0.73,18.98 2.54,18.99 2.79,19.04 3.04,19.08 3.26,19.20 3.48,19.32 3.65,19.50 3.82,19.69 3.92,19.92 4.03,20.15 4.05,20.40 4.08,20.65 4.02,20.89 3.96,21.14 3.83,21.35 3.70,21.56 3.51,21.72 3.31,21.88 3.08,21.98 2.84,22.07 2.59,22.08 2.34,22.09 2.10,22.02 1.86,21.95 1.65,21.80 1.45,21.66 1.30,21.46 1.15,21.26 1.07,21.02 0.99,20.78 1.00,20.53 1.00,20.28 1.08,20.04 1.16,19.80 1.32,19.61 1.47,19.41 1.68,19.27 1.89,19.13 2.13,19.07 2.38,19.00 2.63,19.02 2.88,19.03 3.11,19.13 3.34,19.22 3.53,19.39 3.72,19.55 3.85,19.77 3.98,19.99 4.03,20.23 4.08,20.48 4.05,20.73 4.02,20.98 3.91,21.20 3.80,21.43 3.63,21.61 3.45,21.79 3.23,21.91 3.01,22.02 2.76,22.06 2.51,22.10 2.51,22.10 2.51,22.10 0.61,22.06 -1.27,22.02 -1.97,21.99 -2.66,21.96 -3.79,21.69 -4.92,21.42 -5.51,20.91 -6.11,20.39 -6.94,19.88 -7.77,19.38 -8.26,18.71 -8.74,18.05 -9.07,17.47 -9.41,16.89 -9.65,16.31 -9.89,15.73 -10.15,15.00 -10.41,14.27 -10.41,13.42 -10.41,12.58 -10.31,12.05 -10.21,11.52 -10.02,10.80 -9.84,10.08 -9.60,9.53 -9.37,8.97 -9.13,8.43 -8.90,7.89 -8.61,7.32 -8.32,6.76 -7.97,6.30 -7.62,5.85 -7.28,5.39 -6.95,4.93 -6.19,4.09 -5.44,3.24 -5.05,2.85 -4.67,2.47 -4.05,1.89 -3.42,1.32 -2.80,0.80 -2.17,0.29 -1.47,-0.33 -0.77,-0.95 -0.65,-1.03 -0.52,-1.11 -0.38,-1.15 -0.24,-1.20 -0.09,-1.21 0.04,-1.23 0.19,-1.20 0.34,-1.18 0.47,-1.12 0.61,-1.06 0.73,-0.97 0.85,-0.88 0.94,-0.77 1.04,-0.65 1.10,-0.52 1.16,-0.39 1.19,-0.24 1.22,-0.10 1.22,0.04 1.21,0.19 1.17,0.33 1.13,0.48 1.05,0.61 0.98,0.73 0.88,0.84 0.77,0.95 0.77,0.95 L 0.77,0.95 Z"/></g><g transform="translate(183.81433664765262 164.44072490147215) rotate(0 25.23758467726789 -1.7129582360136624)" stroke="none"><path fill="#1e1e1e" d="M -0.10,-0.90 Q -0.10,-0.90 2.72,-1.19 5.54,-1.49 9.25,-1.87 12.95,-2.24 18.54,-2.59 24.13,-2.95 29.28,-3.09 34.42,-3.23 38.11,-3.29 41.81,-3.35 43.96,-3.43 46.11,-3.52 48.04,-3.82 49.98,-4.11 50.10,-4.12 50.23,-4.13 50.35,-4.09 50.47,-4.06 50.58,-3.98 50.68,-3.91 50.76,-3.81 50.83,-3.71 50.87,-3.59 50.91,-3.47 50.91,-3.34 50.91,-3.22 50.86,-3.10 50.82,-2.98 50.74,-2.88 50.67,-2.78 50.56,-2.71 50.46,-2.64 50.34,-2.61 50.21,-2.58 50.09,-2.58 49.96,-2.59 49.84,-2.64 49.73,-2.69 49.63,-2.77 49.54,-2.85 49.47,-2.96 49.41,-3.07 49.38,-3.19 49.36,-3.32 49.37,-3.44 49.39,-3.57 49.44,-3.68 49.50,-3.80 49.58,-3.89 49.67,-3.98 49.78,-4.04 49.90,-4.09 50.02,-4.11 50.15,-4.13 50.27,-4.11 50.39,-4.09 50.51,-4.03 50.62,-3.97 50.70,-3.87 50.79,-3.78 50.84,-3.67 50.89,-3.55 50.90,-3.43 50.92,-3.30 50.89,-3.18 50.86,-3.05 50.79,-2.95 50.73,-2.84 50.63,-2.76 50.53,-2.68 50.41,-2.63 50.30,-2.59 50.30,-2.59 50.30,-2.59 48.23,-2.36 46.17,-2.13 44.00,-2.03 41.83,-1.93 38.15,-1.85 34.46,-1.78 29.35,-1.61 24.23,-1.44 18.68,-1.05 13.12,-0.67 9.43,-0.24 5.74,0.18 2.92,0.54 0.10,0.90 -0.00,0.90 -0.11,0.90 -0.22,0.87 -0.32,0.85 -0.42,0.79 -0.52,0.74 -0.60,0.67 -0.68,0.60 -0.74,0.50 -0.80,0.41 -0.84,0.31 -0.88,0.21 -0.89,0.10 -0.91,-0.00 -0.89,-0.11 -0.88,-0.22 -0.84,-0.32 -0.80,-0.42 -0.74,-0.51 -0.67,-0.60 -0.59,-0.67 -0.51,-0.75 -0.41,-0.80 -0.31,-0.85 -0.21,-0.87 -0.10,-0.90 -0.10,-0.90 L -0.10,-0.90 Z"/></g><g transform="translate(216.70313477911486 174.26168545461712) rotate(0 0.11419721573424368 1.827155451747899)" stroke="none"><path fill="#1e1e1e" d="M 1.22,-0.13 Q 1.22,-0.13 1.35,1.65 1.48,3.45 1.46,3.65 1.43,3.85 1.33,4.04 1.24,4.22 1.09,4.36 0.95,4.50 0.76,4.59 0.58,4.68 0.38,4.71 0.17,4.73 -0.02,4.69 -0.22,4.65 -0.39,4.55 -0.57,4.45 -0.71,4.30 -0.84,4.14 -0.92,3.95 -1.00,3.76 -1.01,3.56 -1.03,3.36 -0.98,3.16 -0.93,2.96 -0.82,2.79 -0.70,2.62 -0.54,2.49 -0.38,2.36 -0.19,2.30 -0.00,2.23 0.20,2.22 0.40,2.22 0.60,2.28 0.79,2.34 0.96,2.46 1.12,2.58 1.24,2.75 1.36,2.92 1.42,3.12 1.48,3.31 1.47,3.52 1.46,3.72 1.39,3.91 1.32,4.10 1.19,4.26 1.06,4.42 0.88,4.53 0.71,4.64 0.51,4.68 0.31,4.73 0.11,4.71 -0.09,4.70 -0.27,4.61 -0.46,4.53 -0.61,4.39 -0.76,4.25 -0.86,4.07 -0.96,3.90 -1.00,3.69 -1.03,3.49 -1.03,3.49 -1.03,3.49 -1.13,1.81 -1.22,0.13 -1.22,-0.01 -1.22,-0.16 -1.18,-0.30 -1.15,-0.45 -1.08,-0.58 -1.01,-0.71 -0.91,-0.82 -0.81,-0.93 -0.68,-1.01 -0.56,-1.10 -0.42,-1.15 -0.28,-1.20 -0.13,-1.21 0.01,-1.23 0.16,-1.21 0.30,-1.19 0.44,-1.14 0.58,-1.08 0.70,-1.00 0.82,-0.91 0.92,-0.80 1.02,-0.69 1.09,-0.55 1.16,-0.42 1.19,-0.28 1.22,-0.13 1.22,-0.13 L 1.22,-0.13 Z"/></g><g transform="translate(201.85749673366314 150.5086645818944) rotate(0 -5.481466355243704 5.824058002446435)" stroke="none"><path fill="#1e1e1e" d="M 0.28,0.89 Q 0.28,0.89 -0.78,1.18 -1.84,1.48 -2.47,1.81 -3.11,2.15 -3.62,2.68 -4.13,3.20 -5.02,4.42 -5.92,5.64 -7.69,8.29 -9.46,10.94 -9.56,11.05 -9.65,11.15 -9.77,11.21 -9.90,11.28 -10.03,11.30 -10.17,11.33 -10.31,11.30 -10.44,11.28 -10.57,11.22 -10.69,11.16 -10.78,11.06 -10.88,10.96 -10.94,10.83 -11.00,10.70 -11.01,10.57 -11.03,10.43 -11.00,10.29 -10.97,10.16 -10.90,10.04 -10.83,9.92 -10.73,9.83 -10.62,9.74 -10.49,9.69 -10.37,9.63 -10.23,9.63 -10.09,9.62 -9.95,9.65 -9.82,9.69 -9.71,9.77 -9.59,9.84 -9.51,9.95 -9.42,10.06 -9.38,10.19 -9.33,10.32 -9.33,10.46 -9.33,10.60 -9.37,10.73 -9.41,10.86 -9.50,10.98 -9.58,11.09 -9.70,11.17 -9.81,11.24 -9.94,11.28 -10.08,11.32 -10.21,11.31 -10.35,11.31 -10.48,11.26 -10.61,11.21 -10.72,11.12 -10.82,11.03 -10.90,10.91 -10.97,10.79 -11.00,10.66 -11.03,10.52 -11.02,10.38 -11.00,10.25 -10.94,10.12 -10.89,9.99 -10.89,9.99 -10.89,9.99 -9.11,7.32 -7.32,4.65 -6.37,3.25 -5.42,1.86 -4.67,1.18 -3.92,0.50 -3.14,0.16 -2.36,-0.16 -1.32,-0.53 -0.28,-0.89 -0.16,-0.91 -0.05,-0.93 0.05,-0.93 0.16,-0.92 0.27,-0.89 0.38,-0.85 0.48,-0.79 0.57,-0.74 0.65,-0.66 0.73,-0.58 0.79,-0.48 0.85,-0.38 0.89,-0.27 0.92,-0.17 0.93,-0.05 0.93,0.05 0.91,0.16 0.89,0.27 0.85,0.38 0.80,0.48 0.73,0.57 0.66,0.66 0.57,0.73 0.48,0.80 0.38,0.85 0.28,0.89 0.28,0.89 L 0.28,0.89 Z"/></g><g transform="translate(200.25873571338374 153.9345810539217) rotate(0 -9.021580043005265 4.11109976643278)" stroke="none"><path fill="#1e1e1e" d="M 0.24,0.93 Q 0.24,0.93 -0.74,1.16 -1.73,1.40 -3.13,1.80 -4.52,2.20 -7.29,3.08 -10.05,3.97 -12.17,4.97 -14.29,5.98 -15.74,7.28 -17.20,8.58 -17.31,8.66 -17.43,8.73 -17.56,8.77 -17.69,8.80 -17.82,8.80 -17.96,8.79 -18.08,8.74 -18.21,8.69 -18.31,8.60 -18.42,8.51 -18.49,8.39 -18.55,8.28 -18.58,8.15 -18.61,8.01 -18.60,7.88 -18.58,7.74 -18.52,7.62 -18.47,7.50 -18.37,7.40 -18.28,7.30 -18.16,7.24 -18.04,7.18 -17.91,7.15 -17.77,7.13 -17.64,7.15 -17.51,7.18 -17.39,7.24 -17.27,7.30 -17.17,7.40 -17.08,7.50 -17.02,7.63 -16.97,7.75 -16.95,7.88 -16.94,8.02 -16.97,8.15 -17.00,8.28 -17.07,8.40 -17.14,8.51 -17.24,8.60 -17.35,8.69 -17.47,8.74 -17.60,8.79 -17.73,8.80 -17.87,8.80 -18.00,8.77 -18.13,8.73 -18.24,8.65 -18.35,8.58 -18.44,8.47 -18.52,8.36 -18.56,8.23 -18.60,8.10 -18.60,7.97 -18.60,7.83 -18.56,7.70 -18.51,7.58 -18.43,7.47 -18.35,7.36 -18.35,7.36 -18.35,7.36 -16.65,5.99 -14.95,4.63 -12.75,3.55 -10.55,2.47 -7.78,1.53 -5.02,0.60 -3.61,0.12 -2.20,-0.35 -1.22,-0.64 -0.24,-0.93 -0.13,-0.95 -0.01,-0.96 0.09,-0.95 0.21,-0.94 0.32,-0.90 0.43,-0.86 0.53,-0.79 0.62,-0.73 0.70,-0.64 0.78,-0.56 0.84,-0.46 0.89,-0.35 0.92,-0.24 0.95,-0.13 0.95,-0.01 0.96,0.09 0.93,0.21 0.91,0.32 0.85,0.42 0.80,0.53 0.73,0.62 0.65,0.71 0.55,0.77 0.46,0.84 0.35,0.89 0.24,0.93 0.24,0.93 L 0.24,0.93 Z"/></g><g transform="translate(239.39527112368663 205.6688639481734) rotate(0 -5.571212556163545 7.368377896861446)" stroke="none"><path fill="#1e1e1e" d="M 0.78,0.46 Q 0.78,0.46 -0.27,2.20 -1.33,3.94 -2.23,5.12 -3.13,6.30 -4.25,7.53 -5.37,8.76 -6.14,9.76 -6.90,10.76 -8.49,12.77 -10.09,14.77 -10.19,14.87 -10.29,14.96 -10.42,15.01 -10.54,15.06 -10.68,15.07 -10.81,15.09 -10.95,15.05 -11.08,15.02 -11.19,14.95 -11.31,14.87 -11.39,14.77 -11.48,14.66 -11.53,14.53 -11.57,14.40 -11.58,14.27 -11.58,14.13 -11.54,14.00 -11.50,13.87 -11.42,13.76 -11.34,13.65 -11.23,13.57 -11.12,13.49 -10.99,13.45 -10.86,13.41 -10.72,13.41 -10.58,13.42 -10.46,13.46 -10.33,13.51 -10.22,13.60 -10.12,13.68 -10.04,13.80 -9.97,13.91 -9.94,14.04 -9.90,14.18 -9.91,14.31 -9.93,14.45 -9.98,14.57 -10.03,14.70 -10.13,14.80 -10.22,14.90 -10.34,14.97 -10.45,15.04 -10.59,15.06 -10.72,15.09 -10.86,15.07 -10.99,15.05 -11.12,14.99 -11.24,14.93 -11.33,14.83 -11.43,14.74 -11.49,14.61 -11.55,14.49 -11.57,14.36 -11.59,14.22 -11.56,14.09 -11.54,13.95 -11.47,13.83 -11.40,13.71 -11.40,13.71 -11.40,13.71 -9.73,11.80 -8.07,9.89 -7.28,8.82 -6.50,7.76 -5.45,6.56 -4.41,5.36 -3.60,4.22 -2.79,3.08 -1.79,1.31 -0.78,-0.46 -0.72,-0.55 -0.65,-0.63 -0.56,-0.70 -0.48,-0.77 -0.38,-0.82 -0.28,-0.86 -0.17,-0.89 -0.06,-0.91 0.04,-0.90 0.15,-0.90 0.25,-0.87 0.36,-0.83 0.46,-0.78 0.55,-0.72 0.63,-0.64 0.71,-0.57 0.77,-0.47 0.82,-0.38 0.86,-0.28 0.89,-0.17 0.90,-0.06 0.91,0.04 0.89,0.15 0.87,0.26 0.83,0.36 0.78,0.46 0.78,0.46 L 0.78,0.46 Z"/></g><g transform="translate(199.13876749205332 215.37355678794214) rotate(0 21.206551020235395 0)" stroke="none"><path fill="#1e1e1e" d="M 0,-0.84 Q 0,-0.84 1.44,-0.82 2.89,-0.79 5.78,-0.77 8.66,-0.75 13.10,-0.74 17.53,-0.73 22.41,-0.72 27.29,-0.71 31.63,-0.70 35.98,-0.69 37.83,-0.69 39.68,-0.68 39.79,-0.66 39.90,-0.64 39.99,-0.59 40.09,-0.54 40.17,-0.46 40.24,-0.38 40.29,-0.28 40.34,-0.18 40.35,-0.07 40.36,0.03 40.34,0.14 40.31,0.25 40.26,0.34 40.20,0.44 40.11,0.51 40.03,0.58 39.93,0.62 39.82,0.66 39.71,0.67 39.60,0.68 39.50,0.65 39.39,0.62 39.30,0.55 39.21,0.49 39.14,0.40 39.07,0.32 39.04,0.21 39.00,0.11 39.00,-0.00 39.00,-0.11 39.04,-0.21 39.07,-0.32 39.14,-0.40 39.21,-0.49 39.30,-0.55 39.39,-0.62 39.50,-0.65 39.60,-0.68 39.71,-0.67 39.82,-0.66 39.93,-0.62 40.03,-0.58 40.11,-0.51 40.20,-0.44 40.26,-0.34 40.31,-0.25 40.34,-0.14 40.36,-0.03 40.35,0.07 40.34,0.18 40.29,0.28 40.24,0.38 40.17,0.46 40.09,0.54 39.99,0.59 39.90,0.64 39.79,0.66 39.68,0.68 39.68,0.68 39.68,0.68 37.83,0.69 35.98,0.69 31.63,0.70 27.29,0.71 22.41,0.72 17.53,0.73 13.10,0.74 8.66,0.75 5.78,0.77 2.89,0.79 1.44,0.82 0,0.84 -0.10,0.83 -0.20,0.82 -0.29,0.78 -0.39,0.75 -0.47,0.69 -0.56,0.63 -0.63,0.55 -0.69,0.48 -0.74,0.39 -0.79,0.30 -0.81,0.20 -0.84,0.10 -0.84,-0.00 -0.84,-0.10 -0.81,-0.20 -0.79,-0.30 -0.74,-0.39 -0.69,-0.48 -0.63,-0.55 -0.56,-0.63 -0.47,-0.69 -0.39,-0.75 -0.29,-0.78 -0.20,-0.82 -0.10,-0.83 0.00,-0.84 0.00,-0.84 L 0,-0.84 Z"/></g><g transform="translate(249.81883009973453 189.85380895003175) rotate(0 24.261732099421863 -15.455621930002074)" stroke="none"><path fill="#1e1e1e" d="M -0.38,-1.02 Q -0.38,-1.02 0.44,-1.31 1.28,-1.61 2.27,-1.91 3.27,-2.21 4.10,-2.64 4.93,-3.06 5.87,-3.21 6.82,-3.36 7.55,-3.37 8.28,-3.38 9.36,-3.21 10.45,-3.04 11.37,-2.97 12.29,-2.90 13.16,-2.77 14.04,-2.65 14.79,-2.64 15.55,-2.63 16.41,-3.11 17.27,-3.60 18.55,-4.41 19.84,-5.23 22.05,-6.80 24.26,-8.37 26.45,-9.96 28.64,-11.55 30.59,-13.24 32.54,-14.92 34.61,-16.87 36.68,-18.82 39.01,-21.19 41.33,-23.56 44.06,-26.75 46.78,-29.94 46.87,-30.02 46.95,-30.09 47.06,-30.13 47.16,-30.17 47.28,-30.18 47.39,-30.18 47.50,-30.15 47.61,-30.12 47.70,-30.06 47.79,-30.00 47.86,-29.91 47.93,-29.82 47.97,-29.71 48.00,-29.60 48.00,-29.49 48.00,-29.38 47.97,-29.27 47.93,-29.16 47.86,-29.07 47.79,-28.98 47.70,-28.92 47.61,-28.85 47.50,-28.82 47.39,-28.79 47.27,-28.80 47.16,-28.81 47.06,-28.85 46.95,-28.89 46.87,-28.96 46.78,-29.04 46.72,-29.13 46.66,-29.23 46.64,-29.34 46.61,-29.45 46.63,-29.57 46.64,-29.68 46.69,-29.78 46.73,-29.88 46.81,-29.96 46.89,-30.05 46.99,-30.10 47.09,-30.15 47.20,-30.17 47.31,-30.19 47.43,-30.17 47.54,-30.15 47.64,-30.10 47.74,-30.05 47.81,-29.96 47.89,-29.88 47.94,-29.78 47.99,-29.68 48.00,-29.56 48.01,-29.45 47.99,-29.34 47.96,-29.23 47.90,-29.13 47.85,-29.04 47.85,-29.04 47.85,-29.04 45.10,-25.80 42.36,-22.56 40.03,-20.16 37.70,-17.75 35.62,-15.76 33.55,-13.77 31.58,-12.01 29.61,-10.26 27.45,-8.62 25.29,-6.97 23.09,-5.32 20.90,-3.67 19.59,-2.72 18.29,-1.77 16.95,-1.04 15.61,-0.30 14.67,-0.44 13.73,-0.58 12.96,-0.69 12.20,-0.81 11.22,-0.83 10.23,-0.84 9.27,-0.87 8.30,-0.90 7.61,-0.89 6.92,-0.89 6.00,-0.86 5.08,-0.84 4.49,-0.61 3.91,-0.37 2.97,-0.00 2.02,0.37 1.20,0.69 0.38,1.02 0.25,1.05 0.12,1.08 -0.00,1.08 -0.13,1.08 -0.26,1.04 -0.39,1.01 -0.50,0.95 -0.62,0.89 -0.72,0.80 -0.81,0.71 -0.89,0.61 -0.96,0.50 -1.01,0.37 -1.05,0.25 -1.07,0.12 -1.08,-0.00 -1.07,-0.13 -1.05,-0.26 -1.00,-0.38 -0.96,-0.51 -0.88,-0.61 -0.81,-0.72 -0.71,-0.81 -0.61,-0.89 -0.49,-0.95 -0.38,-1.02 -0.38,-1.02 L -0.38,-1.02 Z"/></g><g transform="translate(250.89712930415328 188.4160766774734) rotate(0 -8.446677101280201 9.34525977162916)" stroke="none"><path fill="#1e1e1e" d="M 0.51,0.76 Q 0.51,0.76 -0.74,1.56 -2.00,2.35 -3.33,3.48 -4.66,4.61 -6.38,6.12 -8.10,7.64 -9.83,9.69 -11.57,11.74 -12.52,13.02 -13.47,14.30 -14.69,16.48 -15.92,18.65 -16.01,18.75 -16.09,18.86 -16.20,18.93 -16.32,19.00 -16.44,19.03 -16.57,19.06 -16.71,19.05 -16.84,19.03 -16.96,18.98 -17.08,18.93 -17.18,18.84 -17.27,18.75 -17.34,18.63 -17.40,18.52 -17.43,18.39 -17.45,18.26 -17.43,18.13 -17.41,17.99 -17.35,17.88 -17.29,17.76 -17.20,17.67 -17.10,17.57 -16.98,17.52 -16.87,17.46 -16.73,17.44 -16.60,17.42 -16.47,17.45 -16.34,17.48 -16.23,17.54 -16.11,17.61 -16.03,17.71 -15.94,17.81 -15.89,17.93 -15.84,18.05 -15.83,18.18 -15.82,18.32 -15.85,18.44 -15.88,18.57 -15.96,18.68 -16.03,18.79 -16.13,18.88 -16.24,18.96 -16.36,19.00 -16.49,19.05 -16.62,19.05 -16.75,19.05 -16.88,19.01 -17.00,18.97 -17.11,18.89 -17.22,18.82 -17.29,18.71 -17.37,18.60 -17.41,18.47 -17.44,18.34 -17.44,18.21 -17.43,18.08 -17.39,17.96 -17.34,17.83 -17.34,17.83 -17.34,17.83 -15.98,15.65 -14.61,13.46 -13.65,12.13 -12.69,10.80 -10.90,8.65 -9.11,6.51 -7.41,4.96 -5.71,3.40 -4.33,2.17 -2.95,0.94 -1.73,0.09 -0.51,-0.76 -0.41,-0.81 -0.31,-0.86 -0.20,-0.88 -0.09,-0.91 0.01,-0.91 0.12,-0.91 0.23,-0.88 0.34,-0.85 0.43,-0.80 0.53,-0.74 0.61,-0.67 0.69,-0.59 0.75,-0.50 0.82,-0.41 0.85,-0.30 0.89,-0.20 0.90,-0.09 0.91,0.01 0.90,0.12 0.88,0.23 0.84,0.33 0.80,0.44 0.74,0.53 0.67,0.62 0.59,0.69 0.51,0.76 0.51,0.76 L 0.51,0.76 Z"/></g><g transform="translate(248.0216647590366 204.59056474375464) rotate(0 37.20132255244684 -28.754645451166645)" stroke="none"><path fill="#1e1e1e" d="M -0.29,-0.73 Q -0.29,-0.73 1.26,-1.33 2.82,-1.93 3.83,-2.21 4.83,-2.49 6.80,-3.00 8.77,-3.52 11.29,-3.94 13.81,-4.37 16.54,-4.65 19.28,-4.93 22.41,-5.16 25.53,-5.38 28.81,-5.67 32.09,-5.97 34.92,-6.41 37.74,-6.84 39.55,-7.23 41.36,-7.61 42.32,-7.89 43.29,-8.16 44.38,-8.97 45.47,-9.79 46.88,-11.43 48.30,-13.07 51.30,-16.77 54.30,-20.48 56.29,-23.18 58.29,-25.87 61.40,-31.23 64.50,-36.59 66.96,-41.64 69.42,-46.70 71.20,-51.22 72.98,-55.75 73.03,-55.84 73.09,-55.94 73.17,-56.01 73.26,-56.08 73.36,-56.12 73.46,-56.16 73.57,-56.17 73.68,-56.17 73.79,-56.15 73.89,-56.12 73.98,-56.06 74.08,-55.99 74.14,-55.91 74.21,-55.82 74.25,-55.72 74.28,-55.61 74.28,-55.50 74.28,-55.39 74.25,-55.29 74.21,-55.18 74.15,-55.09 74.08,-55.01 73.99,-54.94 73.90,-54.88 73.79,-54.85 73.69,-54.82 73.58,-54.83 73.47,-54.83 73.36,-54.87 73.26,-54.91 73.18,-54.98 73.09,-55.06 73.04,-55.15 72.98,-55.24 72.96,-55.35 72.93,-55.46 72.94,-55.57 72.95,-55.68 73.00,-55.78 73.05,-55.88 73.12,-55.96 73.20,-56.04 73.29,-56.09 73.39,-56.14 73.50,-56.16 73.61,-56.18 73.72,-56.16 73.82,-56.14 73.92,-56.09 74.02,-56.04 74.10,-55.96 74.17,-55.88 74.22,-55.78 74.26,-55.68 74.28,-55.57 74.29,-55.46 74.27,-55.36 74.24,-55.25 74.24,-55.25 74.24,-55.25 72.45,-50.67 70.66,-46.10 68.19,-40.99 65.72,-35.88 62.58,-30.45 59.45,-25.03 57.45,-22.29 55.45,-19.55 52.47,-15.81 49.48,-12.07 48.00,-10.30 46.51,-8.53 45.67,-7.86 44.83,-7.20 44.24,-7.02 43.65,-6.84 42.65,-6.58 41.64,-6.31 39.79,-5.91 37.95,-5.51 35.08,-5.07 32.22,-4.63 28.93,-4.32 25.63,-4.01 22.53,-3.78 19.42,-3.55 16.74,-3.26 14.05,-2.98 11.60,-2.54 9.14,-2.11 7.19,-1.57 5.23,-1.03 4.30,-0.79 3.37,-0.54 1.83,0.09 0.29,0.73 0.20,0.75 0.10,0.77 0.01,0.78 -0.08,0.78 -0.17,0.76 -0.26,0.74 -0.35,0.69 -0.43,0.65 -0.50,0.59 -0.57,0.53 -0.63,0.45 -0.69,0.37 -0.72,0.29 -0.76,0.20 -0.77,0.10 -0.78,0.01 -0.77,-0.08 -0.76,-0.17 -0.73,-0.26 -0.70,-0.35 -0.65,-0.43 -0.59,-0.51 -0.52,-0.57 -0.45,-0.63 -0.37,-0.68 -0.29,-0.73 -0.29,-0.73 L -0.29,-0.73 Z"/></g><g transform="translate(301.93662497997406 152.83220293165468) rotate(0 7.727810965001041 -5.39149602209374)" stroke="none"><path fill="#1e1e1e" d="M -0.45,-0.82 Q -0.45,-0.82 0.70,-1.41 1.85,-1.99 3.87,-3.35 5.88,-4.70 7.98,-6.20 10.09,-7.71 12.07,-9.25 14.05,-10.79 14.17,-10.86 14.30,-10.92 14.43,-10.94 14.57,-10.96 14.70,-10.94 14.84,-10.92 14.96,-10.85 15.08,-10.79 15.18,-10.69 15.27,-10.59 15.33,-10.46 15.39,-10.33 15.40,-10.20 15.41,-10.06 15.38,-9.93 15.35,-9.79 15.28,-9.67 15.21,-9.56 15.10,-9.47 15.00,-9.38 14.87,-9.33 14.74,-9.28 14.61,-9.27 14.47,-9.26 14.34,-9.30 14.20,-9.34 14.09,-9.42 13.98,-9.50 13.89,-9.61 13.81,-9.72 13.77,-9.85 13.72,-9.98 13.72,-10.12 13.72,-10.25 13.77,-10.38 13.81,-10.51 13.90,-10.62 13.98,-10.73 14.10,-10.81 14.21,-10.89 14.34,-10.92 14.48,-10.96 14.61,-10.95 14.75,-10.94 14.88,-10.89 15.01,-10.84 15.11,-10.75 15.22,-10.66 15.29,-10.54 15.36,-10.42 15.39,-10.29 15.41,-10.15 15.40,-10.02 15.38,-9.88 15.33,-9.75 15.27,-9.63 15.17,-9.53 15.08,-9.43 15.08,-9.43 15.08,-9.43 13.03,-7.95 10.99,-6.46 8.89,-4.92 6.79,-3.37 4.74,-1.92 2.68,-0.48 1.56,0.17 0.45,0.82 0.34,0.86 0.23,0.90 0.12,0.92 0.01,0.94 -0.09,0.92 -0.21,0.91 -0.31,0.87 -0.42,0.84 -0.51,0.77 -0.61,0.71 -0.68,0.63 -0.76,0.54 -0.82,0.44 -0.87,0.34 -0.90,0.23 -0.93,0.12 -0.93,0.01 -0.93,-0.09 -0.91,-0.20 -0.88,-0.31 -0.83,-0.42 -0.78,-0.52 -0.70,-0.60 -0.63,-0.69 -0.54,-0.76 -0.45,-0.82 -0.45,-0.82 L -0.45,-0.82 Z"/></g><g stroke-linecap="round" transform="translate(273.2216948477797 92.64873098510725) rotate(43.58717223392486 53.528265602374596 10.773410418705772)"><path d="M0.46 1.52 L106.25 1.5 L105.21 21.5 L1.61 19.63" stroke="none" stroke-width="0" fill="#a5d8ff"/><path d="M0 0 C33.72 -1.61, 65.5 -1.03, 107.06 0 M0 0 C38.66 0.15, 76.73 0.27, 107.06 0 M107.06 0 C108.84 7.54, 108.65 14.63, 107.06 21.55 M107.06 0 C106.53 5.81, 106.73 12.03, 107.06 21.55 M107.06 21.55 C77.21 20.57, 50.6 21.24, 0 21.55 M107.06 21.55 C81.01 21.62, 56.19 21.92, 0 21.55 M0 21.55 C1.77 13.63, -0.83 6.6, 0 0 M0 21.55 C-1.08 13.76, 0.26 4.67, 0 0" stroke="#1e1e1e" stroke-width="1" fill="none"/></g><g stroke-linecap="round" transform="translate(276.75047924513615 94.69489405847997) rotate(43.58717223392486 50.134271719411274 8.369331418273418)"><path d="M-0.03 -0.78 L100.81 0.04 L99.6 17.54 L-0.85 17.41" stroke="none" stroke-width="0" fill="#ffffff"/><path d="M0 0 C20.56 1.21, 42.28 0.94, 100.27 0 M0 0 C38.33 -0.2, 77.01 0.28, 100.27 0 M100.27 0 C99.95 3.29, 99.97 7.89, 100.27 16.74 M100.27 0 C100.61 5.41, 100.63 10.38, 100.27 16.74 M100.27 16.74 C75.79 17.85, 51.04 17.91, 0 16.74 M100.27 16.74 C63.91 16.26, 27.61 17, 0 16.74 M0 16.74 C-0.25 12.43, -0.67 10.08, 0 0 M0 16.74 C0.28 11.69, -0.32 6.69, 0 0" stroke="#1e1e1e" stroke-width="1" fill="none"/></g><g stroke-linecap="round" transform="translate(294.08839571630216 76.71893342849435) rotate(43.58717223392486 30.46497091534156 25.9701391409469)"><path d="M20.35 2.18 C26.05 0.04, 34.41 -0.65, 40.44 0.99 C46.48 2.63, 53.24 7.1, 56.58 12.03 C59.91 16.95, 61.48 25.07, 60.45 30.53 C59.42 35.99, 55.25 41.33, 50.42 44.78 C45.59 48.23, 38.02 50.99, 31.46 51.24 C24.91 51.49, 16.31 49.67, 11.11 46.28 C5.92 42.89, 1.61 36.32, 0.3 30.9 C-1.02 25.48, -0.65 18.85, 3.21 13.74 C7.06 8.63, 19.56 2.42, 23.43 0.23 C27.29 -1.97, 26.22 0.21, 26.39 0.56 M24.29 1.4 C30.52 0.4, 39.43 1.46, 44.98 4.01 C50.53 6.57, 55.32 11.58, 57.61 16.73 C59.89 21.88, 60.46 29.54, 58.69 34.91 C56.92 40.28, 52.24 45.95, 46.98 48.95 C41.72 51.94, 33.48 53.58, 27.12 52.87 C20.77 52.15, 13.37 49.17, 8.86 44.65 C4.36 40.12, 0.26 31.26, 0.08 25.71 C-0.1 20.16, 3.64 15.33, 7.79 11.36 C11.94 7.38, 22.02 3.59, 24.97 1.86 C27.92 0.13, 25.47 0.69, 25.5 0.98" stroke="none" stroke-width="0" fill="#a5d8ff"/><path d="M31.57 0.14 C37.88 -0.01, 46.5 3.74, 51.49 7.36 C56.49 10.97, 60.69 16.52, 61.54 21.84 C62.39 27.17, 60.06 34.45, 56.57 39.3 C53.07 44.14, 46.85 49.04, 40.56 50.9 C34.27 52.76, 25.16 52.76, 18.84 50.48 C12.51 48.21, 5.49 42.17, 2.6 37.25 C-0.29 32.33, -0.14 26.23, 1.51 20.97 C3.15 15.71, 6.36 9.2, 12.49 5.71 C18.61 2.21, 32.99 0.53, 38.24 0.02 C43.5 -0.48, 44.31 2.04, 44.03 2.66 M39.81 2.25 C46.23 3.33, 53.75 7.04, 57.07 11.53 C60.39 16.01, 60.81 23.74, 59.74 29.16 C58.66 34.58, 55.12 40.35, 50.62 44.04 C46.12 47.73, 39.38 51.06, 32.76 51.31 C26.13 51.56, 16.13 48.84, 10.89 45.54 C5.64 42.24, 2.45 36.96, 1.28 31.51 C0.11 26.06, 0.79 17.93, 3.88 12.85 C6.96 7.76, 13.71 2.95, 19.8 0.99 C25.89 -0.97, 37.25 0.84, 40.4 1.07 C43.55 1.3, 38.84 1.72, 38.69 2.36" stroke="#1e1e1e" stroke-width="2" fill="none"/></g><g transform="translate(333.0373437994456 80.32719844437725) rotate(43.58717223392486 -12.586060649322292 17.394218650186993)" stroke="none"><path fill="#1e1e1e" d="M 1.73,0.57 Q 1.73,0.57 1.17,2.29 0.60,4.00 -0.82,6.40 -2.26,8.80 -4.55,11.62 -6.84,14.45 -9.58,17.87 -12.32,21.29 -15.13,24.70 -17.94,28.11 -20.35,31.29 -22.75,34.47 -22.95,34.65 -23.15,34.84 -23.41,34.94 -23.66,35.05 -23.93,35.08 -24.20,35.10 -24.47,35.03 -24.73,34.97 -24.96,34.82 -25.20,34.67 -25.37,34.46 -25.54,34.25 -25.63,33.99 -25.73,33.73 -25.74,33.46 -25.74,33.19 -25.66,32.92 -25.58,32.66 -25.42,32.44 -25.26,32.22 -25.04,32.06 -24.82,31.90 -24.56,31.82 -24.30,31.74 -24.02,31.74 -23.75,31.75 -23.49,31.84 -23.24,31.94 -23.02,32.11 -22.81,32.28 -22.66,32.51 -22.51,32.74 -22.45,33.01 -22.38,33.27 -22.40,33.54 -22.43,33.82 -22.53,34.07 -22.64,34.32 -22.82,34.52 -23.01,34.73 -23.24,34.86 -23.48,35.00 -23.75,35.05 -24.02,35.10 -24.29,35.07 -24.56,35.03 -24.81,34.91 -25.05,34.79 -25.25,34.59 -25.44,34.40 -25.56,34.15 -25.68,33.91 -25.72,33.64 -25.76,33.37 -25.71,33.10 -25.66,32.83 -25.52,32.59 -25.39,32.35 -25.39,32.35 -25.39,32.35 -22.80,29.31 -20.21,26.26 -17.46,22.84 -14.71,19.41 -12.02,15.94 -9.34,12.47 -7.27,9.79 -5.20,7.11 -4.04,4.96 -2.88,2.82 -2.30,1.12 -1.73,-0.57 -1.64,-0.77 -1.54,-0.97 -1.40,-1.14 -1.26,-1.31 -1.09,-1.45 -0.91,-1.58 -0.71,-1.67 -0.50,-1.75 -0.29,-1.79 -0.07,-1.82 0.14,-1.81 0.36,-1.79 0.57,-1.72 0.78,-1.65 0.97,-1.53 1.15,-1.41 1.30,-1.25 1.46,-1.10 1.57,-0.90 1.68,-0.71 1.74,-0.50 1.80,-0.29 1.81,-0.07 1.82,0.14 1.78,0.36 1.73,0.57 1.73,0.57 L 1.73,0.57 Z"/></g><g transform="translate(300.20266437776274 118.44098100083991) rotate(43.58717223392486 21.63671100389114 -9.050650354568834)" stroke="none"><path fill="#1e1e1e" d="M -0.88,-1.53 Q -0.88,-1.53 0.64,-2.44 2.18,-3.34 4.01,-4.33 5.83,-5.32 8.29,-6.47 10.75,-7.62 13.71,-8.75 16.66,-9.89 19.60,-11.08 22.53,-12.27 25.28,-13.27 28.02,-14.26 30.23,-15.08 32.44,-15.90 34.20,-16.55 35.95,-17.21 37.31,-17.79 38.66,-18.37 40.45,-19.12 42.23,-19.87 42.51,-19.93 42.79,-20.00 43.07,-19.97 43.36,-19.94 43.62,-19.82 43.88,-19.70 44.09,-19.51 44.30,-19.31 44.44,-19.06 44.57,-18.81 44.62,-18.53 44.67,-18.24 44.63,-17.96 44.58,-17.68 44.45,-17.42 44.32,-17.17 44.11,-16.97 43.91,-16.77 43.65,-16.65 43.39,-16.53 43.10,-16.49 42.82,-16.46 42.54,-16.52 42.26,-16.58 42.01,-16.72 41.77,-16.87 41.58,-17.08 41.39,-17.30 41.28,-17.57 41.17,-17.83 41.15,-18.12 41.14,-18.40 41.21,-18.68 41.28,-18.96 41.44,-19.20 41.60,-19.43 41.83,-19.61 42.06,-19.79 42.33,-19.88 42.60,-19.97 42.88,-19.98 43.17,-19.98 43.44,-19.89 43.71,-19.80 43.94,-19.63 44.17,-19.46 44.34,-19.22 44.50,-18.99 44.58,-18.71 44.66,-18.44 44.65,-18.15 44.63,-17.86 44.53,-17.60 44.43,-17.33 44.24,-17.11 44.06,-16.89 43.81,-16.74 43.57,-16.59 43.57,-16.59 43.57,-16.59 41.68,-15.90 39.79,-15.22 38.35,-14.80 36.92,-14.39 35.17,-13.84 33.42,-13.30 31.22,-12.45 29.01,-11.60 26.33,-10.58 23.65,-9.57 20.72,-8.32 17.79,-7.07 14.97,-5.91 12.15,-4.75 9.84,-3.56 7.52,-2.37 5.75,-1.30 3.99,-0.22 2.44,0.65 0.88,1.53 0.69,1.61 0.49,1.70 0.28,1.73 0.07,1.77 -0.13,1.75 -0.35,1.73 -0.55,1.66 -0.75,1.60 -0.93,1.48 -1.11,1.37 -1.26,1.22 -1.41,1.06 -1.52,0.88 -1.62,0.69 -1.68,0.49 -1.74,0.28 -1.75,0.07 -1.76,-0.14 -1.72,-0.35 -1.68,-0.55 -1.59,-0.75 -1.49,-0.94 -1.36,-1.11 -1.22,-1.27 -1.05,-1.40 -0.88,-1.53 -0.88,-1.53 L -0.88,-1.53 Z"/></g><g transform="translate(352.9916962140027 100.29918979446326) rotate(43.58717223392486 -25.73778694580514 -2.545495412222486)" stroke="none"><path fill="#1e1e1e" d="M -0.08,1.84 Q -0.08,1.84 -1.87,1.76 -3.66,1.69 -6.31,1.42 -8.96,1.14 -13.01,0.76 -17.05,0.38 -21.28,0.04 -25.51,-0.29 -29.78,-0.78 -34.04,-1.26 -37.74,-1.80 -41.43,-2.34 -44.13,-2.74 -46.83,-3.14 -48.80,-3.27 -50.78,-3.40 -51.03,-3.47 -51.28,-3.54 -51.49,-3.69 -51.70,-3.83 -51.86,-4.04 -52.01,-4.25 -52.09,-4.49 -52.17,-4.74 -52.17,-5.00 -52.17,-5.25 -52.08,-5.50 -52.00,-5.74 -51.84,-5.95 -51.68,-6.15 -51.47,-6.29 -51.25,-6.44 -51.01,-6.50 -50.76,-6.57 -50.50,-6.56 -50.24,-6.54 -50.00,-6.44 -49.76,-6.34 -49.57,-6.18 -49.37,-6.01 -49.24,-5.78 -49.11,-5.56 -49.06,-5.31 -49.00,-5.06 -49.03,-4.80 -49.06,-4.54 -49.17,-4.31 -49.28,-4.08 -49.46,-3.89 -49.64,-3.71 -49.87,-3.59 -50.10,-3.47 -50.35,-3.43 -50.61,-3.39 -50.86,-3.43 -51.12,-3.48 -51.35,-3.60 -51.57,-3.72 -51.75,-3.91 -51.92,-4.10 -52.03,-4.33 -52.14,-4.57 -52.16,-4.83 -52.19,-5.08 -52.13,-5.34 -52.07,-5.59 -51.94,-5.81 -51.80,-6.03 -51.61,-6.19 -51.41,-6.36 -51.17,-6.45 -50.93,-6.55 -50.67,-6.56 -50.41,-6.57 -50.41,-6.57 -50.41,-6.57 -48.42,-6.23 -46.44,-5.90 -43.73,-5.53 -41.03,-5.17 -37.38,-4.67 -33.73,-4.18 -29.51,-3.75 -25.30,-3.33 -21.05,-3.07 -16.79,-2.81 -12.75,-2.53 -8.71,-2.26 -6.10,-2.14 -3.49,-2.01 -1.70,-1.93 0.08,-1.84 0.30,-1.80 0.52,-1.77 0.72,-1.68 0.93,-1.59 1.10,-1.45 1.28,-1.32 1.42,-1.15 1.56,-0.97 1.66,-0.77 1.75,-0.57 1.79,-0.35 1.84,-0.13 1.83,0.08 1.82,0.30 1.75,0.51 1.69,0.73 1.58,0.92 1.47,1.11 1.31,1.27 1.16,1.43 0.97,1.55 0.78,1.67 0.57,1.74 0.35,1.81 0.13,1.82 -0.08,1.84 -0.08,1.84 L -0.08,1.84 Z"/></g><g transform="translate(296.7284611578676 89.50532161034783) rotate(43.58717223392486 21.21246176852072 11.87897859037161)" stroke="none"><path fill="#1e1e1e" d="M 1.17,-1.27 Q 1.17,-1.27 2.28,-0.35 3.38,0.56 4.88,1.78 6.38,2.99 7.88,4.28 9.39,5.57 10.72,6.76 12.05,7.95 13.37,8.96 14.68,9.97 17.34,11.73 20.00,13.50 23.18,15.05 26.36,16.61 29.61,17.76 32.87,18.92 35.26,19.76 37.65,20.60 39.83,21.22 42.01,21.85 42.25,21.98 42.49,22.10 42.67,22.30 42.86,22.50 42.97,22.74 43.08,22.99 43.11,23.26 43.14,23.52 43.08,23.79 43.03,24.05 42.89,24.28 42.75,24.52 42.54,24.69 42.33,24.87 42.08,24.97 41.83,25.07 41.56,25.08 41.29,25.10 41.03,25.02 40.77,24.95 40.55,24.80 40.32,24.65 40.16,24.43 39.99,24.22 39.91,23.96 39.82,23.70 39.82,23.43 39.82,23.16 39.91,22.91 40.00,22.65 40.16,22.43 40.32,22.22 40.55,22.07 40.77,21.92 41.03,21.84 41.29,21.77 41.56,21.79 41.83,21.80 42.08,21.90 42.34,22.00 42.54,22.18 42.75,22.35 42.89,22.58 43.03,22.82 43.08,23.08 43.14,23.34 43.11,23.61 43.08,23.88 42.97,24.13 42.86,24.37 42.67,24.57 42.48,24.77 42.24,24.89 42.01,25.02 41.74,25.06 41.47,25.11 41.20,25.06 40.94,25.02 40.94,25.02 40.94,25.02 38.82,24.19 36.71,23.37 34.29,22.58 31.88,21.79 28.44,20.64 24.99,19.50 21.59,17.93 18.18,16.37 15.29,14.62 12.40,12.87 11.00,11.73 9.61,10.60 8.37,9.42 7.13,8.25 5.66,7.03 4.19,5.82 2.51,4.57 0.83,3.33 -0.17,2.30 -1.17,1.27 -1.31,1.11 -1.45,0.95 -1.54,0.77 -1.63,0.58 -1.68,0.37 -1.73,0.17 -1.72,-0.03 -1.72,-0.24 -1.66,-0.44 -1.61,-0.64 -1.51,-0.83 -1.41,-1.01 -1.26,-1.17 -1.12,-1.32 -0.95,-1.44 -0.77,-1.55 -0.57,-1.62 -0.38,-1.69 -0.17,-1.71 0.03,-1.73 0.24,-1.70 0.45,-1.67 0.64,-1.60 0.83,-1.52 1.00,-1.40 1.17,-1.27 1.17,-1.27 L 1.17,-1.27 Z"/></g><g transform="translate(339.35994658644 125.89867588823492) rotate(43.58717223392486 -5.65665647160553 -18.10130070913768)" stroke="none"><path fill="#1e1e1e" d="M -1.86,0.48 Q -1.86,0.48 -2.32,-1.39 -2.77,-3.26 -3.54,-5.72 -4.31,-8.18 -5.11,-10.73 -5.91,-13.28 -6.81,-16.16 -7.71,-19.05 -8.48,-21.49 -9.25,-23.93 -9.90,-26.04 -10.55,-28.15 -11.07,-29.78 -11.60,-31.40 -12.18,-33.35 -12.77,-35.30 -12.81,-35.56 -12.86,-35.83 -12.81,-36.10 -12.77,-36.37 -12.64,-36.60 -12.52,-36.84 -12.32,-37.03 -12.12,-37.22 -11.88,-37.33 -11.63,-37.44 -11.36,-37.47 -11.10,-37.50 -10.83,-37.44 -10.57,-37.39 -10.33,-37.25 -10.10,-37.11 -9.93,-36.90 -9.75,-36.70 -9.65,-36.44 -9.55,-36.19 -9.54,-35.92 -9.52,-35.65 -9.59,-35.39 -9.67,-35.13 -9.82,-34.91 -9.97,-34.68 -10.19,-34.52 -10.40,-34.35 -10.66,-34.27 -10.91,-34.18 -11.18,-34.18 -11.45,-34.18 -11.71,-34.27 -11.97,-34.35 -12.18,-34.52 -12.40,-34.68 -12.55,-34.91 -12.70,-35.13 -12.78,-35.39 -12.85,-35.65 -12.83,-35.92 -12.82,-36.19 -12.72,-36.44 -12.62,-36.69 -12.44,-36.90 -12.27,-37.11 -12.04,-37.25 -11.80,-37.39 -11.54,-37.44 -11.28,-37.50 -11.01,-37.47 -10.74,-37.44 -10.49,-37.33 -10.25,-37.22 -10.05,-37.03 -9.85,-36.85 -9.73,-36.61 -9.60,-36.37 -9.60,-36.37 -9.60,-36.37 -9.08,-34.30 -8.57,-32.24 -8.20,-30.62 -7.83,-29.01 -7.15,-26.93 -6.46,-24.85 -5.63,-22.42 -4.80,-19.99 -3.84,-17.15 -2.87,-14.31 -1.97,-11.80 -1.06,-9.30 -0.12,-6.75 0.82,-4.21 1.34,-2.34 1.86,-0.48 1.90,-0.25 1.93,-0.02 1.90,0.20 1.88,0.43 1.80,0.65 1.72,0.87 1.59,1.06 1.46,1.26 1.29,1.41 1.11,1.57 0.91,1.68 0.70,1.79 0.48,1.85 0.25,1.91 0.02,1.91 -0.20,1.92 -0.43,1.86 -0.66,1.81 -0.86,1.71 -1.07,1.60 -1.25,1.45 -1.42,1.30 -1.56,1.11 -1.69,0.92 -1.78,0.70 -1.86,0.48 -1.86,0.48 L -1.86,0.48 Z"/></g><g transform="translate(318.5589219336607 217.03585304328104) rotate(333.8314530780552 5.974374446191682 8.475275377155647)" stroke="none"><path fill="#1e1e1e" d="M 0.85,0 Q 0.85,0 0.82,1.35 0.79,2.71 0.78,4.33 0.76,5.94 0.74,7.51 0.73,9.07 0.64,10.40 0.55,11.73 0.57,12.37 0.59,13.02 0.58,13.04 0.58,13.06 0.56,13.16 0.54,13.26 0.50,13.35 0.46,13.44 0.40,13.52 0.34,13.60 0.26,13.66 0.18,13.73 0.09,13.77 -0.00,13.81 -0.10,13.83 -0.20,13.85 -0.30,13.84 -0.40,13.84 -0.49,13.81 -0.59,13.78 -0.68,13.73 -0.77,13.68 -0.84,13.60 -0.91,13.53 -0.96,13.45 -1.02,13.36 -1.05,13.26 -1.08,13.17 -1.08,13.07 -1.09,12.97 -0.90,11.75 -0.72,10.54 -0.31,9.11 0.10,7.67 0.60,6.27 1.10,4.86 1.56,3.78 2.02,2.69 2.55,1.79 3.07,0.89 3.42,0.30 3.77,-0.27 4.59,-0.93 5.42,-1.58 6.08,-1.52 6.74,-1.46 7.55,-0.84 8.36,-0.22 9.06,0.54 9.75,1.31 10.45,2.42 11.15,3.54 11.69,4.95 12.23,6.36 12.46,8.14 12.68,9.92 12.52,11.37 12.36,12.81 11.94,13.95 11.52,15.09 10.93,15.95 10.33,16.82 9.82,17.33 9.32,17.85 8.51,18.05 7.70,18.26 7.29,16.82 6.89,15.37 6.77,15.41 6.66,15.45 6.53,15.46 6.41,15.47 6.29,15.45 6.17,15.43 6.06,15.38 5.94,15.33 5.84,15.26 5.74,15.19 5.67,15.09 5.59,15.00 5.54,14.88 5.48,14.77 5.46,14.65 5.43,14.53 5.44,14.41 5.44,14.29 5.48,14.17 5.51,14.05 5.57,13.94 5.63,13.84 5.72,13.75 5.81,13.66 5.91,13.59 6.01,13.53 5.72,13.94 5.43,14.35 5.48,14.19 5.52,14.03 5.61,13.89 5.70,13.76 5.83,13.65 5.96,13.55 6.12,13.50 6.27,13.44 6.44,13.44 6.60,13.44 6.76,13.49 6.92,13.54 7.05,13.64 7.19,13.74 7.28,13.87 7.37,14.01 7.42,14.17 7.47,14.32 7.46,14.49 7.45,14.66 7.39,14.81 7.34,14.96 7.23,15.09 7.12,15.22 6.98,15.31 6.84,15.39 6.68,15.43 6.52,15.47 6.36,15.45 6.19,15.44 6.04,15.37 5.89,15.30 5.77,15.19 5.65,15.08 5.57,14.93 5.49,14.79 5.46,14.63 5.43,14.46 5.45,14.30 5.48,14.14 5.55,13.99 5.63,13.84 5.75,13.73 5.87,13.61 6.02,13.54 6.17,13.47 6.33,13.45 6.49,13.43 6.66,13.46 6.82,13.49 6.96,13.58 7.10,13.66 7.21,13.79 7.32,13.91 7.38,14.06 7.45,14.22 7.17,14.79 6.89,15.37 6.77,15.41 6.66,15.45 6.53,15.46 6.41,15.47 6.29,15.45 6.17,15.43 6.06,15.38 5.94,15.33 5.84,15.26 5.74,15.19 5.67,15.09 5.59,15.00 5.54,14.88 5.48,14.77 5.46,14.65 5.43,14.53 5.44,14.41 5.44,14.29 5.48,14.17 5.51,14.05 5.57,13.94 5.63,13.84 5.72,13.75 5.81,13.66 5.91,13.59 6.01,13.53 7.11,15.02 8.20,16.51 8.65,16.21 9.10,15.91 9.63,15.24 10.15,14.58 10.50,13.61 10.85,12.64 10.97,11.38 11.10,10.12 10.87,8.55 10.65,6.98 10.13,5.77 9.61,4.56 8.94,3.64 8.27,2.72 7.62,2.08 6.98,1.45 6.05,1.07 5.12,0.70 4.71,1.16 4.31,1.63 3.82,2.43 3.32,3.24 2.89,4.29 2.46,5.34 2.00,6.71 1.53,8.07 1.18,9.41 0.82,10.74 0.70,11.90 0.58,13.06 0.56,13.16 0.54,13.26 0.50,13.35 0.46,13.44 0.40,13.52 0.34,13.60 0.26,13.66 0.18,13.73 0.09,13.77 -0.00,13.81 -0.10,13.83 -0.19,13.85 -0.30,13.84 -0.40,13.84 -0.49,13.81 -0.59,13.78 -0.68,13.73 -0.77,13.68 -0.84,13.60 -0.91,13.53 -0.96,13.45 -1.02,13.36 -1.05,13.26 -1.08,13.17 -1.08,13.07 -1.09,12.97 -1.07,12.92 -1.04,12.88 -0.95,12.26 -0.87,11.64 -0.80,10.36 -0.73,9.07 -0.74,7.51 -0.76,5.94 -0.78,4.33 -0.79,2.71 -0.82,1.35 -0.85,0 -0.84,-0.10 -0.82,-0.20 -0.79,-0.30 -0.75,-0.39 -0.69,-0.48 -0.63,-0.56 -0.56,-0.63 -0.48,-0.70 -0.39,-0.74 -0.30,-0.79 -0.20,-0.82 -0.10,-0.84 0.00,-0.84 0.10,-0.84 0.20,-0.82 0.30,-0.79 0.39,-0.74 0.48,-0.70 0.56,-0.63 0.63,-0.56 0.69,-0.48 0.75,-0.39 0.79,-0.30 0.82,-0.20 0.84,-0.10 0.85,0.00 0.85,0.00 L 0.85,0 Z"/></g><g transform="translate(334.38737977623794 212.98311895397674) rotate(333.8314530780552 0.13893894060911194 5.140740802537028)" stroke="none"><path fill="#1e1e1e" d="M 1.15,0 Q 1.15,0 1.08,1.35 1.02,2.71 0.97,4.01 0.92,5.30 0.91,6.25 0.90,7.20 1.04,8.74 1.17,10.27 1.18,10.42 1.18,10.57 1.14,10.72 1.09,10.86 1.00,10.98 0.91,11.11 0.79,11.19 0.67,11.28 0.52,11.33 0.38,11.37 0.22,11.37 0.07,11.36 -0.06,11.31 -0.20,11.26 -0.32,11.16 -0.44,11.07 -0.52,10.94 -0.60,10.81 -0.64,10.66 -0.67,10.52 -0.66,10.36 -0.65,10.21 -0.59,10.07 -0.53,9.94 -0.43,9.82 -0.32,9.71 -0.19,9.64 -0.06,9.56 0.08,9.53 0.23,9.50 0.38,9.53 0.53,9.55 0.66,9.61 0.80,9.68 0.91,9.79 1.01,9.90 1.08,10.03 1.15,10.17 1.17,10.32 1.19,10.47 1.16,10.62 1.13,10.77 1.06,10.90 0.98,11.03 0.87,11.13 0.75,11.23 0.62,11.29 0.48,11.35 0.32,11.36 0.17,11.38 0.03,11.34 -0.11,11.30 -0.24,11.22 -0.37,11.14 -0.46,11.02 -0.56,10.90 -0.61,10.76 -0.66,10.62 -0.66,10.62 -0.66,10.62 -0.78,8.91 -0.90,7.20 -0.91,6.25 -0.92,5.30 -0.97,4.01 -1.02,2.71 -1.08,1.35 -1.15,0 -1.13,-0.13 -1.12,-0.27 -1.07,-0.40 -1.02,-0.53 -0.94,-0.65 -0.86,-0.76 -0.76,-0.85 -0.65,-0.95 -0.53,-1.01 -0.40,-1.07 -0.27,-1.11 -0.13,-1.14 0.00,-1.14 0.13,-1.14 0.27,-1.11 0.40,-1.07 0.53,-1.01 0.65,-0.95 0.76,-0.85 0.86,-0.76 0.94,-0.65 1.02,-0.53 1.07,-0.40 1.12,-0.27 1.13,-0.13 1.15,0.00 1.15,0.00 L 1.15,0 Z"/></g><g transform="translate(331.8867452513013 212.0593410403906) rotate(333.8314530780552 2.500900930963958 -0.8336336436546503)" stroke="none"><path fill="#1e1e1e" d="M -0.24,-1.12 Q -0.24,-1.12 0.46,-1.28 1.18,-1.45 2.70,-2.05 4.22,-2.66 4.41,-2.70 4.60,-2.74 4.79,-2.72 4.99,-2.70 5.17,-2.62 5.35,-2.53 5.49,-2.40 5.63,-2.26 5.72,-2.09 5.81,-1.92 5.85,-1.72 5.88,-1.53 5.85,-1.34 5.81,-1.14 5.72,-0.97 5.63,-0.80 5.49,-0.66 5.35,-0.53 5.17,-0.44 4.99,-0.36 4.80,-0.34 4.60,-0.32 4.41,-0.36 4.22,-0.40 4.05,-0.50 3.88,-0.61 3.75,-0.75 3.63,-0.90 3.55,-1.09 3.48,-1.27 3.47,-1.46 3.46,-1.66 3.51,-1.85 3.56,-2.04 3.67,-2.20 3.78,-2.36 3.94,-2.48 4.10,-2.60 4.28,-2.66 4.47,-2.73 4.66,-2.73 4.86,-2.73 5.05,-2.66 5.23,-2.60 5.39,-2.48 5.55,-2.36 5.66,-2.20 5.77,-2.04 5.82,-1.85 5.87,-1.66 5.86,-1.47 5.85,-1.27 5.78,-1.09 5.70,-0.91 5.58,-0.76 5.45,-0.61 5.28,-0.51 5.11,-0.40 5.12,-0.40 5.12,-0.40 3.40,0.20 1.69,0.81 0.97,0.96 0.24,1.12 0.11,1.13 -0.02,1.15 -0.16,1.13 -0.30,1.11 -0.42,1.05 -0.55,1.00 -0.67,0.92 -0.78,0.84 -0.87,0.73 -0.96,0.63 -1.02,0.50 -1.08,0.38 -1.11,0.24 -1.14,0.11 -1.14,-0.02 -1.13,-0.16 -1.10,-0.29 -1.06,-0.43 -0.99,-0.55 -0.93,-0.67 -0.83,-0.77 -0.74,-0.87 -0.62,-0.95 -0.51,-1.03 -0.38,-1.07 -0.24,-1.12 -0.24,-1.12 L -0.24,-1.12 Z"/></g><g transform="translate(336.0391206597311 219.83763634160223) rotate(333.8314530780552 2.084084109136633 -0.6946947030455313)" stroke="none"><path fill="#1e1e1e" d="M -0.49,-1.11 Q -0.49,-1.11 1.58,-2.10 3.66,-3.08 3.86,-3.11 4.06,-3.15 4.26,-3.11 4.46,-3.08 4.63,-2.98 4.81,-2.89 4.95,-2.74 5.09,-2.60 5.17,-2.41 5.25,-2.23 5.27,-2.03 5.30,-1.83 5.25,-1.64 5.21,-1.44 5.10,-1.27 5.00,-1.10 4.85,-0.97 4.69,-0.84 4.51,-0.76 4.32,-0.69 4.12,-0.68 3.92,-0.67 3.72,-0.73 3.53,-0.78 3.37,-0.89 3.20,-1.01 3.08,-1.17 2.96,-1.33 2.89,-1.52 2.83,-1.71 2.83,-1.91 2.83,-2.11 2.90,-2.30 2.96,-2.49 3.08,-2.65 3.21,-2.81 3.37,-2.92 3.54,-3.03 3.73,-3.09 3.93,-3.14 4.13,-3.13 4.33,-3.12 4.51,-3.04 4.70,-2.97 4.85,-2.84 5.01,-2.70 5.11,-2.53 5.21,-2.36 5.25,-2.16 5.30,-1.97 5.27,-1.77 5.25,-1.57 5.17,-1.39 5.08,-1.20 4.94,-1.06 4.80,-0.91 4.63,-0.82 4.45,-0.73 4.45,-0.73 4.45,-0.73 2.47,0.19 0.49,1.11 0.35,1.15 0.21,1.20 0.06,1.21 -0.07,1.21 -0.22,1.19 -0.36,1.16 -0.50,1.10 -0.63,1.04 -0.75,0.95 -0.86,0.85 -0.95,0.74 -1.04,0.62 -1.10,0.49 -1.16,0.35 -1.19,0.21 -1.21,0.06 -1.21,-0.07 -1.20,-0.22 -1.15,-0.36 -1.11,-0.50 -1.03,-0.63 -0.95,-0.75 -0.85,-0.86 -0.74,-0.96 -0.62,-1.04 -0.49,-1.11 -0.49,-1.11 L -0.49,-1.11 Z"/></g><g transform="translate(339.01171857849585 224.59468382127258) rotate(333.8314530780552 2.500900930963958 -1.389389406091098)" stroke="none"><path fill="#1e1e1e" d="M -0.44,-1.04 Q -0.44,-1.04 0.69,-1.46 1.83,-1.88 3.11,-2.76 4.39,-3.64 4.55,-3.69 4.71,-3.74 4.88,-3.74 5.05,-3.73 5.21,-3.67 5.37,-3.62 5.50,-3.51 5.63,-3.40 5.72,-3.26 5.82,-3.12 5.86,-2.95 5.90,-2.79 5.88,-2.62 5.87,-2.45 5.80,-2.30 5.74,-2.14 5.62,-2.01 5.51,-1.89 5.36,-1.80 5.22,-1.72 5.05,-1.69 4.88,-1.65 4.72,-1.68 4.55,-1.70 4.40,-1.77 4.24,-1.85 4.12,-1.97 4.00,-2.09 3.93,-2.24 3.85,-2.39 3.83,-2.56 3.81,-2.73 3.84,-2.89 3.87,-3.06 3.95,-3.21 4.03,-3.36 4.16,-3.47 4.29,-3.58 4.44,-3.65 4.60,-3.72 4.77,-3.73 4.94,-3.75 5.10,-3.71 5.27,-3.67 5.41,-3.58 5.55,-3.48 5.66,-3.35 5.76,-3.22 5.82,-3.06 5.88,-2.90 5.89,-2.73 5.89,-2.56 5.84,-2.40 5.79,-2.24 5.69,-2.10 5.60,-1.96 5.46,-1.86 5.32,-1.76 5.32,-1.76 5.32,-1.76 3.98,-0.89 2.64,-0.02 1.54,0.50 0.44,1.04 0.31,1.08 0.18,1.12 0.04,1.13 -0.08,1.13 -0.22,1.11 -0.35,1.08 -0.48,1.02 -0.60,0.96 -0.71,0.87 -0.82,0.79 -0.90,0.68 -0.98,0.57 -1.04,0.44 -1.09,0.31 -1.11,0.18 -1.13,0.04 -1.12,-0.08 -1.11,-0.22 -1.07,-0.35 -1.03,-0.48 -0.95,-0.60 -0.88,-0.71 -0.78,-0.81 -0.68,-0.91 -0.56,-0.97 -0.44,-1.04 -0.44,-1.04 L -0.44,-1.04 Z"/></g><g transform="translate(346.8044840161933 204.7936574981852) rotate(333.8314530780552 0.1389389406091155 5.8354355055825735)" stroke="none"><path fill="#1e1e1e" d="M 1.00,0 Q 1.00,0 0.95,1.27 0.91,2.55 0.87,3.81 0.84,5.08 0.81,6.25 0.79,7.43 0.96,9.32 1.13,11.21 1.12,11.35 1.10,11.49 1.04,11.62 0.98,11.75 0.88,11.85 0.78,11.96 0.66,12.02 0.53,12.09 0.39,12.11 0.25,12.14 0.11,12.11 -0.02,12.09 -0.15,12.02 -0.27,11.95 -0.37,11.85 -0.47,11.75 -0.53,11.62 -0.59,11.49 -0.60,11.35 -0.62,11.20 -0.59,11.06 -0.56,10.93 -0.48,10.80 -0.41,10.68 -0.30,10.59 -0.19,10.50 -0.06,10.45 0.06,10.39 0.21,10.39 0.35,10.38 0.49,10.42 0.62,10.46 0.74,10.54 0.86,10.62 0.95,10.73 1.03,10.84 1.08,10.98 1.12,11.11 1.12,11.26 1.12,11.40 1.07,11.53 1.03,11.67 0.94,11.78 0.86,11.90 0.74,11.97 0.62,12.05 0.48,12.09 0.34,12.13 0.20,12.12 0.06,12.11 -0.06,12.06 -0.19,12.01 -0.30,11.92 -0.41,11.82 -0.48,11.70 -0.56,11.58 -0.59,11.44 -0.62,11.30 -0.62,11.30 -0.62,11.30 -0.70,9.36 -0.79,7.43 -0.81,6.25 -0.84,5.08 -0.87,3.81 -0.91,2.55 -0.95,1.27 -1.00,0 -0.99,-0.12 -0.97,-0.24 -0.93,-0.35 -0.89,-0.46 -0.82,-0.56 -0.75,-0.66 -0.66,-0.74 -0.57,-0.82 -0.46,-0.88 -0.35,-0.94 -0.23,-0.96 -0.12,-0.99 0.00,-0.99 0.12,-0.99 0.23,-0.96 0.35,-0.94 0.46,-0.88 0.57,-0.82 0.66,-0.74 0.75,-0.66 0.82,-0.56 0.89,-0.46 0.93,-0.35 0.97,-0.24 0.99,-0.12 1.00,0.00 1.00,0.00 L 1.00,0 Z"/></g><g transform="translate(346.62101290134376 199.94579752540687) rotate(333.8314530780552 5.001801861927916 7.91951961471921)" stroke="none"><path fill="#1e1e1e" d="M 1.16,-0.42 Q 1.16,-0.42 1.44,0.46 1.72,1.36 2.35,2.41 2.99,3.47 3.37,4.02 3.75,4.57 4.13,5.00 4.50,5.42 5.04,5.74 5.57,6.06 5.88,5.55 6.20,5.04 6.41,4.30 6.62,3.56 6.70,3.42 6.79,3.27 6.90,3.15 7.01,3.03 7.15,2.94 7.30,2.85 7.45,2.79 7.61,2.74 7.78,2.72 7.94,2.71 8.11,2.73 8.27,2.76 8.43,2.82 8.58,2.88 8.72,2.98 8.85,3.08 8.96,3.21 9.07,3.34 9.14,3.49 9.21,3.64 9.25,3.80 9.28,3.96 9.28,4.13 9.27,4.30 9.23,4.46 9.18,4.62 9.06,4.01 8.93,3.40 9.20,4.49 9.48,5.59 9.54,6.58 9.60,7.57 9.81,8.74 10.03,9.90 10.19,11.10 10.34,12.29 10.64,13.89 10.93,15.49 10.93,15.65 10.94,15.80 10.89,15.96 10.84,16.11 10.75,16.23 10.66,16.36 10.53,16.46 10.40,16.55 10.25,16.59 10.10,16.64 9.94,16.64 9.78,16.63 9.63,16.58 9.48,16.52 9.36,16.42 9.24,16.32 9.15,16.19 9.07,16.06 9.03,15.90 8.99,15.75 9.01,15.59 9.02,15.43 9.08,15.29 9.14,15.14 9.25,15.02 9.36,14.91 9.49,14.83 9.63,14.75 9.79,14.72 9.94,14.69 10.10,14.71 10.26,14.74 10.40,14.81 10.54,14.88 10.65,14.99 10.76,15.10 10.83,15.24 10.90,15.38 10.92,15.54 10.95,15.70 10.92,15.85 10.89,16.01 10.81,16.15 10.73,16.28 10.61,16.39 10.49,16.50 10.35,16.56 10.20,16.62 10.04,16.63 9.89,16.65 9.73,16.61 9.58,16.57 9.45,16.48 9.31,16.40 9.21,16.27 9.12,16.15 9.06,16.00 9.01,15.85 9.01,15.85 9.01,15.85 8.75,14.24 8.49,12.62 8.25,11.50 8.00,10.39 7.63,9.12 7.26,7.86 7.16,6.36 7.05,4.87 6.84,4.21 6.62,3.56 6.70,3.42 6.79,3.27 6.90,3.15 7.01,3.03 7.15,2.94 7.29,2.85 7.45,2.79 7.61,2.74 7.78,2.72 7.94,2.71 8.11,2.73 8.27,2.76 8.43,2.82 8.58,2.88 8.72,2.98 8.85,3.08 8.96,3.21 9.07,3.34 9.14,3.49 9.21,3.64 9.25,3.80 9.28,3.96 9.28,4.13 9.27,4.30 9.23,4.46 9.18,4.62 9.06,4.94 8.94,5.26 8.59,6.02 8.24,6.77 7.66,7.35 7.08,7.92 6.20,8.20 5.32,8.48 4.56,8.22 3.81,7.97 3.21,7.49 2.62,7.02 2.18,6.47 1.74,5.92 1.33,5.30 0.92,4.68 0.55,4.04 0.18,3.40 -0.12,2.77 -0.44,2.15 -0.80,1.28 -1.16,0.42 -1.19,0.27 -1.22,0.13 -1.22,-0.01 -1.22,-0.16 -1.18,-0.31 -1.14,-0.45 -1.07,-0.58 -1.00,-0.71 -0.90,-0.82 -0.80,-0.93 -0.68,-1.01 -0.55,-1.10 -0.41,-1.15 -0.27,-1.20 -0.13,-1.22 0.01,-1.23 0.16,-1.21 0.31,-1.19 0.45,-1.14 0.58,-1.08 0.71,-1.00 0.83,-0.91 0.92,-0.80 1.02,-0.68 1.09,-0.55 1.16,-0.42 1.16,-0.42 L 1.16,-0.42 Z"/></g><g transform="translate(366.04505283614196 197.82425256664104) rotate(333.8314530780552 1.5283283467001993 3.7513513964459513)" stroke="none"><path fill="#1e1e1e" d="M -0.15,1.09 Q -0.15,1.09 -0.63,1.02 -1.11,0.95 -1.31,1.53 -1.52,2.11 -1.62,2.83 -1.72,3.55 -1.68,4.76 -1.63,5.98 -1.33,6.73 -1.02,7.48 -0.71,8.02 -0.41,8.57 0.05,8.81 0.53,9.05 1.08,9.35 1.64,9.65 2.59,9.86 3.54,10.06 3.90,9.44 4.26,8.81 4.49,7.73 4.72,6.65 4.85,5.30 4.99,3.96 4.91,2.63 4.83,1.31 4.58,0.13 4.33,-1.03 4.05,-1.62 3.77,-2.21 2.59,-2.42 1.42,-2.64 1.26,-2.66 1.11,-2.68 0.97,-2.75 0.83,-2.82 0.71,-2.94 0.60,-3.05 0.53,-3.19 0.46,-3.33 0.44,-3.48 0.42,-3.64 0.45,-3.80 0.48,-3.95 0.56,-4.09 0.63,-4.22 0.75,-4.33 0.87,-4.44 1.01,-4.50 1.16,-4.56 1.31,-4.57 1.47,-4.59 1.62,-4.55 1.78,-4.51 1.91,-4.43 2.04,-4.34 2.14,-4.22 2.24,-4.10 2.29,-3.95 2.35,-3.80 2.35,-3.64 2.36,-3.49 2.31,-3.33 2.27,-3.18 2.17,-3.06 2.08,-2.93 1.95,-2.84 1.83,-2.74 1.68,-2.70 1.53,-2.65 1.37,-2.65 1.21,-2.66 1.06,-2.71 0.91,-2.77 0.79,-2.87 0.67,-2.96 0.58,-3.10 0.50,-3.23 0.46,-3.38 0.42,-3.54 0.43,-3.69 0.45,-3.85 0.51,-3.99 0.57,-4.14 0.68,-4.26 0.78,-4.37 0.92,-4.45 1.06,-4.53 1.21,-4.56 1.36,-4.59 1.36,-4.59 1.36,-4.59 3.38,-3.79 5.40,-2.99 5.68,-2.21 5.97,-1.43 6.31,-0.14 6.64,1.14 6.82,2.60 6.99,4.07 6.97,5.53 6.94,6.99 6.80,8.37 6.65,9.75 6.26,10.60 5.86,11.46 5.10,11.96 4.34,12.46 3.74,12.45 3.13,12.43 2.46,12.28 1.79,12.13 1.16,11.85 0.52,11.57 -0.07,11.19 -0.67,10.81 -1.43,10.21 -2.18,9.60 -2.51,8.91 -2.83,8.23 -3.26,7.20 -3.68,6.17 -3.85,4.71 -4.03,3.25 -3.89,2.17 -3.75,1.10 -3.26,0.28 -2.77,-0.53 -1.94,-0.90 -1.12,-1.27 -0.48,-1.18 0.15,-1.09 0.28,-1.06 0.41,-1.02 0.53,-0.96 0.64,-0.89 0.74,-0.80 0.84,-0.71 0.91,-0.60 0.99,-0.49 1.03,-0.36 1.07,-0.24 1.09,-0.10 1.10,0.02 1.08,0.15 1.06,0.28 1.01,0.41 0.96,0.53 0.89,0.64 0.81,0.75 0.71,0.83 0.60,0.92 0.48,0.98 0.37,1.04 0.24,1.07 0.11,1.10 -0.02,1.09 -0.15,1.09 -0.15,1.09 L -0.15,1.09 Z"/></g><g transform="translate(383.871671171029 185.30132352825805) rotate(333.8314530780552 -1.9451451685275316 7.363763852282773)" stroke="none"><path fill="#1e1e1e" d="M -0.38,0.77 Q -0.38,0.77 -1.00,0.49 -1.63,0.21 -2.97,0.32 -4.31,0.42 -5.44,0.74 -6.57,1.06 -7.20,1.49 -7.84,1.91 -7.72,3.55 -7.61,5.18 -6.85,6.48 -6.09,7.77 -4.85,9.12 -3.60,10.46 -2.36,11.61 -1.11,12.75 -0.21,13.38 0.67,14.01 1.15,14.35 1.62,14.68 3.00,13.06 4.38,11.44 4.51,11.32 4.63,11.19 4.79,11.12 4.94,11.04 5.12,11.01 5.29,10.99 5.46,11.02 5.63,11.05 5.79,11.14 5.94,11.22 6.06,11.35 6.18,11.48 6.25,11.64 6.32,11.80 6.33,11.98 6.35,12.15 6.31,12.32 6.26,12.49 6.17,12.64 6.08,12.79 5.94,12.90 5.81,13.01 5.64,13.07 5.48,13.13 5.30,13.14 5.13,13.14 4.96,13.09 4.79,13.04 4.65,12.94 4.51,12.84 4.40,12.70 4.30,12.56 4.25,12.39 4.19,12.22 4.20,12.05 4.20,11.87 4.26,11.71 4.32,11.54 4.43,11.41 4.54,11.27 4.69,11.17 4.83,11.08 5.00,11.03 5.17,10.99 5.35,11.00 5.52,11.02 5.68,11.09 5.84,11.15 5.98,11.27 6.11,11.39 6.19,11.54 6.28,11.69 6.31,11.86 6.35,12.03 6.33,12.21 6.30,12.38 6.23,12.54 6.15,12.70 6.15,12.70 6.15,12.70 4.52,14.52 2.88,16.35 2.07,16.39 1.26,16.43 0.56,15.80 -0.12,15.18 -1.11,14.51 -2.09,13.84 -3.40,12.67 -4.71,11.50 -6.09,10.05 -7.47,8.59 -8.37,7.05 -9.27,5.52 -9.54,3.83 -9.80,2.13 -9.31,1.35 -8.81,0.57 -7.93,0.04 -7.05,-0.47 -5.74,-0.88 -4.44,-1.29 -2.68,-1.39 -0.92,-1.49 -0.26,-1.13 0.38,-0.77 0.47,-0.71 0.56,-0.65 0.63,-0.58 0.70,-0.50 0.75,-0.41 0.80,-0.32 0.83,-0.22 0.85,-0.12 0.85,-0.01 0.86,0.08 0.83,0.18 0.81,0.29 0.76,0.38 0.72,0.47 0.65,0.55 0.58,0.63 0.50,0.69 0.41,0.75 0.32,0.79 0.22,0.83 0.12,0.85 0.01,0.86 -0.08,0.85 -0.19,0.84 -0.28,0.80 -0.38,0.77 -0.38,0.77 L -0.38,0.77 Z"/></g><g transform="translate(394.5606035436417 177.68344807186224) rotate(333.8314530780552 5.696496564973472 5.974374446191662)" stroke="none"><path fill="#1e1e1e" d="M 0.98,0 Q 0.98,0 0.94,1.51 0.89,3.03 0.86,4.55 0.83,6.08 0.80,7.45 0.78,8.81 0.76,9.95 0.74,11.09 0.80,11.74 0.85,12.38 0.84,12.48 0.83,12.59 0.79,12.68 0.75,12.78 0.69,12.86 0.64,12.95 0.56,13.02 0.48,13.09 0.39,13.13 0.30,13.18 0.20,13.21 0.10,13.23 -0.00,13.23 -0.10,13.23 -0.20,13.21 -0.30,13.18 -0.39,13.13 -0.48,13.09 -0.56,13.02 -0.64,12.95 -0.69,12.86 -0.75,12.78 -0.79,12.68 -0.83,12.59 -0.84,12.48 -0.85,12.38 -0.84,11.62 -0.83,10.85 -0.83,9.89 -0.83,8.92 -0.84,8.03 -0.86,7.14 -0.90,6.45 -0.93,5.75 -0.89,5.14 -0.85,4.52 -0.54,3.58 -0.24,2.64 0.23,1.72 0.72,0.81 1.26,-0.10 1.81,-1.02 2.39,-1.68 2.97,-2.34 3.39,-2.73 3.80,-3.12 4.34,-3.37 4.89,-3.63 6.12,-3.43 7.35,-3.24 7.97,-2.02 8.59,-0.80 9.00,0.10 9.41,1.01 9.69,2.04 9.96,3.07 10.12,3.84 10.27,4.61 10.33,5.61 10.39,6.61 10.10,7.13 9.81,7.65 9.12,7.97 8.42,8.30 7.75,8.37 7.07,8.44 6.23,8.44 5.39,8.44 4.72,8.45 4.05,8.46 3.35,8.48 2.66,8.50 1.97,7.74 1.27,6.98 1.40,6.41 1.53,5.83 2.54,5.42 3.54,5.01 4.70,5.72 5.86,6.44 6.61,7.28 7.35,8.13 7.96,9.10 8.57,10.07 9.06,10.86 9.56,11.65 10.84,12.16 12.13,12.68 12.18,12.79 12.24,12.91 12.27,13.03 12.29,13.16 12.29,13.29 12.29,13.42 12.25,13.54 12.22,13.67 12.15,13.78 12.09,13.89 12.00,13.98 11.92,14.08 11.81,14.15 11.70,14.22 11.58,14.26 11.46,14.30 11.33,14.31 11.20,14.33 11.07,14.31 10.95,14.29 10.83,14.24 10.71,14.19 10.60,14.11 10.50,14.04 10.42,13.94 10.33,13.84 10.49,13.10 10.64,12.37 10.80,12.30 10.95,12.23 11.13,12.21 11.30,12.19 11.47,12.23 11.64,12.27 11.78,12.36 11.93,12.45 12.04,12.58 12.15,12.72 12.21,12.88 12.28,13.04 12.28,13.21 12.29,13.38 12.24,13.55 12.20,13.72 12.10,13.86 12.00,14.00 11.86,14.10 11.72,14.21 11.56,14.26 11.39,14.31 11.22,14.31 11.05,14.31 10.88,14.25 10.72,14.20 10.58,14.09 10.45,13.99 10.35,13.84 10.26,13.70 10.21,13.53 10.17,13.36 10.18,13.19 10.19,13.02 10.26,12.86 10.32,12.70 10.43,12.57 10.55,12.44 10.70,12.35 10.85,12.26 11.01,12.23 11.18,12.19 11.35,12.21 11.53,12.23 11.68,12.31 11.84,12.38 11.96,12.50 12.09,12.62 12.17,12.77 12.25,12.93 12.27,13.10 12.30,13.27 12.27,13.44 12.24,13.61 12.16,13.76 12.07,13.91 12.10,13.30 12.13,12.68 12.18,12.79 12.24,12.91 12.27,13.03 12.29,13.16 12.29,13.29 12.29,13.42 12.25,13.54 12.22,13.66 12.16,13.78 12.09,13.89 12.00,13.98 11.92,14.08 11.81,14.15 11.70,14.22 11.58,14.26 11.46,14.30 11.33,14.31 11.20,14.33 11.07,14.31 10.95,14.29 10.83,14.24 10.71,14.19 10.60,14.11 10.50,14.04 10.42,13.94 10.33,13.84 9.09,13.30 7.85,12.76 7.35,12.01 6.85,11.27 6.25,10.51 5.64,9.76 5.03,9.18 4.43,8.60 4.13,7.96 3.83,7.32 3.92,6.64 4.02,5.95 4.68,5.95 5.33,5.95 6.11,5.91 6.89,5.88 7.50,6.05 8.12,6.22 8.20,5.57 8.28,4.93 8.20,4.26 8.13,3.59 7.87,2.75 7.61,1.90 7.13,1.03 6.65,0.15 6.12,-0.68 5.58,-1.53 4.95,-1.28 4.33,-1.02 3.84,-0.59 3.36,-0.15 2.89,0.77 2.43,1.69 2.04,2.47 1.65,3.25 1.29,4.50 0.93,5.75 0.90,6.45 0.86,7.14 0.84,8.03 0.83,8.92 0.83,9.89 0.83,10.85 0.84,11.62 0.85,12.38 0.84,12.48 0.83,12.59 0.79,12.68 0.75,12.78 0.69,12.86 0.64,12.95 0.56,13.02 0.48,13.09 0.39,13.13 0.30,13.18 0.20,13.21 0.10,13.23 0.00,13.23 -0.10,13.23 -0.20,13.21 -0.30,13.18 -0.39,13.13 -0.48,13.09 -0.56,13.02 -0.64,12.95 -0.69,12.86 -0.75,12.78 -0.79,12.68 -0.83,12.59 -0.84,12.48 -0.85,12.38 -0.80,11.74 -0.74,11.09 -0.76,9.95 -0.78,8.81 -0.80,7.45 -0.83,6.08 -0.86,4.55 -0.89,3.03 -0.94,1.51 -0.98,0 -0.97,-0.11 -0.95,-0.23 -0.91,-0.34 -0.87,-0.45 -0.80,-0.55 -0.73,-0.65 -0.64,-0.73 -0.55,-0.81 -0.45,-0.86 -0.34,-0.92 -0.23,-0.94 -0.11,-0.97 0.00,-0.97 0.11,-0.97 0.23,-0.94 0.34,-0.92 0.45,-0.86 0.55,-0.81 0.64,-0.73 0.73,-0.65 0.80,-0.55 0.87,-0.45 0.91,-0.34 0.95,-0.23 0.97,-0.11 0.98,0.00 0.98,0.00 L 0.98,0 Z"/></g><g transform="translate(415.3567676928667 168.84417470430347) rotate(333.8314530780552 -3.0566566934003987 7.5027027928918795)" stroke="none"><path fill="#1e1e1e" d="M 0.97,0 Q 0.97,0 0.99,0.80 1.00,1.60 0.70,2.76 0.41,3.91 -0.05,5.20 -0.52,6.48 -1.47,8.18 -2.42,9.89 -3.13,11.28 -3.84,12.68 -4.32,13.51 -4.81,14.35 -4.94,14.42 -5.07,14.49 -5.13,14.58 -5.20,14.66 -5.28,14.72 -5.36,14.79 -5.46,14.83 -5.56,14.88 -5.66,14.90 -5.76,14.92 -5.87,14.91 -5.98,14.90 -6.08,14.87 -6.18,14.84 -6.27,14.79 -6.36,14.73 -6.43,14.66 -6.51,14.58 -6.56,14.49 -6.62,14.40 -6.65,14.30 -6.68,14.20 -6.69,14.10 -6.70,13.99 -6.68,13.89 -6.66,13.78 -6.61,13.69 -6.57,13.59 -6.15,11.79 -5.73,9.98 -5.67,9.85 -5.61,9.72 -5.51,9.61 -5.40,9.51 -5.28,9.44 -5.15,9.37 -5.00,9.35 -4.86,9.32 -4.71,9.35 -4.57,9.37 -4.44,9.44 -4.31,9.51 -4.21,9.62 -4.11,9.72 -4.05,9.86 -3.99,9.99 -3.98,10.13 -3.96,10.28 -3.99,10.42 -4.02,10.56 -4.10,10.69 -4.18,10.81 -4.29,10.91 -4.40,11.00 -4.54,11.05 -4.67,11.11 -4.82,11.11 -4.96,11.12 -5.10,11.08 -5.24,11.04 -5.36,10.96 -5.48,10.88 -5.57,10.76 -5.66,10.64 -5.71,10.51 -5.75,10.37 -5.75,10.22 -5.75,10.08 -5.70,9.94 -5.66,9.80 -5.57,9.68 -5.48,9.57 -5.36,9.49 -5.24,9.41 -5.10,9.37 -4.96,9.33 -4.81,9.34 -4.66,9.35 -4.53,9.40 -4.39,9.45 -4.28,9.55 -4.17,9.64 -4.10,9.77 -4.02,9.90 -3.99,10.04 -3.96,10.18 -3.98,10.33 -3.99,10.47 -3.99,10.47 -3.99,10.47 -4.53,12.48 -5.07,14.49 -5.13,14.58 -5.20,14.66 -5.28,14.72 -5.36,14.79 -5.46,14.83 -5.56,14.88 -5.66,14.90 -5.76,14.92 -5.87,14.91 -5.98,14.90 -6.08,14.87 -6.18,14.84 -6.27,14.79 -6.36,14.73 -6.43,14.66 -6.51,14.58 -6.56,14.49 -6.62,14.40 -6.65,14.30 -6.68,14.20 -6.69,14.10 -6.70,13.99 -6.68,13.89 -6.66,13.78 -6.61,13.69 -6.57,13.59 -6.31,13.49 -6.05,13.40 -5.62,12.70 -5.19,12.01 -4.50,10.57 -3.81,9.13 -2.96,7.53 -2.12,5.94 -1.74,4.72 -1.36,3.51 -1.18,2.55 -1.00,1.59 -0.99,0.79 -0.97,0 -0.96,-0.11 -0.95,-0.23 -0.90,-0.34 -0.86,-0.45 -0.79,-0.55 -0.73,-0.64 -0.64,-0.72 -0.55,-0.80 -0.45,-0.86 -0.34,-0.91 -0.23,-0.94 -0.11,-0.97 0.00,-0.97 0.11,-0.97 0.23,-0.94 0.34,-0.91 0.45,-0.86 0.55,-0.80 0.64,-0.72 0.73,-0.64 0.79,-0.55 0.86,-0.45 0.90,-0.34 0.95,-0.23 0.96,-0.11 0.97,0.00 0.97,0.00 L 0.97,0 Z"/></g><g transform="translate(415.65786526613977 166.08121677230164) rotate(333.8314530780552 3.0566566934003987 8.197397495937429)" stroke="none"><path fill="#1e1e1e" d="M 0.69,-0.61 Q 0.69,-0.61 1.32,0.11 1.95,0.84 2.64,2.02 3.33,3.21 4.02,4.77 4.70,6.33 5.16,8.16 5.61,9.99 6.22,12.80 6.83,15.60 6.84,15.74 6.84,15.88 6.80,16.01 6.76,16.15 6.68,16.26 6.60,16.38 6.49,16.46 6.37,16.54 6.24,16.58 6.11,16.62 5.97,16.62 5.83,16.62 5.70,16.57 5.56,16.52 5.46,16.44 5.35,16.35 5.27,16.23 5.19,16.11 5.16,15.98 5.13,15.84 5.14,15.70 5.15,15.56 5.20,15.44 5.26,15.31 5.35,15.20 5.44,15.10 5.56,15.03 5.68,14.96 5.82,14.93 5.96,14.91 6.10,14.92 6.23,14.94 6.36,15.00 6.49,15.06 6.59,15.16 6.68,15.26 6.75,15.39 6.81,15.51 6.83,15.65 6.85,15.79 6.82,15.92 6.80,16.06 6.73,16.18 6.66,16.31 6.56,16.40 6.45,16.49 6.33,16.55 6.20,16.61 6.06,16.62 5.92,16.63 5.78,16.60 5.65,16.56 5.53,16.49 5.41,16.41 5.32,16.31 5.24,16.20 5.19,16.07 5.14,15.94 5.14,15.94 5.14,15.94 4.65,13.15 4.16,10.36 3.71,8.67 3.27,6.98 2.58,5.53 1.90,4.08 1.25,3.05 0.60,2.03 -0.04,1.32 -0.69,0.61 -0.75,0.52 -0.81,0.43 -0.85,0.32 -0.89,0.22 -0.91,0.11 -0.92,0.00 -0.91,-0.10 -0.89,-0.21 -0.85,-0.32 -0.81,-0.42 -0.75,-0.52 -0.69,-0.61 -0.60,-0.68 -0.52,-0.76 -0.42,-0.81 -0.32,-0.86 -0.22,-0.89 -0.11,-0.91 -0.00,-0.91 0.10,-0.91 0.21,-0.89 0.32,-0.86 0.42,-0.81 0.52,-0.76 0.60,-0.68 0.69,-0.61 0.69,-0.61 L 0.69,-0.61 Z"/></g><g transform="translate(413.33216750639957 176.28289274239827) rotate(333.8314530780552 4.446046099491497 -1.3893894060910856)" stroke="none"><path fill="#1e1e1e" d="M -0.34,-0.96 Q -0.34,-0.96 0.78,-1.31 1.92,-1.67 3.39,-2.05 4.87,-2.43 6.59,-3.01 8.32,-3.58 8.47,-3.59 8.62,-3.61 8.76,-3.58 8.91,-3.55 9.04,-3.47 9.17,-3.39 9.26,-3.28 9.36,-3.16 9.42,-3.02 9.47,-2.88 9.48,-2.74 9.49,-2.59 9.45,-2.44 9.41,-2.30 9.33,-2.17 9.24,-2.05 9.12,-1.96 9.00,-1.87 8.86,-1.82 8.72,-1.77 8.57,-1.77 8.42,-1.77 8.28,-1.82 8.13,-1.87 8.01,-1.96 7.90,-2.05 7.81,-2.17 7.73,-2.29 7.69,-2.44 7.65,-2.58 7.65,-2.73 7.66,-2.88 7.72,-3.02 7.77,-3.16 7.87,-3.28 7.97,-3.39 8.10,-3.47 8.22,-3.55 8.37,-3.58 8.52,-3.61 8.67,-3.59 8.81,-3.58 8.95,-3.52 9.09,-3.45 9.20,-3.35 9.30,-3.25 9.38,-3.11 9.45,-2.98 9.47,-2.83 9.49,-2.69 9.47,-2.54 9.45,-2.39 9.38,-2.26 9.31,-2.12 9.20,-2.02 9.09,-1.92 8.95,-1.85 8.82,-1.79 8.82,-1.79 8.82,-1.79 7.08,-1.29 5.33,-0.79 3.94,-0.36 2.54,0.07 1.44,0.52 0.34,0.96 0.22,0.99 0.10,1.02 -0.01,1.01 -0.14,1.01 -0.26,0.98 -0.38,0.95 -0.49,0.89 -0.59,0.83 -0.69,0.74 -0.78,0.66 -0.84,0.56 -0.91,0.45 -0.95,0.34 -1.00,0.22 -1.01,0.10 -1.02,-0.02 -1.00,-0.14 -0.99,-0.26 -0.94,-0.37 -0.89,-0.49 -0.82,-0.59 -0.75,-0.69 -0.66,-0.77 -0.56,-0.85 -0.45,-0.91 -0.34,-0.96 -0.34,-0.96 L -0.34,-0.96 Z"/></g><g transform="translate(444.21287179805086 188.72830215430596) rotate(328.72746536415883 4.782852719726677 4.372893915178672)" stroke="none"><path fill="#1e1e1e" d="M 0.91,0 Q 0.91,0 0.88,1.02 0.86,2.04 0.83,3.10 0.80,4.16 0.78,5.40 0.76,6.64 0.75,7.71 0.73,8.79 0.75,9.72 0.77,10.65 0.82,11.28 0.87,11.91 0.86,12.01 0.85,12.12 0.81,12.22 0.77,12.32 0.71,12.40 0.65,12.49 0.57,12.56 0.49,12.63 0.40,12.68 0.31,12.73 0.20,12.76 0.10,12.78 -0.00,12.78 -0.10,12.78 -0.20,12.75 -0.31,12.73 -0.40,12.68 -0.49,12.63 -0.57,12.56 -0.65,12.49 -0.71,12.40 -0.77,12.32 -0.81,12.22 -0.85,12.12 -0.86,12.01 -0.87,11.91 -0.77,10.28 -0.66,8.64 -0.44,6.99 -0.23,5.34 0.02,3.76 0.27,2.19 0.55,0.96 0.82,-0.27 1.27,-1.26 1.71,-2.24 2.13,-2.89 2.56,-3.54 3.13,-3.99 3.71,-4.43 4.47,-4.66 5.22,-4.89 5.86,-4.82 6.49,-4.75 7.23,-4.34 7.96,-3.93 8.55,-3.40 9.13,-2.86 9.54,-2.12 9.95,-1.38 10.19,-0.76 10.43,-0.14 10.55,0.51 10.68,1.17 10.47,2.30 10.25,3.43 9.66,3.80 9.07,4.18 6.68,3.32 4.29,2.46 4.16,2.27 4.03,2.08 3.97,1.87 3.90,1.65 3.91,1.42 3.92,1.19 4.00,0.98 4.08,0.77 4.22,0.59 4.37,0.42 4.56,0.30 4.75,0.18 4.97,0.12 5.20,0.07 5.42,0.09 5.65,0.11 5.86,0.20 6.07,0.30 6.23,0.45 6.40,0.60 6.51,0.80 6.62,1.00 6.66,1.22 6.70,1.45 6.67,1.67 6.64,1.90 6.53,2.10 6.43,2.30 6.27,2.46 6.11,2.62 5.90,2.72 5.70,2.82 5.47,2.85 5.24,2.88 5.02,2.83 4.80,2.79 4.60,2.67 4.40,2.56 4.25,2.39 4.10,2.22 4.02,2.01 3.93,1.80 3.91,1.57 3.90,1.34 3.95,1.12 4.01,0.90 4.13,0.71 4.26,0.52 4.44,0.38 4.62,0.24 4.83,0.17 5.05,0.09 5.27,0.08 5.50,0.08 5.72,0.15 5.93,0.22 6.12,0.35 6.30,0.49 6.30,0.49 6.30,0.49 7.25,1.36 8.21,2.24 8.16,1.45 8.11,0.65 7.80,-0.29 7.48,-1.24 7.12,-1.64 6.75,-2.03 6.16,-2.47 5.56,-2.91 4.71,-2.71 3.86,-2.50 3.45,-2.06 3.04,-1.62 2.63,-0.79 2.23,0.03 1.99,1.22 1.75,2.42 1.53,3.97 1.31,5.51 1.14,7.14 0.97,8.76 0.92,10.34 0.87,11.91 0.86,12.01 0.85,12.12 0.81,12.22 0.77,12.32 0.71,12.40 0.65,12.49 0.57,12.56 0.49,12.63 0.40,12.68 0.31,12.73 0.20,12.75 0.10,12.78 0.00,12.78 -0.10,12.78 -0.20,12.76 -0.31,12.73 -0.40,12.68 -0.49,12.63 -0.57,12.56 -0.65,12.49 -0.71,12.40 -0.77,12.32 -0.81,12.22 -0.85,12.12 -0.86,12.01 -0.87,11.91 -0.82,11.28 -0.77,10.65 -0.75,9.72 -0.73,8.79 -0.75,7.71 -0.76,6.64 -0.78,5.40 -0.80,4.16 -0.83,3.10 -0.86,2.04 -0.88,1.02 -0.91,0 -0.90,-0.10 -0.88,-0.21 -0.84,-0.32 -0.80,-0.42 -0.74,-0.51 -0.68,-0.60 -0.60,-0.67 -0.51,-0.75 -0.42,-0.80 -0.32,-0.85 -0.21,-0.88 -0.11,-0.90 0.00,-0.90 0.11,-0.90 0.21,-0.88 0.32,-0.85 0.42,-0.80 0.51,-0.75 0.60,-0.67 0.68,-0.60 0.74,-0.51 0.80,-0.42 0.84,-0.32 0.88,-0.21 0.90,-0.10 0.91,0.00 0.91,0.00 L 0.91,0 Z"/></g><g transform="translate(464.6615474647275 178.63361802920656) rotate(328.72746536415883 0.8199176090960094 7.65256435156269)" stroke="none"><path fill="#1e1e1e" d="M -0.35,0.87 Q -0.35,0.87 -0.26,0.60 -0.18,0.34 -0.62,1.62 -1.06,2.91 -1.46,4.25 -1.87,5.59 -2.20,7.01 -2.54,8.42 -2.69,9.54 -2.84,10.66 -2.72,11.45 -2.60,12.25 -2.33,12.81 -2.05,13.36 -1.43,13.91 -0.81,14.46 -0.24,14.65 0.33,14.83 0.97,14.68 1.61,14.54 2.13,14.29 2.64,14.04 3.18,13.23 3.71,12.42 3.93,11.71 4.16,11.00 4.26,10.20 4.36,9.41 4.21,8.53 4.05,7.66 3.75,6.92 3.45,6.18 3.03,5.51 2.60,4.85 1.07,4.27 -0.44,3.69 -0.49,3.59 -0.54,3.48 -0.56,3.37 -0.58,3.26 -0.57,3.14 -0.57,3.03 -0.53,2.92 -0.50,2.81 -0.44,2.71 -0.38,2.61 -0.30,2.53 -0.22,2.45 -0.12,2.39 -0.02,2.33 0.08,2.30 0.19,2.27 0.30,2.26 0.42,2.25 0.53,2.27 0.64,2.29 0.74,2.34 0.85,2.39 0.94,2.46 1.03,2.53 1.10,2.62 1.17,2.71 0.94,3.40 0.70,4.08 0.55,4.12 0.40,4.15 0.25,4.13 0.10,4.11 -0.03,4.05 -0.17,3.98 -0.28,3.87 -0.39,3.77 -0.46,3.63 -0.53,3.50 -0.56,3.34 -0.58,3.19 -0.56,3.04 -0.53,2.89 -0.46,2.76 -0.38,2.62 -0.27,2.52 -0.16,2.41 -0.02,2.35 0.11,2.28 0.26,2.27 0.42,2.25 0.57,2.29 0.72,2.32 0.85,2.40 0.98,2.48 1.08,2.60 1.17,2.72 1.23,2.86 1.29,3.00 1.29,3.16 1.30,3.31 1.26,3.46 1.22,3.61 1.13,3.73 1.04,3.86 0.92,3.95 0.79,4.04 0.65,4.09 0.50,4.14 0.35,4.14 0.20,4.13 0.05,4.08 -0.08,4.03 -0.21,3.94 -0.33,3.85 -0.41,3.72 -0.50,3.59 -0.54,3.44 -0.58,3.30 -0.57,3.14 -0.56,2.99 -0.50,2.85 -0.44,2.70 -0.34,2.59 -0.24,2.47 -0.34,3.08 -0.44,3.69 -0.49,3.59 -0.54,3.48 -0.56,3.37 -0.58,3.26 -0.57,3.14 -0.57,3.03 -0.53,2.92 -0.50,2.81 -0.44,2.71 -0.38,2.61 -0.30,2.53 -0.22,2.45 -0.12,2.39 -0.02,2.33 0.08,2.30 0.19,2.27 0.30,2.26 0.42,2.25 0.53,2.27 0.64,2.29 0.74,2.34 0.85,2.39 0.94,2.46 1.03,2.53 1.10,2.62 1.17,2.71 2.67,3.30 4.18,3.89 4.65,4.71 5.12,5.53 5.45,6.44 5.77,7.34 5.99,8.48 6.20,9.63 6.05,10.62 5.91,11.61 5.55,12.52 5.20,13.44 4.37,14.60 3.55,15.76 2.71,16.08 1.87,16.40 0.81,16.47 -0.24,16.55 -1.09,16.15 -1.94,15.75 -2.81,14.92 -3.68,14.10 -3.96,13.27 -4.24,12.45 -4.33,11.47 -4.41,10.49 -4.30,9.28 -4.18,8.07 -3.90,6.60 -3.62,5.13 -3.30,3.74 -2.97,2.35 -2.66,1.20 -2.35,0.05 -1.86,-0.45 -1.38,-0.96 -0.51,-0.92 0.35,-0.87 0.45,-0.82 0.55,-0.76 0.63,-0.69 0.71,-0.61 0.78,-0.51 0.84,-0.42 0.88,-0.31 0.92,-0.20 0.93,-0.09 0.94,0.01 0.92,0.12 0.91,0.24 0.87,0.34 0.82,0.45 0.76,0.54 0.69,0.63 0.60,0.71 0.52,0.78 0.42,0.83 0.31,0.89 0.20,0.91 0.09,0.94 -0.01,0.93 -0.13,0.93 -0.24,0.90 -0.35,0.87 -0.35,0.87 L -0.35,0.87 Z"/></g><g transform="translate(484.8111681140649 170.98359853919135) rotate(328.72746536415883 -5.192811524274688 7.515911416713364)" stroke="none"><path fill="#1e1e1e" d="M 0,1.08 Q 0,1.08 -0.93,1.05 -1.87,1.03 -3.03,1.28 -4.18,1.53 -5.13,1.91 -6.08,2.30 -6.63,2.75 -7.17,3.19 -7.30,3.73 -7.44,4.26 -7.50,4.85 -7.56,5.44 -7.52,6.08 -7.47,6.72 -6.80,7.52 -6.12,8.33 -5.56,8.70 -5.00,9.06 -4.05,9.42 -3.10,9.78 -2.54,10.11 -1.98,10.44 -1.59,11.10 -1.21,11.75 -1.08,12.29 -0.96,12.83 -0.91,13.39 -0.85,13.96 -1.13,14.75 -1.41,15.54 -2.07,15.98 -2.72,16.42 -3.71,16.49 -4.71,16.56 -5.82,16.36 -6.92,16.17 -8.59,15.84 -10.26,15.52 -10.45,15.46 -10.65,15.39 -10.81,15.26 -10.98,15.14 -11.09,14.97 -11.21,14.79 -11.26,14.59 -11.32,14.40 -11.30,14.19 -11.29,13.98 -11.21,13.79 -11.14,13.60 -11.00,13.44 -10.87,13.29 -10.69,13.18 -10.51,13.07 -10.31,13.03 -10.11,12.99 -9.90,13.01 -9.70,13.03 -9.51,13.12 -9.32,13.21 -9.17,13.35 -9.03,13.50 -8.93,13.68 -8.83,13.86 -8.80,14.07 -8.77,14.27 -8.80,14.47 -8.84,14.68 -8.94,14.86 -9.03,15.04 -9.18,15.18 -9.33,15.32 -9.52,15.41 -9.71,15.50 -9.92,15.52 -10.12,15.54 -10.32,15.49 -10.52,15.45 -10.70,15.34 -10.88,15.23 -11.01,15.07 -11.14,14.92 -11.22,14.72 -11.29,14.53 -11.30,14.33 -11.31,14.12 -11.26,13.92 -11.20,13.72 -11.09,13.55 -10.97,13.38 -10.80,13.26 -10.64,13.13 -10.44,13.07 -10.25,13.00 -10.04,13.00 -9.83,13.00 -9.83,13.00 -9.83,13.00 -8.21,13.36 -6.59,13.72 -5.76,13.78 -4.92,13.84 -4.26,13.56 -3.61,13.27 -3.77,12.66 -3.94,12.05 -4.53,11.81 -5.13,11.56 -5.69,11.24 -6.25,10.91 -7.02,10.37 -7.78,9.84 -8.30,9.20 -8.82,8.57 -9.18,7.72 -9.54,6.87 -9.55,5.99 -9.57,5.10 -9.39,4.32 -9.21,3.54 -8.78,2.70 -8.34,1.86 -7.56,1.30 -6.78,0.74 -5.71,0.23 -4.64,-0.27 -3.26,-0.65 -1.89,-1.03 -0.94,-1.05 0,-1.08 0.12,-1.06 0.25,-1.05 0.38,-1.00 0.50,-0.95 0.61,-0.88 0.71,-0.81 0.80,-0.71 0.89,-0.61 0.95,-0.49 1.01,-0.38 1.04,-0.25 1.07,-0.13 1.07,0.00 1.07,0.13 1.04,0.25 1.01,0.38 0.95,0.49 0.89,0.61 0.80,0.71 0.71,0.81 0.61,0.88 0.50,0.95 0.38,1.00 0.25,1.05 0.12,1.06 -0.00,1.08 -0.00,1.08 L 0,1.08 Z"/></g><g transform="translate(496.06846660432234 162.92677037498933) rotate(328.72746536415883 -0.8199176090959952 6.559340872768016)" stroke="none"><path fill="#1e1e1e" d="M 0.96,0.07 Q 0.96,0.07 0.85,1.09 0.74,2.11 0.51,3.36 0.28,4.61 0.02,5.99 -0.23,7.38 -0.47,10.00 -0.70,12.63 -0.73,12.77 -0.77,12.90 -0.85,13.03 -0.93,13.15 -1.04,13.24 -1.15,13.33 -1.29,13.38 -1.42,13.43 -1.57,13.43 -1.71,13.43 -1.85,13.39 -1.99,13.35 -2.10,13.26 -2.22,13.18 -2.30,13.06 -2.39,12.94 -2.43,12.80 -2.47,12.67 -2.47,12.52 -2.46,12.38 -2.41,12.24 -2.36,12.11 -2.27,12.00 -2.18,11.88 -2.06,11.81 -1.94,11.73 -1.80,11.69 -1.66,11.66 -1.51,11.67 -1.37,11.68 -1.24,11.74 -1.10,11.80 -1.00,11.90 -0.89,11.99 -0.82,12.12 -0.75,12.25 -0.72,12.39 -0.70,12.53 -0.72,12.67 -0.74,12.81 -0.80,12.94 -0.86,13.07 -0.97,13.17 -1.07,13.28 -1.20,13.34 -1.33,13.40 -1.47,13.42 -1.61,13.44 -1.76,13.41 -1.90,13.39 -2.02,13.31 -2.15,13.24 -2.24,13.13 -2.34,13.03 -2.40,12.89 -2.45,12.76 -2.46,12.62 -2.48,12.47 -2.48,12.47 -2.48,12.47 -2.13,9.79 -1.79,7.11 -1.57,5.73 -1.36,4.35 -1.21,3.16 -1.05,1.97 -1.01,0.94 -0.96,-0.07 -0.94,-0.18 -0.91,-0.30 -0.86,-0.40 -0.81,-0.51 -0.74,-0.60 -0.67,-0.69 -0.57,-0.76 -0.48,-0.83 -0.37,-0.88 -0.27,-0.92 -0.15,-0.94 -0.04,-0.96 0.07,-0.95 0.18,-0.94 0.30,-0.91 0.41,-0.87 0.50,-0.81 0.60,-0.75 0.68,-0.66 0.77,-0.58 0.82,-0.48 0.88,-0.38 0.92,-0.27 0.95,-0.15 0.95,-0.04 0.96,0.07 0.96,0.07 L 0.96,0.07 Z"/></g><g transform="translate(483.2037177348834 159.60946989318384) rotate(328.72746536415883 12.43541707128935 -0.27330586969867454)" stroke="none"><path fill="#1e1e1e" d="M -0.05,-0.89 Q -0.05,-0.89 1.20,-0.94 2.46,-0.98 4.17,-1.07 5.88,-1.16 8.44,-1.19 10.99,-1.22 13.64,-1.23 16.30,-1.24 18.60,-1.24 20.91,-1.24 22.53,-1.30 24.15,-1.37 24.28,-1.35 24.41,-1.32 24.53,-1.26 24.65,-1.20 24.74,-1.10 24.84,-1.01 24.89,-0.88 24.95,-0.76 24.96,-0.63 24.98,-0.50 24.95,-0.37 24.92,-0.24 24.85,-0.12 24.78,-0.01 24.68,0.07 24.58,0.16 24.46,0.21 24.33,0.26 24.20,0.27 24.06,0.27 23.94,0.24 23.81,0.20 23.70,0.13 23.58,0.05 23.50,-0.04 23.42,-0.15 23.38,-0.28 23.34,-0.40 23.34,-0.54 23.33,-0.67 23.38,-0.80 23.42,-0.92 23.50,-1.03 23.58,-1.14 23.69,-1.21 23.80,-1.29 23.93,-1.33 24.06,-1.36 24.19,-1.35 24.33,-1.35 24.45,-1.30 24.58,-1.25 24.68,-1.16 24.78,-1.08 24.85,-0.96 24.92,-0.85 24.95,-0.72 24.98,-0.59 24.96,-0.45 24.95,-0.32 24.89,-0.20 24.84,-0.08 24.75,0.01 24.65,0.11 24.54,0.17 24.42,0.23 24.29,0.26 24.15,0.28 24.15,0.28 24.15,0.28 22.53,0.22 20.92,0.17 18.61,0.19 16.31,0.20 13.66,0.24 11.02,0.27 8.50,0.33 5.99,0.40 4.27,0.53 2.56,0.67 1.31,0.78 0.05,0.89 -0.05,0.89 -0.16,0.88 -0.26,0.85 -0.36,0.82 -0.46,0.76 -0.55,0.70 -0.63,0.63 -0.70,0.55 -0.76,0.46 -0.81,0.37 -0.85,0.26 -0.88,0.16 -0.89,0.05 -0.89,-0.05 -0.87,-0.15 -0.85,-0.26 -0.81,-0.36 -0.77,-0.46 -0.70,-0.54 -0.63,-0.63 -0.55,-0.70 -0.46,-0.76 -0.36,-0.81 -0.26,-0.85 -0.16,-0.87 -0.05,-0.89 -0.05,-0.89 L -0.05,-0.89 Z"/></g><g transform="translate(430.2000892948456 164.78738575942793) rotate(352.33162044490666 2.1863501619216237 5.565254957618702)" stroke="none"><path fill="#1e1e1e" d="M 0.84,-0.52 Q 0.84,-0.52 1.37,0.41 1.90,1.35 2.49,2.72 3.07,4.09 3.54,5.48 4.01,6.88 4.53,8.68 5.06,10.48 5.09,10.62 5.11,10.76 5.09,10.90 5.07,11.04 5.01,11.16 4.95,11.29 4.85,11.39 4.75,11.49 4.62,11.55 4.49,11.61 4.35,11.63 4.21,11.65 4.08,11.62 3.94,11.59 3.82,11.52 3.69,11.45 3.60,11.35 3.51,11.24 3.45,11.11 3.40,10.98 3.39,10.84 3.37,10.70 3.41,10.57 3.44,10.43 3.52,10.31 3.60,10.19 3.71,10.11 3.82,10.02 3.95,9.97 4.08,9.92 4.22,9.92 4.36,9.92 4.50,9.96 4.63,10.00 4.75,10.08 4.86,10.17 4.94,10.28 5.02,10.39 5.06,10.53 5.10,10.66 5.10,10.81 5.10,10.95 5.05,11.08 5.00,11.21 4.91,11.32 4.82,11.43 4.70,11.50 4.58,11.58 4.45,11.61 4.31,11.65 4.17,11.63 4.03,11.62 3.90,11.57 3.77,11.51 3.67,11.41 3.56,11.32 3.49,11.20 3.42,11.07 3.42,11.07 3.42,11.07 2.97,9.24 2.52,7.40 2.03,6.08 1.55,4.77 0.96,3.54 0.37,2.30 -0.23,1.41 -0.84,0.52 -0.89,0.41 -0.94,0.30 -0.96,0.19 -0.99,0.07 -0.98,-0.04 -0.97,-0.16 -0.94,-0.27 -0.91,-0.39 -0.85,-0.49 -0.79,-0.60 -0.70,-0.68 -0.62,-0.77 -0.52,-0.83 -0.42,-0.89 -0.30,-0.93 -0.19,-0.97 -0.07,-0.98 0.04,-0.99 0.16,-0.97 0.28,-0.95 0.39,-0.90 0.50,-0.85 0.59,-0.78 0.69,-0.71 0.76,-0.61 0.84,-0.52 0.84,-0.52 L 0.84,-0.52 Z"/></g><g transform="translate(421.89214202282017 163.8873127608543) rotate(352.33162044490666 4.770218535101762 -1.788831950663159)" stroke="none"><path fill="#1e1e1e" d="M -0.37,-0.94 Q -0.37,-0.94 0.78,-1.35 1.94,-1.76 3.36,-2.27 4.78,-2.78 6.78,-3.53 8.77,-4.28 8.92,-4.32 9.07,-4.35 9.22,-4.33 9.37,-4.31 9.51,-4.24 9.65,-4.18 9.76,-4.07 9.86,-3.97 9.93,-3.83 10.00,-3.70 10.03,-3.55 10.05,-3.40 10.02,-3.25 10.00,-3.10 9.92,-2.97 9.85,-2.83 9.74,-2.73 9.63,-2.63 9.49,-2.56 9.35,-2.50 9.20,-2.49 9.05,-2.47 8.90,-2.51 8.75,-2.54 8.62,-2.62 8.50,-2.70 8.40,-2.82 8.30,-2.94 8.25,-3.08 8.19,-3.22 8.19,-3.37 8.18,-3.52 8.22,-3.67 8.26,-3.81 8.35,-3.94 8.44,-4.06 8.56,-4.15 8.68,-4.24 8.83,-4.29 8.97,-4.34 9.12,-4.33 9.27,-4.33 9.42,-4.28 9.56,-4.23 9.68,-4.14 9.80,-4.05 9.88,-3.92 9.97,-3.79 10.01,-3.65 10.04,-3.50 10.03,-3.35 10.02,-3.20 9.97,-3.06 9.91,-2.92 9.81,-2.80 9.71,-2.69 9.58,-2.61 9.45,-2.53 9.45,-2.53 9.45,-2.53 7.42,-1.86 5.39,-1.19 4.00,-0.62 2.62,-0.05 1.50,0.44 0.37,0.94 0.25,0.97 0.14,1.00 0.01,1.01 -0.10,1.01 -0.22,0.98 -0.34,0.95 -0.45,0.90 -0.56,0.84 -0.65,0.76 -0.74,0.68 -0.82,0.58 -0.89,0.48 -0.93,0.37 -0.98,0.26 -1.00,0.13 -1.01,0.01 -1.00,-0.10 -0.99,-0.22 -0.95,-0.34 -0.90,-0.45 -0.84,-0.55 -0.77,-0.66 -0.68,-0.74 -0.59,-0.82 -0.48,-0.88 -0.37,-0.94 -0.37,-0.94 L -0.37,-0.94 Z"/></g><g transform="translate(440.041427739761 157.84325344823617) rotate(352.33162044490666 2.186350161921652 5.167736746360235)" stroke="none"><path fill="#1e1e1e" d="M 0.94,-0.36 Q 0.94,-0.36 1.47,1.13 1.99,2.64 2.54,3.95 3.08,5.26 4.05,7.38 5.02,9.50 5.06,9.65 5.10,9.80 5.09,9.95 5.08,10.10 5.02,10.24 4.97,10.38 4.87,10.49 4.77,10.61 4.64,10.68 4.50,10.76 4.36,10.79 4.21,10.82 4.06,10.80 3.91,10.79 3.77,10.72 3.63,10.65 3.52,10.55 3.41,10.44 3.34,10.31 3.28,10.17 3.25,10.02 3.23,9.87 3.26,9.72 3.28,9.57 3.36,9.44 3.43,9.31 3.54,9.20 3.65,9.10 3.79,9.04 3.93,8.98 4.08,8.96 4.23,8.95 4.38,8.98 4.53,9.02 4.66,9.10 4.79,9.18 4.88,9.29 4.98,9.41 5.03,9.55 5.09,9.70 5.09,9.85 5.10,10.00 5.06,10.14 5.01,10.29 4.93,10.41 4.84,10.54 4.72,10.63 4.60,10.72 4.45,10.77 4.31,10.81 4.16,10.81 4.00,10.81 3.86,10.76 3.72,10.71 3.60,10.61 3.48,10.52 3.40,10.39 3.31,10.27 3.31,10.27 3.31,10.27 2.42,8.11 1.54,5.94 0.91,4.62 0.28,3.30 -0.32,1.83 -0.94,0.36 -0.97,0.24 -1.00,0.12 -1.00,0.00 -1.00,-0.11 -0.97,-0.23 -0.94,-0.35 -0.89,-0.46 -0.83,-0.57 -0.75,-0.66 -0.67,-0.75 -0.57,-0.82 -0.47,-0.89 -0.36,-0.93 -0.24,-0.98 -0.12,-0.99 -0.00,-1.01 0.11,-0.99 0.23,-0.98 0.35,-0.94 0.46,-0.89 0.56,-0.82 0.66,-0.76 0.74,-0.66 0.83,-0.57 0.88,-0.47 0.94,-0.36 0.94,-0.36 L 0.94,-0.36 Z"/></g><g transform="translate(454.1723799209184 150.82055992564457) rotate(352.33162044490666 4.5714594294724975 6.757809591394137)" stroke="none"><path fill="#1e1e1e" d="M -0.23,0.94 Q -0.23,0.94 -0.55,0.84 -0.87,0.73 -0.94,1.38 -1.01,2.03 -1.13,3.47 -1.25,4.90 -1.33,6.12 -1.41,7.34 -1.31,8.13 -1.21,8.93 -0.86,9.62 -0.52,10.31 -0.18,11.05 0.14,11.80 1.01,12.12 1.88,12.43 3.32,12.40 4.76,12.36 6.24,11.93 7.73,11.50 9.14,9.86 10.55,8.22 10.65,8.12 10.75,8.02 10.87,7.96 11.00,7.90 11.13,7.88 11.27,7.86 11.41,7.89 11.55,7.91 11.67,7.98 11.79,8.05 11.88,8.15 11.98,8.26 12.03,8.39 12.09,8.51 12.10,8.65 12.11,8.79 12.08,8.93 12.04,9.06 11.97,9.18 11.89,9.30 11.78,9.39 11.68,9.47 11.54,9.52 11.41,9.57 11.27,9.57 11.13,9.58 11.00,9.54 10.87,9.50 10.75,9.41 10.64,9.33 10.56,9.22 10.48,9.11 10.44,8.97 10.40,8.84 10.40,8.70 10.40,8.56 10.45,8.43 10.50,8.30 10.59,8.19 10.67,8.08 10.79,8.01 10.91,7.93 11.04,7.90 11.18,7.86 11.32,7.88 11.46,7.89 11.59,7.94 11.71,8.00 11.82,8.09 11.92,8.18 11.99,8.30 12.06,8.43 12.09,8.56 12.11,8.70 12.09,8.84 12.07,8.98 12.01,9.10 11.95,9.23 11.95,9.23 11.95,9.23 10.08,11.08 8.21,12.94 6.51,13.45 4.81,13.97 3.04,14.00 1.27,14.03 -0.01,13.43 -1.30,12.84 -1.75,11.97 -2.20,11.09 -2.63,10.13 -3.06,9.17 -3.15,8.23 -3.25,7.29 -3.27,6.05 -3.28,4.80 -3.25,3.14 -3.22,1.47 -2.86,0.53 -2.50,-0.40 -1.73,-0.80 -0.95,-1.19 -0.35,-1.06 0.23,-0.94 0.34,-0.89 0.45,-0.85 0.55,-0.79 0.64,-0.72 0.72,-0.63 0.80,-0.54 0.85,-0.44 0.90,-0.34 0.93,-0.22 0.96,-0.11 0.96,0.00 0.96,0.12 0.93,0.23 0.90,0.34 0.85,0.45 0.79,0.55 0.71,0.64 0.64,0.72 0.54,0.79 0.44,0.86 0.33,0.90 0.22,0.94 0.11,0.95 -0.00,0.97 -0.11,0.95 -0.23,0.94 -0.23,0.94 L -0.23,0.94 Z"/></g></svg>