<svg version="1.1" xmlns="http://www.w3.org/2000/svg" viewBox="0 0 340 330" width="340" height="330" class="excalidraw-svg">
  <!-- svg-source:excalidraw -->
  
  <defs>
    <style class="style-fonts">
      
    </style>
    
  </defs>
  <g stroke-linecap="round" transform="translate(10 10) rotate(0 160 155)"><path d="M212.78 8.37 C227.46 10.88, 241.09 21.14, 253.69 30.21 C266.29 39.28, 278.71 50.74, 288.38 62.82 C298.05 74.89, 306.51 88.23, 311.72 102.64 C316.94 117.04, 319.31 133.9, 319.66 149.23 C320.01 164.57, 317.91 179.88, 313.82 194.63 C309.73 209.38, 303.4 224.88, 295.11 237.71 C286.82 250.54, 275.88 261.87, 264.08 271.59 C252.28 281.31, 238.55 289.85, 224.3 296.03 C210.04 302.21, 194.26 306.79, 178.54 308.68 C162.82 310.57, 145.36 309.95, 129.96 307.36 C114.57 304.78, 100.12 300.31, 86.19 293.17 C72.27 286.02, 57.53 275.36, 46.41 264.48 C35.3 253.6, 26.72 241.31, 19.51 227.9 C12.31 214.5, 6.41 198.98, 3.21 184.05 C0.01 169.12, -1.5 153.24, 0.31 138.32 C2.12 123.4, 7.69 108.64, 14.07 94.53 C20.45 80.41, 28.54 65.49, 38.61 53.63 C48.68 41.78, 61.37 31.49, 74.51 23.39 C87.66 15.29, 102.22 9.08, 117.48 5.05 C132.74 1.02, 148.8 -1.92, 166.07 -0.8 C183.35 0.31, 210.81 8.54, 221.13 11.73 C231.45 14.91, 229.03 15.98, 228.01 18.31 M157.86 0.11 C172.86 -2.85, 188.64 0.99, 203.73 5.29 C218.82 9.58, 235.16 17.36, 248.42 25.86 C261.67 34.37, 273.2 44.81, 283.24 56.33 C293.28 67.86, 302.6 81.24, 308.65 95.02 C314.7 108.8, 318.32 123.74, 319.55 139.02 C320.78 154.31, 319.21 171.59, 316.05 186.73 C312.88 201.88, 308.18 216.82, 300.58 229.89 C292.97 242.96, 281.75 254.78, 270.43 265.15 C259.12 275.53, 246.51 285.17, 232.69 292.13 C218.86 299.08, 202.97 304.09, 187.51 306.88 C172.04 309.67, 155.84 310.47, 139.9 308.85 C123.96 307.23, 106.17 303.41, 91.88 297.16 C77.59 290.9, 65.59 281.45, 54.17 271.31 C42.75 261.17, 31.45 249.67, 23.36 236.31 C15.28 222.96, 9.53 206.26, 5.67 191.18 C1.81 176.11, -0.67 160.96, 0.2 145.85 C1.08 130.75, 5.44 114.92, 10.91 100.54 C16.39 86.16, 23.49 71.55, 33.07 59.6 C42.65 47.65, 55.78 37.36, 68.41 28.84 C81.03 20.32, 93.94 13.36, 108.83 8.46 C123.72 3.57, 149.6 0.41, 157.75 -0.55 C165.9 -1.51, 157.74 0.03, 157.74 2.72" stroke="none" stroke-width="0" fill="#ffec99"/><path d="M88.41 16.99 C100.56 8.29, 117.8 5.56, 133.16 3.06 C148.52 0.55, 164.81 0.08, 180.57 1.96 C196.33 3.83, 213.22 8.02, 227.72 14.33 C242.22 20.64, 255.89 29.5, 267.55 39.82 C279.21 50.13, 289.58 63.24, 297.68 76.21 C305.78 89.19, 312.4 103.04, 316.16 117.67 C319.92 132.31, 321.27 148.78, 320.22 164.04 C319.17 179.29, 315.5 194.78, 309.86 209.19 C304.21 223.59, 296.05 238.49, 286.35 250.47 C276.65 262.45, 264.59 272.25, 251.64 281.05 C238.69 289.85, 223.51 298.62, 208.64 303.28 C193.76 307.93, 177.79 308.75, 162.38 308.98 C146.98 309.21, 131.14 308.89, 116.22 304.64 C101.3 300.39, 86.14 291.85, 72.85 283.49 C59.56 275.14, 46.64 266.05, 36.48 254.52 C26.32 242.99, 17.86 228.42, 11.9 214.3 C5.93 200.19, 2.26 185.18, 0.69 169.83 C-0.87 154.49, -0.62 137.3, 2.51 122.23 C5.64 107.16, 11.61 92.48, 19.46 79.4 C27.3 66.31, 37.2 54.64, 49.57 43.71 C61.93 32.78, 84.88 18.69, 93.66 13.83 C102.45 8.96, 101.16 12.08, 102.27 14.52 M104.81 10.93 C117.73 3.49, 134.42 2.1, 149.77 0.9 C165.12 -0.31, 181.68 0.38, 196.89 3.68 C212.1 6.97, 227.13 12.89, 241.05 20.66 C254.97 28.44, 269.78 38.92, 280.42 50.33 C291.05 61.74, 298.47 75.21, 304.86 89.12 C311.25 103.04, 316.7 118.75, 318.78 133.84 C320.86 148.94, 319.95 164.36, 317.36 179.68 C314.77 195.01, 310.37 212.18, 303.23 225.78 C296.08 239.38, 285.33 250.26, 274.48 261.27 C263.62 272.29, 251.88 284.11, 238.12 291.87 C224.36 299.63, 207.17 304.73, 191.91 307.82 C176.65 310.9, 162.14 312.08, 146.58 310.37 C131.03 308.66, 113.31 303.38, 98.56 297.58 C83.81 291.77, 70.36 284.97, 58.11 275.54 C45.86 266.12, 33.91 253.87, 25.05 241.02 C16.18 228.17, 9.13 213.39, 4.93 198.45 C0.74 183.5, -0.45 166.55, -0.12 151.35 C0.22 136.15, 1.92 121.47, 6.96 107.23 C12.01 93, 21.15 78.24, 30.17 65.94 C39.18 53.64, 48.92 42.72, 61.05 33.44 C73.17 24.17, 95.4 13.87, 102.91 10.29 C110.42 6.7, 104.83 9.67, 106.1 11.95" stroke="#1e1e1e" stroke-width="4" fill="none"/></g><g stroke-linecap="round"><g transform="translate(172.85714285714494 173.57142857142753) rotate(0 -1.071428571429351 -78.92857142857156)"><path d="M-1.12 -0.1 C-1.4 -26.27, -0.89 -131.3, -0.95 -157.68 M0.5 -1.2 C0.09 -27.1, -0.87 -130.03, -1.27 -156.05" stroke="#1e1e1e" stroke-width="4" fill="none"/></g></g><mask/><g stroke-linecap="round"><g transform="translate(170.17982017982285 173.43689643689686) rotate(0 -46.373626373626394 58.0219780219777)"><path d="M1.19 0.18 C-13.97 19.44, -76.63 96.34, -92.1 115.51 M0.36 -0.78 C-14.81 18.66, -77.35 97.3, -92.71 116.77" stroke="#1e1e1e" stroke-width="4" fill="none"/></g></g><mask/></svg>