<svg version="1.1" xmlns="http://www.w3.org/2000/svg" viewBox="0 0 1190 1149.0035938036347" width="1190" height="1149.0035938036347" class="excalidraw-svg">
  <!-- svg-source:excalidraw -->
  
  <defs>
    <style class="style-fonts">
      
    </style>
    
  </defs>
  <g stroke-linecap="round" transform="translate(10 10) rotate(0 585 564.5017969018173)"><path d="M32 0 C401.01 0.22, 766.96 0.03, 1138 0 C1159.3 -0.31, 1167.31 7.23, 1170 32 C1174.99 408.92, 1174.1 785.05, 1170 1097 C1169.89 1119.32, 1156.17 1131.91, 1138 1129 C823.93 1121.24, 512.75 1120.27, 32 1129 C13.74 1128.89, 2.79 1120.88, 0 1097 C-0.22 875.95, -1.27 652.47, 0 32 C-1.45 14.13, 10.74 -0.46, 32 0" stroke="none" stroke-width="0" fill="#ffec99"/><path d="M32 0 C352.48 2.81, 672.6 3.27, 1138 0 M32 0 C267.8 -2.26, 502.98 -2.76, 1138 0 M1138 0 C1158.21 0.97, 1171.31 9.52, 1170 32 M1138 0 C1157.7 0.52, 1171.39 9.87, 1170 32 M1170 32 C1171.29 299.68, 1171.82 567.23, 1170 1097 M1170 32 C1166.08 368.94, 1166.34 706.3, 1170 1097 M1170 1097 C1171.11 1116.39, 1160.88 1129.26, 1138 1129 M1170 1097 C1167.74 1116.05, 1160.24 1129.92, 1138 1129 M1138 1129 C716.14 1126.76, 294.5 1126.77, 32 1129 M1138 1129 C718.26 1125.56, 298.62 1125.32, 32 1129 M32 1129 C9.32 1128.38, -1.61 1117.4, 0 1097 M32 1129 C11.88 1127.9, -0.03 1118.65, 0 1097 M0 1097 C3.31 863.44, 2.41 629.74, 0 32 M0 1097 C1.83 743.62, 1.93 389.57, 0 32 M0 32 C-0.55 9.17, 11.61 0.56, 32 0 M0 32 C1.93 12.66, 10.15 0.01, 32 0" stroke="#1e1e1e" stroke-width="4" fill="none"/></g><g stroke-linecap="round" transform="translate(315.84057500858034 184.84416881221614) rotate(0 245 180)"><path d="M181.73 5.87 C200.17 -0.93, 224 0.1, 244.98 -0.01 C265.96 -0.11, 287.44 1.18, 307.6 5.24 C327.75 9.31, 347.43 16.37, 365.89 24.37 C384.36 32.37, 403.28 42.31, 418.4 53.27 C433.51 64.23, 446.22 76.74, 456.59 90.11 C466.97 103.49, 475.07 118.58, 480.63 133.51 C486.19 148.45, 489.91 164.16, 489.97 179.72 C490.03 195.28, 486.4 211.78, 480.97 226.86 C475.54 241.93, 467.91 256.94, 457.38 270.18 C446.86 283.41, 432.71 295.25, 417.82 306.29 C402.93 317.33, 386.3 328.36, 368.05 336.41 C349.81 344.46, 328.75 350.52, 308.36 354.58 C287.97 358.64, 266.61 361.02, 245.72 360.77 C224.83 360.53, 203.44 357.09, 183.02 353.09 C162.61 349.09, 141.64 344.25, 123.24 336.76 C104.83 329.27, 87.67 319.32, 72.6 308.16 C57.52 297, 43.52 283.12, 32.78 269.78 C22.03 256.43, 13.6 242.98, 8.14 228.09 C2.68 213.19, 0.03 195.97, 0.02 180.43 C0.01 164.88, 2.63 149.76, 8.08 134.82 C13.53 119.88, 22.3 104.4, 32.72 90.79 C43.15 77.19, 55.86 64.16, 70.63 53.19 C85.39 42.22, 100.36 33.11, 121.3 24.99 C142.25 16.87, 181.06 7.84, 196.3 4.49 C211.54 1.13, 211.92 2.21, 212.75 4.87 M291.35 4.47 C311.93 4.35, 335.14 11.63, 354.51 18.07 C373.89 24.51, 392.17 32.97, 407.6 43.1 C423.03 53.24, 435.44 65.5, 447.07 78.86 C458.7 92.23, 470.44 108.21, 477.39 123.29 C484.35 138.37, 487.62 154.07, 488.8 169.33 C489.97 184.59, 488.57 199.9, 484.45 214.85 C480.32 229.81, 473.14 245.3, 464.05 259.04 C454.95 272.79, 443.51 285.54, 429.87 297.35 C416.22 309.15, 399.64 321.05, 382.2 329.86 C364.76 338.67, 345.2 345.21, 325.23 350.23 C305.26 355.25, 283.91 358.79, 262.39 359.98 C240.87 361.17, 216.82 360.27, 196.09 357.35 C175.37 354.44, 156.56 349.52, 138.03 342.5 C119.5 335.48, 101.13 325.63, 84.91 315.22 C68.68 304.81, 52.6 292.94, 40.69 280.05 C28.78 267.16, 19.95 252.73, 13.44 237.89 C6.94 223.05, 2.87 206.23, 1.65 191.01 C0.43 175.79, 2.15 161.64, 6.13 146.57 C10.11 131.5, 16.66 114.61, 25.55 100.6 C34.44 86.59, 45.39 74.27, 59.46 62.51 C73.53 50.76, 92.06 38.67, 109.97 30.06 C127.87 21.46, 147.29 15.8, 166.91 10.89 C186.53 5.97, 206.91 1.68, 227.66 0.57 C248.42 -0.54, 280.95 3.3, 291.43 4.24 C301.91 5.18, 290.96 3.62, 290.54 6.22" stroke="#1e1e1e" stroke-width="4" fill="none"/></g><g transform="translate(414.2850194530256 513.6775021455495) rotate(0 -74 293.00000000000006)" stroke="none"><path fill="#1e1e1e" d="M 2.83,1.31 Q 2.83,1.31 -2.97,13.70 -8.78,26.10 -13.63,34.45 -18.48,42.81 -27.47,56.32 -36.47,69.83 -44.88,82.49 -53.29,95.15 -64.37,110.50 -75.46,125.86 -87.57,146.19 -99.69,166.51 -107.66,184.97 -115.64,203.44 -121.36,217.29 -127.07,231.13 -131.74,254.68 -136.40,278.22 -138.97,299.17 -141.55,320.12 -142.64,350.81 -143.73,381.51 -144.20,406.01 -144.67,430.52 -143.72,450.79 -142.77,471.07 -140.65,489.07 -138.53,507.08 -136.48,522.20 -134.43,537.32 -132.98,548.74 -131.53,560.16 -130.91,567.04 -130.29,573.92 -128.90,578.52 -127.51,583.12 -127.47,583.62 -127.43,584.12 -127.55,584.60 -127.68,585.09 -127.95,585.51 -128.22,585.93 -128.61,586.25 -129.00,586.56 -129.47,586.73 -129.94,586.90 -130.45,586.92 -130.95,586.93 -131.43,586.78 -131.91,586.63 -132.31,586.34 -132.72,586.04 -133.01,585.64 -133.30,585.23 -133.45,584.75 -133.59,584.27 -133.58,583.77 -133.56,583.26 -133.39,582.79 -133.22,582.32 -132.90,581.93 -132.58,581.54 -132.16,581.27 -131.74,581.01 -131.25,580.89 -130.76,580.77 -130.26,580.81 -129.76,580.85 -129.30,581.05 -128.84,581.25 -128.47,581.59 -128.10,581.92 -127.85,582.36 -127.61,582.80 -127.51,583.29 -127.42,583.78 -127.49,584.28 -127.56,584.78 -127.78,585.22 -128.01,585.67 -128.36,586.03 -128.72,586.38 -129.17,586.60 -129.62,586.82 -130.12,586.89 -130.61,586.96 -131.11,586.86 -131.60,586.76 -132.03,586.52 -132.47,586.27 -132.80,585.89 -133.14,585.52 -133.33,585.06 -133.53,584.60 -133.53,584.60 -133.53,584.60 -134.53,579.50 -135.52,574.40 -136.13,567.61 -136.74,560.82 -138.19,549.43 -139.64,538.03 -141.70,522.86 -143.76,507.69 -145.89,489.50 -148.03,471.32 -148.99,450.87 -149.94,430.42 -149.48,405.87 -149.01,381.32 -147.91,350.40 -146.80,319.47 -144.20,298.33 -141.61,277.19 -136.81,253.16 -132.01,229.12 -126.28,215.22 -120.56,201.31 -112.45,182.53 -104.33,163.75 -92.11,143.21 -79.89,122.68 -68.89,107.39 -57.90,92.09 -49.53,79.40 -41.16,66.71 -32.33,53.32 -23.49,39.93 -18.85,31.76 -14.21,23.59 -8.52,11.14 -2.83,-1.31 -2.63,-1.63 -2.43,-1.95 -2.16,-2.21 -1.90,-2.47 -1.57,-2.67 -1.25,-2.86 -0.89,-2.97 -0.53,-3.07 -0.15,-3.09 0.22,-3.11 0.59,-3.04 0.96,-2.97 1.30,-2.81 1.64,-2.65 1.93,-2.42 2.23,-2.18 2.46,-1.88 2.69,-1.58 2.84,-1.24 2.99,-0.89 3.05,-0.52 3.12,-0.15 3.09,0.22 3.06,0.59 2.95,0.95 2.83,1.31 2.83,1.31 L 2.83,1.31 Z"/></g><g transform="translate(710.2850194530256 501.6775021455495) rotate(0 92 296.00000000000006)" stroke="none"><path fill="#1e1e1e" d="M 1.07,-2.98 Q 1.07,-2.98 4.56,-1.78 8.06,-0.58 15.12,6.47 22.18,13.54 31.70,22.48 41.23,31.43 48.69,38.33 56.15,45.22 62.66,50.55 69.18,55.89 75.41,61.28 81.64,66.66 87.69,72.02 93.75,77.38 103.27,88.35 112.79,99.33 118.59,107.78 124.39,116.22 128.71,137.96 133.02,159.69 136.48,180.40 139.95,201.11 146.49,221.34 153.03,241.57 159.24,260.66 165.45,279.74 169.84,302.09 174.22,324.44 176.08,341.33 177.95,358.21 178.74,373.38 179.53,388.54 181.55,402.18 183.58,415.82 184.46,430.96 185.34,446.11 185.71,458.05 186.08,469.98 186.23,478.11 186.39,486.25 186.42,492.29 186.44,498.34 182.88,503.90 179.31,509.45 176.33,519.78 173.36,530.11 170.24,536.68 167.12,543.24 164.14,550.19 161.16,557.15 158.05,561.58 154.93,566.02 151.96,570.24 148.99,574.47 145.97,578.17 142.95,581.88 142.05,584.45 141.15,587.03 140.60,589.43 140.05,591.83 139.81,592.31 139.57,592.80 139.19,593.18 138.81,593.57 138.33,593.81 137.85,594.05 137.31,594.13 136.78,594.21 136.25,594.11 135.72,594.01 135.25,593.75 134.77,593.49 134.41,593.09 134.05,592.69 133.83,592.19 133.61,591.70 133.57,591.16 133.52,590.62 133.65,590.10 133.77,589.57 134.06,589.12 134.35,588.66 134.77,588.32 135.19,587.98 135.69,587.79 136.20,587.60 136.74,587.58 137.28,587.56 137.79,587.72 138.31,587.87 138.75,588.18 139.19,588.50 139.51,588.93 139.83,589.37 139.99,589.88 140.15,590.40 140.14,590.94 140.13,591.48 139.95,591.99 139.76,592.49 139.43,592.92 139.09,593.34 138.64,593.63 138.19,593.93 137.66,594.06 137.14,594.20 136.60,594.16 136.06,594.11 135.57,593.90 135.07,593.69 134.66,593.34 134.26,592.98 133.99,592.51 133.72,592.04 133.62,591.51 133.51,590.98 133.58,590.45 133.65,589.91 133.65,589.91 133.65,589.91 134.63,587.21 135.60,584.51 137.23,581.55 138.86,578.59 141.77,575.02 144.69,571.45 147.67,567.21 150.65,562.97 153.50,559.01 156.34,555.05 159.36,548.02 162.38,540.98 165.35,534.80 168.32,528.61 171.63,517.59 174.94,506.56 178.15,502.21 181.35,497.85 181.24,492.10 181.14,486.35 180.98,478.24 180.82,470.14 180.46,458.28 180.09,446.42 179.23,431.50 178.38,416.59 176.32,402.70 174.27,388.82 173.49,373.80 172.71,358.79 170.88,342.12 169.04,325.45 164.74,303.41 160.43,281.37 154.21,262.29 147.99,243.20 141.35,222.60 134.71,201.99 131.25,181.35 127.79,160.71 123.85,139.90 119.91,119.09 114.31,110.98 108.71,102.86 99.42,92.17 90.14,81.47 84.09,76.16 78.03,70.86 71.83,65.56 65.62,60.26 58.94,54.87 52.25,49.48 44.71,42.64 37.16,35.81 27.45,26.86 17.74,17.92 11.66,11.70 5.58,5.48 2.25,4.23 -1.07,2.98 -1.41,2.81 -1.75,2.64 -2.04,2.39 -2.33,2.14 -2.56,1.83 -2.78,1.52 -2.92,1.17 -3.06,0.81 -3.12,0.43 -3.17,0.05 -3.13,-0.32 -3.09,-0.70 -2.96,-1.06 -2.83,-1.42 -2.62,-1.74 -2.41,-2.06 -2.13,-2.32 -1.85,-2.58 -1.51,-2.76 -1.17,-2.94 -0.80,-3.04 -0.43,-3.14 -0.05,-3.15 0.32,-3.15 0.69,-3.07 1.07,-2.98 1.07,-2.98 L 1.07,-2.98 Z"/></g><g transform="translate(754.2850194530256 1059.6775021455496) rotate(0 -2 1)" stroke="none"><path fill="#1e1e1e" d="M 2.04,4.08 Q 2.04,4.08 0.94,4.76 -0.15,5.44 -0.89,5.67 -1.63,5.90 -2.41,5.89 -3.19,5.87 -3.92,5.60 -4.65,5.34 -5.25,4.85 -5.86,4.37 -6.28,3.71 -6.70,3.06 -6.89,2.30 -7.08,1.55 -7.02,0.78 -6.96,0.00 -6.66,-0.71 -6.35,-1.42 -5.84,-2.00 -5.32,-2.58 -4.64,-2.97 -3.97,-3.35 -3.20,-3.50 -2.44,-3.65 -1.67,-3.55 -0.90,-3.44 -0.20,-3.10 0.49,-2.76 1.04,-2.21 1.59,-1.66 1.94,-0.97 2.29,-0.27 2.39,0.49 2.50,1.26 2.36,2.02 2.21,2.79 1.83,3.47 1.45,4.14 0.87,4.67 0.30,5.19 -0.41,5.50 -1.12,5.81 -1.90,5.87 -2.67,5.94 -3.43,5.75 -4.18,5.57 -4.84,5.15 -5.49,4.73 -5.98,4.13 -6.47,3.52 -6.74,2.79 -7.01,2.06 -7.04,1.29 -7.06,0.51 -6.83,-0.22 -6.61,-0.97 -6.16,-1.60 -5.70,-2.23 -5.07,-2.69 -4.44,-3.14 -4.44,-3.14 -4.44,-3.14 -3.24,-3.61 -2.04,-4.08 -1.52,-4.27 -1.00,-4.45 -0.45,-4.51 0.08,-4.56 0.63,-4.48 1.18,-4.41 1.69,-4.20 2.20,-4.00 2.64,-3.68 3.09,-3.35 3.45,-2.93 3.80,-2.52 4.05,-2.02 4.30,-1.53 4.42,-0.99 4.54,-0.46 4.53,0.08 4.52,0.63 4.38,1.17 4.23,1.70 3.97,2.18 3.70,2.66 3.33,3.07 2.96,3.47 2.50,3.78 2.04,4.08 2.04,4.08 L 2.04,4.08 Z"/></g><g transform="translate(496.2850194530256 279.6775021455495) rotate(0 6 32)" stroke="none"><path fill="#1e1e1e" d="M 3.99,-0.44 Q 3.99,-0.44 4.38,4.75 4.77,9.94 5.45,16.74 6.13,23.54 7.50,29.72 8.87,35.89 10.02,42.11 11.17,48.33 11.84,51.54 12.50,54.75 13.74,58.03 14.98,61.32 15.07,61.90 15.15,62.49 15.04,63.07 14.94,63.65 14.65,64.17 14.37,64.69 13.93,65.08 13.49,65.48 12.95,65.72 12.41,65.96 11.82,66.01 11.23,66.07 10.66,65.93 10.08,65.79 9.58,65.48 9.08,65.16 8.71,64.71 8.33,64.25 8.12,63.70 7.91,63.14 7.89,62.55 7.87,61.96 8.04,61.39 8.21,60.83 8.55,60.34 8.89,59.86 9.37,59.51 9.84,59.16 10.41,58.98 10.97,58.80 11.56,58.82 12.15,58.83 12.71,59.03 13.27,59.22 13.73,59.59 14.19,59.96 14.52,60.45 14.84,60.95 14.99,61.52 15.14,62.09 15.09,62.68 15.05,63.27 14.82,63.82 14.59,64.36 14.20,64.81 13.81,65.25 13.30,65.55 12.79,65.84 12.21,65.96 11.63,66.07 11.04,66.00 10.45,65.92 9.92,65.67 9.39,65.41 8.97,64.99 8.55,64.58 8.28,64.05 8.01,63.53 8.01,63.53 8.01,63.53 6.99,59.67 5.96,55.82 5.60,52.66 5.24,49.50 3.97,43.42 2.70,37.35 1.07,30.85 -0.55,24.35 -1.51,17.55 -2.47,10.75 -3.23,5.59 -3.99,0.44 -3.99,-0.04 -3.98,-0.52 -3.86,-0.99 -3.74,-1.46 -3.51,-1.89 -3.28,-2.31 -2.95,-2.67 -2.63,-3.03 -2.23,-3.30 -1.83,-3.57 -1.37,-3.74 -0.92,-3.91 -0.44,-3.96 0.04,-4.01 0.52,-3.95 1.00,-3.89 1.45,-3.71 1.90,-3.54 2.30,-3.26 2.69,-2.98 3.01,-2.61 3.33,-2.24 3.55,-1.81 3.77,-1.38 3.88,-0.91 3.99,-0.44 3.99,-0.44 L 3.99,-0.44 Z"/></g><g transform="translate(616.2850194530256 271.6775021455495) rotate(0 -1 41)" stroke="none"><path fill="#1e1e1e" d="M 3.77,0 Q 3.77,0 3.62,14.37 3.46,28.74 3.35,36.58 3.23,44.41 3.15,51.19 3.07,57.97 3.01,63.16 2.95,68.34 2.38,72.48 1.81,76.62 1.79,78.33 1.76,80.03 1.60,80.56 1.43,81.09 1.10,81.54 0.77,81.99 0.31,82.31 -0.13,82.63 -0.67,82.79 -1.20,82.94 -1.76,82.92 -2.32,82.90 -2.84,82.71 -3.36,82.51 -3.79,82.16 -4.22,81.80 -4.52,81.33 -4.81,80.86 -4.94,80.31 -5.07,79.77 -5.02,79.22 -4.97,78.66 -4.74,78.15 -4.52,77.64 -4.14,77.23 -3.76,76.82 -3.28,76.55 -2.79,76.28 -2.24,76.18 -1.69,76.08 -1.14,76.17 -0.59,76.25 -0.09,76.50 0.39,76.75 0.78,77.15 1.17,77.55 1.42,78.05 1.66,78.55 1.73,79.10 1.80,79.66 1.69,80.20 1.58,80.75 1.30,81.23 1.02,81.71 0.60,82.08 0.18,82.45 -0.32,82.66 -0.84,82.88 -1.39,82.92 -1.95,82.96 -2.49,82.82 -3.03,82.68 -3.49,82.37 -3.96,82.07 -4.30,81.63 -4.65,81.19 -4.84,80.67 -5.02,80.14 -5.03,79.58 -5.04,79.03 -5.04,79.03 -5.04,79.03 -4.58,77.39 -4.11,75.76 -3.53,72.04 -2.95,68.33 -3.01,63.15 -3.07,57.97 -3.15,51.19 -3.23,44.41 -3.35,36.58 -3.46,28.74 -3.62,14.37 -3.77,0 -3.72,-0.45 -3.66,-0.90 -3.50,-1.32 -3.34,-1.75 -3.08,-2.12 -2.82,-2.50 -2.48,-2.80 -2.14,-3.10 -1.74,-3.31 -1.33,-3.52 -0.89,-3.63 -0.45,-3.74 0.00,-3.74 0.45,-3.74 0.89,-3.63 1.33,-3.52 1.74,-3.31 2.14,-3.10 2.48,-2.80 2.82,-2.50 3.08,-2.12 3.34,-1.75 3.50,-1.32 3.66,-0.90 3.72,-0.45 3.77,0.00 3.77,0.00 L 3.77,0 Z"/></g><g transform="translate(496.2850194530256 461.6775021455495) rotate(0 57 -6)" stroke="none"><path fill="#1e1e1e" d="M -0.35,-3.56 Q -0.35,-3.56 5.40,-4.00 11.16,-4.45 22.28,-5.18 33.40,-5.91 43.92,-6.19 54.44,-6.47 65.74,-7.14 77.04,-7.81 85.16,-9.22 93.28,-10.62 99.06,-11.78 104.84,-12.94 107.27,-13.68 109.69,-14.42 110.21,-14.44 110.74,-14.46 111.24,-14.31 111.74,-14.17 112.17,-13.87 112.60,-13.57 112.92,-13.14 113.23,-12.72 113.39,-12.22 113.55,-11.72 113.54,-11.20 113.53,-10.67 113.36,-10.18 113.18,-9.69 112.86,-9.27 112.54,-8.86 112.10,-8.57 111.66,-8.28 111.15,-8.15 110.65,-8.02 110.12,-8.05 109.60,-8.09 109.12,-8.29 108.63,-8.49 108.24,-8.84 107.84,-9.18 107.58,-9.63 107.31,-10.09 107.21,-10.60 107.10,-11.12 107.17,-11.64 107.23,-12.16 107.46,-12.63 107.68,-13.10 108.05,-13.48 108.42,-13.85 108.88,-14.09 109.35,-14.33 109.87,-14.41 110.39,-14.49 110.90,-14.39 111.42,-14.30 111.88,-14.05 112.34,-13.80 112.70,-13.41 113.05,-13.03 113.26,-12.55 113.48,-12.07 113.53,-11.54 113.58,-11.02 113.46,-10.51 113.34,-10.00 113.06,-9.56 112.78,-9.11 112.38,-8.78 111.97,-8.44 111.48,-8.26 110.99,-8.07 110.99,-8.07 110.99,-8.07 108.47,-7.79 105.96,-7.52 100.11,-6.29 94.26,-5.06 85.84,-3.55 77.41,-2.04 66.03,-1.26 54.64,-0.49 44.25,-0.07 33.86,0.33 22.84,1.24 11.83,2.15 6.09,2.85 0.35,3.56 -0.07,3.55 -0.50,3.54 -0.92,3.43 -1.33,3.31 -1.71,3.10 -2.09,2.90 -2.41,2.60 -2.72,2.31 -2.96,1.95 -3.20,1.59 -3.34,1.18 -3.49,0.78 -3.53,0.35 -3.57,-0.07 -3.51,-0.50 -3.45,-0.92 -3.29,-1.32 -3.13,-1.72 -2.87,-2.07 -2.62,-2.42 -2.29,-2.70 -1.96,-2.98 -1.58,-3.17 -1.19,-3.37 -0.77,-3.46 -0.35,-3.56 -0.35,-3.56 L -0.35,-3.56 Z"/></g></svg>