<?xml version="1.0" encoding="UTF-8"?>
<svg version="1.1" xmlns="http://www.w3.org/2000/svg" width="1024" height="1024">
<path d="M0 0 C337.92 0 675.84 0 1024 0 C1024 337.92 1024 675.84 1024 1024 C686.08 1024 348.16 1024 0 1024 C0 686.08 0 348.16 0 0 Z " fill="#8F8F87" transform="translate(0,0)"/>
<path d="M0 0 C0.99531738 0.14421387 1.99063477 0.28842773 3.01611328 0.43701172 C72.4447162 10.77051296 137.68788448 53.05312194 179.32958984 108.77929688 C185.34567777 116.91461189 190.86884661 125.27299896 196 134 C196.34353516 134.57878906 196.68707031 135.15757812 197.04101562 135.75390625 C231.4330849 193.97521548 246.93824678 266.91779782 230.33422852 333.4387207 C226.73536951 347.2585915 222.31121113 360.74819113 217 374 C216.64824707 374.88478027 216.29649414 375.76956055 215.93408203 376.68115234 C211.15142335 388.59158459 205.63917083 399.86425663 199.17675781 410.95068359 C197.96548665 413.06010479 196.81195784 415.19565002 195.65625 417.3359375 C192.66800812 422.72821881 189.23548596 427.79456551 185.75 432.875 C184.74984863 434.33462158 184.74984863 434.33462158 183.72949219 435.82373047 C179.11276874 442.50665627 174.40430462 448.92630974 169 455 C168.19949219 455.90878906 167.39898438 456.81757812 166.57421875 457.75390625 C155.56203837 470.00597657 144.09078831 481.95930853 131 492 C129.97519531 492.80695313 128.95039062 493.61390625 127.89453125 494.4453125 C96.56139363 519.02679827 59.99366659 538.17111485 21 547 C20.01128906 547.22768066 19.02257812 547.45536133 18.00390625 547.68994141 C14.90223738 548.39544396 11.79678102 549.07887711 8.6875 549.75 C7.7699292 549.94907959 6.8523584 550.14815918 5.90698242 550.35327148 C-11.68738252 553.96455869 -29.08490355 554.44077897 -47 554.4375 C-48.2382251 554.4385675 -49.4764502 554.43963501 -50.75219727 554.44073486 C-70.65653729 554.41599421 -89.53775 553.26952053 -109 549 C-110.08958008 548.77006348 -111.17916016 548.54012695 -112.30175781 548.30322266 C-136.05011802 543.19258711 -158.19746899 534.59443853 -180 524 C-180.77005371 523.63326172 -181.54010742 523.26652344 -182.33349609 522.88867188 C-205.06513718 511.99071886 -225.82390306 495.96271658 -244.109375 478.703125 C-246.4012452 476.55991665 -248.72098395 474.51311913 -251.125 472.5 C-261.94213139 463.06041561 -270.53245398 451.50659006 -279 440 C-279.78407227 438.93724854 -279.78407227 438.93724854 -280.58398438 437.85302734 C-320.91766168 382.85600875 -342.98034795 310.24167032 -332.81640625 241.84765625 C-332.54869193 240.23103248 -332.27584842 238.61525571 -332 237 C-331.81163574 235.8538623 -331.62327148 234.70772461 -331.42919922 233.52685547 C-326.90935004 206.4450026 -319.70883567 181.92991521 -308 157 C-307.64292969 156.23075195 -307.28585937 155.46150391 -306.91796875 154.66894531 C-296.48208681 132.33158447 -282.95894666 110.94256556 -266 93 C-264.95358873 91.77486997 -263.91185459 90.54572857 -262.875 89.3125 C-253.80889996 78.93919484 -243.85472275 69.46702243 -233 61 C-232.28714844 60.39671875 -231.57429688 59.7934375 -230.83984375 59.171875 C-215.70601442 46.46693186 -198.28197476 36.45055652 -181 27 C-179.85144531 26.35675781 -178.70289063 25.71351563 -177.51953125 25.05078125 C-165.6130386 18.70558206 -152.70641748 14.43901085 -140 10 C-139.21786133 9.72381836 -138.43572266 9.44763672 -137.62988281 9.16308594 C-93.74315697 -6.02928569 -45.43094645 -6.86437937 0 0 Z " fill="#F1EDDB" transform="translate(555,228)"/>
<path d="M0 0 C0.70688965 0.37205566 1.4137793 0.74411133 2.14208984 1.12744141 C24.39707906 12.92508956 43.98516704 27.58737842 63 44 C63.5978833 44.50885742 64.1957666 45.01771484 64.81176758 45.54199219 C77.54894386 56.4946561 89.85896956 68.58465162 100 82 C100.99556091 83.25796476 101.99312838 84.51434292 102.9921875 85.76953125 C110.53095855 95.32583065 117.19519942 105.2553123 123.53588867 115.6394043 C125.11485826 118.18518668 126.7516353 120.68915585 128.38671875 123.19921875 C132.45217017 129.5782695 135.98117846 136.2163169 139.4375 142.9375 C139.76493195 143.57239349 140.09236389 144.20728699 140.42971802 144.86141968 C145.98470711 155.66945031 150.9043223 166.55408363 155 178 C155.48774902 179.31653564 155.48774902 179.31653564 155.98535156 180.65966797 C162.40385484 198.07299993 166.52137294 215.81616435 170 234 C170.2273584 235.13872559 170.4547168 236.27745117 170.68896484 237.45068359 C177.25205296 271.33558972 176.66061536 309.16891808 170 343 C169.7745752 344.18722656 169.54915039 345.37445312 169.31689453 346.59765625 C161.2349548 387.98947795 144.33098939 427.33966036 122 463 C121.09507812 464.46953125 121.09507812 464.46953125 120.171875 465.96875 C113.80767796 476.1743993 106.61766096 485.70340102 99 495 C98.28199219 495.90492188 97.56398438 496.80984375 96.82421875 497.7421875 C90.64460308 505.3311892 83.89836927 512.31648388 77 519.25 C76.08653809 520.17264648 75.17307617 521.09529297 74.23193359 522.04589844 C68.12835185 528.12220769 61.75255678 533.65900217 55 539 C53.81991588 539.95393665 52.64016358 540.90828413 51.4609375 541.86328125 C37.95138933 552.58541632 24.05008236 562.3448959 9.02929688 570.83837891 C7.12086644 571.93081298 5.23849306 573.05730104 3.359375 574.19921875 C-30.14819448 594.25602757 -67.85351571 604.63752707 -106 611 C-107.43448486 611.24411621 -107.43448486 611.24411621 -108.89794922 611.49316406 C-111.40989691 611.92004304 -113.92311778 612.3377291 -116.4375 612.75 C-117.12650391 612.86553223 -117.81550781 612.98106445 -118.52539062 613.10009766 C-156.19196076 619.06125753 -196.06663707 614.24793265 -233 606 C-234.48089111 605.67080566 -234.48089111 605.67080566 -235.99169922 605.33496094 C-247.90876516 602.63508321 -259.50091769 599.12516171 -271 595 C-271.6487207 594.76772705 -272.29744141 594.5354541 -272.96582031 594.29614258 C-293.47802152 586.7856697 -313.62871756 576.78450556 -332 565 C-333.29500137 564.20786627 -334.59198413 563.41896534 -335.890625 562.6328125 C-349.6356834 554.27604041 -361.84708853 544.5081702 -374 534 C-374.60513428 533.4838916 -375.21026855 532.9677832 -375.83374023 532.43603516 C-388.23582097 521.75985025 -400.06599283 510.01877781 -410 497 C-411.094361 495.61951135 -412.1909153 494.24075997 -413.2890625 492.86328125 C-420.68884237 483.53665281 -427.60625363 474.0411078 -434 464 C-434.63808594 463.01773437 -435.27617187 462.03546875 -435.93359375 461.0234375 C-447.41829738 442.92488168 -456.90813617 423.82418106 -465 404 C-465.35400879 403.15469727 -465.70801758 402.30939453 -466.07275391 401.43847656 C-494.49679315 333.33282457 -494.12981551 254.2714332 -470 185 C-469.45234079 183.33574662 -468.90760885 181.67052399 -468.3671875 180.00390625 C-457.01126297 145.83056629 -438.92477788 115.36462166 -417 87 C-416.29230469 86.07703125 -415.58460938 85.1540625 -414.85546875 84.203125 C-410.02870779 78.0295896 -404.77358038 72.28288321 -399.43652344 66.55419922 C-397.9880063 64.98702381 -396.55813231 63.40468925 -395.1328125 61.81640625 C-390.04228014 56.15538319 -384.85480573 50.87900477 -379 46 C-377.94880504 45.08921613 -376.89949169 44.17625826 -375.8515625 43.26171875 C-363.7618454 32.73399378 -351.48885919 23.42615173 -337.78076172 15.09912109 C-335.45977255 13.66656101 -333.20391349 12.14206446 -330.9375 10.625 C-308.48605698 -3.62882224 -283.63478253 -14.01701079 -258.5 -22.4375 C-257.75376373 -22.68902832 -257.00752747 -22.94055664 -256.23867798 -23.19970703 C-235.37891231 -30.18775297 -213.8920002 -34.76584721 -192 -37 C-191.10700195 -37.09168457 -190.21400391 -37.18336914 -189.29394531 -37.27783203 C-124.03923894 -43.74638813 -58.01865107 -30.69747475 0 0 Z M-198 12 C-199.258125 12.19867676 -200.51625 12.39735352 -201.8125 12.60205078 C-235.97545556 18.11399346 -269.19381385 28.09041134 -299 46 C-300.49053072 46.87300171 -301.98142159 47.74538878 -303.47265625 48.6171875 C-332.61881972 65.85278007 -360.12976002 88.17759772 -381 115 C-381.77601563 115.9590625 -382.55203125 116.918125 -383.3515625 117.90625 C-390.67913518 127.11805566 -396.91102355 136.9367178 -403 147 C-403.61705811 148.01102783 -403.61705811 148.01102783 -404.24658203 149.04248047 C-410.88531442 160.01045756 -415.97620106 171.56709155 -420.90576172 183.38671875 C-421.83681062 185.61026793 -422.7889195 187.82231279 -423.75390625 190.03125 C-430.56618367 206.11035911 -434.18187337 223.01317077 -437.3125 240.125 C-437.44164795 240.82542419 -437.5707959 241.52584839 -437.70385742 242.24749756 C-440.26610964 256.26871107 -441.20896587 270.01176906 -441.1875 284.25 C-441.18689575 284.99366821 -441.1862915 285.73733643 -441.18566895 286.50354004 C-441.08208129 333.74709032 -429.5999616 376.9874888 -408 419 C-407.64083496 419.70157227 -407.28166992 420.40314453 -406.91162109 421.12597656 C-398.35279964 437.58357845 -386.74250294 452.69417372 -375 467 C-374.53464844 467.56831543 -374.06929688 468.13663086 -373.58984375 468.72216797 C-365.7265041 478.28083936 -357.42809176 486.97101798 -348 495 C-347.01902344 495.84691406 -346.03804688 496.69382812 -345.02734375 497.56640625 C-337.90850113 503.68707858 -330.66693904 509.57152432 -323 515 C-322.28408691 515.50901855 -321.56817383 516.01803711 -320.83056641 516.54248047 C-273.19134913 550.10847906 -216.25600773 568.02380645 -157.97119141 567.41162109 C-154.34118888 567.37465569 -150.7122045 567.3706072 -147.08203125 567.37109375 C-129.48184233 567.31964673 -112.92598967 565.90541935 -95.6875 562.25 C-94.43259766 561.98396973 -93.17769531 561.71793945 -91.88476562 561.44384766 C-48.33930394 551.99709386 -9.56771948 531.85363325 25 504 C26.27762207 502.99054321 26.27762207 502.99054321 27.58105469 501.96069336 C34.63782041 496.31590973 41.1399471 490.21843805 47.5 483.8125 C48.00201935 483.30932251 48.5040387 482.80614502 49.02127075 482.28771973 C56.64625522 474.62799003 63.70370857 466.79628949 70 458 C70.66 457.1234375 71.32 456.246875 72 455.34375 C80.3425288 444.17552596 88.69736167 432.57567237 94.6015625 419.9140625 C96 417 96 417 97.7109375 414.0234375 C112.53375168 388.18938993 122.88136178 356.38787725 127 327 C127.10006348 326.35595215 127.20012695 325.7119043 127.30322266 325.04833984 C130.61946063 303.26561766 130.60058704 279.18442103 127.35498047 257.39111328 C126.94934007 254.65875973 126.58845698 251.92155679 126.22265625 249.18359375 C120.64479907 209.43202343 105.37167757 170.36887824 83 137 C82.53416504 136.30052246 82.06833008 135.60104492 81.58837891 134.88037109 C62.95166722 107.13013722 40.44124516 82.82956704 13.13769531 63.51757812 C11.31395932 62.22288387 9.50889416 60.90818241 7.7109375 59.578125 C-50.34343333 17.60741891 -127.57486512 0.86602626 -198 12 Z " fill="#9CA896" transform="translate(662,215)"/>
<path d="M0 0 C1.00698944 -0.00199402 2.01397888 -0.00398804 3.05148315 -0.00604248 C22.79869261 -0.00160441 42.03058752 1.92931455 61.5 5.125 C62.29433441 5.25405731 63.08866882 5.38311462 63.90707397 5.51608276 C77.23289762 7.69776848 90.24068401 10.50172179 103.1875 14.375 C103.92645508 14.5901123 104.66541016 14.80522461 105.42675781 15.02685547 C113.58965046 17.40878382 121.59172354 20.17204767 129.52319336 23.23242188 C132.7542776 24.47892286 135.97497968 25.62122806 139.28515625 26.640625 C145.85109954 28.80620493 151.99175082 31.96404006 158.1875 35 C159.48835239 35.6337287 160.7892151 36.26743622 162.09008789 36.90112305 C175.90330302 43.64831867 189.47784688 50.48405055 202.24902344 59.07373047 C203.63368624 60.00323333 205.0228808 60.92599974 206.41503906 61.84423828 C216.04127671 68.19375373 225.21847446 74.72991396 233.81640625 82.42578125 C236.37314229 84.71394435 239.03513106 86.81261546 241.75 88.91015625 C247.86910504 93.7768028 253.36217262 99.2131963 258.87329102 104.74511719 C260.61028241 106.48525574 262.36016171 108.21164159 264.11132812 109.9375 C271.82933814 117.61291869 278.62151423 125.70385323 285.1875 134.375 C286.76267152 136.38155684 288.35096303 138.37739065 289.9375 140.375 C305.70141358 160.75184297 319.83451606 182.89815017 330.38671875 206.42578125 C331.92477934 209.85435695 333.60460037 213.19203092 335.32763672 216.53076172 C338.76310162 223.19508314 341.61473611 229.77183697 343.984375 236.8984375 C344.92645273 239.62067511 345.94901113 242.23140783 347.0546875 244.88671875 C349.67433428 251.391931 351.65220569 258.07056812 353.5625 264.8125 C353.85364182 265.83738022 353.85364182 265.83738022 354.15066528 266.88296509 C357.27555407 278.00554557 359.68712306 289.17546452 361.625 300.5625 C361.74437927 301.25415253 361.86375854 301.94580505 361.98675537 302.65841675 C365.30121732 322.12892264 366.57031069 341.51255211 366.5 361.25 C366.49884186 362.26571075 366.49768372 363.28142151 366.49649048 364.32791138 C366.44517081 387.22208496 365.1910072 409.96297697 360.1875 432.375 C359.89214128 433.91100069 359.59934622 435.44749573 359.30859375 436.984375 C354.01009649 463.72378157 343.85986057 489.83088515 332.1875 514.375 C331.76758789 515.26703125 331.34767578 516.1590625 330.91503906 517.078125 C325.10684607 529.33835439 318.53142835 540.97278234 311.1875 552.375 C310.70522949 553.12523437 310.22295898 553.87546875 309.72607422 554.6484375 C295.22062912 577.08378116 278.67088563 597.1239819 260.1875 616.375 C259.64029297 616.94557129 259.09308594 617.51614258 258.52929688 618.10400391 C252.74678027 624.09969259 246.80727018 629.7325069 240.26953125 634.9140625 C237.94097668 636.77336463 235.65728025 638.65807041 233.38671875 640.5859375 C169.17152375 694.89729646 87.12599856 721.57934763 3.75 721.625 C2.47771545 721.62600708 1.20543091 721.62701416 -0.10540771 721.62805176 C-19.19569248 721.61782713 -37.9037417 721.15858312 -56.8125 718.375 C-58.34124756 718.1581958 -58.34124756 718.1581958 -59.90087891 717.93701172 C-100.39962649 712.03380444 -140.08789567 698.28040364 -175.8125 678.375 C-176.42706055 678.03791016 -177.04162109 677.70082031 -177.67480469 677.35351562 C-181.76888506 675.10712539 -185.80547842 672.77232767 -189.8125 670.375 C-190.50746582 669.96088867 -191.20243164 669.54677734 -191.91845703 669.12011719 C-209.50889789 658.55282555 -225.79193575 646.19385619 -241.25585938 632.72119141 C-242.94439991 631.26093223 -244.65009877 629.82263986 -246.359375 628.38671875 C-256.23642088 620.06760413 -265.3303538 611.4670565 -273.40625 601.34375 C-275.60279749 598.63372387 -277.86154373 596.00217033 -280.15771484 593.37744141 C-286.85605456 585.70417576 -292.95603929 577.70518805 -298.8125 569.375 C-299.47507812 568.43785156 -300.13765625 567.50070312 -300.8203125 566.53515625 C-319.1695357 539.77907137 -333.625 510.76573523 -344.8125 480.375 C-345.40023393 478.82130879 -345.98867049 477.26788301 -346.578125 475.71484375 C-354.01210732 455.79243276 -358.81407545 435.39296413 -361.8125 414.375 C-361.94898956 413.43033371 -362.08547913 412.48566742 -362.22610474 411.51237488 C-364.58514713 394.82953618 -365.37577486 378.40141555 -365.3125 361.5625 C-365.31106995 360.32408356 -365.30963989 359.08566711 -365.3081665 357.8097229 C-365.2487784 336.92708783 -363.77324654 316.8636935 -359.8125 296.375 C-359.58256348 295.12638184 -359.35262695 293.87776367 -359.11572266 292.59130859 C-354.55040794 268.07818565 -347.21470124 244.45003501 -337.8125 221.375 C-337.52552246 220.66730469 -337.23854492 219.95960938 -336.94287109 219.23046875 C-332.62821885 208.70422677 -327.48051664 198.65760774 -322.0546875 188.66503906 C-320.89064076 186.51905666 -319.74176144 184.36552372 -318.59375 182.2109375 C-313.53997127 172.85119729 -307.72815729 164.19958418 -301.45117188 155.61962891 C-299.75108803 153.29087877 -298.07031177 150.94896394 -296.390625 148.60546875 C-289.02189209 138.38916467 -281.25158642 128.72303672 -272.8125 119.375 C-272.34247559 118.8485791 -271.87245117 118.3221582 -271.38818359 117.77978516 C-261.77276602 107.01147254 -251.86238934 96.5082158 -240.52734375 87.53125 C-237.73225782 85.31126808 -235.02620606 83.00600615 -232.3125 80.6875 C-216.79369071 67.81484665 -200.41422582 57.18959193 -182.8125 47.375 C-182.12800781 46.98650879 -181.44351563 46.59801758 -180.73828125 46.19775391 C-176.49480308 43.78951101 -172.18033216 41.54668389 -167.8125 39.375 C-166.88147461 38.90771484 -165.95044922 38.44042969 -164.99121094 37.95898438 C-146.10936829 28.57358069 -126.9304387 21.5791525 -106.8125 15.375 C-105.47251953 14.95033447 -105.47251953 14.95033447 -104.10546875 14.51708984 C-89.0296949 9.75615019 -73.37752068 7.0115468 -57.8125 4.375 C-55.90452637 4.05088135 -55.90452637 4.05088135 -53.95800781 3.72021484 C-35.95828653 0.80365769 -18.2197584 0.00949394 0 0 Z M-58.67431641 39.9921875 C-60.82398291 40.37705586 -62.97722885 40.70652921 -65.13671875 41.03125 C-90.01217656 45.07220555 -115.07905861 54.71509587 -137.8125 65.375 C-138.81845215 65.8390625 -139.8244043 66.303125 -140.86083984 66.78125 C-153.58898561 72.66550339 -166.05462184 78.71215273 -177.8125 86.375 C-178.43801758 86.77960449 -179.06353516 87.18420898 -179.70800781 87.60107422 C-184.1185696 90.46474651 -188.48012379 93.39453546 -192.8125 96.375 C-194.24529297 97.35919922 -194.24529297 97.35919922 -195.70703125 98.36328125 C-203.49904634 103.87359353 -210.63997295 110.0964666 -217.8125 116.375 C-218.95912109 117.36886719 -218.95912109 117.36886719 -220.12890625 118.3828125 C-222.03272342 120.03663348 -223.92344255 121.70435284 -225.8125 123.375 C-226.62332031 124.08140625 -227.43414062 124.7878125 -228.26953125 125.515625 C-232.78290481 129.49443107 -236.984432 133.5040198 -240.85546875 138.109375 C-242.82627226 140.39094393 -244.88636711 142.57116489 -246.96533203 144.75390625 C-254.27637079 152.4766707 -260.60174556 160.75529853 -266.8125 169.375 C-267.32345215 170.07705566 -267.8344043 170.77911133 -268.36083984 171.50244141 C-278.46715086 185.40535342 -287.26131956 199.62100156 -294.72070312 215.10888672 C-295.92533967 217.60920793 -297.14279678 220.10312535 -298.359375 222.59765625 C-304.04817065 234.32974535 -309.39650036 245.96004417 -312.96118164 258.5390625 C-313.93275285 261.77558993 -315.04155986 264.951749 -316.1484375 268.14453125 C-318.92994047 276.37820481 -321.05142362 284.70799956 -322.9375 293.1875 C-323.10958984 293.96089722 -323.28167969 294.73429443 -323.45898438 295.53112793 C-333.47762553 341.25048922 -332.5198658 388.97710324 -321.8125 434.375 C-321.5964209 435.32068848 -321.3803418 436.26637695 -321.15771484 437.24072266 C-312.51186195 474.56416228 -294.82344849 512.16026239 -272.8125 543.375 C-272.43947754 543.91108887 -272.06645508 544.44717773 -271.68212891 544.99951172 C-265.38280861 554.05043695 -258.75878765 562.81131694 -251.8125 571.375 C-251.37808594 571.91527832 -250.94367188 572.45555664 -250.49609375 573.01220703 C-237.99990601 588.4505942 -223.83920472 603.27496437 -207.85546875 615.109375 C-204.96384562 617.26231648 -202.23912519 619.53302749 -199.5 621.875 C-180.03929596 637.87284347 -156.33588061 649.43931722 -133.75 660.3125 C-133.00145752 660.67786865 -132.25291504 661.0432373 -131.48168945 661.41967773 C-126.79621534 663.64124321 -122.12926335 665.2944364 -117.13134766 666.6784668 C-114.75774699 667.39144665 -112.52756237 668.27597754 -110.25 669.25 C-96.37010965 674.91834032 -81.41946733 678.17839509 -66.8125 681.375 C-65.9771875 681.55949707 -65.141875 681.74399414 -64.28125 681.93408203 C1.42477665 696.08911082 70.62696074 687.458983 132.1875 661.375 C133.06519043 661.00536133 133.94288086 660.63572266 134.84716797 660.25488281 C148.52759904 654.43583398 161.3007608 647.57020794 173.9453125 639.75976562 C175.7361056 638.65377929 177.53811826 637.56596629 179.34375 636.484375 C193.6968965 627.71300769 206.97000522 617.12918698 219.46606445 605.90771484 C220.64776847 604.85556084 221.83963822 603.81474734 223.03979492 602.78369141 C235.76102302 591.8488756 248.06778768 579.7790003 258.1875 566.375 C258.97769531 565.37855469 259.76789062 564.38210938 260.58203125 563.35546875 C270.32756443 551.03560825 278.58991931 538.02785814 286.13476562 524.265625 C287.72184659 521.41535714 289.40201137 518.62048077 291.0625 515.8125 C314.93869619 474.12020742 331.04081791 423.7079914 331.42578125 375.48046875 C331.43562042 374.46329269 331.44545959 373.44611664 331.45559692 372.39811707 C331.62460408 350.38875766 331.50139245 329.03677094 327.1875 307.375 C326.94612305 306.10140625 326.70474609 304.8278125 326.45605469 303.515625 C318.12475833 259.78910943 301.43555167 218.93796996 276.37060547 182.12841797 C274.62829336 179.54622945 272.94651977 176.92493228 271.25 174.3125 C266.60566854 167.35996372 261.4623279 160.85400249 256.1875 154.375 C255.75550293 153.83713867 255.32350586 153.29927734 254.87841797 152.74511719 C242.20135595 137.03689711 227.51648648 121.67993768 211.2578125 109.66796875 C208.19235306 107.37862436 205.3263169 104.94455227 202.4375 102.4375 C191.93005731 93.60617752 180.08346816 86.1881454 168.1875 79.375 C167.03639326 78.69542271 165.88535763 78.01572497 164.734375 77.3359375 C154.98543992 71.6464724 144.94602391 66.87368043 134.58349609 62.40966797 C132.39897752 61.46632278 130.22453147 60.50296877 128.05078125 59.53515625 C102.25314729 48.25955763 73.87755134 41.05215196 45.95849609 37.71484375 C42.98470179 37.35012818 40.01859344 36.94168719 37.05078125 36.53125 C5.22614545 32.28554602 -27.1327014 34.15988343 -58.67431641 39.9921875 Z " fill="#F0ECD9" transform="translate(504.8125,141.625)"/>
<path d="M0 0 C0.71784668 0.18691406 1.43569336 0.37382812 2.17529297 0.56640625 C10.28435378 2.72935653 17.57068006 6.10271332 25 9.9375 C25.78995361 10.34444092 26.57990723 10.75138184 27.39379883 11.1706543 C34.0434823 14.74145293 40.05505695 18.91159552 44.25 25.3125 C44.70890625 25.98925781 45.1678125 26.66601562 45.640625 27.36328125 C49.13527638 34.14169987 50.44622726 40.46515979 50.328125 48.04296875 C50.32679565 48.90509979 50.32546631 49.76723083 50.32409668 50.65548706 C50.31514201 53.49982428 50.28352081 56.34335362 50.25 59.1875 C50.23526763 61.19783003 50.22128655 63.2081657 50.20800781 65.21850586 C50.17547889 69.52247343 50.13074393 73.8261155 50.078125 78.12988281 C50.02134741 82.82974895 49.98082743 87.52936496 49.953125 92.22949219 C49.91719571 98.32064626 49.86036537 104.41127256 49.78845215 110.50210571 C49.76303157 112.8558696 49.74348014 115.20970497 49.73010254 117.56356812 C49.60959938 136.23506607 48.37155466 153.29387 34.9375 167.6875 C21.0801217 180.68170827 7.9293144 183.47056975 -10.2664547 183.19492912 C-13.19086554 183.15154039 -16.11483287 183.12855015 -19.039505 183.11073303 C-27.34850879 183.05605691 -35.65699374 182.96160391 -43.96557617 182.86303711 C-49.06695727 182.80391091 -54.1682032 182.7650501 -59.26984596 182.73730659 C-62.1253818 182.71540994 -64.97989934 182.66994278 -67.83512878 182.62376404 C-84.52084271 182.46671571 -100.8275898 185.25717488 -114.37109375 195.85546875 C-120.98402202 202.51995981 -124.34892186 211.50483327 -128 220 C-128.44730469 220.99128906 -128.89460938 221.98257813 -129.35546875 223.00390625 C-133.25471406 231.99891619 -133.14529999 241.14937536 -133.09765625 250.81640625 C-133.0962413 251.91347397 -133.09482635 253.01054169 -133.09336853 254.14085388 C-133.08781012 257.61476469 -133.07526546 261.08860896 -133.0625 264.5625 C-133.05747962 266.93033761 -133.05291766 269.29817623 -133.04882812 271.66601562 C-133.03785435 277.44403278 -133.02115811 283.22201164 -133 289 C-137.034335 289.07539006 -141.06838507 289.12917203 -145.10327148 289.16479492 C-146.46955526 289.17967888 -147.83579308 289.19999286 -149.2019043 289.22631836 C-166.46185415 289.55006144 -181.83116666 286.22770176 -195.3125 274.875 C-205.17301796 265.30497193 -211.34546729 253.34567593 -217 241 C-217.47308594 240.00097656 -217.94617188 239.00195312 -218.43359375 237.97265625 C-229.22284963 212.93217142 -229.37020759 184.32581983 -224 158 C-223.74476563 156.73542969 -223.48953125 155.47085938 -223.2265625 154.16796875 C-220.56906632 142.9162762 -215.83560043 132.46159285 -211 122 C-210.47148437 120.8553125 -209.94296875 119.710625 -209.3984375 118.53125 C-203.16032121 106.12471704 -191.86914258 97.61670013 -179.453125 91.80859375 C-173.02081093 89.68838831 -166.57647955 89.81680133 -159.875 89.8125 C-158.44994141 89.79413086 -158.44994141 89.79413086 -156.99609375 89.77539062 C-150.47892749 89.76267834 -144.11670474 90.26074799 -137.6484375 90.97265625 C-126.35586318 92.19537503 -115.10008407 92.45148988 -103.75 92.625 C-101.64712866 92.6629576 -99.54426409 92.70129192 -97.44140625 92.73999023 C-80.62697628 93.03477167 -63.81639843 93.11128499 -47 93 C-46.34 88.05 -45.68 83.1 -45 78 C-46.64452148 78.16298584 -48.28904297 78.32597168 -49.98339844 78.49389648 C-57.74421399 79.137368 -65.48567217 79.12597187 -73.265625 79.09765625 C-74.79547072 79.09578621 -76.32531704 79.09436509 -77.85516357 79.09336853 C-81.84004431 79.0895894 -85.82488735 79.07979966 -89.80975342 79.06866455 C-93.89269501 79.05835022 -97.97564282 79.05384965 -102.05859375 79.04882812 C-110.03907961 79.03817224 -118.01953509 79.02115269 -126 79 C-126.12435721 72.7744867 -126.21469608 66.54970936 -126.2746582 60.32324219 C-126.29967575 58.20885611 -126.33370092 56.09455541 -126.37719727 53.98046875 C-126.43841332 50.92686808 -126.46633792 47.87441861 -126.48828125 44.8203125 C-126.51408768 43.88760529 -126.5398941 42.95489807 -126.56648254 41.993927 C-126.57013634 33.28474646 -123.37144215 25.6718205 -117.1875 19.4375 C-87.33847876 -8.26551318 -37.01181582 -10.05951119 0 0 Z " fill="#798B7A" transform="translate(543,317)"/>
<path d="M0 0 C13.13144527 10.97285152 20.74647368 26.63568576 25.90625 42.65625 C26.13650879 43.36587891 26.36676758 44.07550781 26.60400391 44.80664062 C30.57266714 57.8860502 32.09479694 70.6748007 31.98486328 84.29248047 C31.9687571 86.65520911 31.98483267 89.01622825 32.00390625 91.37890625 C32.02659107 105.98964061 29.63268424 119.41867914 24.90625 133.28125 C24.55594727 134.30968018 24.20564453 135.33811035 23.84472656 136.39770508 C17.89432483 153.29934975 7.8588673 169.48747869 -8.40625 178.15625 C-9.46199219 178.73439453 -9.46199219 178.73439453 -10.5390625 179.32421875 C-20.30835423 184.17384923 -31.07844947 184.45563325 -41.78417969 184.29150391 C-42.95636047 184.28204239 -44.12854126 184.27258087 -45.33624268 184.26283264 C-49.16703951 184.22945956 -52.99749179 184.18126241 -56.828125 184.1328125 C-59.50139983 184.10661387 -62.17466973 184.08124607 -64.84796143 184.05697632 C-71.13754533 183.99807103 -77.42696226 183.92847384 -83.71638989 183.85490549 C-90.8845282 183.77158906 -98.05277147 183.70038936 -105.22104788 183.63013959 C-119.94960039 183.48553046 -134.67795962 183.32549567 -149.40625 183.15625 C-149.90125 189.59125 -149.90125 189.59125 -150.40625 196.15625 C-134.91439737 197.41996995 -119.43793706 197.23726476 -103.90625 197.15625 C-98.72916865 197.12953779 -93.55212462 197.10963231 -88.375 197.09375 C-87.20610229 197.08545166 -86.03720459 197.07715332 -84.83288574 197.06860352 C-78.60398389 197.0499942 -72.57281989 197.2381662 -66.40625 198.15625 C-63.7044106 200.8580894 -65.17095159 208.83929579 -65.15625 212.46875 C-65.1253125 214.31436523 -65.1253125 214.31436523 -65.09375 216.19726562 C-65.02371527 232.76923419 -69.5262862 245.75632176 -80.98828125 257.87109375 C-90.27759714 266.65017258 -101.51951935 272.08478131 -113.78125 275.34375 C-114.73386719 275.59785645 -115.68648437 275.85196289 -116.66796875 276.11376953 C-139.72065146 281.97235694 -164.16441013 281.70268008 -187.40625 277.15625 C-188.6746875 276.92421875 -189.943125 276.6921875 -191.25 276.453125 C-206.71786362 273.02329437 -222.6485064 264.89197029 -233.40625 253.15625 C-234.37884766 252.17398438 -234.37884766 252.17398438 -235.37109375 251.171875 C-244.29501373 241.73855578 -246.88943745 231.96205352 -246.69921875 219.328125 C-246.49102379 214.67385802 -245.27562223 210.68171561 -243.4765625 206.390625 C-240.48989139 197.36521011 -240.12409575 188.05783061 -240.1328125 178.62890625 C-240.11252918 176.26627126 -240.0916785 173.90364108 -240.0703125 171.54101562 C-240.04774806 167.87699264 -240.03124108 164.21316153 -240.02539062 160.54907227 C-239.96896 139.51032551 -238.42789791 122.09760077 -223.34375 105.90234375 C-214.32633256 97.77575989 -203.54805398 94.63841974 -191.6171875 94.87915039 C-190.69544739 94.88513748 -189.77370728 94.89112457 -188.82403564 94.89729309 C-186.84122756 94.9119512 -184.85846033 94.93348568 -182.87579346 94.96132088 C-179.73012752 95.00460977 -176.58487206 95.02767029 -173.43896484 95.04551697 C-165.6297315 95.09337642 -157.82086514 95.17024734 -150.01196289 95.25604248 C-143.39969097 95.32865109 -136.78770016 95.38534999 -130.17510986 95.41894341 C-127.08948783 95.44099014 -124.0047765 95.48645898 -120.91943359 95.53248596 C-119.01140029 95.54382982 -117.10335939 95.55397796 -115.1953125 95.56274414 C-114.34930481 95.58183838 -113.50329712 95.60093262 -112.63165283 95.62060547 C-102.9230963 95.60661288 -95.07573784 91.32613417 -87.09375 86.15625 C-86.41763672 85.73085938 -85.74152344 85.30546875 -85.04492188 84.8671875 C-78.25493679 80.54809455 -73.3737806 76.26167969 -68.84375 69.59375 C-68.35849854 68.87993164 -67.87324707 68.16611328 -67.37329102 67.43066406 C-58.94908865 54.70483277 -57.16049023 41.07966879 -56.9921875 26.046875 C-56.97282135 24.95405212 -56.9534552 23.86122925 -56.9335022 22.73529053 C-56.87438578 19.29235295 -56.82759612 15.84938068 -56.78125 12.40625 C-56.74300754 10.05206987 -56.70395231 7.69790279 -56.6640625 5.34375 C-56.56874141 -0.38529958 -56.48350164 -6.11442977 -56.40625 -11.84375 C-34.74415705 -14.39891436 -17.85780732 -13.68325496 0 0 Z " fill="#A2B098" transform="translate(663.40625,416.84375)"/>
<path d="M0 0 C0.70688965 0.37205566 1.4137793 0.74411133 2.14208984 1.12744141 C24.39707906 12.92508956 43.98516704 27.58737842 63 44 C63.5978833 44.50885742 64.1957666 45.01771484 64.81176758 45.54199219 C77.54894386 56.4946561 89.85896956 68.58465162 100 82 C100.99556091 83.25796476 101.99312838 84.51434292 102.9921875 85.76953125 C110.53095855 95.32583065 117.19519942 105.2553123 123.53588867 115.6394043 C125.11485826 118.18518668 126.7516353 120.68915585 128.38671875 123.19921875 C132.45217017 129.5782695 135.98117846 136.2163169 139.4375 142.9375 C139.76493195 143.57239349 140.09236389 144.20728699 140.42971802 144.86141968 C145.98470711 155.66945031 150.9043223 166.55408363 155 178 C155.48774902 179.31653564 155.48774902 179.31653564 155.98535156 180.65966797 C162.40385484 198.07299993 166.52137294 215.81616435 170 234 C170.2273584 235.13872559 170.4547168 236.27745117 170.68896484 237.45068359 C177.25205296 271.33558972 176.66061536 309.16891808 170 343 C169.7745752 344.18722656 169.54915039 345.37445312 169.31689453 346.59765625 C161.2349548 387.98947795 144.33098939 427.33966036 122 463 C121.09507812 464.46953125 121.09507812 464.46953125 120.171875 465.96875 C113.80767796 476.1743993 106.61766096 485.70340102 99 495 C98.28199219 495.90492188 97.56398438 496.80984375 96.82421875 497.7421875 C90.64460308 505.3311892 83.89836927 512.31648388 77 519.25 C76.08653809 520.17264648 75.17307617 521.09529297 74.23193359 522.04589844 C68.12835185 528.12220769 61.75255678 533.65900217 55 539 C53.81991588 539.95393665 52.64016358 540.90828413 51.4609375 541.86328125 C37.95138933 552.58541632 24.05008236 562.3448959 9.02929688 570.83837891 C7.12086644 571.93081298 5.23849306 573.05730104 3.359375 574.19921875 C-30.14819448 594.25602757 -67.85351571 604.63752707 -106 611 C-107.43448486 611.24411621 -107.43448486 611.24411621 -108.89794922 611.49316406 C-111.40989691 611.92004304 -113.92311778 612.3377291 -116.4375 612.75 C-117.12650391 612.86553223 -117.81550781 612.98106445 -118.52539062 613.10009766 C-156.19196076 619.06125753 -196.06663707 614.24793265 -233 606 C-234.48089111 605.67080566 -234.48089111 605.67080566 -235.99169922 605.33496094 C-247.90876516 602.63508321 -259.50091769 599.12516171 -271 595 C-271.6487207 594.76772705 -272.29744141 594.5354541 -272.96582031 594.29614258 C-293.47802152 586.7856697 -313.62871756 576.78450556 -332 565 C-333.29500137 564.20786627 -334.59198413 563.41896534 -335.890625 562.6328125 C-349.6356834 554.27604041 -361.84708853 544.5081702 -374 534 C-374.60513428 533.4838916 -375.21026855 532.9677832 -375.83374023 532.43603516 C-388.23582097 521.75985025 -400.06599283 510.01877781 -410 497 C-411.094361 495.61951135 -412.1909153 494.24075997 -413.2890625 492.86328125 C-420.68884237 483.53665281 -427.60625363 474.0411078 -434 464 C-434.63808594 463.01773437 -435.27617187 462.03546875 -435.93359375 461.0234375 C-447.41829738 442.92488168 -456.90813617 423.82418106 -465 404 C-465.35400879 403.15469727 -465.70801758 402.30939453 -466.07275391 401.43847656 C-494.49679315 333.33282457 -494.12981551 254.2714332 -470 185 C-469.45234079 183.33574662 -468.90760885 181.67052399 -468.3671875 180.00390625 C-457.01126297 145.83056629 -438.92477788 115.36462166 -417 87 C-416.29230469 86.07703125 -415.58460938 85.1540625 -414.85546875 84.203125 C-410.02870779 78.0295896 -404.77358038 72.28288321 -399.43652344 66.55419922 C-397.9880063 64.98702381 -396.55813231 63.40468925 -395.1328125 61.81640625 C-390.04228014 56.15538319 -384.85480573 50.87900477 -379 46 C-377.94880504 45.08921613 -376.89949169 44.17625826 -375.8515625 43.26171875 C-363.7618454 32.73399378 -351.48885919 23.42615173 -337.78076172 15.09912109 C-335.45977255 13.66656101 -333.20391349 12.14206446 -330.9375 10.625 C-308.48605698 -3.62882224 -283.63478253 -14.01701079 -258.5 -22.4375 C-257.75376373 -22.68902832 -257.00752747 -22.94055664 -256.23867798 -23.19970703 C-235.37891231 -30.18775297 -213.8920002 -34.76584721 -192 -37 C-191.10700195 -37.09168457 -190.21400391 -37.18336914 -189.29394531 -37.27783203 C-124.03923894 -43.74638813 -58.01865107 -30.69747475 0 0 Z M-240 -14 C-240.79841309 -13.79262207 -241.59682617 -13.58524414 -242.41943359 -13.37158203 C-253.50726385 -10.47983738 -264.01861084 -6.3865115 -274.58935547 -1.9921875 C-276.8438512 -1.06426866 -279.10751056 -0.16684085 -281.37890625 0.71875 C-311.32271913 12.48921502 -338.47325327 30.07050522 -363.16943359 50.49414062 C-364.82798806 51.85849964 -366.49754366 53.20685776 -368.17578125 54.546875 C-375.94830961 60.7820983 -382.76532719 67.46734863 -389.23828125 75.03125 C-390.97098102 76.9675708 -392.79518452 78.72083328 -394.6875 80.5 C-400.92220857 86.66263101 -405.87473132 93.91905769 -411 101 C-411.50611816 101.69335449 -412.01223633 102.38670898 -412.53369141 103.10107422 C-420.2742685 113.72661696 -427.38271778 124.6412378 -434 136 C-434.46293457 136.79277344 -434.92586914 137.58554687 -435.40283203 138.40234375 C-456.11632498 174.17694297 -467.98591559 214.05816811 -473 255 C-473.1038501 255.79865479 -473.2077002 256.59730957 -473.31469727 257.42016602 C-474.33183124 266.52383095 -474.18605758 275.69949753 -474.18530273 284.84741211 C-474.1874667 287.76756886 -474.2056077 290.68733277 -474.22460938 293.60742188 C-474.33608304 331.03317648 -467.14184277 366.32083411 -453 401 C-452.69594238 401.75313477 -452.39188477 402.50626953 -452.07861328 403.28222656 C-447.47738688 414.57399838 -441.83502022 425.30405851 -436 436 C-435.66387695 436.62084473 -435.32775391 437.24168945 -434.98144531 437.88134766 C-426.73306574 453.04041623 -417.31980332 467.85979053 -406.41381836 481.25341797 C-405.33219874 482.58961323 -404.26857256 483.94039244 -403.21313477 485.29736328 C-397.10664325 493.00910736 -390.35282649 499.92132647 -383.37036133 506.83544922 C-381.4318244 508.75562183 -379.50151789 510.68378456 -377.57226562 512.61328125 C-365.32449491 524.82708972 -352.62722267 536.1639603 -337.828125 545.234375 C-335.42165188 546.73675877 -333.07068787 548.28975524 -330.71875 549.875 C-317.22983953 558.89553433 -302.92135234 566.23048173 -288.19238281 572.98974609 C-286.42017517 573.80638253 -284.65769316 574.64410442 -282.8984375 575.48828125 C-274.19129018 579.62619801 -265.07437589 582.77495384 -256 586 C-254.98534668 586.36424072 -254.98534668 586.36424072 -253.95019531 586.73583984 C-239.92194126 591.74285847 -225.86882658 594.82299729 -211.1875 597.125 C-209.67869263 597.36295288 -209.67869263 597.36295288 -208.1394043 597.60571289 C-191.25529096 600.13906207 -174.56567478 601.35664076 -157.5 601.25 C-156.5920166 601.24656586 -155.6840332 601.24313171 -154.74853516 601.23959351 C-113.07852394 601.05600711 -74.77475456 594.48242983 -36 579 C-35.09894531 578.64566895 -34.19789063 578.29133789 -33.26953125 577.92626953 C-14.73577327 570.58599795 2.2705325 560.78079538 19 550 C19.7626416 549.51547363 20.5252832 549.03094727 21.31103516 548.53173828 C32.36394864 541.49671157 42.33511738 533.83465155 52 525 C53.09313469 524.01624293 54.18686658 523.03314898 55.28125 522.05078125 C61.37634389 516.55070041 67.24548548 510.85392072 73 505 C75.43085232 502.54584878 77.86874725 500.12164889 80.40234375 497.7734375 C106.77644826 472.82166528 127.98031384 434.99591036 140.24267578 401.05859375 C141.15433392 398.58048238 142.10828389 396.11979485 143.05859375 393.65625 C156.0465898 359.45258067 161.22184263 325.25101195 161.25 288.875 C161.25100708 287.96290771 161.25201416 287.05081543 161.25305176 286.11108398 C161.23632178 263.53349052 160.11583924 240.85432903 154 219 C153.77940918 218.21012695 153.55881836 217.42025391 153.33154297 216.60644531 C151.8876309 211.51553883 150.35395412 206.45702984 148.76025391 201.41113281 C148.27455837 199.87075737 147.79449286 198.3285879 147.32177734 196.78417969 C141.43433829 177.55217191 133.84836416 158.73003961 123.2109375 141.62890625 C121.18532836 138.37095149 119.46766275 135.02608132 117.8125 131.5625 C115.5826269 126.98506605 113.03770044 122.93228405 110.04296875 118.8203125 C107.98846146 115.98407108 106.01230833 113.10503815 104.04370117 110.20898438 C96.23069226 98.73215697 88.16863184 87.82232537 78.60986328 77.71142578 C76.80913549 75.7970943 75.0272108 73.86618013 73.24609375 71.93359375 C71.93518818 70.5179584 70.62399252 69.10259161 69.3125 67.6875 C68.70712402 67.02975586 68.10174805 66.37201172 67.47802734 65.69433594 C63.23390357 61.14320023 58.74312733 57.02430383 54 53 C52.52273438 51.71802734 52.52273438 51.71802734 51.015625 50.41015625 C45.26732878 45.53059971 39.39490725 41.09554787 33.05859375 36.9921875 C29.86597878 34.91270649 26.74539319 32.74866638 23.625 30.5625 C14.01298823 23.90184668 4.45280039 17.47984419 -6.1171875 12.40625 C-9.07230167 10.96473089 -11.93895728 9.4097826 -14.8125 7.8125 C-18.80802364 5.60807317 -22.78381276 3.7360771 -27 2 C-27.94359375 1.52433594 -28.8871875 1.04867187 -29.859375 0.55859375 C-62.21957368 -15.50075858 -103.55579364 -23.93564953 -139.52734375 -24.23828125 C-140.50199585 -24.2480751 -141.47664795 -24.25786896 -142.48083496 -24.26795959 C-175.84632617 -24.53347055 -207.64852843 -22.73554353 -240 -14 Z " fill="#5A6558" transform="translate(662,215)"/>
<path d="M0 0 C0.7273938 0.00182281 1.4547876 0.00364563 2.20422363 0.00552368 C16.83599706 0.06645302 31.19585479 1.2572918 45.6875 3.3125 C46.89857422 3.47878906 48.10964844 3.64507812 49.35742188 3.81640625 C83.44165964 8.60700708 117.54100878 18.33565532 147.6875 35.3125 C148.44901367 35.74111328 149.21052734 36.16972656 149.99511719 36.61132812 C173.79611496 50.16611418 195.34312388 66.76847318 215.05664062 85.74902344 C216.48745047 87.12071598 217.93755005 88.47222851 219.390625 89.8203125 C227.1451883 97.199655 233.37938295 105.70519803 239.6875 114.3125 C240.45779541 115.35567383 240.45779541 115.35567383 241.24365234 116.41992188 C262.37358668 145.15500144 279.31197516 177.14578515 289.6875 211.3125 C290.07035156 212.56256836 290.07035156 212.56256836 290.4609375 213.83789062 C294.87588875 228.47061273 297.67103011 243.17169816 299.6875 258.3125 C299.86482666 259.58665771 300.04215332 260.86081543 300.22485352 262.17358398 C301.67247366 273.03809915 302.12902333 283.79512065 302.125 294.75 C302.12610275 296.07269897 302.12610275 296.07269897 302.12722778 297.42211914 C302.03558833 339.74909991 290.84967938 380.1807594 272.6875 418.3125 C272.28837402 419.16376465 271.88924805 420.0150293 271.47802734 420.89208984 C264.92630449 434.79354991 257.38952289 447.65425393 248.6875 460.3125 C248.22956055 460.98812988 247.77162109 461.66375977 247.29980469 462.35986328 C242.38191277 469.6008072 237.12792518 476.27301877 231.12109375 482.6640625 C228.68372854 485.31660441 226.43211666 488.05838086 224.1875 490.875 C214.45683794 502.9053247 202.67446307 512.63536734 190.6875 522.3125 C189.9872168 522.89451172 189.28693359 523.47652344 188.56542969 524.07617188 C182.43375726 529.10538198 176.03648257 533.55249744 169.37402344 537.84960938 C167.68585023 538.93856418 166.00272901 540.03498929 164.3203125 541.1328125 C153.09402388 548.4232964 141.94374375 554.9236074 129.6875 560.3125 C128.35114502 560.901521 128.35114502 560.901521 126.98779297 561.50244141 C114.27798849 567.05963477 101.61147884 571.95681917 88.2265625 575.61376953 C85.53972674 576.35316607 82.86386578 577.12595403 80.1875 577.90234375 C68.7790499 581.17210475 57.47406667 583.8704752 45.6875 585.3125 C44.8521875 585.41546387 44.016875 585.51842773 43.15625 585.62451172 C8.12370131 589.70090939 -27.95419465 588.33948625 -62.3125 580.3125 C-63.15248535 580.11897949 -63.9924707 579.92545898 -64.85791016 579.72607422 C-83.88036104 575.29834237 -101.53661302 568.99881804 -119.23828125 560.703125 C-121.84506103 559.52394634 -124.4427012 558.48845182 -127.125 557.5 C-134.58316746 554.5721572 -141.43254831 550.38054782 -148.3125 546.3125 C-148.98120117 545.91756348 -149.64990234 545.52262695 -150.33886719 545.11572266 C-171.30170217 532.62515326 -190.67421232 517.1456162 -208.3125 500.3125 C-209.18519531 499.48105469 -210.05789063 498.64960937 -210.95703125 497.79296875 C-234.9825342 474.35795436 -253.93922937 444.5030848 -268.3125 414.3125 C-268.86421875 413.16394531 -269.4159375 412.01539063 -269.984375 410.83203125 C-298.70620763 349.17770562 -303.07614131 277.46048888 -283.02539062 212.65087891 C-282.38473372 210.5494365 -281.78490122 208.44254968 -281.203125 206.32421875 C-270.81347916 170.07338924 -250.48040277 134.98758358 -226.01171875 106.484375 C-223.48790332 103.53797974 -221.05318659 100.52582976 -218.625 97.5 C-212.52257983 90.03668613 -205.88084685 83.82627815 -198.3671875 77.80078125 C-195.56649108 75.51939555 -192.83247167 73.1819296 -190.1081543 70.81103516 C-183.74359861 65.27806859 -177.26822261 60.0969092 -170.3125 55.3125 C-169.76013672 54.92884277 -169.20777344 54.54518555 -168.63867188 54.14990234 C-159.84106652 48.05869534 -150.82509624 42.54858222 -141.41357422 37.45996094 C-139.29372828 36.30224819 -137.19588444 35.11043337 -135.09765625 33.9140625 C-122.15973097 26.67272927 -108.50901233 21.46051914 -94.58105469 16.484375 C-91.90973168 15.52662549 -89.25491457 14.53708038 -86.6015625 13.53125 C-75.6124765 9.54914218 -64.15628886 7.62604927 -52.6875 5.5625 C-51.85833069 5.41325073 -51.02916138 5.26400146 -50.17486572 5.11022949 C-33.44913376 2.1320769 -17.00977245 -0.09013076 0 0 Z M-38.3125 17.3125 C-39.570625 17.51117676 -40.82875 17.70985352 -42.125 17.91455078 C-76.28795556 23.42649346 -109.50631385 33.40291134 -139.3125 51.3125 C-140.80303072 52.18550171 -142.29392159 53.05788878 -143.78515625 53.9296875 C-172.93131972 71.16528007 -200.44226002 93.49009772 -221.3125 120.3125 C-222.08851563 121.2715625 -222.86453125 122.230625 -223.6640625 123.21875 C-230.99163518 132.43055566 -237.22352355 142.2492178 -243.3125 152.3125 C-243.92955811 153.32352783 -243.92955811 153.32352783 -244.55908203 154.35498047 C-251.19781442 165.32295756 -256.28870106 176.87959155 -261.21826172 188.69921875 C-262.14931062 190.92276793 -263.1014195 193.13481279 -264.06640625 195.34375 C-270.87868367 211.42285911 -274.49437337 228.32567077 -277.625 245.4375 C-277.75414795 246.13792419 -277.8832959 246.83834839 -278.01635742 247.55999756 C-280.57860964 261.58121107 -281.52146587 275.32426906 -281.5 289.5625 C-281.49939575 290.30616821 -281.4987915 291.04983643 -281.49816895 291.81604004 C-281.39458129 339.05959032 -269.9124616 382.2999888 -248.3125 424.3125 C-247.95333496 425.01407227 -247.59416992 425.71564453 -247.22412109 426.43847656 C-238.66529964 442.89607845 -227.05500294 458.00667372 -215.3125 472.3125 C-214.84714844 472.88081543 -214.38179688 473.44913086 -213.90234375 474.03466797 C-206.0390041 483.59333936 -197.74059176 492.28351798 -188.3125 500.3125 C-187.33152344 501.15941406 -186.35054688 502.00632812 -185.33984375 502.87890625 C-178.22100113 508.99957858 -170.97943904 514.88402432 -163.3125 520.3125 C-162.59658691 520.82151855 -161.88067383 521.33053711 -161.14306641 521.85498047 C-113.50384913 555.42097906 -56.56850773 573.33630645 1.71630859 572.72412109 C5.34631112 572.68715569 8.9752955 572.6831072 12.60546875 572.68359375 C30.20565767 572.63214673 46.76151033 571.21791935 64 567.5625 C65.25490234 567.29646973 66.50980469 567.03043945 67.80273438 566.75634766 C111.34819606 557.30959386 150.11978052 537.16613325 184.6875 509.3125 C185.96512207 508.30304321 185.96512207 508.30304321 187.26855469 507.27319336 C194.32532041 501.62840973 200.8274471 495.53093805 207.1875 489.125 C207.68951935 488.62182251 208.1915387 488.11864502 208.70877075 487.60021973 C216.33375522 479.94049003 223.39120857 472.10878949 229.6875 463.3125 C230.3475 462.4359375 231.0075 461.559375 231.6875 460.65625 C240.0300288 449.48802596 248.38486167 437.88817237 254.2890625 425.2265625 C255.6875 422.3125 255.6875 422.3125 257.3984375 419.3359375 C272.22125168 393.50188993 282.56886178 361.70037725 286.6875 332.3125 C286.78756348 331.66845215 286.88762695 331.0244043 286.99072266 330.36083984 C290.30696063 308.57811766 290.28808704 284.49692103 287.04248047 262.70361328 C286.63684007 259.97125973 286.27595698 257.23405679 285.91015625 254.49609375 C280.33229907 214.74452343 265.05917757 175.68137824 242.6875 142.3125 C242.22166504 141.61302246 241.75583008 140.91354492 241.27587891 140.19287109 C222.63916722 112.44263722 200.12874516 88.14206704 172.82519531 68.83007812 C171.00145932 67.53538387 169.19639416 66.22068241 167.3984375 64.890625 C109.34406667 22.91991891 32.11263488 6.17852626 -38.3125 17.3125 Z " fill="#596458" transform="translate(502.3125,209.6875)"/>
<path d="M0 0 C7.69075362 0.55247097 15.36506205 0.72695103 23.07275391 0.82348633 C24.48764547 0.84413173 25.90253192 0.8651297 27.31741333 0.88645935 C30.98984564 0.94089895 34.66232609 0.99064278 38.33483887 1.03930664 C42.10298803 1.09010302 45.8710698 1.14548134 49.63916016 1.20043945 C56.99457137 1.30706114 64.35003974 1.40870715 71.70556641 1.50708008 C71.37556641 2.49708008 71.04556641 3.48708008 70.70556641 4.50708008 C65.75556641 5.00208008 65.75556641 5.00208008 60.70556641 5.50708008 C60.70556641 6.16708008 60.70556641 6.82708008 60.70556641 7.50708008 C60.0798877 7.5624292 59.45420898 7.61777832 58.80957031 7.67480469 C55.98284443 7.92721907 53.15671834 8.18582201 50.33056641 8.44458008 C49.34572266 8.5315918 48.36087891 8.61860352 47.34619141 8.70825195 C46.40517578 8.79526367 45.46416016 8.88227539 44.49462891 8.97192383 C43.62531738 9.05047607 42.75600586 9.12902832 41.86035156 9.20996094 C39.66063725 9.39585841 39.66063725 9.39585841 37.70556641 10.50708008 C34.53240955 10.56591033 31.37589933 10.52804191 28.20361328 10.46801758 C25.07754418 10.43127632 22.69750511 10.50976718 19.70556641 11.50708008 C16.54957606 11.86201146 13.37717712 11.98040298 10.20556641 12.13208008 C8.81978394 12.19963501 8.81978394 12.19963501 7.40600586 12.26855469 C-1.87165334 12.64837885 -11.04236675 12.19437647 -20.29443359 11.50708008 C-20.29443359 12.16708008 -20.29443359 12.82708008 -20.29443359 13.50708008 C-21.01630859 13.56895508 -21.73818359 13.63083008 -22.48193359 13.69458008 C-26.13987237 14.75131795 -27.85465814 16.74593635 -30.29443359 19.50708008 C-30.93896484 20.18383789 -31.58349609 20.8605957 -32.24755859 21.55786133 C-42.83457921 32.9095001 -45.33611115 45.14215545 -45.54052734 60.33520508 C-45.57215546 62.02946629 -45.60415112 63.72372067 -45.63647461 65.41796875 C-45.65187286 66.29085541 -45.66727112 67.16374207 -45.68313599 68.06307983 C-46.12554584 92.48747931 -46.12554584 92.48747931 -47.35693359 102.69458008 C-48.15349303 109.37179438 -48.5405973 115.96761065 -48.60693359 122.69458008 C-48.6244165 123.5449585 -48.64189941 124.39533691 -48.65991211 125.27148438 C-48.65097386 135.30318171 -45.75301162 142.02207839 -38.78271484 149.22583008 C-19.39183806 167.00333721 12.79957571 170.46571256 37.80566406 169.41918945 C57.54208368 168.23430138 79.90029113 162.33581068 93.70556641 147.50708008 C94.8369091 146.0002918 95.92544193 144.45979703 96.95556641 142.88208008 C97.45572266 142.12668945 97.95587891 141.37129883 98.47119141 140.59301758 C100.74166651 136.75620206 100.82374308 133.67871168 100.80322266 129.30786133 C100.8 128.09936523 100.79677734 126.89086914 100.79345703 125.64575195 C100.78507813 124.38311523 100.77669922 123.12047852 100.76806641 121.81958008 C100.76129883 119.90822266 100.76129883 119.90822266 100.75439453 117.95825195 C100.74259514 114.80781444 100.72613238 111.65747059 100.70556641 108.50708008 C98.37261865 108.46466285 96.03854074 108.4661507 93.70556641 108.50708008 C93.37556641 108.83708008 93.04556641 109.16708008 92.70556641 109.50708008 C89.8913445 109.60827674 87.1022122 109.64676445 84.28759766 109.63989258 C83.01259651 109.64132767 83.01259651 109.64132767 81.71183777 109.64279175 C79.90693081 109.64347394 78.10202142 109.64161695 76.29711914 109.63745117 C73.54714348 109.63213628 70.79733361 109.6373777 68.04736328 109.64379883 C66.29410771 109.64313741 64.54085225 109.64185493 62.78759766 109.63989258 C61.55913872 109.64292892 61.55913872 109.64292892 60.30586243 109.64602661 C55.98450791 109.62849849 51.96645196 109.31381801 47.70556641 108.50708008 C46.27279697 108.37584951 44.83756438 108.26803382 43.40087891 108.19067383 C42.65322266 108.1487793 41.90556641 108.10688477 41.13525391 108.0637207 C40.37470703 108.0244043 39.61416016 107.98508789 38.83056641 107.94458008 C37.65494141 107.87980469 37.65494141 107.87980469 36.45556641 107.8137207 C34.53905992 107.70854657 32.62233308 107.60740083 30.70556641 107.50708008 C30.04556641 106.18708008 29.38556641 104.86708008 28.70556641 103.50708008 C30.80684568 101.40580081 35.39750196 102.2474533 38.30322266 102.19067383 C39.19252472 102.16980209 40.08182678 102.14893036 40.99807739 102.12742615 C43.92131469 102.06087172 46.84464026 102.00220295 49.76806641 101.94458008 C50.75876129 101.92373352 51.74945618 101.90288696 52.77017212 101.88140869 C65.81045261 101.60780962 78.84982095 101.40599523 91.89306641 101.38208008 C93.17125244 101.37748779 94.44943848 101.37289551 95.76635742 101.36816406 C113.59682038 101.39833405 113.59682038 101.39833405 115.70556641 103.50708008 C115.99187691 107.93751823 115.93758745 112.38102488 115.95556641 116.81958008 C115.98650391 118.66519531 115.98650391 118.66519531 116.01806641 120.5480957 C116.08810114 137.12006427 111.58553021 150.10715184 100.12353516 162.22192383 C90.83421926 171.00100266 79.59229705 176.43561139 67.33056641 179.69458008 C66.37794922 179.94868652 65.42533203 180.20279297 64.44384766 180.46459961 C41.39116495 186.32318702 16.94740628 186.05351016 -6.29443359 181.50708008 C-7.56287109 181.27504883 -8.83130859 181.04301758 -10.13818359 180.80395508 C-25.60604721 177.37412445 -41.53668999 169.24280037 -52.29443359 157.50708008 C-53.26703125 156.52481445 -53.26703125 156.52481445 -54.25927734 155.52270508 C-63.18319732 146.08938586 -65.77762104 136.3128836 -65.58740234 123.67895508 C-65.37920739 119.02468809 -64.16380582 115.03254569 -62.36474609 110.74145508 C-59.37807498 101.71604019 -59.01227935 92.40866069 -59.02099609 82.97973633 C-59.00071277 80.61710133 -58.9798621 78.25447115 -58.95849609 75.8918457 C-58.93593166 72.22782272 -58.91942467 68.56399161 -58.91357422 64.89990234 C-58.8571436 43.86115559 -57.3160815 26.44843085 -42.23193359 10.25317383 C-29.78590751 -0.96330533 -15.82838005 -1.24535908 0 0 Z " fill="#56655A" transform="translate(482.29443359375,512.492919921875)"/>
<path d="M0 0 C13.13144527 10.97285152 20.74647368 26.63568576 25.90625 42.65625 C26.25163818 43.72069336 26.25163818 43.72069336 26.60400391 44.80664062 C30.57266714 57.8860502 32.09479694 70.6748007 31.98486328 84.29248047 C31.9687571 86.65520911 31.98483267 89.01622825 32.00390625 91.37890625 C32.02659107 105.98964061 29.63268424 119.41867914 24.90625 133.28125 C24.55594727 134.30968018 24.20564453 135.33811035 23.84472656 136.39770508 C17.89432483 153.29934975 7.8588673 169.48747869 -8.40625 178.15625 C-9.46199219 178.73439453 -9.46199219 178.73439453 -10.5390625 179.32421875 C-22.86442366 185.44272241 -36.72342498 184.54795492 -50.08591843 183.8001852 C-61.66729344 183.15793096 -73.23118862 182.94444911 -84.828125 182.83984375 C-86.79494585 182.81919592 -88.76176306 182.79819792 -90.72857666 182.77687073 C-95.83120714 182.72245613 -100.93387206 182.67270188 -106.03656006 182.62402344 C-111.27310136 182.5732081 -116.50959449 182.51783995 -121.74609375 182.46289062 C-131.9661044 182.35629981 -142.18615741 182.25464769 -152.40625 182.15625 C-154.4733448 178.23907824 -155.8013243 175.63375869 -155.40625 171.15625 C-149.05143886 167.18449304 -140.44305622 168.01612805 -133.21728516 168.07348633 C-132.25696695 168.07742558 -131.29664875 168.08136484 -130.30723 168.08542347 C-121.25375122 168.13264294 -112.20177742 168.27126412 -103.14973068 168.43314171 C-98.35906529 168.51649627 -93.56819377 168.58639774 -88.77734375 168.65820312 C-82.75160761 168.74853121 -76.72605596 168.8430828 -70.70068359 168.95532227 C-65.76065056 169.0469798 -60.82058976 169.12299404 -55.88014603 169.18869972 C-54.01994338 169.21619928 -52.15981303 169.24923617 -50.29981613 169.28824425 C-34.30517482 169.61889315 -17.34859276 168.36165147 -4.83203125 156.87890625 C13.60212123 134.6064097 18.77705772 104.43713393 16.359375 76.44238281 C15.73012584 71.28212571 14.72281724 66.22731922 13.59375 61.15625 C13.38492188 60.14111328 13.38492188 60.14111328 13.171875 59.10546875 C10.15001231 44.47181888 4.90752617 30.97223469 -4.40625 19.15625 C-5.169375 18.145625 -5.9325 17.135 -6.71875 16.09375 C-8.26800156 14.06672847 -8.26800156 14.06672847 -10.40625 13.15625 C-10.40625 12.49625 -10.40625 11.83625 -10.40625 11.15625 C-10.97859375 10.8778125 -11.5509375 10.599375 -12.140625 10.3125 C-15.10566959 8.79930483 -17.9411651 7.08425702 -20.796875 5.375 C-28.24139556 1.89791854 -35.33819194 1.89997997 -43.40625 2.03125 C-44.99759766 2.04478516 -44.99759766 2.04478516 -46.62109375 2.05859375 C-49.21624468 2.08197349 -51.81127805 2.11783759 -54.40625 2.15625 C-54.40625 9.41625 -54.40625 16.67625 -54.40625 24.15625 C-54.73625 24.15625 -55.06625 24.15625 -55.40625 24.15625 C-56.26798931 12.13806423 -56.52527069 0.20378921 -56.40625 -11.84375 C-34.79519974 -14.55892792 -17.77082059 -13.61660279 0 0 Z " fill="#546056" transform="translate(663.40625,416.84375)"/>
<path d="M0 0 C4.11924011 0.83164469 6.3608032 2.71570445 9.4765625 5.5 C11.10680064 8.76047629 10.943916 10.87801035 10.4765625 14.5 C8.45350692 17.45354108 5.9519979 19.92323098 3.4765625 22.5 C-2.22037911 28.93164233 -5.71205182 35.38508456 -8.5234375 43.5 C-8.84441406 44.41265625 -9.16539062 45.3253125 -9.49609375 46.265625 C-15.4035063 65.93868259 -10.38249744 86.1491259 -1.26953125 103.94921875 C0.90129748 107.59592443 3.37461907 110.41929201 6.3515625 113.4375 C8.97164252 116.36210686 10.01105831 118.15754167 9.8515625 122.125 C8.94839876 126.3965203 7.06784627 128.89272671 3.57421875 131.4609375 C-0.08480613 133.27341537 -3.60803049 133.6858847 -7.5234375 132.5 C-13.68652757 128.53801353 -16.34730632 123.05235729 -19.5859375 116.625 C-20.11106934 115.59793945 -20.63620117 114.57087891 -21.17724609 113.51269531 C-32.53832327 90.84739965 -37.3140005 63.87791942 -29.84765625 39.12109375 C-15.27128425 -0.73818897 -15.27128425 -0.73818897 0 0 Z " fill="#53655B" transform="translate(284.5234375,441.5)"/>
<path d="M0 0 C6.51347454 4.42533123 10.67874577 10.34824434 14.6875 17 C15.25057861 17.92337158 15.81365723 18.84674316 16.39379883 19.7980957 C20.83340218 27.28793714 23.99480496 34.51793083 26 43 C26.17748779 43.71542969 26.35497559 44.43085938 26.5378418 45.16796875 C30.38734579 62.06806291 29.88481339 81.03975077 23 97 C22.46171794 98.3404149 21.92531428 99.6815854 21.390625 101.0234375 C16.95564106 111.86923518 11.87539581 124.13123854 3 132 C-0.60572704 133.20190901 -3.2102435 133.32670315 -7 133 C-10.37021602 130.9029767 -12.89129539 128.88046613 -14 125 C-13.66672658 119.54585238 -12.60500253 116.94495182 -8.875 113 C2.02327677 100.36632884 6.59189346 84.67720773 6.4375 68.1875 C6.42920166 67.0418457 6.42090332 65.89619141 6.41235352 64.71582031 C6.24179686 56.16735066 5.38856399 48.93004176 2 41 C1.50242187 39.82566406 1.00484375 38.65132813 0.4921875 37.44140625 C-2.84686682 30.22749586 -6.75073826 24.40387146 -12.1796875 18.59765625 C-14.46115437 15.34191489 -14.83622883 12.9441557 -15 9 C-11.85103951 2.70207901 -7.29738752 -1.4308603 0 0 Z " fill="#586A5F" transform="translate(731,441)"/>
<path d="M0 0 C4.24073317 2.37481058 7.5917752 4.73929459 10 9 C10.6701213 13.56284839 10.56096833 17.56641427 8.875 21.875 C4.93659401 26.33852679 0.59684971 28.75501418 -5.3125 29.3125 C-9.82549836 28.93004251 -11.62149063 28.00311944 -15 25 C-18.01046893 20.98301887 -19.34416594 17.3490747 -19 12.3125 C-18.2775969 8.23057178 -17.14915556 5.82616525 -14 3 C-9.29604823 -0.13931109 -5.60732263 -1.95037309 0 0 Z " fill="#F7F8EF" transform="translate(462,348)"/>
<path d="M0 0 C4.77514295 2.38757147 7.68132845 5.17716317 10 10 C10 16.82532093 7.9067572 20.62816165 3.4375 25.8125 C0.39631597 28.32478246 -3.12837656 28.34036234 -6.9375 28.27734375 C-10.42504073 27.8083752 -12.4041149 26.29403799 -15 24 C-18.04045153 19.74336785 -18.690367 15.60796801 -18.55859375 10.4765625 C-17.57054031 6.09596193 -14.58692339 3.51161445 -11 1 C-7.26947433 -0.24350856 -3.87447957 -0.52198871 0 0 Z " fill="#F8F8EE" transform="translate(559,632)"/>
<path d="M0 0 C1.32 0.33 2.64 0.66 4 1 C3.76120117 2.07217773 3.76120117 2.07217773 3.51757812 3.16601562 C3.01207953 5.93385889 2.81273387 8.5342321 2.71875 11.34375 C2.68136719 12.34277344 2.64398437 13.34179688 2.60546875 14.37109375 C2.57066406 15.40363281 2.53585937 16.43617188 2.5 17.5 C2.43082429 19.55221285 2.35803236 21.60430767 2.28125 23.65625 C2.23581055 25.01459961 2.23581055 25.01459961 2.18945312 26.40039062 C1.99931423 29.00940991 1.56022743 31.4472883 1 34 C0.01044011 39.60473419 -0.76466155 45.24050456 -1.5625 50.875 C-1.70107422 51.84953125 -1.83964844 52.8240625 -1.98242188 53.828125 C-2.32225285 56.21866011 -2.66142706 58.60928645 -3 61 C-6.875 59.25 -6.875 59.25 -8 57 C-7.51171875 55.2578125 -7.51171875 55.2578125 -6.6875 53.125 C-2.89613811 42.30721905 -2.62809356 31.08911868 -2.375 19.75 C-2.33670064 18.3111774 -2.29764261 16.87237479 -2.2578125 15.43359375 C-2.16315639 11.95591505 -2.07866937 8.47808148 -2 5 C-1.67 5 -1.34 5 -1 5 C-0.67 3.35 -0.34 1.7 0 0 Z " fill="#8F9885" transform="translate(609,419)"/>
<path d="M0 0 C1.39456452 0.00667256 2.78911118 0.01863093 4.18359375 0.03515625 C5.2499707 0.04192383 5.2499707 0.04192383 6.33789062 0.04882812 C8.09899388 0.06064761 9.86005411 0.07858362 11.62109375 0.09765625 C11.62109375 0.75765625 11.62109375 1.41765625 11.62109375 2.09765625 C5.46641737 3.13936641 -0.62637407 3.36977322 -6.859375 3.5625 C-9.09701632 3.64095989 -11.33464623 3.71974561 -13.57226562 3.79882812 C-17.0811923 3.91880617 -20.59015225 4.03590944 -24.09936523 4.1472168 C-27.49887071 4.25664854 -30.89781841 4.3775119 -34.296875 4.5 C-35.87350166 4.5454319 -35.87350166 4.5454319 -37.48197937 4.59178162 C-38.460121 4.62844437 -39.43826263 4.66510712 -40.44604492 4.70288086 C-41.30429367 4.73095322 -42.16254242 4.75902557 -43.04679871 4.78794861 C-45.54653482 5.11991759 -47.15959059 5.9458034 -49.37890625 7.09765625 C-50.36890625 7.09765625 -51.35890625 7.09765625 -52.37890625 7.09765625 C-52.04890625 6.10765625 -51.71890625 5.11765625 -51.37890625 4.09765625 C-49.72890625 4.09765625 -48.07890625 4.09765625 -46.37890625 4.09765625 C-46.37890625 3.43765625 -46.37890625 2.77765625 -46.37890625 2.09765625 C-45.53634277 2.10551147 -45.53634277 2.10551147 -44.67675781 2.11352539 C-34.12904348 2.19803548 -23.60413309 2.16964084 -13.06640625 1.66015625 C-12.20756836 1.62092041 -11.34873047 1.58168457 -10.46386719 1.54125977 C-6.5883558 1.33463457 -3.65112423 0.10552382 0 0 Z " fill="#838D7C" transform="translate(508.37890625,521.90234375)"/>
<path d="M0 0 C-1.175625 0.433125 -1.175625 0.433125 -2.375 0.875 C-5.09671632 1.84912254 -5.09671632 1.84912254 -7 4 C-7.57621094 4.10054688 -8.15242188 4.20109375 -8.74609375 4.3046875 C-12.18414419 5.36529925 -14.47073744 7.73358228 -17.0625 10.125 C-17.59166016 10.58648437 -18.12082031 11.04796875 -18.66601562 11.5234375 C-23.0900411 15.5644545 -25.70579745 19.5681705 -26.22436523 25.6171875 C-26.29458999 28.56412805 -26.26227021 31.49078674 -26.1875 34.4375 C-26.17396484 35.45521484 -26.16042969 36.47292969 -26.14648438 37.52148438 C-26.1113661 40.01488214 -26.06218559 42.50715512 -26 45 C-24.35 45 -22.7 45 -21 45 C-21 45.33 -21 45.66 -21 46 C-22.99954746 46.04254356 -25.00041636 46.04080783 -27 46 C-29.51385581 43.48614419 -28.2828728 36.80907506 -28.3125 33.4375 C-28.34150391 32.36435547 -28.37050781 31.29121094 -28.40039062 30.18554688 C-28.47279988 21.08983101 -26.39422954 14.74946451 -20 8 C-14.53758559 3.22038739 -7.57560451 -2.43022711 0 0 Z " fill="#A2B5A7" transform="translate(458,336)"/>
<path d="M0 0 C4.38729387 8.77458774 3.14606813 20.40987727 2.6875 30.0625 C2.65293701 30.8469751 2.61837402 31.6314502 2.58276367 32.43969727 C2.3021568 37.23668978 1.48728919 41.42886219 0 46 C1.32 46.33 2.64 46.66 4 47 C1.525 47.495 1.525 47.495 -1 48 C-1 47.34 -1 46.68 -1 46 C-1.78375 46.20625 -2.5675 46.4125 -3.375 46.625 C-4.24125 46.74875 -5.1075 46.8725 -6 47 C-6.66 46.34 -7.32 45.68 -8 45 C-5.69 45 -3.38 45 -1 45 C-0.67 30.15 -0.34 15.3 0 0 Z " fill="#61776C" transform="translate(400,548)"/>
<path d="M0 0 C0.66 0 1.32 0 2 0 C2.91835484 4.28565593 3.48805046 7.81485809 2 12 C-3.56282917 15.507001 -9.54792591 15.6616453 -16 16 C-12.56534063 13.71022708 -9.13998339 12.49864302 -5.27734375 11.09765625 C-2.69239322 10.08966633 -2.69239322 10.08966633 -1 7 C-13.54 7 -26.08 7 -39 7 C-39 6.67 -39 6.34 -39 6 C-26.46 5.67 -13.92 5.34 -1 5 C-0.67 3.35 -0.34 1.7 0 0 Z " fill="#596B62" transform="translate(497,405)"/>
<path d="M0 0 C0.33 0 0.66 0 1 0 C2.59983191 8.59909654 3.28043014 17.76931787 0 26 C-1.5 27.875 -1.5 27.875 -3 29 C-3.66 29 -4.32 29 -5 29 C-5.49080888 22.61948458 -4.11165676 17.98011969 -1.95703125 11.98828125 C-0.66717059 7.96075714 -0.28061504 4.20922562 0 0 Z " fill="#6B7C70" transform="translate(422,611)"/>
<path d="M0 0 C-2.36279767 2.36279767 -2.85369097 2.26092974 -6.06323242 2.31884766 C-7.32045357 2.34865219 -7.32045357 2.34865219 -8.60307312 2.37905884 C-9.51136368 2.39061005 -10.41965424 2.40216125 -11.35546875 2.4140625 C-12.75796623 2.44311172 -12.75796623 2.44311172 -14.188797 2.4727478 C-17.18827089 2.53263014 -20.18778589 2.57889119 -23.1875 2.625 C-25.19077212 2.6631853 -27.19402792 2.70223736 -29.19726562 2.7421875 C-36.7985171 2.88846496 -44.39714824 3.02454408 -52 3 C-51.67 3.99 -51.34 4.98 -51 6 C-52.65 6 -54.3 6 -56 6 C-56.66 4.68 -57.32 3.36 -58 2 C-55.82520971 -0.17479029 -50.76257268 0.73881312 -47.734375 0.68359375 C-46.78999573 0.66281265 -45.84561646 0.64203156 -44.87261963 0.62062073 C-42.861742 0.57724914 -40.85081272 0.53622094 -38.83984375 0.49731445 C-35.80456605 0.43855631 -32.76948838 0.37330012 -29.734375 0.30664062 C-19.8218565 0.09529871 -9.91514223 -0.07461227 0 0 Z " fill="#778271" transform="translate(569,614)"/>
<path d="M0 0 C0.66 0.33 1.32 0.66 2 1 C1.40832031 1.51949219 0.81664062 2.03898437 0.20703125 2.57421875 C-8.44606326 9.63524533 -8.44606326 9.63524533 -14 19 C-14.50700439 19.76272217 -15.01400879 20.52544434 -15.53637695 21.3112793 C-17.1920715 24.35284128 -17.35048357 26.08781344 -17.29296875 29.51953125 C-17.28330078 30.54111328 -17.27363281 31.56269531 -17.26367188 32.61523438 C-17.23853516 33.67033203 -17.21339844 34.72542969 -17.1875 35.8125 C-17.17396484 36.88693359 -17.16042969 37.96136719 -17.14648438 39.06835938 C-17.11122577 41.71275455 -17.06194366 44.35611748 -17 47 C-17.66 47 -18.32 47 -19 47 C-19.14700894 43.04206705 -19.2346378 39.08484908 -19.3125 35.125 C-19.35439453 34.01640625 -19.39628906 32.9078125 -19.43945312 31.765625 C-19.57496738 22.55065551 -17.48849 16.34269217 -11.71875 9.16015625 C-10.9865625 8.46792969 -10.254375 7.77570313 -9.5 7.0625 C-8.7678125 6.35222656 -8.035625 5.64195312 -7.28125 4.91015625 C-4.9492732 2.95752499 -2.7161267 1.37164399 0 0 Z " fill="#464D42" transform="translate(436,329)"/>
<path d="M0 0 C1.32 0.33 2.64 0.66 4 1 C3.113125 1.70125 2.22625 2.4025 1.3125 3.125 C-0.94595222 4.99021583 -2.81216451 6.88898272 -4.625 9.1875 C-6.88835587 11.86778984 -7.88462176 12.7171972 -11 14 C-12.03125 14.66 -13.0625 15.32 -14.125 16 C-18.4669533 18.53517099 -23.08210787 19.24796821 -28 20 C-25.36605507 17.97198433 -22.6995267 16.14794194 -19.84765625 14.44140625 C-19.07099609 13.97283203 -18.29433594 13.50425781 -17.49414062 13.02148438 C-15.87764205 12.05158523 -14.26045766 11.08282819 -12.64257812 10.11523438 C-5.28718571 6.11656532 -5.28718571 6.11656532 0 0 Z " fill="#8D9987" transform="translate(590,492)"/>
<path d="M0 0 C4.28669858 -0.02487594 8.57335795 -0.04294275 12.86010742 -0.05493164 C14.31584404 -0.05993417 15.77157571 -0.0667383 17.22729492 -0.07543945 C19.32992788 -0.087685 21.43249391 -0.09326923 23.53515625 -0.09765625 C24.797229 -0.10289307 26.05930176 -0.10812988 27.35961914 -0.11352539 C30.97963801 -0.00063499 34.42225225 0.45932502 38 1 C39.46610674 1.07066856 40.93457893 1.10903427 42.40234375 1.09765625 C43.14677734 1.09443359 43.89121094 1.09121094 44.65820312 1.08789062 C45.78645508 1.07532227 45.78645508 1.07532227 46.9375 1.0625 C47.71673828 1.05798828 48.49597656 1.05347656 49.29882812 1.04882812 C51.19925268 1.03716908 53.09963706 1.01923877 55 1 C55 1.66 55 2.32 55 3 C36.53405019 3.27363199 18.39958625 2.66064437 0 1 C0 0.67 0 0.34 0 0 Z " fill="#636F67" transform="translate(397,420)"/>
<path d="M0 0 C0.66 0.33 1.32 0.66 2 1 C1.19175781 1.59167969 0.38351562 2.18335938 -0.44921875 2.79296875 C-1.52880822 3.59092618 -2.60822616 4.38911572 -3.6875 5.1875 C-4.74324219 5.96480469 -5.79898437 6.74210937 -6.88671875 7.54296875 C-10.05055089 9.93668114 -10.05055089 9.93668114 -12.76953125 12.80078125 C-15 15 -15 15 -17 15 C-17.20625 15.845625 -17.4125 16.69125 -17.625 17.5625 C-19.33861355 21.84653389 -21.86932356 24.67242567 -25 28 C-25.33 27.34 -25.66 26.68 -26 26 C-20.61382196 13.87546533 -10.92543678 6.84660705 0 0 Z " fill="#5B6354" transform="translate(359,411)"/>
<path d="M0 0 C0.99 0.495 0.99 0.495 2 1 C2 2.32 2 3.64 2 5 C14.87 5 27.74 5 41 5 C40.67 5.66 40.34 6.32 40 7 C26.8 7.33 13.6 7.66 0 8 C0 5.36 0 2.72 0 0 Z " fill="#465A4F" transform="translate(417,388)"/>
<path d="M0 0 C4.1666604 0.47348414 6.92884715 1.04696841 10 4 C10 4.66 10 5.32 10 6 C2.41 6 -5.18 6 -13 6 C-13 5.67 -13 5.34 -13 5 C-12.22914063 4.97421875 -11.45828125 4.9484375 -10.6640625 4.921875 C-9.66117187 4.86515625 -8.65828125 4.8084375 -7.625 4.75 C-6.62726563 4.70359375 -5.62953125 4.6571875 -4.6015625 4.609375 C-1.8473523 4.27839115 -1.8473523 4.27839115 -0.6484375 1.953125 C-0.43445313 1.30859375 -0.22046875 0.6640625 0 0 Z " fill="#5D7164" transform="translate(489,389)"/>
<path d="M0 0 C2.33944736 0.28730055 4.6739143 0.61936779 7 1 C6.67 1.99 6.34 2.98 6 4 C-9.18 3.67 -24.36 3.34 -40 3 C-40 2.67 -40 2.34 -40 2 C-38.82381104 1.97494385 -37.64762207 1.9498877 -36.43579102 1.92407227 C-32.08785378 1.83017194 -27.74008284 1.72990952 -23.39233398 1.62768555 C-21.50760782 1.58427067 -19.62284064 1.54260057 -17.73803711 1.50268555 C-15.03486751 1.44514107 -12.33190564 1.38140196 -9.62890625 1.31640625 C-8.78099014 1.29969376 -7.93307404 1.28298126 -7.0594635 1.26576233 C-3.21707924 1.53590805 -3.21707924 1.53590805 0 0 Z " fill="#81927E" transform="translate(576,620)"/>
<path d="M0 0 C1.07314453 0.00322266 2.14628906 0.00644531 3.25195312 0.00976562 C4.37150391 0.01814453 5.49105469 0.02652344 6.64453125 0.03515625 C8.34125977 0.04192383 8.34125977 0.04192383 10.07226562 0.04882812 C12.86724052 0.06062127 15.66210945 0.07707975 18.45703125 0.09765625 C18.45703125 0.42765625 18.45703125 0.75765625 18.45703125 1.09765625 C11.58776155 1.76899849 4.8332303 2.20175758 -2.0703125 2.03515625 C-4.66588337 2.1007631 -7.01620764 2.51907768 -9.54296875 3.09765625 C-9.54296875 3.75765625 -9.54296875 4.41765625 -9.54296875 5.09765625 C-10.67734375 5.38640625 -11.81171875 5.67515625 -12.98046875 5.97265625 C-14.15609375 6.34390625 -15.33171875 6.71515625 -16.54296875 7.09765625 C-16.87296875 7.75765625 -17.20296875 8.41765625 -17.54296875 9.09765625 C-19.19296875 9.09765625 -20.84296875 9.09765625 -22.54296875 9.09765625 C-20.07544584 6.24666694 -17.47364932 4.97588456 -14.04296875 3.47265625 C-13.08390625 3.04726563 -12.12484375 2.621875 -11.13671875 2.18359375 C-7.18051066 0.52722952 -4.26578815 -0.02257031 0 0 Z " fill="#435346" transform="translate(453.54296875,485.90234375)"/>
<path d="M0 0 C-1.175625 0.433125 -1.175625 0.433125 -2.375 0.875 C-5.09671632 1.84912254 -5.09671632 1.84912254 -7 4 C-7.61359375 4.13277344 -8.2271875 4.26554687 -8.859375 4.40234375 C-11.65909176 5.1840165 -13.11844656 6.60857601 -15.25 8.5625 C-15.95640625 9.20316406 -16.6628125 9.84382813 -17.390625 10.50390625 C-17.92171875 10.99761719 -18.4528125 11.49132812 -19 12 C-19.33 10.68 -19.66 9.36 -20 8 C-7.38327806 -2.36852947 -7.38327806 -2.36852947 0 0 Z " fill="#8EA192" transform="translate(458,336)"/>
<path d="M0 0 C0.99 0.33 1.98 0.66 3 1 C3 1.66 3 2.32 3 3 C5.97 3 8.94 3 12 3 C12 3.33 12 3.66 12 4 C8.37 4 4.74 4 1 4 C1 11.26 1 18.52 1 26 C0.67 26 0.34 26 0 26 C-0.19583915 21.85451585 -0.38027842 17.7086033 -0.5625 13.5625 C-0.61857422 12.37849609 -0.67464844 11.19449219 -0.73242188 9.97460938 C-0.78076172 8.84990234 -0.82910156 7.72519531 -0.87890625 6.56640625 C-0.9260376 5.52427979 -0.97316895 4.48215332 -1.02172852 3.40844727 C-1 1 -1 1 0 0 Z " fill="#6C7467" transform="translate(608,415)"/>
<path d="M0 0 C0.66 0 1.32 0 2 0 C1.34 11.88 0.68 23.76 0 36 C-0.33 36 -0.66 36 -1 36 C-1.02468447 31.19450253 -1.04285255 26.38904182 -1.05493164 21.58349609 C-1.05996621 19.94807289 -1.06679427 18.3126542 -1.07543945 16.67724609 C-1.08754335 14.32909025 -1.093237 11.98099381 -1.09765625 9.6328125 C-1.10281754 8.89942657 -1.10797882 8.16604065 -1.11329651 7.41043091 C-1.11387171 2.22774341 -1.11387171 2.22774341 0 0 Z " fill="#5F7364" transform="translate(409,542)"/>
<path d="M0 0 C1 3 1 3 -0.1796875 5.41015625 C-0.73914063 6.28542969 -1.29859375 7.16070313 -1.875 8.0625 C-2.42929687 8.94035156 -2.98359375 9.81820312 -3.5546875 10.72265625 C-4.03164063 11.47417969 -4.50859375 12.22570312 -5 13 C-5.33 13.66 -5.66 14.32 -6 15 C-6.66 15 -7.32 15 -8 15 C-7.74279326 13.41439607 -7.46861201 11.83154076 -7.1875 10.25 C-6.96126953 8.92742188 -6.96126953 8.92742188 -6.73046875 7.578125 C-5.93021173 4.75368844 -4.99272526 3.14230028 -3 1 C-2.01 0.67 -1.02 0.34 0 0 Z " fill="#637166" transform="translate(425,513)"/>
<path d="M0 0 C0.9075 0.185625 1.815 0.37125 2.75 0.5625 C8.17375579 1.36767612 13.58253845 0.57821839 19 0 C19 0.33 19 0.66 19 1 C22.96 1.33 26.92 1.66 31 2 C31 2.33 31 2.66 31 3 C20.44 3 9.88 3 -1 3 C-0.67 2.01 -0.34 1.02 0 0 Z " fill="#6F7668" transform="translate(512,596)"/>
<path d="M0 0 C-2.45249412 1.61163899 -4.43688792 2.89488575 -7.34375 3.4375 C-10.32059392 4.06789048 -12.61741462 5.1610556 -15.3125 6.5625 C-16.19550781 7.01753906 -17.07851563 7.47257812 -17.98828125 7.94140625 C-18.65214844 8.29074219 -19.31601562 8.64007813 -20 9 C-20 8.01 -20 7.02 -20 6 C-17.8967433 5.01888025 -15.79236311 4.04016866 -13.6875 3.0625 C-11.92986328 2.24458984 -11.92986328 2.24458984 -10.13671875 1.41015625 C-4.14121835 -1.2852057 -4.14121835 -1.2852057 0 0 Z " fill="#434D42" transform="translate(459,321)"/>
<path d="M0 0 C0.66 0 1.32 0 2 0 C0.50079488 3.11373372 -1.08152136 6.12228205 -3 9 C-3.66 9 -4.32 9 -5 9 C-5.2475 9.7425 -5.495 10.485 -5.75 11.25 C-7.09147301 14.20124062 -8.60905526 15.84814974 -11 18 C-11.66 17.67 -12.32 17.34 -13 17 C-11.58435393 15.10339726 -10.16751545 13.20770483 -8.75 11.3125 C-7.56664062 9.72888672 -7.56664062 9.72888672 -6.359375 8.11328125 C-5.58078125 7.08589844 -4.8021875 6.05851562 -4 5 C-3.28328125 4.04480469 -2.5665625 3.08960938 -1.828125 2.10546875 C-1.22484375 1.41066406 -0.6215625 0.71585937 0 0 Z " fill="#565C4D" transform="translate(249,297)"/>
<path d="M0 0 C-5.75 5 -5.75 5 -8 5 C-8.2475 5.5775 -8.495 6.155 -8.75 6.75 C-10.16683317 9.3002997 -11.87627537 11.01785701 -14 13 C-14.25 10.75 -14.25 10.75 -14 8 C-12.1875 5.875 -12.1875 5.875 -10 4 C-9.505 3.46375 -9.01 2.9275 -8.5 2.375 C-5.50676347 -0.36880016 -3.94093855 -1.31364618 0 0 Z " fill="#303B36" transform="translate(446,339)"/>
<path d="M0 0 C0 0.99 0 1.98 0 3 C-1.42774819 4.22852751 -2.86332331 5.44984903 -4.34765625 6.609375 C-6.93758585 8.78907934 -8.87301936 11.36926078 -11 14 C-12.31543863 15.35099103 -13.64175118 16.69205669 -15 18 C-15.66 17.67 -16.32 17.34 -17 17 C-11.91160029 10.3803689 -7.05495408 4.55592403 0 0 Z " fill="#495646" transform="translate(427,497)"/>
<path d="M0 0 C0.66 0.33 1.32 0.66 2 1 C-1.4524818 6.61946506 -4.67267854 11.0679294 -10 15 C-10.66 14.67 -11.32 14.34 -12 14 C-12 13.34 -12 12.68 -12 12 C-10.68 11.34 -9.36 10.68 -8 10 C-8.33 9.34 -8.66 8.68 -9 8 C-8.13375 7.9071875 -8.13375 7.9071875 -7.25 7.8125 C-3.56088769 6.48032055 -1.71090993 3.42181986 0 0 Z " fill="#9EADA0" transform="translate(573,464)"/>
<path d="M0 0 C1.32 0.33 2.64 0.66 4 1 C3.113125 1.70125 2.22625 2.4025 1.3125 3.125 C-1.90375955 5.79121041 -4.41236896 8.72740781 -7 12 C-8.32 11.01 -9.64 10.02 -11 9 C-10.37351562 8.60167969 -9.74703125 8.20335937 -9.1015625 7.79296875 C-8.28429687 7.26316406 -7.46703125 6.73335938 -6.625 6.1875 C-5.81289063 5.66542969 -5.00078125 5.14335937 -4.1640625 4.60546875 C-1.76649759 3.01562803 -1.76649759 3.01562803 0 0 Z " fill="#909987" transform="translate(590,492)"/>
<path d="M0 0 C0.33 0 0.66 0 1 0 C1.2361959 6.40353322 0.823321 11.84629161 -1 18 C-1.66 18 -2.32 18 -3 18 C-3.36517527 11.42684522 -2.13619737 6.20514474 0 0 Z " fill="#9BA59A" transform="translate(420,622)"/>
<path d="M0 0 C0 0.33 0 0.66 0 1 C-6.8165735 2.7879537 -12.96517526 3.23668569 -20 3 C-19.67 2.34 -19.34 1.68 -19 1 C-12.74133095 -0.39081535 -6.38034555 -0.09429082 0 0 Z " fill="#899384" transform="translate(541,520)"/>
<path d="M0 0 C1.32 0.33 2.64 0.66 4 1 C3.34 5.62 2.68 10.24 2 15 C1.34 15 0.68 15 0 15 C0 10.05 0 5.1 0 0 Z " fill="#7C897A" transform="translate(609,419)"/>
<path d="M0 0 C0.33 0 0.66 0 1 0 C2.2073352 4.02445068 2.0806341 6.46547452 0.3125 10.1875 C-1.35389826 13.22417698 -2.93247486 15.24712849 -6 17 C-6.66 16.67 -7.32 16.34 -8 16 C-6.8553125 14.824375 -6.8553125 14.824375 -5.6875 13.625 C-2.2953093 9.61604735 -1.22013702 5.01942546 0 0 Z " fill="#839585" transform="translate(569,642)"/>
<path d="M0 0 C0.33 0 0.66 0 1 0 C1 2.64 1 5.28 1 8 C6.94 8 12.88 8 19 8 C19 8.33 19 8.66 19 9 C13.06 9.33 7.12 9.66 1 10 C1 10.99 1 11.98 1 13 C0.34 13 -0.32 13 -1 13 C-0.67 8.71 -0.34 4.42 0 0 Z " fill="#9BA28D" transform="translate(511,606)"/>
<path d="M0 0 C6.27 0 12.54 0 19 0 C19 0.33 19 0.66 19 1 C13.06 1 7.12 1 1 1 C1 1.66 1 2.32 1 3 C-1.64738916 4.4606285 -2.89448334 5 -6 5 C-5.67 4.01 -5.34 3.02 -5 2 C-3.35 2 -1.7 2 0 2 C0 1.34 0 0.68 0 0 Z " fill="#778474" transform="translate(462,524)"/>
<path d="M0 0 C1.37432457 3.81756824 0.67975039 7.07255329 0 11 C-3.875 9.25 -3.875 9.25 -5 7 C-3.88292386 3.27641285 -3.3270336 2.2180224 0 0 Z " fill="#909883" transform="translate(606,469)"/>
<path d="M0 0 C1.32 0 2.64 0 4 0 C3.125 3.875 3.125 3.875 2 5 C-0.18019479 5.39666227 -2.3696463 5.74315237 -4.5625 6.0625 C-5.76003906 6.23910156 -6.95757813 6.41570313 -8.19140625 6.59765625 C-9.58166016 6.79681641 -9.58166016 6.79681641 -11 7 C-11 6.34 -11 5.68 -11 5 C-7.7 4.34 -4.4 3.68 -1 3 C-0.67 2.01 -0.34 1.02 0 0 Z " fill="#8C9382" transform="translate(554,513)"/>
<path d="M0 0 C0.9590625 0.4640625 0.9590625 0.4640625 1.9375 0.9375 C5.92049104 2.31935403 9.81650849 2.6536543 14 3 C14 2.34 14 1.68 14 1 C14.99 1.33 15.98 1.66 17 2 C12.91821657 4.96856976 10.02104714 5.71729245 5 5 C2.0625 2.5 2.0625 2.5 0 0 Z " fill="#6A7568" transform="translate(719,569)"/>
<path d="M0 0 C0.33 0 0.66 0 1 0 C1.4375 2.0625 1.4375 2.0625 1 5 C-1.12080183 7.57260172 -3.50627561 9.79254499 -6 12 C-6.66 11.67 -7.32 11.34 -8 11 C-6.69144447 9.16384919 -5.37805538 7.33114211 -4.0625 5.5 C-3.33160156 4.4790625 -2.60070312 3.458125 -1.84765625 2.40625 C-1.23792969 1.6121875 -0.62820313 0.818125 0 0 Z " fill="#E4E5D6" transform="translate(277,335)"/>
<path d="M0 0 C1 2 1 2 0.5 4.5 C-1 7 -1 7 -4.625 8.3125 C-5.73875 8.539375 -6.8525 8.76625 -8 9 C-6.4169423 4.7257442 -3.49431596 2.73468206 0 0 Z " fill="#8D9C89" transform="translate(360,429)"/>
<path d="M0 0 C0.33 0.66 0.66 1.32 1 2 C1.66 2 2.32 2 3 2 C3 2.66 3 3.32 3 4 C-2.61 3.67 -8.22 3.34 -14 3 C-14 2.67 -14 2.34 -14 2 C-13.11248047 1.90912109 -13.11248047 1.90912109 -12.20703125 1.81640625 C-8.09021792 1.37987629 -4.04455467 0.91328654 0 0 Z " fill="#ABA79D" transform="translate(542,140)"/>
<path d="M0 0 C2.53819039 2.53819039 2.36748464 3.78835455 2.625 7.3125 C2.69976562 8.25738281 2.77453125 9.20226562 2.8515625 10.17578125 C2.98900528 12.79081099 3.02861153 15.38204485 3 18 C-0.2828117 12.30979306 -0.10993482 6.37621985 0 0 Z " fill="#656F60" transform="translate(316,512)"/>
<path d="M0 0 C0.66 0.99 1.32 1.98 2 3 C1.09515208 4.15518918 0.1755794 5.29885406 -0.75 6.4375 C-1.26046875 7.07558594 -1.7709375 7.71367187 -2.296875 8.37109375 C-4.19667629 10.18810554 -5.43586908 10.60423197 -8 11 C-7.59007812 10.45730469 -7.18015625 9.91460937 -6.7578125 9.35546875 C-6.21898437 8.64003906 -5.68015625 7.92460937 -5.125 7.1875 C-4.59132813 6.47980469 -4.05765625 5.77210938 -3.5078125 5.04296875 C-2.29185219 3.39543703 -1.13583859 1.70375789 0 0 Z " fill="#59675A" transform="translate(574,466)"/>
<path d="M0 0 C0.66 0.33 1.32 0.66 2 1 C1.67 3.97 1.34 6.94 1 10 C0.34 9.67 -0.32 9.34 -1 9 C-1.59355614 6.35139573 -1.74209269 3.70802678 -2 1 C-1.34 0.67 -0.68 0.34 0 0 Z " fill="#73816E" transform="translate(510,587)"/>
<path d="M0 0 C0 3.69942045 -0.85819127 4.40155392 -3.25 7.125 C-3.85328125 7.82882812 -4.4565625 8.53265625 -5.078125 9.2578125 C-7.10469267 11.09490433 -8.32969429 11.6100881 -11 12 C-7.49102731 7.81576108 -3.91939465 3.80411834 0 0 Z " fill="#DCDBCE" transform="translate(301,308)"/>
<path d="M0 0 C0 0.66 0 1.32 0 2 C-2.1875 3.5078125 -2.1875 3.5078125 -5 5.125 C-5.928125 5.66382813 -6.85625 6.20265625 -7.8125 6.7578125 C-8.8953125 7.37269531 -8.8953125 7.37269531 -10 8 C-9.62317841 5.54291673 -9.4083229 4.33157047 -7.44140625 2.734375 C-2.22222222 0 -2.22222222 0 0 0 Z " fill="#86877B" transform="translate(700,810)"/>
<path d="M0 0 C0.66 0.33 1.32 0.66 2 1 C-0.97 4.3 -3.94 7.6 -7 11 C-7.66 10.67 -8.32 10.34 -9 10 C-6.03 6.7 -3.06 3.4 0 0 Z " fill="#898A7F" transform="translate(781,740)"/>
<path d="M0 0 C0.68359375 1.734375 0.68359375 1.734375 1 4 C-0.21484375 6.140625 -0.21484375 6.140625 -1.9375 8.25 C-2.50339844 8.95640625 -3.06929688 9.6628125 -3.65234375 10.390625 C-4.31943359 11.18726563 -4.31943359 11.18726563 -5 12 C-5.33 11.34 -5.66 10.68 -6 10 C-4.78515625 7.6171875 -4.78515625 7.6171875 -3.0625 4.875 C-2.21365234 3.50988281 -2.21365234 3.50988281 -1.34765625 2.1171875 C-0.90292969 1.41851562 -0.45820313 0.71984375 0 0 Z " fill="#616556" transform="translate(339,427)"/>
<path d="M0 0 C0.66 0.33 1.32 0.66 2 1 C0.02 5.29 -1.96 9.58 -4 14 C-4.66 12.68 -5.32 11.36 -6 10 C-5.38125 9.0925 -4.7625 8.185 -4.125 7.25 C-2.55610389 4.85051183 -1.19556179 2.59038388 0 0 Z " fill="#A8A395" transform="translate(178,336)"/>
<path d="M0 0 C0.33 0 0.66 0 1 0 C1.24959784 2.0809844 1.47394907 4.16500812 1.6875 6.25 C1.81511719 7.41015625 1.94273437 8.5703125 2.07421875 9.765625 C2 13 2 13 -1 17 C-0.67 11.39 -0.34 5.78 0 0 Z " fill="#7F8571" transform="translate(607,446)"/>
<path d="M0 0 C0 0.99 0 1.98 0 3 C-3.33333333 6 -3.33333333 6 -6 6 C-6.33 6.99 -6.66 7.98 -7 9 C-7.33 8.01 -7.66 7.02 -8 6 C-7.0479279 4.99403703 -6.08812654 3.99538437 -5.125 3 C-4.59132813 2.443125 -4.05765625 1.88625 -3.5078125 1.3125 C-2 0 -2 0 0 0 Z " fill="#4C5343" transform="translate(348,420)"/>
<path d="M0 0 C0.66 0.66 1.32 1.32 2 2 C1.38125 2.2475 0.7625 2.495 0.125 2.75 C-2.39578467 4.23281451 -2.7852998 5.40863958 -4 8 C-4.99 8.66 -5.98 9.32 -7 10 C-5.6062718 5.56541027 -3.39417765 3.12621626 0 0 Z " fill="#89897C" transform="translate(793,726)"/>
<path d="M0 0 C0.99 0 1.98 0 3 0 C1.34832443 3.5786304 -0.78286492 6.74820188 -3 10 C-3.33 9.34 -3.66 8.68 -4 8 C-3.22265625 6.0546875 -3.22265625 6.0546875 -2.0625 3.875 C-1.49208984 2.78832031 -1.49208984 2.78832031 -0.91015625 1.6796875 C-0.60980469 1.12539063 -0.30945313 0.57109375 0 0 Z " fill="#575D4E" transform="translate(332,440)"/>
<path d="M0 0 C0.66 0.33 1.32 0.66 2 1 C-0.625 5.875 -0.625 5.875 -4 7 C-4 5.68 -4 4.36 -4 3 C-2 1.25 -2 1.25 0 0 Z " fill="#94A79B" transform="translate(442,341)"/>
<path d="M0 0 C0.66 0 1.32 0 2 0 C0.6062718 4.43458973 -1.60582235 6.87378374 -5 10 C-5 8.68 -5 7.36 -5 6 C-4.34 6 -3.68 6 -3 6 C-2.690625 5.38125 -2.38125 4.7625 -2.0625 4.125 C-1.375 2.75 -0.6875 1.375 0 0 Z " fill="#A5A092" transform="translate(202,296)"/>
<path d="M0 0 C1.41805831 0.28482368 2.83440379 0.57818144 4.25 0.875 C5.03890625 1.03742187 5.8278125 1.19984375 6.640625 1.3671875 C8.96831144 1.99150075 10.89031952 2.84838542 13 4 C8.62014153 5.45995282 5.67993018 3.7957564 1.625 1.875 C1.08875 1.58625 0.5525 1.2975 0 1 C0 0.67 0 0.34 0 0 Z " fill="#3D4F44" transform="translate(371,588)"/>
<path d="M0 0 C-0.5625 1.9375 -0.5625 1.9375 -2 4 C-5.625 4.75 -5.625 4.75 -9 5 C-4.16129032 0 -4.16129032 0 0 0 Z " fill="#818B7C" transform="translate(581,502)"/>
<path d="M0 0 C0.99 0.33 1.98 0.66 3 1 C3 1.66 3 2.32 3 3 C5.97 3 8.94 3 12 3 C12 3.33 12 3.66 12 4 C8.04 4 4.08 4 0 4 C0 2.68 0 1.36 0 0 Z " fill="#5C6C64" transform="translate(608,415)"/>
<path d="M0 0 C2.29013653 3.4352048 2.17842973 4.985331 2 9 C1.01 9.33 0.02 9.66 -1 10 C-0.67 6.7 -0.34 3.4 0 0 Z " fill="#788273" transform="translate(498,395)"/>
<path d="M0 0 C0.66 0.99 1.32 1.98 2 3 C0.35830472 5.02054804 -1.30911778 7.02043058 -3 9 C-3.33 9 -3.66 9 -4 9 C-4.25 6.75 -4.25 6.75 -4 4 C-2 1.6875 -2 1.6875 0 0 Z " fill="#35453D" transform="translate(436,343)"/>
<path d="M0 0 C-3.26545761 1.88391785 -6.28111761 2.49287967 -10 3 C-10 2.01 -10 1.02 -10 0 C-6.42355152 -1.2380014 -3.66305234 -0.74926071 0 0 Z " fill="#A49E97" transform="translate(402,156)"/>
<path d="M0 0 C0.66 0.33 1.32 0.66 2 1 C1.67 1.66 1.34 2.32 1 3 C0.34 3 -0.32 3 -1 3 C-1 4.32 -1 5.64 -1 7 C-2.65 7 -4.3 7 -6 7 C-4.02 4.69 -2.04 2.38 0 0 Z " fill="#82837A" transform="translate(761,761)"/>
<path d="M0 0 C2.3125 -0.3125 2.3125 -0.3125 5 0 C6.875 2.375 6.875 2.375 8 5 C7.67 5.66 7.34 6.32 7 7 C5.83040013 6.02433888 4.66438823 5.044375 3.5 4.0625 C2.8503125 3.51722656 2.200625 2.97195313 1.53125 2.41015625 C1.0259375 1.94480469 0.520625 1.47945312 0 1 C0 0.67 0 0.34 0 0 Z " fill="#899886" transform="translate(560,632)"/>
<path d="M0 0 C0 0.99 0 1.98 0 3 C0.31421071 5.00309329 0.6451046 7.00371336 1 9 C0.01 9.33 -0.98 9.66 -2 10 C-2 7.03 -2 4.06 -2 1 C-1.34 0.67 -0.68 0.34 0 0 Z " fill="#5C6558" transform="translate(319,487)"/>
<path d="M0 0 C-0.33 1.32 -0.66 2.64 -1 4 C-2.98 4 -4.96 4 -7 4 C-7 3.34 -7 2.68 -7 2 C-4.35261084 0.5393715 -3.10551666 0 0 0 Z " fill="#838988" transform="translate(9,1020)"/>
<path d="M0 0 C2.31 0.33 4.62 0.66 7 1 C6.67 1.99 6.34 2.98 6 4 C3.69 3.34 1.38 2.68 -1 2 C-0.67 1.34 -0.34 0.68 0 0 Z " fill="#6F8272" transform="translate(576,620)"/>
<path d="M0 0 C0.66 0 1.32 0 2 0 C1.54965877 1.62723299 1.08944646 3.25173664 0.625 4.875 C0.36976563 5.77992188 0.11453125 6.68484375 -0.1484375 7.6171875 C-1 10 -1 10 -3 12 C-2.69230293 10.18667846 -2.37870936 8.37435655 -2.0625 6.5625 C-1.80146484 5.04849609 -1.80146484 5.04849609 -1.53515625 3.50390625 C-1 1 -1 1 0 0 Z " fill="#6C786A" transform="translate(814,612)"/>
<path d="M0 0 C2.4375 0.375 2.4375 0.375 5 1 C5.33 1.66 5.66 2.32 6 3 C2.04 3 -1.92 3 -6 3 C-6 2.67 -6 2.34 -6 2 C-4.02 2 -2.04 2 0 2 C0 1.34 0 0.68 0 0 Z " fill="#DDE0D9" transform="translate(594,612)"/>
<path d="M0 0 C-4.30769231 3.07692308 -4.30769231 3.07692308 -7.8125 2.6875 C-8.534375 2.460625 -9.25625 2.23375 -10 2 C-6.19832777 -0.53444815 -4.31588991 -1.33941411 0 0 Z " fill="#4B5B4E" transform="translate(459,321)"/>
<path d="M0 0 C-0.33 0.99 -0.66 1.98 -1 3 C-3.64 3 -6.28 3 -9 3 C-9 2.34 -9 1.68 -9 1 C-5.92677456 0.08941469 -3.19902639 -0.08886184 0 0 Z " fill="#797B6F" transform="translate(555,861)"/>
<path d="M0 0 C1.26339822 3.79019466 0.49719015 5.37522384 -1 9 C-1.99 9.495 -1.99 9.495 -3 10 C-2.49287967 6.28111761 -1.88391785 3.26545761 0 0 Z " fill="#575F51" transform="translate(327,451)"/>
<path d="M0 0 C-1 2 -1 2 -3.3125 3.25 C-6 4 -6 4 -8.3125 3.125 C-8.869375 2.75375 -9.42625 2.3825 -10 2 C-8.71211992 1.46987262 -7.41953322 0.9511671 -6.125 0.4375 C-5.40570313 0.14746094 -4.68640625 -0.14257812 -3.9453125 -0.44140625 C-2 -1 -2 -1 0 0 Z " fill="#6C7562" transform="translate(390,199)"/>
<path d="M0 0 C5.75 1.875 5.75 1.875 8 3 C8 3.66 8 4.32 8 5 C2.25 3.375 2.25 3.375 0 0 Z " fill="#86877C" transform="translate(334,823)"/>
<path d="M0 0 C0.99 0.33 1.98 0.66 3 1 C3 2.65 3 4.3 3 6 C1.35 6 -0.3 6 -2 6 C-1.34 4.02 -0.68 2.04 0 0 Z " fill="#9AA08D" transform="translate(558,512)"/>
<path d="M0 0 C0.66 0.66 1.32 1.32 2 2 C-1.13498292 3.85776765 -3.37471432 4.20140476 -7 4 C-6.01 3.67 -5.02 3.34 -4 3 C-4 2.34 -4 1.68 -4 1 C-2.125 0.375 -2.125 0.375 0 0 Z " fill="#6B7664" transform="translate(447,500)"/>
</svg>
