<svg version="1.1" xmlns="http://www.w3.org/2000/svg" viewBox="0 0 426.6666666666679 340" width="426.6666666666679" height="340" class="excalidraw-svg">
  <!-- svg-source:excalidraw -->
  
  <defs>
    <style class="style-fonts">
      
    </style>
    
  </defs>
  <g stroke-linecap="round" transform="translate(10 10) rotate(0 203.33333333333394 160)"><path d="M32 0 C125.52 -3.05, 217.72 -2.83, 374.67 0 C398.12 -1.71, 408.66 11.72, 406.67 32 C410.52 105.23, 411.96 177.44, 406.67 288 C405.84 306.82, 394.19 322.28, 374.67 320 C258.54 318.12, 144.56 318.75, 32 320 C10.43 323.6, 1.32 311.14, 0 288 C0.18 217.57, -2.07 144.96, 0 32 C-0.53 12.21, 12.27 -1.47, 32 0" stroke="none" stroke-width="0" fill="#ffec99"/><path d="M32 0 C137.68 -1.02, 243.57 -1.64, 374.67 0 M32 0 C126.17 -0.81, 221.89 -0.1, 374.67 0 M374.67 0 C395.16 0.54, 405.2 9.36, 406.67 32 M374.67 0 C396.69 -0.77, 407.18 12.05, 406.67 32 M406.67 32 C408.21 101.94, 409.73 173.8, 406.67 288 M406.67 32 C405.32 89.98, 405.9 147.11, 406.67 288 M406.67 288 C406.58 307.86, 396.31 318.51, 374.67 320 M406.67 288 C407.73 309.22, 396.73 319.18, 374.67 320 M374.67 320 C282.06 319.52, 186.99 318.89, 32 320 M374.67 320 C293.8 319.71, 212.18 319.02, 32 320 M32 320 C11.03 321.03, 0.69 307.59, 0 288 M32 320 C10.29 320.89, -2.03 310.18, 0 288 M0 288 C-0.52 196.17, 1.24 103.56, 0 32 M0 288 C1.9 203.79, 2.69 119.57, 0 32 M0 32 C-1.27 9.1, 10.5 -1.01, 32 0 M0 32 C-0.3 11.69, 10.27 1.9, 32 0" stroke="#1e1e1e" stroke-width="4" fill="none"/></g><g stroke-linecap="round" transform="translate(133.048626868047 65.25583277777878) rotate(0 75 68)"><path d="M64.22 -0.07 C74.18 -2.35, 86.29 0.84, 96.69 3.83 C107.09 6.82, 118.54 11.41, 126.62 17.87 C134.7 24.34, 141.42 33.33, 145.17 42.62 C148.92 51.91, 150.07 63.63, 149.12 73.59 C148.18 83.55, 144.75 93.99, 139.5 102.4 C134.26 110.82, 126.45 118.43, 117.66 124.07 C108.86 129.72, 97.57 134.9, 86.73 136.26 C75.89 137.62, 62.97 135.38, 52.63 132.26 C42.3 129.15, 32.77 124.3, 24.72 117.58 C16.68 110.86, 8.54 101.07, 4.35 91.94 C0.17 82.82, -1.4 72.39, -0.37 62.84 C0.66 53.3, 5.03 43.2, 10.53 34.67 C16.03 26.14, 21.82 17.4, 32.63 11.65 C43.45 5.9, 66.33 1.63, 75.43 0.16 C84.53 -1.3, 87.15 1.71, 87.24 2.87 M60.7 1.77 C70.89 -1.25, 85.42 -1.29, 96.1 1.06 C106.77 3.41, 116.93 9.22, 124.77 15.89 C132.61 22.56, 138.71 31.83, 143.13 41.07 C147.55 50.3, 151.48 61.65, 151.3 71.29 C151.12 80.93, 147.4 90.13, 142.07 98.88 C136.74 107.64, 128.19 118.02, 119.32 123.81 C110.45 129.6, 99.62 131.89, 88.86 133.61 C78.1 135.33, 65.51 136.43, 54.75 134.12 C43.99 131.8, 32.27 126.39, 24.3 119.73 C16.32 113.08, 10.77 103.51, 6.91 94.19 C3.05 84.86, 0.78 73.44, 1.15 63.78 C1.53 54.13, 4.25 44.65, 9.16 36.25 C14.06 27.85, 22.09 19.15, 30.59 13.4 C39.09 7.65, 54.99 3.58, 60.16 1.77 C65.34 -0.04, 60.96 1.49, 61.63 2.52" stroke="#1e1e1e" stroke-width="4" fill="none"/></g><g transform="translate(157.1662739268686 185.9785218534089) rotate(0 -23.52941176470631 67.87568859464591)" stroke="none"><path fill="#1e1e1e" d="M 2.12,2.46 Q 2.12,2.46 -1.30,5.29 -4.72,8.13 -6.54,11.10 -8.36,14.07 -10.22,17.42 -12.07,20.76 -14.90,27.29 -17.74,33.81 -19.64,38.90 -21.54,43.99 -24.13,49.22 -26.71,54.46 -29.10,60.59 -31.49,66.72 -33.19,71.65 -34.89,76.58 -35.89,80.38 -36.89,84.17 -37.68,88.32 -38.46,92.46 -39.85,97.85 -41.24,103.24 -42.13,111.14 -43.02,119.04 -43.42,123.88 -43.81,128.72 -43.39,131.46 -42.98,134.19 -43.02,134.68 -43.06,135.16 -43.25,135.61 -43.44,136.06 -43.77,136.43 -44.09,136.79 -44.52,137.03 -44.94,137.27 -45.42,137.36 -45.90,137.46 -46.38,137.39 -46.87,137.33 -47.30,137.11 -47.74,136.90 -48.09,136.55 -48.43,136.21 -48.65,135.77 -48.87,135.33 -48.94,134.85 -49.00,134.36 -48.91,133.88 -48.82,133.41 -48.58,132.98 -48.34,132.55 -47.98,132.23 -47.62,131.90 -47.17,131.71 -46.72,131.51 -46.23,131.47 -45.75,131.43 -45.27,131.55 -44.80,131.67 -44.39,131.93 -43.97,132.19 -43.67,132.57 -43.36,132.95 -43.19,133.41 -43.02,133.87 -43.01,134.35 -42.99,134.84 -43.14,135.31 -43.28,135.78 -43.56,136.17 -43.85,136.57 -44.24,136.86 -44.64,137.14 -45.11,137.29 -45.57,137.43 -46.06,137.42 -46.55,137.41 -47.01,137.24 -47.47,137.07 -47.85,136.77 -48.23,136.46 -48.49,136.05 -48.76,135.64 -48.88,135.16 -48.99,134.69 -48.99,134.69 -48.99,134.69 -49.07,131.50 -49.15,128.31 -48.77,123.37 -48.39,118.43 -47.46,110.17 -46.52,101.91 -45.21,96.68 -43.90,91.46 -43.11,87.07 -42.32,82.68 -41.19,78.75 -40.06,74.81 -38.36,69.77 -36.66,64.72 -34.23,58.35 -31.79,51.98 -29.39,46.99 -26.99,42.00 -25.13,36.73 -23.26,31.47 -20.41,24.59 -17.56,17.71 -15.59,14.19 -13.61,10.68 -11.20,7.10 -8.80,3.51 -5.46,0.52 -2.12,-2.46 -1.79,-2.68 -1.47,-2.90 -1.10,-3.03 -0.73,-3.16 -0.34,-3.21 0.04,-3.25 0.43,-3.20 0.82,-3.14 1.18,-3.00 1.55,-2.85 1.87,-2.63 2.19,-2.40 2.44,-2.10 2.70,-1.81 2.88,-1.46 3.05,-1.11 3.14,-0.72 3.23,-0.34 3.22,0.04 3.22,0.43 3.12,0.81 3.02,1.19 2.83,1.54 2.65,1.88 2.38,2.17 2.12,2.46 2.12,2.46 L 2.12,2.46 Z"/></g><g transform="translate(259.5192151033407 184.80205126517285) rotate(0 17.05882352941171 67.56068136936301)" stroke="none"><path fill="#1e1e1e" d="M 2.52,-1.84 Q 2.52,-1.84 6.52,3.74 10.52,9.33 15.28,16.24 20.03,23.16 23.52,31.36 27.00,39.56 29.47,46.73 31.93,53.91 33.02,62.48 34.10,71.05 34.54,75.94 34.97,80.83 35.49,87.40 36.01,93.96 36.23,99.98 36.45,105.99 36.54,111.99 36.63,117.98 36.66,122.64 36.70,127.30 36.79,130.52 36.89,133.74 36.82,134.18 36.75,134.62 36.55,135.02 36.34,135.42 36.02,135.74 35.69,136.05 35.29,136.24 34.88,136.44 34.43,136.49 33.99,136.54 33.55,136.45 33.11,136.36 32.72,136.13 32.33,135.90 32.04,135.56 31.74,135.22 31.57,134.81 31.40,134.39 31.37,133.94 31.34,133.49 31.46,133.06 31.57,132.62 31.82,132.25 32.07,131.87 32.42,131.60 32.78,131.32 33.20,131.17 33.63,131.03 34.08,131.02 34.53,131.02 34.96,131.16 35.38,131.30 35.75,131.56 36.11,131.83 36.36,132.20 36.62,132.57 36.74,133.00 36.87,133.44 36.85,133.88 36.83,134.33 36.67,134.75 36.51,135.17 36.22,135.52 35.93,135.87 35.55,136.10 35.16,136.34 34.73,136.44 34.29,136.54 33.84,136.50 33.39,136.45 32.98,136.27 32.57,136.08 32.24,135.78 31.91,135.47 31.70,135.08 31.48,134.68 31.41,134.24 31.33,133.79 31.33,133.79 31.33,133.79 31.37,130.57 31.41,127.35 31.36,122.71 31.32,118.07 31.22,112.13 31.12,106.19 30.89,100.29 30.66,94.39 30.13,87.86 29.59,81.32 29.14,76.52 28.69,71.73 27.69,63.71 26.70,55.70 24.26,48.73 21.82,41.77 18.55,34.10 15.27,26.44 10.49,19.65 5.70,12.86 1.59,7.35 -2.52,1.84 -2.70,1.51 -2.88,1.18 -2.99,0.82 -3.09,0.46 -3.10,0.08 -3.11,-0.29 -3.03,-0.65 -2.95,-1.02 -2.78,-1.36 -2.61,-1.70 -2.37,-1.99 -2.13,-2.28 -1.83,-2.50 -1.52,-2.72 -1.17,-2.86 -0.83,-3.01 -0.45,-3.06 -0.08,-3.12 0.28,-3.08 0.66,-3.05 1.02,-2.92 1.37,-2.80 1.69,-2.59 2.00,-2.39 2.26,-2.11 2.52,-1.84 2.52,-1.84 L 2.52,-1.84 Z"/></g><g transform="translate(186.00670641203033 91.67609490379982) rotate(0 -1.0280777312909777 20.97789390431899)" stroke="none"><path fill="#1e1e1e" d="M 2.90,-0.04 Q 2.90,-0.04 2.80,7.19 2.69,14.43 2.58,21.54 2.47,28.65 2.48,32.47 2.49,36.29 2.70,37.91 2.90,39.54 2.80,40.14 2.71,40.75 2.42,41.29 2.14,41.83 1.69,42.26 1.25,42.68 0.69,42.94 0.14,43.20 -0.46,43.27 -1.07,43.34 -1.67,43.21 -2.27,43.08 -2.80,42.77 -3.33,42.45 -3.73,41.99 -4.13,41.52 -4.36,40.95 -4.59,40.38 -4.62,39.77 -4.66,39.16 -4.50,38.56 -4.33,37.97 -3.99,37.46 -3.65,36.95 -3.16,36.58 -2.67,36.21 -2.09,36.01 -1.51,35.81 -0.90,35.81 -0.29,35.80 0.29,36.00 0.87,36.19 1.36,36.56 1.85,36.93 2.20,37.44 2.54,37.94 2.71,38.54 2.88,39.13 2.85,39.74 2.81,40.35 2.59,40.92 2.36,41.49 1.97,41.96 1.57,42.43 1.05,42.75 0.52,43.07 -0.07,43.20 -0.66,43.34 -1.28,43.27 -1.89,43.21 -2.44,42.96 -3.00,42.70 -3.45,42.28 -3.90,41.86 -4.19,41.32 -4.48,40.78 -4.58,40.17 -4.68,39.56 -4.68,39.57 -4.68,39.57 -4.49,37.94 -4.30,36.32 -4.32,32.50 -4.34,28.68 -4.52,21.60 -4.70,14.51 -4.98,7.28 -5.26,0.04 -5.20,-0.44 -5.15,-0.93 -4.98,-1.39 -4.81,-1.85 -4.54,-2.26 -4.26,-2.67 -3.90,-3.00 -3.53,-3.33 -3.10,-3.56 -2.67,-3.80 -2.19,-3.92 -1.71,-4.05 -1.22,-4.05 -0.73,-4.06 -0.25,-3.94 0.22,-3.83 0.66,-3.61 1.10,-3.38 1.47,-3.06 1.84,-2.74 2.13,-2.34 2.41,-1.94 2.59,-1.48 2.77,-1.02 2.84,-0.53 2.90,-0.04 2.90,-0.04 L 2.90,-0.04 Z"/></g><g transform="translate(215.98980333863437 98.91969832399809) rotate(0 0.5882352941180216 14.117647058823422)" stroke="none"><path fill="#1e1e1e" d="M 4.42,0 Q 4.42,0 4.19,4.39 3.95,8.79 3.93,12.35 3.92,15.91 4.30,18.90 4.67,21.90 4.98,24.35 5.30,26.81 5.24,27.49 5.19,28.17 4.92,28.80 4.65,29.43 4.20,29.94 3.74,30.45 3.15,30.79 2.55,31.13 1.88,31.26 1.21,31.39 0.53,31.30 -0.14,31.21 -0.75,30.91 -1.37,30.61 -1.85,30.12 -2.34,29.64 -2.64,29.03 -2.95,28.42 -3.05,27.74 -3.14,27.06 -3.01,26.39 -2.89,25.71 -2.55,25.12 -2.22,24.52 -1.71,24.06 -1.20,23.60 -0.57,23.33 0.05,23.06 0.73,23.00 1.41,22.94 2.08,23.11 2.74,23.27 3.32,23.64 3.90,24.00 4.33,24.54 4.76,25.07 5.00,25.71 5.24,26.35 5.26,27.04 5.28,27.72 5.08,28.38 4.88,29.03 4.48,29.59 4.08,30.15 3.53,30.55 2.97,30.95 2.32,31.15 1.66,31.35 0.98,31.34 0.30,31.32 -0.34,31.09 -0.98,30.85 -1.52,30.42 -2.05,30.00 -2.42,29.42 -2.79,28.85 -2.96,28.18 -3.13,27.52 -3.13,27.52 -3.13,27.52 -3.22,25.13 -3.32,22.74 -3.62,19.33 -3.92,15.91 -3.93,12.35 -3.95,8.79 -4.19,4.39 -4.42,0 -4.36,-0.52 -4.29,-1.05 -4.11,-1.55 -3.92,-2.05 -3.61,-2.49 -3.31,-2.93 -2.91,-3.29 -2.51,-3.64 -2.04,-3.89 -1.57,-4.14 -1.05,-4.26 -0.53,-4.39 0.00,-4.39 0.53,-4.39 1.05,-4.26 1.57,-4.14 2.04,-3.89 2.51,-3.64 2.91,-3.29 3.31,-2.93 3.61,-2.49 3.92,-2.05 4.11,-1.55 4.29,-1.05 4.36,-0.52 4.42,0.00 4.42,0.00 L 4.42,0 Z"/></g><g transform="translate(167.21116519502175 157.61605766859248) rotate(0 37.64659324064087 9.164661992850597)" stroke="none"><path fill="#1e1e1e" d="M 1.93,-3.34 Q 1.93,-3.34 10.95,2.06 19.97,7.47 26.87,9.67 33.77,11.87 38.94,12.86 44.10,13.86 50.76,14.31 57.42,14.76 61.45,14.93 65.47,15.10 69.52,15.00 73.58,14.91 74.11,15.01 74.65,15.12 75.12,15.38 75.60,15.65 75.96,16.06 76.33,16.46 76.54,16.96 76.76,17.46 76.80,18.00 76.85,18.55 76.72,19.08 76.59,19.60 76.29,20.06 76.00,20.52 75.58,20.87 75.15,21.21 74.64,21.40 74.13,21.58 73.59,21.60 73.04,21.62 72.52,21.46 72.00,21.30 71.56,20.98 71.11,20.66 70.80,20.22 70.48,19.78 70.32,19.26 70.16,18.74 70.17,18.19 70.18,17.65 70.37,17.14 70.56,16.63 70.90,16.20 71.24,15.77 71.70,15.48 72.16,15.19 72.69,15.05 73.21,14.92 73.76,14.97 74.30,15.01 74.80,15.22 75.30,15.44 75.71,15.80 76.11,16.17 76.38,16.64 76.65,17.11 76.75,17.65 76.86,18.18 76.79,18.72 76.71,19.26 76.47,19.75 76.23,20.24 75.84,20.63 75.46,21.01 74.97,21.25 74.48,21.50 73.94,21.57 73.40,21.64 73.41,21.64 73.41,21.64 69.31,21.34 65.22,21.04 61.14,20.87 57.07,20.70 50.05,20.34 43.02,19.98 37.43,19.07 31.84,18.16 24.16,15.88 16.47,13.60 7.27,8.47 -1.93,3.34 -2.30,3.06 -2.67,2.78 -2.97,2.42 -3.26,2.06 -3.46,1.64 -3.66,1.22 -3.75,0.76 -3.85,0.30 -3.83,-0.15 -3.81,-0.62 -3.68,-1.06 -3.55,-1.51 -3.32,-1.91 -3.08,-2.32 -2.76,-2.65 -2.44,-2.99 -2.04,-3.24 -1.65,-3.49 -1.21,-3.63 -0.77,-3.78 -0.30,-3.82 0.15,-3.86 0.61,-3.78 1.07,-3.71 1.50,-3.52 1.93,-3.34 1.93,-3.34 L 1.93,-3.34 Z"/></g></svg>