<svg version="1.1" xmlns="http://www.w3.org/2000/svg" viewBox="0 0 426.6666666666679 340" width="426.6666666666679" height="340" class="excalidraw-svg">
  <!-- svg-source:excalidraw -->
  
  <defs>
    <style class="style-fonts">
      
    </style>
    
  </defs>
  <g stroke-linecap="round" transform="translate(10 10) rotate(0 203.33333333333394 160)"><path d="M32 0 C108.18 -1.33, 186.2 -0.83, 374.67 0 C398.38 -3.16, 408.53 7.91, 406.67 32 C402.7 95.75, 408.16 159.07, 406.67 288 C406.4 311.59, 395.35 320.17, 374.67 320 C279.58 318.91, 186.43 322.51, 32 320 C9.88 321.01, -0.89 306.91, 0 288 C3.41 197.12, 3.35 102.75, 0 32 C-0.28 7.97, 10.19 -1.57, 32 0" stroke="none" stroke-width="0" fill="#b2f2bb"/><path d="M32 0 C141.67 0.42, 249.24 -0.08, 374.67 0 M32 0 C103.95 -1.64, 176.74 -2.11, 374.67 0 M374.67 0 C397.92 -1.3, 407.27 10.63, 406.67 32 M374.67 0 C395.5 1, 405.19 10.33, 406.67 32 M406.67 32 C405.34 130.09, 406.68 227.3, 406.67 288 M406.67 32 C405.68 94.07, 404.9 155.44, 406.67 288 M406.67 288 C407.22 311.26, 397.91 318.13, 374.67 320 M406.67 288 C405.51 308.26, 397.49 319, 374.67 320 M374.67 320 C259.73 318.91, 148.17 319.55, 32 320 M374.67 320 C262.11 318.22, 148.75 318.07, 32 320 M32 320 C11.36 320.94, 1.26 308.56, 0 288 M32 320 C12.05 321.21, 2.07 307.76, 0 288 M0 288 C0.42 191.71, -0.83 98.3, 0 32 M0 288 C1.96 198.5, 1.07 107.85, 0 32 M0 32 C1.44 11.06, 10.14 -1.2, 32 0 M0 32 C1.7 11.25, 9.22 1.49, 32 0" stroke="#1e1e1e" stroke-width="4" fill="none"/></g><g stroke-linecap="round" transform="translate(133.048626868047 65.25583277777878) rotate(0 75 68)"><path d="M55.1 3.38 C64.77 -0.42, 77.17 -1.27, 87.7 0.1 C98.24 1.48, 109.62 5.84, 118.31 11.63 C126.99 17.42, 134.61 26.07, 139.82 34.82 C145.02 43.58, 148.8 54.22, 149.51 64.14 C150.22 74.06, 148.32 85.11, 144.08 94.37 C139.84 103.62, 132.11 113.29, 124.06 119.66 C116 126.02, 106 130.03, 95.77 132.56 C85.54 135.1, 73.25 136.3, 62.68 134.89 C52.11 133.49, 41.25 129.71, 32.36 124.13 C23.47 118.55, 14.74 110.28, 9.34 101.42 C3.94 92.55, 0.57 80.68, -0.03 70.92 C-0.62 61.16, 1.57 51.98, 5.74 42.86 C9.91 33.75, 15.29 23.09, 24.99 16.24 C34.68 9.4, 55.99 4.15, 63.9 1.78 C71.8 -0.59, 72.29 0.99, 72.42 2.02 M94.85 1.88 C104.74 3.89, 115.57 11.95, 123.81 18.59 C132.05 25.22, 140.11 32.9, 144.3 41.69 C148.48 50.48, 149.43 61.24, 148.93 71.34 C148.43 81.43, 146.45 93.79, 141.29 102.25 C136.13 110.71, 127.19 116.84, 117.98 122.09 C108.76 127.35, 96.87 132.03, 86.02 133.77 C75.17 135.51, 63.05 135.06, 52.87 132.52 C42.69 129.99, 32.72 124.95, 24.94 118.56 C17.16 112.17, 10.38 103.38, 6.17 94.18 C1.96 84.98, -0.93 73.4, -0.34 63.37 C0.25 53.35, 4.24 42.77, 9.72 34.06 C15.19 25.34, 23.75 16.54, 32.48 11.07 C41.22 5.6, 51.28 2.48, 62.1 1.25 C72.91 0.02, 91.85 3.04, 97.37 3.69 C102.89 4.35, 95.9 4.39, 95.22 5.17" stroke="#1e1e1e" stroke-width="4" fill="none"/></g><g transform="translate(157.16627392687042 185.9785218534089) rotate(0 -23.52941176470631 67.87568859464591)" stroke="none"><path fill="#1e1e1e" d="M 2.12,2.46 Q 2.12,2.46 -1.30,5.29 -4.72,8.13 -6.54,11.10 -8.36,14.07 -10.22,17.42 -12.07,20.76 -14.90,27.29 -17.74,33.81 -19.64,38.90 -21.54,43.99 -24.13,49.22 -26.71,54.46 -29.10,60.59 -31.49,66.72 -33.19,71.65 -34.89,76.58 -35.89,80.38 -36.89,84.17 -37.68,88.32 -38.46,92.46 -39.85,97.85 -41.24,103.24 -42.13,111.14 -43.02,119.04 -43.42,123.88 -43.81,128.72 -43.39,131.46 -42.98,134.19 -43.02,134.68 -43.06,135.16 -43.25,135.61 -43.44,136.06 -43.77,136.43 -44.09,136.79 -44.52,137.03 -44.94,137.27 -45.42,137.36 -45.90,137.46 -46.38,137.39 -46.87,137.33 -47.30,137.11 -47.74,136.90 -48.09,136.55 -48.43,136.21 -48.65,135.77 -48.87,135.33 -48.94,134.85 -49.00,134.36 -48.91,133.88 -48.82,133.41 -48.58,132.98 -48.34,132.55 -47.98,132.23 -47.62,131.90 -47.17,131.71 -46.72,131.51 -46.23,131.47 -45.75,131.43 -45.27,131.55 -44.80,131.67 -44.39,131.93 -43.97,132.19 -43.67,132.57 -43.36,132.95 -43.19,133.41 -43.02,133.87 -43.01,134.35 -42.99,134.84 -43.14,135.31 -43.28,135.78 -43.56,136.17 -43.85,136.57 -44.24,136.86 -44.64,137.14 -45.11,137.29 -45.57,137.43 -46.06,137.42 -46.55,137.41 -47.01,137.24 -47.47,137.07 -47.85,136.77 -48.23,136.46 -48.49,136.05 -48.76,135.64 -48.88,135.16 -48.99,134.69 -48.99,134.69 -48.99,134.69 -49.07,131.50 -49.15,128.31 -48.77,123.37 -48.39,118.43 -47.46,110.17 -46.52,101.91 -45.21,96.68 -43.90,91.46 -43.11,87.07 -42.32,82.68 -41.19,78.75 -40.06,74.81 -38.36,69.77 -36.66,64.72 -34.23,58.35 -31.79,51.98 -29.39,46.99 -26.99,42.00 -25.13,36.73 -23.26,31.47 -20.41,24.59 -17.56,17.71 -15.59,14.19 -13.61,10.68 -11.20,7.10 -8.80,3.51 -5.46,0.52 -2.12,-2.46 -1.79,-2.68 -1.47,-2.90 -1.10,-3.03 -0.73,-3.16 -0.34,-3.21 0.04,-3.25 0.43,-3.20 0.82,-3.14 1.18,-3.00 1.55,-2.85 1.87,-2.63 2.19,-2.40 2.44,-2.10 2.70,-1.81 2.88,-1.46 3.05,-1.11 3.14,-0.72 3.23,-0.34 3.22,0.04 3.22,0.43 3.12,0.81 3.02,1.19 2.83,1.54 2.65,1.88 2.38,2.17 2.12,2.46 2.12,2.46 L 2.12,2.46 Z"/></g><g transform="translate(259.5192151033407 184.80205126517467) rotate(0 17.05882352941171 65.5701648571594)" stroke="none"><path fill="#1e1e1e" d="M 2.49,-1.88 Q 2.49,-1.88 6.49,3.54 10.50,8.97 15.25,15.68 20.01,22.39 23.50,30.36 26.99,38.33 29.46,45.30 31.92,52.27 33.01,60.60 34.10,68.93 34.54,73.68 34.97,78.43 35.49,84.81 36.00,91.18 36.22,97.02 36.44,102.86 36.54,108.68 36.63,114.50 36.66,119.03 36.70,123.55 36.79,126.67 36.88,129.79 36.82,130.24 36.75,130.68 36.54,131.08 36.34,131.48 36.01,131.79 35.69,132.10 35.29,132.30 34.88,132.49 34.43,132.54 33.99,132.60 33.55,132.51 33.11,132.41 32.72,132.19 32.33,131.96 32.04,131.62 31.74,131.28 31.57,130.87 31.40,130.45 31.37,130.00 31.34,129.55 31.46,129.12 31.58,128.69 31.82,128.31 32.07,127.94 32.43,127.66 32.78,127.38 33.21,127.24 33.63,127.09 34.08,127.08 34.53,127.08 34.95,127.22 35.38,127.36 35.74,127.62 36.10,127.89 36.36,128.26 36.62,128.63 36.74,129.06 36.86,129.49 36.85,129.94 36.83,130.39 36.66,130.81 36.50,131.23 36.22,131.58 35.93,131.92 35.55,132.16 35.16,132.39 34.73,132.49 34.29,132.59 33.84,132.55 33.39,132.51 32.98,132.32 32.57,132.14 32.25,131.83 31.92,131.53 31.70,131.13 31.49,130.74 31.41,130.30 31.33,129.85 31.33,129.85 31.33,129.85 31.37,126.72 31.41,123.60 31.36,119.09 31.32,114.59 31.22,108.83 31.12,103.07 30.89,97.35 30.66,91.62 30.13,85.28 29.59,78.94 29.14,74.29 28.69,69.63 27.70,61.87 26.71,54.11 24.27,47.35 21.83,40.60 18.56,33.17 15.30,25.74 10.51,19.15 5.73,12.57 1.61,7.22 -2.49,1.88 -2.68,1.55 -2.87,1.22 -2.97,0.86 -3.08,0.50 -3.09,0.12 -3.11,-0.24 -3.03,-0.61 -2.96,-0.98 -2.80,-1.32 -2.64,-1.66 -2.40,-1.95 -2.16,-2.25 -1.86,-2.47 -1.56,-2.70 -1.21,-2.85 -0.87,-2.99 -0.50,-3.06 -0.12,-3.12 0.24,-3.09 0.62,-3.06 0.97,-2.94 1.33,-2.82 1.65,-2.62 1.97,-2.42 2.23,-2.15 2.49,-1.88 2.49,-1.88 L 2.49,-1.88 Z"/></g><g transform="translate(194.81333275040015 91.86087479458547) rotate(0 -0.5882352941180216 8.823529411764866)" stroke="none"><path fill="#1e1e1e" d="M 4.43,0.31 Q 4.43,0.31 3.85,5.03 3.27,9.75 3.20,13.09 3.13,16.42 2.98,17.09 2.83,17.76 2.47,18.34 2.11,18.93 1.59,19.36 1.06,19.80 0.43,20.05 -0.20,20.30 -0.88,20.33 -1.57,20.37 -2.23,20.18 -2.88,19.99 -3.45,19.60 -4.01,19.22 -4.42,18.67 -4.83,18.12 -5.05,17.47 -5.26,16.82 -5.25,16.14 -5.25,15.45 -5.03,14.80 -4.80,14.16 -4.39,13.62 -3.97,13.07 -3.40,12.69 -2.83,12.31 -2.17,12.14 -1.51,11.96 -0.83,12.00 -0.14,12.04 0.48,12.30 1.11,12.56 1.63,13.00 2.15,13.45 2.50,14.04 2.85,14.63 2.99,15.30 3.13,15.97 3.05,16.65 2.98,17.33 2.68,17.94 2.39,18.56 1.92,19.06 1.44,19.55 0.84,19.87 0.23,20.18 -0.44,20.29 -1.11,20.39 -1.79,20.28 -2.46,20.16 -3.06,19.84 -3.66,19.51 -4.13,19.01 -4.60,18.51 -4.88,17.89 -5.16,17.27 -5.23,16.59 -5.30,15.91 -5.30,15.91 -5.30,15.91 -4.96,12.55 -4.63,9.18 -4.53,4.43 -4.43,-0.31 -4.33,-0.84 -4.22,-1.36 -4.00,-1.85 -3.77,-2.34 -3.44,-2.75 -3.10,-3.17 -2.68,-3.50 -2.25,-3.82 -1.76,-4.04 -1.27,-4.25 -0.74,-4.34 -0.21,-4.43 0.31,-4.40 0.84,-4.36 1.35,-4.19 1.86,-4.03 2.32,-3.74 2.77,-3.46 3.15,-3.08 3.52,-2.70 3.79,-2.24 4.07,-1.77 4.22,-1.26 4.37,-0.75 4.40,-0.21 4.43,0.31 4.43,0.31 L 4.43,0.31 Z"/></g><g transform="translate(215.98980333863437 98.91969832399809) rotate(0 0.5882352941180216 14.117647058823422)" stroke="none"><path fill="#1e1e1e" d="M 4.42,0 Q 4.42,0 4.19,4.39 3.95,8.79 3.93,12.35 3.92,15.91 4.30,18.90 4.67,21.90 4.98,24.35 5.30,26.81 5.24,27.49 5.19,28.17 4.92,28.80 4.65,29.43 4.20,29.94 3.74,30.45 3.15,30.79 2.55,31.13 1.88,31.26 1.21,31.39 0.53,31.30 -0.14,31.21 -0.75,30.91 -1.37,30.61 -1.85,30.12 -2.34,29.64 -2.64,29.03 -2.95,28.42 -3.05,27.74 -3.14,27.06 -3.01,26.39 -2.89,25.71 -2.55,25.12 -2.22,24.52 -1.71,24.06 -1.20,23.60 -0.57,23.33 0.05,23.06 0.73,23.00 1.41,22.94 2.08,23.11 2.74,23.27 3.32,23.64 3.90,24.00 4.33,24.54 4.76,25.07 5.00,25.71 5.24,26.35 5.26,27.04 5.28,27.72 5.08,28.38 4.88,29.03 4.48,29.59 4.08,30.15 3.53,30.55 2.97,30.95 2.32,31.15 1.66,31.35 0.98,31.34 0.30,31.32 -0.34,31.09 -0.98,30.85 -1.52,30.42 -2.05,30.00 -2.42,29.42 -2.79,28.85 -2.96,28.18 -3.13,27.52 -3.13,27.52 -3.13,27.52 -3.22,25.13 -3.32,22.74 -3.62,19.33 -3.92,15.91 -3.93,12.35 -3.95,8.79 -4.19,4.39 -4.42,0 -4.36,-0.52 -4.29,-1.05 -4.11,-1.55 -3.92,-2.05 -3.61,-2.49 -3.31,-2.93 -2.91,-3.29 -2.51,-3.64 -2.04,-3.89 -1.57,-4.14 -1.05,-4.26 -0.53,-4.39 0.00,-4.39 0.53,-4.39 1.05,-4.26 1.57,-4.14 2.04,-3.89 2.51,-3.64 2.91,-3.29 3.31,-2.93 3.61,-2.49 3.92,-2.05 4.11,-1.55 4.29,-1.05 4.36,-0.52 4.42,0.00 4.42,0.00 L 4.42,0 Z"/></g><g transform="translate(190.17235281530156 162.0712134755122) rotate(0 21.111111111111313 1.1111111111113132)" stroke="none"><path fill="#1e1e1e" d="M 0.54,-4.36 Q 0.54,-4.36 5.62,-3.49 10.70,-2.62 14.67,-2.22 18.64,-1.83 21.61,-1.82 24.57,-1.81 28.36,-1.70 32.15,-1.59 34.41,-1.73 36.68,-1.88 38.96,-1.96 41.23,-2.05 41.91,-1.94 42.60,-1.82 43.21,-1.49 43.81,-1.17 44.29,-0.66 44.76,-0.16 45.05,0.46 45.33,1.09 45.40,1.78 45.48,2.47 45.32,3.14 45.17,3.82 44.81,4.41 44.45,5.00 43.92,5.44 43.39,5.89 42.75,6.14 42.10,6.39 41.41,6.42 40.72,6.46 40.06,6.27 39.39,6.08 38.82,5.69 38.25,5.30 37.84,4.74 37.42,4.19 37.21,3.54 36.99,2.88 36.99,2.19 37.00,1.50 37.22,0.84 37.45,0.19 37.87,-0.35 38.29,-0.90 38.86,-1.28 39.44,-1.67 40.10,-1.85 40.77,-2.03 41.46,-1.99 42.15,-1.95 42.79,-1.69 43.43,-1.43 43.96,-0.98 44.48,-0.53 44.84,0.06 45.19,0.65 45.33,1.33 45.48,2.00 45.40,2.69 45.32,3.38 45.03,4.00 44.73,4.63 44.25,5.13 43.78,5.63 43.16,5.95 42.55,6.27 41.87,6.38 41.18,6.48 41.19,6.48 41.19,6.48 38.89,6.37 36.60,6.26 34.33,6.08 32.05,5.89 28.17,5.90 24.28,5.92 21.22,5.69 18.15,5.47 13.94,5.32 9.73,5.17 4.59,4.77 -0.54,4.36 -1.05,4.23 -1.57,4.10 -2.04,3.85 -2.51,3.61 -2.90,3.25 -3.30,2.90 -3.60,2.46 -3.90,2.03 -4.08,1.53 -4.27,1.03 -4.33,0.51 -4.39,-0.01 -4.33,-0.54 -4.26,-1.06 -4.07,-1.56 -3.88,-2.05 -3.58,-2.49 -3.28,-2.92 -2.88,-3.27 -2.48,-3.62 -2.01,-3.87 -1.54,-4.11 -1.02,-4.24 -0.51,-4.36 0.01,-4.36 0.54,-4.36 0.54,-4.36 L 0.54,-4.36 Z"/></g></svg>