<svg version="1.1" xmlns="http://www.w3.org/2000/svg" viewBox="0 0 426.6666666666679 353.6255806769386" width="426.6666666666679" height="353.6255806769386" class="excalidraw-svg">
  <!-- svg-source:excalidraw -->
  
  <defs>
    <style class="style-fonts">
      
    </style>
    
  </defs>
  <g stroke-linecap="round" transform="translate(10 10) rotate(0 203.33333333333394 160)"><path d="M32 0 C143.33 0.01, 258.74 1.97, 374.67 0 C397.46 0.99, 405.82 10.61, 406.67 32 C406.32 118.06, 405.27 208.35, 406.67 288 C406.43 305.87, 399.05 320.6, 374.67 320 C261.4 324.85, 151.21 321.74, 32 320 C13.06 318.69, 1.28 308.97, 0 288 C-1.64 192.78, -1.54 96.44, 0 32 C-0.33 7.15, 14.1 2.05, 32 0" stroke="none" stroke-width="0" fill="#a5d8ff"/><path d="M32 0 C121.91 0.69, 211.8 1.29, 374.67 0 M32 0 C133.93 0.83, 234.67 0.96, 374.67 0 M374.67 0 C395 -1.29, 404.77 12.15, 406.67 32 M374.67 0 C396.09 0.06, 406.95 9, 406.67 32 M406.67 32 C406.26 135.23, 405.89 235.88, 406.67 288 M406.67 32 C407.49 95.71, 408.26 159.07, 406.67 288 M406.67 288 C405.82 310.07, 395.65 319.62, 374.67 320 M406.67 288 C405.29 307.62, 394.02 319.5, 374.67 320 M374.67 320 C255.26 319.13, 135.89 318.34, 32 320 M374.67 320 C244.1 318.16, 112.37 318.67, 32 320 M32 320 C11.49 319.07, -0.91 307.52, 0 288 M32 320 C8.64 319.07, 0.04 309.95, 0 288 M0 288 C0.27 201.05, 0.75 115.23, 0 32 M0 288 C0.93 217.13, 1.1 146.65, 0 32 M0 32 C-0.62 9.32, 9.61 0.36, 32 0 M0 32 C-0.78 10.95, 10.78 -0.76, 32 0" stroke="#1e1e1e" stroke-width="4" fill="none"/></g><g stroke-linecap="round" transform="translate(133.048626868047 65.25583277777696) rotate(0 75 68)"><path d="M56.33 2.88 C66.06 -0.34, 79.37 -0.52, 90.09 1.23 C100.82 2.99, 112.16 7.58, 120.67 13.4 C129.19 19.23, 136.18 27.34, 141.18 36.19 C146.19 45.04, 150.37 56.51, 150.72 66.52 C151.08 76.53, 148.04 87.14, 143.31 96.25 C138.58 105.36, 130.81 114.88, 122.33 121.18 C113.86 127.49, 102.69 131.69, 92.44 134.08 C82.18 136.47, 71.19 137.49, 60.81 135.54 C50.44 133.58, 39.06 128.36, 30.2 122.34 C21.34 116.32, 12.77 108.27, 7.66 99.41 C2.55 90.54, -0.31 78.98, -0.46 69.15 C-0.61 59.32, 2.25 49.41, 6.76 40.45 C11.26 31.49, 17.57 21.93, 26.58 15.37 C35.6 8.81, 54.57 3.43, 60.86 1.11 C67.16 -1.21, 64.32 0.44, 64.37 1.44 M66.09 0.77 C76.17 -1.23, 90.26 1.27, 100.55 4.71 C110.84 8.14, 120.18 14.73, 127.83 21.38 C135.48 28.02, 142.58 35.46, 146.44 44.57 C150.3 53.68, 152.28 65.86, 150.98 76.05 C149.69 86.24, 144.62 97.56, 138.66 105.73 C132.71 113.89, 124.61 120.29, 115.23 125.04 C105.85 129.79, 93.49 133.18, 82.38 134.25 C71.27 135.32, 58.7 134.47, 48.59 131.48 C38.49 128.48, 29.08 123.24, 21.76 116.27 C14.43 109.3, 8.33 99.09, 4.64 89.65 C0.95 80.22, -1.41 69.35, -0.38 59.68 C0.65 50, 4.97 39.9, 10.81 31.6 C16.66 23.3, 25.43 15.11, 34.71 9.89 C43.98 4.68, 60.97 1.79, 66.45 0.32 C71.93 -1.15, 67.24 0.05, 67.59 1.1" stroke="#1e1e1e" stroke-width="4" fill="none"/></g><g transform="translate(157.1662739268686 185.9785218534089) rotate(0 -23.52941176470631 78.82352941176487)" stroke="none"><path fill="#1e1e1e" d="M 2.20,2.20 Q 2.20,2.20 -1.21,5.53 -4.63,8.85 -6.54,12.31 -8.46,15.77 -10.37,19.67 -12.27,23.56 -15.09,31.20 -17.90,38.85 -19.78,44.80 -21.67,50.75 -24.21,56.80 -26.76,62.85 -29.15,70.01 -31.53,77.17 -33.23,82.91 -34.92,88.66 -35.97,93.08 -37.02,97.50 -37.79,102.35 -38.57,107.21 -39.93,113.45 -41.30,119.68 -42.19,128.91 -43.08,138.14 -43.47,143.78 -43.85,149.42 -43.42,152.67 -42.98,155.91 -43.02,156.40 -43.07,156.88 -43.26,157.33 -43.46,157.77 -43.79,158.13 -44.12,158.49 -44.55,158.73 -44.97,158.97 -45.45,159.05 -45.93,159.14 -46.42,159.07 -46.90,159.00 -47.33,158.78 -47.77,158.56 -48.11,158.21 -48.45,157.86 -48.66,157.42 -48.88,156.98 -48.94,156.50 -49.00,156.02 -48.90,155.54 -48.81,155.06 -48.56,154.64 -48.32,154.21 -47.95,153.89 -47.59,153.57 -47.14,153.38 -46.69,153.19 -46.20,153.16 -45.71,153.12 -45.24,153.25 -44.77,153.37 -44.36,153.63 -43.95,153.90 -43.65,154.28 -43.35,154.67 -43.18,155.13 -43.02,155.59 -43.01,156.07 -43.00,156.56 -43.15,157.03 -43.30,157.49 -43.59,157.88 -43.88,158.28 -44.27,158.56 -44.67,158.84 -45.14,158.98 -45.61,159.12 -46.10,159.10 -46.58,159.08 -47.04,158.91 -47.50,158.74 -47.87,158.43 -48.25,158.12 -48.51,157.70 -48.77,157.29 -48.88,156.82 -48.99,156.34 -48.99,156.34 -48.99,156.34 -49.05,152.71 -49.11,149.07 -48.72,143.35 -48.33,137.63 -47.40,128.09 -46.46,118.56 -45.13,112.47 -43.79,106.37 -42.99,101.33 -42.19,96.28 -41.11,91.72 -40.04,87.15 -38.33,81.32 -36.62,75.48 -34.18,68.12 -31.74,60.76 -29.31,54.94 -26.87,49.11 -24.98,43.03 -23.10,36.95 -20.23,29.04 -17.35,21.12 -15.43,17.04 -13.51,12.97 -11.20,8.82 -8.89,4.67 -5.55,1.23 -2.20,-2.20 -1.91,-2.44 -1.61,-2.67 -1.27,-2.82 -0.92,-2.98 -0.55,-3.05 -0.18,-3.11 0.18,-3.09 0.56,-3.07 0.92,-2.96 1.28,-2.84 1.60,-2.65 1.92,-2.45 2.19,-2.19 2.45,-1.92 2.65,-1.60 2.84,-1.28 2.96,-0.92 3.07,-0.56 3.09,-0.18 3.11,0.18 3.05,0.55 2.98,0.92 2.82,1.27 2.67,1.61 2.44,1.91 2.20,2.20 2.20,2.20 L 2.20,2.20 Z"/></g><g transform="translate(259.5192151033407 184.80205126517103) rotate(0 17.05882352941171 69.55119788156571)" stroke="none"><path fill="#1e1e1e" d="M 2.54,-1.80 Q 2.54,-1.80 6.55,3.94 10.55,9.69 15.30,16.80 20.05,23.92 23.53,32.35 27.01,40.78 29.48,48.17 31.94,55.55 33.02,64.35 34.10,73.16 34.54,78.19 34.97,83.23 35.49,89.99 36.01,96.75 36.23,102.93 36.45,109.12 36.54,115.29 36.63,121.46 36.66,126.26 36.70,131.05 36.80,134.36 36.89,137.68 36.82,138.12 36.76,138.57 36.55,138.97 36.34,139.37 36.02,139.68 35.69,139.99 35.29,140.19 34.88,140.38 34.43,140.43 33.99,140.49 33.55,140.39 33.10,140.30 32.72,140.07 32.33,139.85 32.03,139.51 31.74,139.17 31.57,138.75 31.40,138.33 31.37,137.88 31.34,137.43 31.45,137.00 31.57,136.56 31.82,136.19 32.07,135.81 32.42,135.54 32.78,135.26 33.20,135.11 33.63,134.96 34.08,134.96 34.53,134.95 34.96,135.09 35.39,135.23 35.75,135.50 36.11,135.77 36.37,136.14 36.62,136.51 36.75,136.94 36.87,137.38 36.85,137.83 36.83,138.28 36.67,138.70 36.51,139.12 36.22,139.46 35.93,139.81 35.55,140.05 35.16,140.28 34.73,140.38 34.29,140.48 33.84,140.44 33.39,140.40 32.98,140.21 32.57,140.03 32.24,139.72 31.91,139.41 31.69,139.02 31.48,138.62 31.40,138.18 31.32,137.73 31.32,137.73 31.32,137.73 31.37,134.42 31.41,131.10 31.36,126.32 31.32,121.54 31.22,115.43 31.12,109.31 30.89,103.24 30.66,97.16 30.13,90.43 29.59,83.70 29.14,78.76 28.69,73.82 27.69,65.56 26.69,57.29 24.25,50.11 21.81,42.94 18.53,35.04 15.25,27.14 10.46,20.14 5.68,13.15 1.56,7.48 -2.54,1.80 -2.72,1.47 -2.90,1.14 -3.00,0.78 -3.09,0.41 -3.10,0.04 -3.10,-0.33 -3.02,-0.70 -2.93,-1.06 -2.76,-1.40 -2.59,-1.73 -2.34,-2.02 -2.10,-2.31 -1.79,-2.52 -1.48,-2.74 -1.13,-2.88 -0.78,-3.02 -0.41,-3.07 -0.04,-3.12 0.33,-3.08 0.70,-3.04 1.06,-2.91 1.41,-2.78 1.72,-2.57 2.04,-2.36 2.29,-2.08 2.54,-1.80 2.54,-1.80 L 2.54,-1.80 Z"/></g><g transform="translate(178.92432774489498 91.86087479458365) rotate(0 7.356267208634563 17.235355591150437)" stroke="none"><path fill="#1e1e1e" d="M 19.11,2.66 Q 19.11,2.66 14.06,8.44 9.02,14.22 7.09,19.47 5.16,24.71 4.11,29.12 3.06,33.53 2.80,34.09 2.53,34.66 2.11,35.10 1.68,35.55 1.13,35.84 0.58,36.13 -0.02,36.22 -0.63,36.32 -1.24,36.22 -1.85,36.11 -2.40,35.82 -2.94,35.53 -3.37,35.08 -3.79,34.63 -4.05,34.06 -4.31,33.50 -4.37,32.89 -4.43,32.27 -4.30,31.67 -4.16,31.06 -3.84,30.53 -3.52,30.00 -3.05,29.60 -2.57,29.21 -2.00,28.98 -1.42,28.75 -0.80,28.72 -0.18,28.69 0.40,28.86 1.00,29.03 1.51,29.38 2.02,29.73 2.39,30.22 2.76,30.72 2.96,31.30 3.15,31.89 3.15,32.51 3.15,33.13 2.95,33.72 2.75,34.30 2.37,34.79 1.99,35.28 1.48,35.63 0.97,35.97 0.37,36.14 -0.22,36.30 -0.84,36.26 -1.45,36.23 -2.03,36.00 -2.60,35.76 -3.07,35.36 -3.54,34.96 -3.86,34.43 -4.18,33.89 -4.31,33.29 -4.44,32.68 -4.37,32.07 -4.30,31.45 -4.30,31.45 -4.30,31.45 -2.82,26.92 -1.35,22.38 0.88,15.97 3.13,9.56 7.89,3.44 12.66,-2.66 13.02,-3.00 13.39,-3.35 13.83,-3.60 14.26,-3.85 14.75,-3.99 15.23,-4.13 15.74,-4.14 16.24,-4.16 16.74,-4.06 17.23,-3.96 17.68,-3.74 18.14,-3.52 18.53,-3.20 18.92,-2.88 19.22,-2.47 19.52,-2.07 19.71,-1.60 19.91,-1.14 19.99,-0.64 20.06,-0.14 20.02,0.35 19.98,0.85 19.82,1.33 19.65,1.81 19.38,2.23 19.11,2.66 19.11,2.66 L 19.11,2.66 Z"/></g><g transform="translate(215.98980333863437 98.91969832399627) rotate(0 5.728795737075416 18.323560148515753)" stroke="none"><path fill="#1e1e1e" d="M 4.09,0 Q 4.09,0 3.89,5.70 3.70,11.41 3.47,15.80 3.25,20.19 6.17,23.59 9.09,26.98 11.33,30.17 13.57,33.35 13.79,33.88 14.02,34.41 14.06,34.98 14.11,35.56 13.97,36.11 13.83,36.67 13.52,37.15 13.21,37.63 12.76,37.99 12.31,38.35 11.77,38.55 11.23,38.74 10.66,38.76 10.08,38.77 9.53,38.60 8.99,38.43 8.52,38.09 8.06,37.76 7.72,37.29 7.39,36.82 7.22,36.27 7.06,35.72 7.07,35.15 7.09,34.58 7.29,34.04 7.49,33.50 7.85,33.05 8.21,32.61 8.70,32.30 9.18,31.99 9.74,31.85 10.30,31.72 10.87,31.77 11.44,31.82 11.97,32.04 12.49,32.27 12.92,32.66 13.35,33.04 13.63,33.54 13.91,34.04 14.01,34.61 14.12,35.17 14.04,35.74 13.96,36.31 13.70,36.82 13.45,37.34 13.04,37.74 12.63,38.15 12.12,38.40 11.60,38.65 11.03,38.73 10.46,38.80 9.90,38.69 9.34,38.58 8.84,38.30 8.34,38.01 7.96,37.58 7.58,37.16 7.58,37.16 7.58,37.16 5.83,34.05 4.07,30.95 0.41,26.03 -3.25,21.11 -3.47,16.26 -3.70,11.41 -3.89,5.70 -4.09,0 -4.03,-0.48 -3.97,-0.97 -3.79,-1.44 -3.62,-1.90 -3.34,-2.30 -3.06,-2.71 -2.69,-3.04 -2.32,-3.36 -1.88,-3.59 -1.45,-3.82 -0.97,-3.94 -0.49,-4.06 0.00,-4.06 0.49,-4.06 0.97,-3.94 1.45,-3.82 1.88,-3.59 2.32,-3.36 2.69,-3.03 3.06,-2.71 3.34,-2.30 3.62,-1.90 3.79,-1.43 3.97,-0.97 4.03,-0.48 4.09,0.00 4.09,0.00 L 4.09,0 Z"/></g><g transform="translate(169.61011104347017 156.84732255314339) rotate(19.930258872822556 32.1368433114867 7.079613347939812)" stroke="none"><path fill="#1e1e1e" d="M -1.85,10.61 Q -1.85,10.61 6.02,6.70 13.89,2.79 20.50,1.05 27.11,-0.67 31.90,-1.35 36.69,-2.03 42.70,-2.29 48.71,-2.54 52.18,-2.79 55.65,-3.04 59.15,-3.28 62.65,-3.53 63.22,-3.45 63.80,-3.37 64.31,-3.11 64.83,-2.85 65.24,-2.44 65.64,-2.03 65.90,-1.51 66.15,-0.99 66.23,-0.42 66.31,0.14 66.19,0.71 66.08,1.28 65.80,1.78 65.51,2.28 65.08,2.66 64.65,3.05 64.11,3.27 63.58,3.50 63.01,3.54 62.43,3.59 61.87,3.45 61.31,3.31 60.82,2.99 60.34,2.68 59.98,2.23 59.62,1.78 59.42,1.23 59.22,0.69 59.21,0.11 59.20,-0.46 59.37,-1.01 59.54,-1.56 59.88,-2.03 60.22,-2.50 60.69,-2.83 61.16,-3.17 61.71,-3.33 62.27,-3.50 62.85,-3.48 63.42,-3.46 63.96,-3.26 64.51,-3.06 64.95,-2.70 65.40,-2.33 65.71,-1.85 66.02,-1.36 66.16,-0.80 66.30,-0.23 66.25,0.33 66.20,0.91 65.97,1.44 65.74,1.97 65.35,2.40 64.96,2.82 64.46,3.11 63.95,3.39 63.38,3.49 62.82,3.60 62.82,3.60 62.82,3.60 59.36,3.52 55.90,3.43 52.47,3.45 49.03,3.47 43.36,3.83 37.68,4.20 33.29,5.00 28.90,5.79 23.06,7.51 17.22,9.23 9.53,13.46 1.85,17.69 1.40,17.86 0.95,18.03 0.47,18.09 -0.00,18.15 -0.48,18.09 -0.96,18.03 -1.41,17.86 -1.86,17.69 -2.25,17.41 -2.65,17.14 -2.97,16.78 -3.29,16.42 -3.51,15.99 -3.73,15.57 -3.85,15.10 -3.96,14.63 -3.96,14.15 -3.96,13.67 -3.84,13.20 -3.73,12.73 -3.50,12.31 -3.28,11.88 -2.96,11.52 -2.64,11.16 -2.24,10.89 -1.85,10.61 -1.85,10.61 L -1.85,10.61 Z"/></g></svg>