<svg version="1.1" xmlns="http://www.w3.org/2000/svg" viewBox="0 0 340 330" width="340" height="330" class="excalidraw-svg">
  <!-- svg-source:excalidraw -->
  
  <defs>
    <style class="style-fonts">
      
    </style>
    
  </defs>
  <g stroke-linecap="round" transform="translate(10 10) rotate(0 160 155)"><path d="M224.45 12.75 C239.37 16.28, 252.79 27.04, 264.5 36.98 C276.22 46.92, 286.25 59.28, 294.75 72.38 C303.25 85.49, 311.24 101.02, 315.49 115.6 C319.73 130.17, 320.92 144.89, 320.22 159.84 C319.53 174.79, 316.61 190.84, 311.3 205.29 C306 219.73, 297.63 234.24, 288.4 246.48 C279.17 258.72, 268.45 269.56, 255.94 278.71 C243.44 287.85, 228.31 296.1, 213.39 301.35 C198.47 306.59, 182.13 309.64, 166.42 310.17 C150.71 310.71, 134.35 308.66, 119.12 304.55 C103.88 300.45, 88.33 293.48, 75.01 285.53 C61.69 277.59, 49.45 268.31, 39.2 256.86 C28.94 245.4, 19.93 230.78, 13.48 216.82 C7.04 202.86, 2.25 188.16, 0.52 173.1 C-1.2 158.03, 0.12 141.39, 3.13 126.42 C6.15 111.46, 11.43 96.77, 18.62 83.31 C25.82 69.86, 35.4 56.65, 46.31 45.71 C57.22 34.77, 70.12 24.76, 84.09 17.66 C98.06 10.56, 114.54 5.93, 130.14 3.08 C145.74 0.23, 160.47 -1.97, 177.69 0.55 C194.91 3.06, 222.73 13.82, 233.48 18.15 C244.23 22.49, 243.36 24.24, 242.18 26.55 M169.88 0.95 C185.25 -0.69, 201.43 6.01, 216.2 11.01 C230.96 16.01, 246.09 21.97, 258.49 30.95 C270.88 39.94, 281.46 52.4, 290.54 64.93 C299.62 77.46, 308.06 91.74, 312.98 106.12 C317.89 120.49, 319.72 135.82, 320.02 151.18 C320.31 166.54, 319.3 183.37, 314.74 198.29 C310.18 213.22, 301.33 228.13, 292.66 240.72 C283.99 253.32, 274.56 264.36, 262.75 273.88 C250.94 283.41, 236.38 291.94, 221.8 297.86 C207.22 303.78, 191.16 307.83, 175.26 309.4 C159.36 310.97, 141.93 310.5, 126.4 307.3 C110.87 304.1, 95.67 297.78, 82.07 290.18 C68.47 282.58, 55.38 272.55, 44.79 261.7 C34.19 250.85, 25.83 238.35, 18.5 225.1 C11.16 211.85, 3.75 197.42, 0.78 182.2 C-2.18 166.99, -1.37 149.08, 0.71 133.8 C2.79 118.53, 6.65 104.14, 13.25 90.55 C19.86 76.96, 29.63 63.72, 40.34 52.26 C51.05 40.79, 63.7 29.58, 77.5 21.77 C91.29 13.95, 107.98 9.03, 123.1 5.35 C138.23 1.68, 160.72 -0.09, 168.23 -0.31 C175.75 -0.53, 168.16 1.16, 168.18 4.02" stroke="none" stroke-width="0" fill="#b2f2bb"/><path d="M231.82 16.86 C246.51 21.07, 259.63 31.02, 270.88 41.51 C282.13 52.01, 291.78 66.34, 299.34 79.83 C306.89 93.32, 312.87 107.58, 316.23 122.43 C319.58 137.28, 320.92 153.95, 319.45 168.94 C317.98 183.94, 313.4 198.45, 307.38 212.4 C301.36 226.34, 293.07 240.58, 283.34 252.62 C273.62 264.65, 262.13 276.05, 249.03 284.59 C235.92 293.12, 219.8 299.48, 204.72 303.83 C189.64 308.18, 174.24 310.74, 158.54 310.66 C142.85 310.59, 125.67 308.1, 110.54 303.38 C95.41 298.67, 80.46 291.09, 67.79 282.36 C55.12 273.63, 43.95 263.13, 34.51 251 C25.08 238.88, 16.82 224.08, 11.19 209.62 C5.56 195.15, 1.97 179.45, 0.75 164.22 C-0.47 148.98, 0.44 132.73, 3.88 118.21 C7.31 103.68, 13.41 90.1, 21.38 77.07 C29.35 64.05, 40.01 50.43, 51.7 40.05 C63.39 29.67, 77.23 21.28, 91.53 14.8 C105.82 8.33, 121.91 3.31, 137.48 1.2 C153.05 -0.92, 168.84 -0.44, 184.94 2.1 C201.03 4.63, 225.99 13.23, 234.04 16.41 C242.08 19.6, 234.44 18.92, 233.23 21.2 M220.79 11.08 C235.36 14.34, 250.11 26.69, 262.08 36.68 C274.06 46.67, 284.26 58.4, 292.63 71.02 C301.01 83.64, 307.82 98.09, 312.36 112.4 C316.89 126.72, 320.06 141.66, 319.83 156.91 C319.61 172.16, 315.76 189.2, 311 203.91 C306.25 218.61, 300.45 232.58, 291.29 245.13 C282.13 257.69, 268.85 269.95, 256.05 279.24 C243.24 288.52, 228.83 295.89, 214.46 300.84 C200.09 305.8, 185.19 308.28, 169.82 308.97 C154.46 309.65, 137.91 308.32, 122.26 304.94 C106.61 301.56, 89.35 296.28, 75.9 288.67 C62.44 281.06, 51.87 270.7, 41.53 259.3 C31.19 247.9, 20.58 234.52, 13.86 220.28 C7.13 206.04, 3.02 189.07, 1.17 173.84 C-0.68 158.6, -0.01 143.46, 2.77 128.88 C5.55 114.3, 10.97 99.98, 17.86 86.33 C24.75 72.69, 33.11 58.4, 44.11 46.99 C55.11 35.58, 69.9 25.35, 83.85 17.88 C97.79 10.4, 112.36 5.19, 127.78 2.13 C143.2 -0.94, 160.88 -2.05, 176.38 -0.5 C191.88 1.05, 213.65 8.89, 220.76 11.42 C227.87 13.95, 220.04 12.45, 219.06 14.68" stroke="#1e1e1e" stroke-width="4" fill="none"/></g><g stroke-linecap="round"><g transform="translate(172.8571428571413 173.57142857142935) rotate(0 -1.071428571429351 -78.92857142857156)"><path d="M1.1 -0.23 C0.66 -26.16, -2.96 -130.66, -3.34 -156.76 M0.22 -1.4 C0.19 -27.54, -0.99 -132.1, -1.26 -158.31" stroke="#1e1e1e" stroke-width="4" fill="none"/></g></g><mask/><g stroke-linecap="round"><g transform="translate(170.17982017981922 173.43689643689686) rotate(0 74.37912404234794 -30.18387772271808)"><path d="M-1.2 1.09 C23.57 -8.76, 124.93 -49.1, 149.73 -59.35 M0.37 0.62 C24.97 -9.53, 124.37 -50.99, 149.29 -60.95" stroke="#1e1e1e" stroke-width="4" fill="none"/></g></g><mask/></svg>